<svg width="24" height="24" viewBox="0 0 24 24" fill="none" xmlns="http://www.w3.org/2000/svg">
<path d="M0 8.60953V20.4714C0 20.5267 0.0447713 20.5714 0.0999998 20.5714H5.14232H7.71348H8.47143C8.52666 20.5714 8.57143 20.5267 8.57143 20.4714V18.9573C8.57143 18.9021 8.52666 18.8573 8.47143 18.8573H8.14201H5.99937H1.81411C1.75888 18.8573 1.71411 18.8125 1.71411 18.7573V8.60953C1.71411 8.3447 1.83409 8.09787 2.04322 7.93417L9.7567 1.89795C10.0678 1.6554 10.5015 1.6554 10.8126 1.89795L18.5261 7.93503C18.7352 8.09787 18.8552 8.34385 18.8552 8.60953V9.73404C18.8552 9.81719 18.9508 9.86402 19.0165 9.81306L20.5297 8.63956C20.5541 8.62062 20.5685 8.5914 20.568 8.5605C20.5535 7.78388 20.1956 7.06532 19.582 6.58517L11.8685 0.548943C10.936 -0.182981 9.63242 -0.182981 8.69995 0.548943L0.986469 6.58431C0.359962 7.07541 0 7.81333 0 8.60953Z" fill="#383D54"/>
<path d="M14.0044 19.4281C14.1739 19.4281 14.3397 19.4783 14.4806 19.5725C14.6216 19.6667 14.7314 19.8006 14.7963 19.9572C14.8612 20.1138 14.8782 20.2862 14.8451 20.4524C14.812 20.6187 14.7304 20.7714 14.6105 20.8913C14.4906 21.0112 14.3379 21.0928 14.1716 21.1259C14.0054 21.1589 13.833 21.142 13.6764 21.0771C13.5198 21.0122 13.3859 20.9024 13.2917 20.7614C13.1976 20.6204 13.1473 20.4547 13.1473 20.2852C13.1473 20.0579 13.2376 19.8399 13.3983 19.6791C13.5591 19.5184 13.7771 19.4281 14.0044 19.4281ZM15.7187 23.92C16.5114 23.7722 17.2504 23.4157 17.8595 22.8873C18.4687 22.3589 18.926 21.6777 19.1843 20.9138C19.4288 20.2074 19.4917 19.4508 19.3672 18.7138L19.7563 18.3201C19.916 18.1588 20.0052 17.9408 20.0043 17.7138V16.571H20.29C20.4776 16.571 20.6634 16.534 20.8367 16.4622C21.01 16.3904 21.1675 16.2852 21.3002 16.1526C21.4328 16.0199 21.5381 15.8624 21.6098 15.6891C21.6816 15.5158 21.7186 15.33 21.7186 15.1424V14.8567H22.4334C22.714 14.8566 22.9884 14.7743 23.2227 14.6199C23.457 14.4656 23.6409 14.2459 23.7517 13.9882C23.9575 13.5146 24.0393 12.9964 23.9894 12.4825C23.9225 11.8732 23.6311 11.3108 23.1721 10.9046C22.7132 10.4985 22.1194 10.2777 21.5066 10.2853C21.0935 10.2843 20.6843 10.3651 20.3026 10.5232C19.921 10.6813 19.5745 10.9136 19.2832 11.2065L15.569 14.9207C14.8335 14.7977 14.0789 14.8618 13.3747 15.107C12.3519 15.4601 11.4875 16.1646 10.9353 17.0952C10.383 18.0257 10.1788 19.122 10.3589 20.189C10.5391 21.256 11.0918 22.2245 11.9189 22.9222C12.746 23.6199 13.7938 24.0016 14.8758 23.9994C15.1586 23.9987 15.4407 23.9721 15.7187 23.92ZM15.613 16.6853C15.7593 16.7259 15.9138 16.727 16.0607 16.6884C16.2076 16.6497 16.3416 16.5727 16.449 16.4653L20.4952 12.4196C20.6276 12.2862 20.7852 12.1804 20.9588 12.1083C21.1324 12.0362 21.3186 11.9992 21.5066 11.9996C21.694 11.9952 21.8765 12.0595 22.0197 12.1805C22.1629 12.3014 22.2568 12.4707 22.2837 12.6562C22.3004 12.8197 22.2849 12.9849 22.238 13.1424H21.4329C21.054 13.1424 20.6906 13.293 20.4227 13.5609C20.1548 13.8288 20.0043 14.1921 20.0043 14.571V14.8567H19.7186C19.3397 14.8567 18.9764 15.0072 18.7085 15.2751C18.4406 15.543 18.2901 15.9064 18.2901 16.2853V17.3618L17.8204 17.8367C17.714 17.9442 17.638 18.078 17.6001 18.2244C17.5621 18.3708 17.5636 18.5247 17.6044 18.6704C17.7636 19.2243 17.7488 19.8137 17.5621 20.3589C17.4045 20.8172 17.133 21.2278 16.773 21.5522C16.4131 21.8767 15.9765 22.1042 15.5044 22.2135C15.0323 22.3227 14.5402 22.3101 14.0743 22.1768C13.6084 22.0435 13.1841 21.7939 12.8412 21.4515C12.4984 21.1091 12.2482 20.685 12.1143 20.2193C11.9805 19.7536 11.9672 19.2615 12.0759 18.7892C12.1846 18.317 12.4115 17.8802 12.7355 17.5198C13.0595 17.1594 13.4698 16.8874 13.9278 16.7293C14.2205 16.6283 14.5279 16.5765 14.8375 16.5761C15.0998 16.5771 15.3606 16.6138 15.613 16.6853Z" fill="#383D54"/>
</svg>
