<svg width="24" height="24" viewBox="0 0 24 24" fill="none" xmlns="http://www.w3.org/2000/svg">
<g clip-path="url(#clip0_539_2612)">
<path d="M7.70726 9.25599C8.09826 9.647 8.09826 10.28 7.70726 10.67C7.31626 11.061 6.68326 11.061 6.29326 10.67C5.90226 10.279 5.90226 9.646 6.29326 9.25599C6.68426 8.865 7.31726 8.865 7.70726 9.25599ZM21.5593 15.341L20.9943 15.906C20.9673 17.139 20.4893 18.363 19.5593 19.305L16.3923 22.513C15.4493 23.468 14.1913 23.996 12.8493 24H12.8323C11.4973 24 10.2423 23.48 9.29826 22.536L1.88226 15.183C1.23226 14.534 0.918256 13.641 1.01826 12.73L1.78326 5.814C1.83426 5.358 2.18726 4.995 2.64126 4.933L9.53026 3.991C10.4623 3.867 11.4003 4.184 12.0583 4.842L19.5333 12.254C19.9203 12.641 20.2303 13.077 20.4643 13.542C21.2763 12.376 21.1623 10.747 20.1223 9.707L12.5313 2.302C12.3023 2.073 11.9863 1.967 11.6803 2.01L4.79126 2.952C4.24226 3.026 3.73926 2.643 3.66426 2.097C3.59026 1.55 3.97326 1.046 4.51926 0.970996L11.4093 0.0279961C12.3303 -0.103004 13.2783 0.218996 13.9373 0.879996L21.5263 8.285C23.4723 10.23 23.4833 13.392 21.5583 15.342L21.5593 15.341ZM18.1213 13.671L10.6463 6.259C10.4233 6.036 10.1103 5.933 9.79926 5.972L3.68426 6.809L3.00526 12.949C2.97226 13.252 3.07626 13.55 3.29226 13.765L10.7083 21.118C11.2773 21.688 12.0303 21.999 12.8313 21.999H12.8413C13.6473 21.997 14.4023 21.68 14.9673 21.106L18.1343 17.898C19.2893 16.728 19.2833 14.831 18.1203 13.669L18.1213 13.671Z" fill="#383D54"/>
</g>
<defs>
<clipPath id="clip0_539_2612">
<rect width="24" height="24" fill="white"/>
</clipPath>
</defs>
</svg>
