<svg width="24" height="24" viewBox="0 0 24 24" fill="none" xmlns="http://www.w3.org/2000/svg">
<g clip-path="url(#clip0_1206_71177)">
<path d="M7.50498 24C5.69473 23.9989 3.94598 23.343 2.58143 22.1535C1.21688 20.9639 0.328614 19.321 0.0805405 17.5278C-0.167533 15.7346 0.241329 13.9122 1.23168 12.3969C2.22203 10.8816 3.72703 9.7756 5.46898 9.28302C6.7351 8.92045 8.07527 8.90387 9.34998 9.23502L17.258 1.32902C17.6778 0.906302 18.1774 0.571153 18.7277 0.343015C19.2781 0.114877 19.8682 -0.0017098 20.464 1.89472e-05C21.4015 0.000813379 22.3005 0.37361 22.9634 1.03657C23.6264 1.69952 23.9992 2.59846 24 3.53602C24.0015 4.13181 23.885 4.722 23.657 5.27246C23.4291 5.82292 23.0943 6.32274 22.672 6.74302L22 7.41502C21.624 7.78846 21.1159 7.99865 20.586 8.00002H19V9.00002C19 9.53045 18.7893 10.0392 18.4142 10.4142C18.0391 10.7893 17.5304 11 17 11H16V12.586C16.0007 12.8488 15.9493 13.109 15.8487 13.3517C15.7481 13.5945 15.6003 13.8148 15.414 14L14.764 14.65C15.0969 15.9241 15.0807 17.2644 14.717 18.53C14.3077 19.972 13.4773 21.259 12.3321 22.2262C11.1869 23.1934 9.77913 23.7968 8.28898 23.959C8.02852 23.9861 7.76684 23.9998 7.50498 24ZM7.50498 11C6.48113 10.999 5.47732 11.2838 4.60656 11.8224C3.73581 12.361 3.03266 13.1319 2.57628 14.0484C2.1199 14.9649 1.92841 15.9906 2.02335 17.0101C2.1183 18.0295 2.49591 19.0022 3.1137 19.8187C3.73148 20.6351 4.5649 21.2629 5.52013 21.6314C6.47537 21.9999 7.51451 22.0945 8.52057 21.9044C9.52662 21.7144 10.4597 21.2473 11.2147 20.5557C11.9696 19.8642 12.5166 18.9756 12.794 17.99C13.106 16.9066 13.071 15.7526 12.694 14.69C12.6324 14.5126 12.6221 14.3214 12.6642 14.1383C12.7063 13.9553 12.7991 13.7878 12.932 13.655L14 12.586V11C14 10.4696 14.2107 9.96088 14.5858 9.58581C14.9608 9.21073 15.4695 9.00002 16 9.00002H17V8.00002C17 7.46959 17.2107 6.96088 17.5858 6.58581C17.9608 6.21073 18.4695 6.00002 19 6.00002H20.586L21.258 5.32802C21.4939 5.09317 21.681 4.81388 21.8084 4.5063C21.9357 4.19871 22.0008 3.86893 22 3.53602C21.9997 3.1289 21.8379 2.73852 21.5502 2.45055C21.2624 2.16258 20.8721 2.00055 20.465 2.00002C20.1318 1.9992 19.8018 2.06445 19.4941 2.19198C19.1863 2.31951 18.9069 2.5068 18.672 2.74302L10.341 11.073C10.208 11.2059 10.0403 11.2986 9.85707 11.3405C9.67383 11.3825 9.48248 11.3719 9.30498 11.31C8.72505 11.1058 8.1148 11.001 7.49998 11H7.50498ZM4.99998 18C4.99998 18.1978 5.05863 18.3911 5.16851 18.5556C5.27839 18.72 5.43457 18.8482 5.61729 18.9239C5.80002 18.9996 6.00109 19.0194 6.19507 18.9808C6.38905 18.9422 6.56723 18.847 6.70708 18.7071C6.84694 18.5673 6.94218 18.3891 6.98076 18.1951C7.01935 18.0011 6.99954 17.8001 6.92386 17.6173C6.84817 17.4346 6.72 17.2784 6.55555 17.1685C6.3911 17.0587 6.19776 17 5.99998 17C5.73476 17 5.48041 17.1054 5.29287 17.2929C5.10533 17.4804 4.99998 17.7348 4.99998 18Z" fill="#383D54"/>
</g>
<defs>
<clipPath id="clip0_1206_71177">
<rect width="24" height="24" fill="white"/>
</clipPath>
</defs>
</svg>
