<svg width="24" height="24" viewBox="0 0 24 24" fill="none" xmlns="http://www.w3.org/2000/svg">
<path d="M12.0002 12.0004C12.9495 12.0004 13.8776 11.7189 14.6669 11.1914C15.4563 10.664 16.0715 9.91436 16.4348 9.03727C16.7981 8.16019 16.8932 7.19507 16.708 6.26396C16.5228 5.33285 16.0656 4.47757 15.3943 3.80628C14.723 3.13499 13.8677 2.67783 12.9366 2.49262C12.0055 2.30741 11.0404 2.40247 10.1633 2.76577C9.28623 3.12907 8.53657 3.7443 8.00914 4.53366C7.48171 5.32301 7.2002 6.25104 7.2002 7.20039C7.20147 8.47304 7.70759 9.6932 8.60749 10.5931C9.50739 11.493 10.7275 11.9991 12.0002 12.0004ZM12.0002 4.00039C12.6331 4.00039 13.2518 4.18807 13.778 4.53969C14.3043 4.89131 14.7144 5.39108 14.9566 5.97581C15.1988 6.56053 15.2622 7.20394 15.1387 7.82468C15.0152 8.44542 14.7105 9.01561 14.2629 9.46313C13.8154 9.91066 13.2452 10.2154 12.6245 10.3389C12.0037 10.4624 11.3603 10.399 10.7756 10.1568C10.1909 9.91461 9.69111 9.50445 9.33949 8.97822C8.98787 8.45198 8.8002 7.83329 8.8002 7.20039C8.8002 6.3517 9.13734 5.53777 9.73745 4.93765C10.3376 4.33753 11.1515 4.00039 12.0002 4.00039Z" fill="#383D54"/>
<path d="M11.9998 13.6006C10.0909 13.6027 8.26078 14.362 6.91097 15.7118C5.56117 17.0616 4.80192 18.8917 4.7998 20.8006C4.7998 21.0128 4.88409 21.2162 5.03412 21.3663C5.18415 21.5163 5.38763 21.6006 5.5998 21.6006C5.81198 21.6006 6.01546 21.5163 6.16549 21.3663C6.31552 21.2162 6.3998 21.0128 6.3998 20.8006C6.3998 19.3154 6.9898 17.891 8.04001 16.8408C9.09021 15.7906 10.5146 15.2006 11.9998 15.2006C13.485 15.2006 14.9094 15.7906 15.9596 16.8408C17.0098 17.891 17.5998 19.3154 17.5998 20.8006C17.5998 21.0128 17.6841 21.2162 17.8341 21.3663C17.9841 21.5163 18.1876 21.6006 18.3998 21.6006C18.612 21.6006 18.8155 21.5163 18.9655 21.3663C19.1155 21.2162 19.1998 21.0128 19.1998 20.8006C19.1977 18.8917 18.4384 17.0616 17.0886 15.7118C15.7388 14.362 13.9087 13.6027 11.9998 13.6006Z" fill="#383D54"/>
</svg>
