<svg width="24" height="24" viewBox="0 0 24 24" fill="none" xmlns="http://www.w3.org/2000/svg">
<g clip-path="url(#clip0_315_8821)">
<path fill-rule="evenodd" clip-rule="evenodd" d="M22.0002 13.83H20.5716V13.7157C20.5716 12.8064 20.2104 11.9343 19.5674 11.2913C18.9244 10.6483 18.0523 10.2871 17.143 10.2871C16.2337 10.2871 15.3616 10.6483 14.7187 11.2913C14.0757 11.9343 13.7145 12.8064 13.7145 13.7157V13.83H12.2859C11.7574 13.8363 11.2524 14.0491 10.8787 14.4228C10.505 14.7965 10.2923 15.3015 10.2859 15.83V20.8585C10.2932 21.6898 10.6267 22.485 11.2145 23.0728C11.8023 23.6606 12.5975 23.9941 13.4287 24.0014H20.8573C21.6886 23.9941 22.4838 23.6606 23.0716 23.0728C23.6594 22.485 23.9929 21.6898 24.0002 20.8585V15.83C23.9938 15.3015 23.781 14.7965 23.4073 14.4228C23.0336 14.0491 22.5286 13.8363 22.0002 13.83ZM17.143 12.002C18.5144 12.002 18.8573 13.1448 18.8573 13.7162H15.4287C15.4287 13.1448 15.7716 12.002 17.143 12.002Z" fill="#3670F0"/>
<path d="M0 8.60953V20.4714C0 20.5267 0.0447713 20.5714 0.0999998 20.5714H5.14232H7.71348H8.47143C8.52666 20.5714 8.57143 20.5267 8.57143 20.4714V16.2857C8.57143 15.0101 8.57143 12.0469 11.9201 12.0005C11.966 11.9999 12.0076 11.9689 12.0197 11.9246C12.4791 10.2369 14.1868 8.60953 17.1429 8.60953C17.9225 8.59795 19.556 8.78956 20.3598 9.60299C20.4293 9.6733 20.5684 9.62668 20.5684 9.52782V8.60953C20.5684 7.81419 20.2085 7.07541 19.582 6.58517L11.8685 0.548943C10.936 -0.182981 9.63242 -0.182981 8.69995 0.548943L0.986469 6.58431C0.359962 7.07541 0 7.81333 0 8.60953Z" fill="#3670F0"/>
</g>
<defs>
<clipPath id="clip0_315_8821">
<rect width="24" height="24" fill="white"/>
</clipPath>
</defs>
</svg>
