<svg width="24" height="24" viewBox="0 0 24 24" fill="none" xmlns="http://www.w3.org/2000/svg">
<g clip-path="url(#clip0_1206_71173)">
<path d="M21.5262 8.28412L13.9372 0.879115C13.2782 0.219115 12.3302 -0.103885 11.4092 0.028115L4.52121 0.970115C3.97421 1.04512 3.59121 1.54911 3.66621 2.09611C3.74121 2.64311 4.24421 3.02512 4.79321 2.95111L11.6822 2.00911C11.9882 1.96711 12.3042 2.07211 12.5332 2.30112L20.1232 9.70612C21.1682 10.7511 21.2702 12.3861 20.4462 13.5531C20.2122 13.0861 19.9232 12.6411 19.5352 12.2531L12.0602 4.84111C11.4022 4.18312 10.4632 3.86611 9.53221 3.99011L2.64321 4.93212C2.18921 4.99411 1.83521 5.35712 1.78521 5.81312L1.02021 12.7291C0.920209 13.6401 1.23421 14.5331 1.88421 15.1821L9.30021 22.5351C10.2442 23.4801 11.4992 23.9991 12.8342 23.9991H12.8512C14.1932 23.9951 15.4512 23.4671 16.3942 22.5121L19.5612 19.3041C20.4882 18.3651 20.9542 17.1451 20.9842 15.9161L21.5612 15.3401C23.4862 13.3901 23.4752 10.2281 21.5292 8.28312L21.5262 8.28412ZM6.00021 10.0001C5.44821 10.0001 5.00021 9.55212 5.00021 9.00012C5.00621 7.69212 6.99421 7.69312 7.00021 9.00012C7.00021 9.55212 6.55221 10.0001 6.00021 10.0001Z" fill="#3670F0"/>
</g>
<defs>
<clipPath id="clip0_1206_71173">
<rect width="24" height="24" fill="white"/>
</clipPath>
</defs>
</svg>
