<svg width="24" height="24" viewBox="0 0 24 24" fill="none" xmlns="http://www.w3.org/2000/svg">
<g clip-path="url(#clip0_1366_113643)">
<path d="M0 8.60955V20.4715C0 20.5267 0.0447715 20.5715 0.1 20.5715H5.14233H7.71349H8.47144C8.52667 20.5715 8.57144 20.5267 8.57144 20.4715V18.9574C8.57144 18.9021 8.52667 18.8574 8.47144 18.8574H8.14202H5.99938H1.81411C1.75888 18.8574 1.71411 18.8126 1.71411 18.7574V8.60955C1.71411 8.34472 1.8341 8.09788 2.04322 7.93419L9.75671 1.89795C10.0678 1.6554 10.5015 1.6554 10.8126 1.89795L18.5261 7.93504C18.7218 8.08744 18.8395 8.31265 18.8537 8.55869C18.8556 8.5906 18.8705 8.62068 18.8963 8.6395L20.4096 9.74147C20.4757 9.7896 20.5685 9.74239 20.5685 9.66063V8.60955C20.5685 7.8142 20.2085 7.07542 19.582 6.58518L11.8685 0.548944C10.936 -0.182981 9.63244 -0.182981 8.69996 0.548944L0.98647 6.58432C0.359963 7.07542 0 7.81334 0 8.60955Z" fill="#383D54"/>
<path d="M21.9999 13.828H20.5714V13.7137C20.5714 12.8044 20.2102 11.9323 19.5672 11.2894C18.9242 10.6464 18.0521 10.2852 17.1428 10.2852C16.2335 10.2852 15.3614 10.6464 14.7184 11.2894C14.0754 11.9323 13.7142 12.8044 13.7142 13.7137V13.828H12.2856C11.7572 13.8344 11.2522 14.0471 10.8785 14.4208C10.5048 14.7945 10.292 15.2996 10.2856 15.828V20.8566C10.293 21.6879 10.6264 22.483 11.2142 23.0708C11.8021 23.6587 12.5972 23.9921 13.4285 23.9994H20.8571C21.6884 23.9921 22.4835 23.6587 23.0714 23.0708C23.6592 22.483 23.9926 21.6879 24 20.8566V15.828C23.9936 15.2996 23.7808 14.7945 23.4071 14.4208C23.0334 14.0471 22.5284 13.8344 21.9999 13.828ZM15.4285 13.7137C15.4285 13.2591 15.6091 12.823 15.9306 12.5015C16.2521 12.1801 16.6881 11.9994 17.1428 11.9994C17.5975 11.9994 18.0335 12.1801 18.355 12.5015C18.6765 12.823 18.8571 13.2591 18.8571 13.7137V13.828H15.4285V13.7137ZM22.2857 20.8566C22.2875 21.0447 22.2518 21.2313 22.1807 21.4054C22.1095 21.5796 22.0043 21.7378 21.8713 21.8708C21.7383 22.0038 21.5801 22.109 21.4059 22.1801C21.2318 22.2513 21.0452 22.287 20.8571 22.2852H13.4285C13.2404 22.287 13.0538 22.2513 12.8797 22.1801C12.7055 22.109 12.5473 22.0038 12.4143 21.8708C12.2812 21.7378 12.1761 21.5796 12.1049 21.4054C12.0338 21.2313 11.9981 21.0447 11.9999 20.8566V15.828C11.9976 15.7899 12.0034 15.7517 12.0169 15.716C12.0304 15.6803 12.0514 15.6478 12.0784 15.6208C12.1054 15.5938 12.1379 15.5728 12.1736 15.5593C12.2093 15.5458 12.2475 15.54 12.2856 15.5423H13.7142V16.2852C13.7142 16.5125 13.8045 16.7305 13.9653 16.8913C14.126 17.052 14.344 17.1423 14.5714 17.1423C14.7987 17.1423 15.0167 17.052 15.1775 16.8913C15.3382 16.7305 15.4285 16.5125 15.4285 16.2852V15.5423H18.8571V16.2852C18.8571 16.5125 18.9474 16.7305 19.1081 16.8913C19.2689 17.052 19.4869 17.1423 19.7142 17.1423C19.9416 17.1423 20.1596 17.052 20.3203 16.8913C20.4811 16.7305 20.5714 16.5125 20.5714 16.2852V15.5423H21.9999C22.0381 15.54 22.0763 15.5458 22.112 15.5593C22.1477 15.5728 22.1802 15.5938 22.2072 15.6208C22.2342 15.6478 22.2552 15.6803 22.2687 15.716C22.2822 15.7517 22.288 15.7899 22.2857 15.828V20.8566Z" fill="#383D54"/>
</g>
<defs>
<clipPath id="clip0_1366_113643">
<rect width="24" height="24" fill="white"/>
</clipPath>
</defs>
</svg>
