<svg width="24" height="24" viewBox="0 0 24 24" fill="none" xmlns="http://www.w3.org/2000/svg">
<path d="M11.2004 2.40039H4.80039C4.16387 2.40039 3.55342 2.65325 3.10333 3.10333C2.65325 3.55342 2.40039 4.16387 2.40039 4.80039L2.40039 21.6004H13.6004V4.80039C13.6004 4.16387 13.3475 3.55342 12.8974 3.10333C12.4474 2.65325 11.8369 2.40039 11.2004 2.40039ZM7.20039 17.6004H4.80039V16.0004H7.20039V17.6004ZM7.20039 14.4004H4.80039V12.8004H7.20039V14.4004ZM7.20039 11.2004H4.80039V9.60039H7.20039V11.2004ZM7.20039 8.00039H4.80039V6.40039H7.20039V8.00039ZM11.2004 17.6004H8.80039V16.0004H11.2004V17.6004ZM11.2004 14.4004H8.80039V12.8004H11.2004V14.4004ZM11.2004 11.2004H8.80039V9.60039H11.2004V11.2004ZM11.2004 8.00039H8.80039V6.40039H11.2004V8.00039ZM19.2004 6.40039H15.2004V21.6004H21.6004V8.80039C21.6004 8.16387 21.3475 7.55342 20.8974 7.10333C20.4474 6.65325 19.8369 6.40039 19.2004 6.40039ZM19.2004 17.6004H17.6004V16.0004H19.2004V17.6004ZM19.2004 14.4004H17.6004V12.8004H19.2004V14.4004ZM19.2004 11.2004H17.6004V9.60039H19.2004V11.2004Z" fill="#383D54"/>
</svg>
