<svg width="24" height="24" viewBox="0 0 24 24" fill="none" xmlns="http://www.w3.org/2000/svg">
<g clip-path="url(#clip0_1206_71193)">
<path d="M14 7V0.46C14.913 0.806 15.753 1.339 16.465 2.05L19.949 5.536C20.661 6.247 21.194 7.087 21.54 8H15C14.448 8 14 7.551 14 7ZM15.5 15H8.5C8.224 15 8 15.224 8 15.5V17.5C8 17.776 8.224 18 8.5 18H15.5C15.776 18 16 17.776 16 17.5V15.5C16 15.224 15.776 15 15.5 15ZM22 10.485V19C22 21.757 19.757 24 17 24H7C4.243 24 2 21.757 2 19V5C2 2.243 4.243 0 7 0H11.515C11.678 0 11.839 0.013 12 0.024V7C12 8.654 13.346 10 15 10H21.976C21.987 10.161 22 10.322 22 10.485ZM6 6C6 6.552 6.448 7 7 7H9C9.552 7 10 6.552 10 6C10 5.448 9.552 5 9 5H7C6.448 5 6 5.448 6 6ZM6 10C6 10.552 6.448 11 7 11H9C9.552 11 10 10.552 10 10C10 9.448 9.552 9 9 9H7C6.448 9 6 9.448 6 10ZM18 15.5C18 14.122 16.878 13 15.5 13H8.5C7.122 13 6 14.122 6 15.5V17.5C6 18.878 7.122 20 8.5 20H15.5C16.878 20 18 18.878 18 17.5V15.5Z" fill="#3670F0"/>
</g>
<defs>
<clipPath id="clip0_1206_71193">
<rect width="24" height="24" fill="white"/>
</clipPath>
</defs>
</svg>
