<svg width="24" height="24" viewBox="0 0 24 24" fill="none" xmlns="http://www.w3.org/2000/svg">
<g clip-path="url(#clip0_539_75)">
<path d="M19.95 5.53599L16.465 2.05099C15.143 0.728992 13.385 0.000992156 11.515 0.000992156H7C4.243 -7.84465e-06 2 2.24299 2 4.99999V19C2 21.757 4.243 24 7 24H17C19.757 24 22 21.757 22 19V10.485C22 8.61499 21.272 6.85899 19.95 5.53599ZM18.536 6.94999C18.854 7.26799 19.123 7.62099 19.341 7.99999H15C14.449 7.99999 14 7.55099 14 6.99999V2.65899C14.379 2.87699 14.733 3.14599 15.05 3.46399L18.535 6.94899L18.536 6.94999ZM20 19C20 20.654 18.654 22 17 22H7C5.346 22 4 20.654 4 19V4.99999C4 3.34599 5.346 1.99999 7 1.99999H11.515C11.678 1.99999 11.84 2.00799 12 2.02299V6.99999C12 8.65399 13.346 9.99999 15 9.99999H19.977C19.992 10.16 20 10.322 20 10.485V19ZM15.5 13H8.5C7.122 13 6 14.122 6 15.5V17.5C6 18.878 7.122 20 8.5 20H15.5C16.878 20 18 18.878 18 17.5V15.5C18 14.122 16.878 13 15.5 13ZM16 17.5C16 17.776 15.776 18 15.5 18H8.5C8.224 18 8 17.776 8 17.5V15.5C8 15.224 8.224 15 8.5 15H15.5C15.776 15 16 15.224 16 15.5V17.5ZM6 9.99999C6 9.44799 6.448 8.99999 7 8.99999H9C9.552 8.99999 10 9.44799 10 9.99999C10 10.552 9.552 11 9 11H7C6.448 11 6 10.552 6 9.99999ZM6 5.99999C6 5.44799 6.448 4.99999 7 4.99999H9C9.552 4.99999 10 5.44799 10 5.99999C10 6.55199 9.552 6.99999 9 6.99999H7C6.448 6.99999 6 6.55199 6 5.99999Z" fill="#383D54"/>
</g>
<defs>
<clipPath id="clip0_539_75">
<rect width="24" height="24" fill="white"/>
</clipPath>
</defs>
</svg>
