<svg width="24" height="24" viewBox="0 0 24 24" fill="none" xmlns="http://www.w3.org/2000/svg">
<path d="M5.60039 12.8004H8.00039V14.4004H5.60039V12.8004ZM9.60039 14.4004H12.0004V12.8004H9.60039V14.4004ZM5.60039 17.6004H8.00039V16.0004H5.60039V17.6004ZM9.60039 17.6004H12.0004V16.0004H9.60039V17.6004ZM5.60039 8.00039H8.00039V6.40039H5.60039V8.00039ZM9.60039 8.00039H12.0004V6.40039H9.60039V8.00039ZM5.60039 11.2004H8.00039V9.60039H5.60039V11.2004ZM9.60039 11.2004H12.0004V9.60039H9.60039V11.2004ZM21.6004 8.80039V21.6004H2.40039V4.80039C2.40039 4.16387 2.65325 3.55342 3.10333 3.10333C3.55342 2.65325 4.16387 2.40039 4.80039 2.40039H12.8004C13.4369 2.40039 14.0474 2.65325 14.4974 3.10333C14.9475 3.55342 15.2004 4.16387 15.2004 4.80039V6.40039H19.2004C19.8369 6.40039 20.4474 6.65325 20.8974 7.10333C21.3475 7.55342 21.6004 8.16387 21.6004 8.80039ZM13.6004 4.80039C13.6004 4.58822 13.5161 4.38473 13.3661 4.23471C13.216 4.08468 13.0126 4.00039 12.8004 4.00039H4.80039C4.58822 4.00039 4.38473 4.08468 4.23471 4.23471C4.08468 4.38473 4.00039 4.58822 4.00039 4.80039V20.0004H13.6004V4.80039ZM20.0004 8.80039C20.0004 8.58822 19.9161 8.38473 19.7661 8.23471C19.616 8.08468 19.4126 8.00039 19.2004 8.00039H15.2004V20.0004H20.0004V8.80039ZM16.8004 14.4004H18.4004V12.8004H16.8004V14.4004ZM16.8004 17.6004H18.4004V16.0004H16.8004V17.6004ZM16.8004 11.2004H18.4004V9.60039H16.8004V11.2004Z" fill="#383D54"/>
</svg>
