<svg width="24" height="24" viewBox="0 0 24 24" fill="none" xmlns="http://www.w3.org/2000/svg">
<g clip-path="url(#clip0_1366_113630)">
<path d="M0 8.60953V20.4714C0 20.5267 0.0447713 20.5714 0.0999998 20.5714H5.14232H7.71348H8.99599C9.05504 20.5714 9.10096 20.518 9.09578 20.4591C8.56458 14.4287 13.025 13.4433 15.3814 13.7088C15.4118 13.7122 15.4412 13.7017 15.463 13.6801L20.5389 8.63886C20.5578 8.62009 20.5685 8.59451 20.5681 8.56787C20.5558 7.78843 20.1975 7.06684 19.582 6.58517L11.8685 0.548943C10.936 -0.182981 9.63242 -0.182981 8.69995 0.548943L0.986469 6.58431C0.359962 7.07541 0 7.81333 0 8.60953Z" fill="#3670F0"/>
<path d="M19.427 17.5424V15.9995C19.427 15.848 19.4872 15.7027 19.5944 15.5955C19.7015 15.4883 19.8469 15.4281 19.9984 15.4281H20.5698C20.7214 15.4281 20.8667 15.3679 20.9739 15.2608C21.0811 15.1536 21.1413 15.0083 21.1413 14.8567V14.2853C21.1413 14.1337 21.2015 13.9884 21.3086 13.8812C21.4158 13.7741 21.5611 13.7139 21.7127 13.7139H23.247C23.3584 13.7133 23.4674 13.6807 23.5608 13.6199C23.6542 13.5591 23.7282 13.4727 23.7738 13.371C23.9668 12.946 24.041 12.4766 23.9887 12.0127C23.9234 11.5298 23.6835 11.0874 23.3145 10.7692C22.9454 10.451 22.4726 10.2788 21.9853 10.2853C21.2977 10.2854 20.6383 10.5585 20.1521 11.0448L15.6333 15.5624C14.9049 15.3732 14.1391 15.3827 13.4157 15.5898C12.4203 15.8713 11.5603 16.5033 10.9944 17.3692C10.4285 18.2351 10.1948 19.2764 10.3366 20.3011C10.4783 21.3257 10.9859 22.2645 11.7656 22.9443C12.5454 23.624 13.5447 23.9988 14.5791 23.9994C14.7287 23.9993 14.8782 23.9915 15.0271 23.976C15.8786 23.8833 16.683 23.5385 17.3374 22.9859C17.9918 22.4332 18.4663 21.6978 18.7002 20.8738C18.908 20.1505 18.9173 19.3847 18.727 18.6567L19.0984 18.2852C19.2959 18.0867 19.413 17.8221 19.427 17.5424ZM13.4334 21.7138C13.2638 21.7138 13.0981 21.6635 12.9572 21.5693C12.8162 21.4751 12.7064 21.3413 12.6415 21.1846C12.5766 21.028 12.5596 20.8557 12.5927 20.6894C12.6258 20.5231 12.7074 20.3704 12.8273 20.2505C12.9472 20.1307 13.0999 20.049 13.2661 20.016C13.4324 19.9829 13.6048 19.9999 13.7614 20.0647C13.918 20.1296 14.0519 20.2395 14.146 20.3804C14.2402 20.5214 14.2905 20.6871 14.2905 20.8566C14.2905 21.084 14.2002 21.302 14.0395 21.4627C13.8787 21.6235 13.6607 21.7138 13.4334 21.7138Z" fill="#3670F0"/>
</g>
<defs>
<clipPath id="clip0_1366_113630">
<rect width="24" height="24" fill="white"/>
</clipPath>
</defs>
</svg>
