<svg width="14" height="14" viewBox="0 0 14 14" fill="none" xmlns="http://www.w3.org/2000/svg">
<path d="M1.45703 5.54297H12.5404M1.45703 5.54297V11.668C1.45703 11.8227 1.51849 11.9711 1.62789 12.0804C1.73728 12.1898 1.88565 12.2513 2.04036 12.2513H11.957C12.1117 12.2513 12.2601 12.1898 12.3695 12.0804C12.4789 11.9711 12.5404 11.8227 12.5404 11.668V5.54297M1.45703 5.54297V2.6263C1.45703 2.47159 1.51849 2.32322 1.62789 2.21382C1.73728 2.10443 1.88565 2.04297 2.04036 2.04297H11.957C12.1117 2.04297 12.2601 2.10443 12.3695 2.21382C12.4789 2.32322 12.5404 2.47159 12.5404 2.6263V5.54297" stroke="#7299F1" stroke-width="1.3" stroke-linejoin="round"/>
<path d="M4.66536 1.16797V3.5013M9.33203 1.16797V3.5013M8.16536 9.91797H9.91536M4.08203 9.91797H5.83203M8.16536 7.58464H9.91536M4.08203 7.58464H5.83203" stroke="#7299F1" stroke-width="1.3" stroke-linecap="round" stroke-linejoin="round"/>
</svg>
