<svg width="28" height="28" viewBox="0 0 28 28" fill="none" xmlns="http://www.w3.org/2000/svg">
<rect width="28" height="28" rx="14" fill="#BCEAEA"/>
<path d="M17.9754 10.7676L16.2328 9.02504C15.5718 8.36402 14.6927 8 13.7577 8H11.5001C10.1215 7.9995 9 9.12105 9 10.4996V17.4999C9 18.8785 10.1215 20 11.5001 20H16.5003C17.8789 20 19.0004 18.8785 19.0004 17.4999V13.2422C19.0004 12.3072 18.6364 11.4291 17.9754 10.7676ZM17.2683 11.4746C17.4274 11.6337 17.5619 11.8102 17.6709 11.9997H15.5003C15.2248 11.9997 15.0003 11.7752 15.0003 11.4996V9.32906C15.1898 9.43806 15.3668 9.57257 15.5253 9.73157L17.2678 11.4741L17.2683 11.4746ZM18.0004 17.4999C18.0004 18.3269 17.3273 19 16.5003 19H11.5001C10.6731 19 10 18.3269 10 17.4999V10.4996C10 9.67257 10.6731 8.99954 11.5001 8.99954H13.7577C13.8392 8.99954 13.9202 9.00354 14.0002 9.01104V11.4996C14.0002 12.3267 14.6732 12.9997 15.5003 12.9997H17.9889C17.9964 13.0797 18.0004 13.1607 18.0004 13.2422V17.4999ZM15.7503 14.4998H12.2501C11.5611 14.4998 11.0001 15.0608 11.0001 15.7498V16.7499C11.0001 17.4389 11.5611 17.9999 12.2501 17.9999H15.7503C16.4393 17.9999 17.0003 17.4389 17.0003 16.7499V15.7498C17.0003 15.0608 16.4393 14.4998 15.7503 14.4998ZM16.0003 16.7499C16.0003 16.8879 15.8883 16.9999 15.7503 16.9999H12.2501C12.1121 16.9999 12.0001 16.8879 12.0001 16.7499V15.7498C12.0001 15.6118 12.1121 15.4998 12.2501 15.4998H15.7503C15.8883 15.4998 16.0003 15.6118 16.0003 15.7498V16.7499ZM11.0001 12.9997C11.0001 12.7237 11.2241 12.4997 11.5001 12.4997H12.5001C12.7762 12.4997 13.0002 12.7237 13.0002 12.9997C13.0002 13.2757 12.7762 13.4997 12.5001 13.4997H11.5001C11.2241 13.4997 11.0001 13.2757 11.0001 12.9997ZM11.0001 10.9996C11.0001 10.7236 11.2241 10.4996 11.5001 10.4996H12.5001C12.7762 10.4996 13.0002 10.7236 13.0002 10.9996C13.0002 11.2756 12.7762 11.4996 12.5001 11.4996H11.5001C11.2241 11.4996 11.0001 11.2756 11.0001 10.9996Z" fill="#1AA3AE"/>
</svg>
