<svg width="28" height="28" viewBox="0 0 28 28" fill="none" xmlns="http://www.w3.org/2000/svg">
<rect width="28" height="28" rx="14" fill="#D0B9FC"/>
<path d="M10 14.5H11.5V15.5H10V14.5ZM12.5 15.5H14V14.5H12.5V15.5ZM10 17.5H11.5V16.5H10V17.5ZM12.5 17.5H14V16.5H12.5V17.5ZM10 11.5H11.5V10.5H10V11.5ZM12.5 11.5H14V10.5H12.5V11.5ZM10 13.5H11.5V12.5H10V13.5ZM12.5 13.5H14V12.5H12.5V13.5ZM20 12V20H8V9.5C8 9.10218 8.15804 8.72064 8.43934 8.43934C8.72064 8.15804 9.10218 8 9.5 8H14.5C14.8978 8 15.2794 8.15804 15.5607 8.43934C15.842 8.72064 16 9.10218 16 9.5V10.5H18.5C18.8978 10.5 19.2794 10.658 19.5607 10.9393C19.842 11.2206 20 11.6022 20 12ZM15 9.5C15 9.36739 14.9473 9.24021 14.8536 9.14645C14.7598 9.05268 14.6326 9 14.5 9H9.5C9.36739 9 9.24021 9.05268 9.14645 9.14645C9.05268 9.24021 9 9.36739 9 9.5V19H15V9.5ZM19 12C19 11.8674 18.9473 11.7402 18.8536 11.6464C18.7598 11.5527 18.6326 11.5 18.5 11.5H16V19H19V12ZM17 15.5H18V14.5H17V15.5ZM17 17.5H18V16.5H17V17.5ZM17 13.5H18V12.5H17V13.5Z" fill="#8D4BF6"/>
</svg>
