<svg width="16" height="17" viewBox="0 0 16 17" fill="none" xmlns="http://www.w3.org/2000/svg">
<g clip-path="url(#clip0_539_3675)">
<path d="M8.37187 4.77884C8.37187 4.63081 8.43067 4.48885 8.53534 4.38418C8.64001 4.27951 8.78198 4.2207 8.93001 4.2207H11.7207C11.8687 4.2207 12.0107 4.27951 12.1154 4.38418C12.22 4.48885 12.2788 4.63081 12.2788 4.77884V7.56954C12.2788 7.71757 12.22 7.85953 12.1154 7.9642C12.0107 8.06888 11.8687 8.12768 11.7207 8.12768C11.5727 8.12768 11.4307 8.06888 11.326 7.9642C11.2214 7.85953 11.1626 7.71757 11.1626 7.56954V6.12582L5.62582 11.6626H7.06954C7.21757 11.6626 7.35953 11.7214 7.4642 11.826C7.56888 11.9307 7.62768 12.0727 7.62768 12.2207C7.62768 12.3687 7.56888 12.5107 7.4642 12.6154C7.35953 12.72 7.21757 12.7788 7.06954 12.7788H4.27884C4.13081 12.7788 3.98885 12.72 3.88418 12.6154C3.77951 12.5107 3.7207 12.3687 3.7207 12.2207V9.43001C3.7207 9.28198 3.77951 9.14001 3.88418 9.03534C3.98885 8.93067 4.13081 8.87187 4.27884 8.87187C4.42687 8.87187 4.56884 8.93067 4.67351 9.03534C4.77818 9.14001 4.83698 9.28198 4.83698 9.43001V10.8737L10.3737 5.33698H8.93001C8.85671 5.33698 8.78413 5.32255 8.71641 5.2945C8.6487 5.26645 8.58717 5.22534 8.53534 5.17351C8.48351 5.12168 8.4424 5.06015 8.41435 4.99243C8.3863 4.92472 8.37187 4.85214 8.37187 4.77884Z" fill="#5C6476"/>
<path fill-rule="evenodd" clip-rule="evenodd" d="M7.95758 0.5C6.23926 0.5 4.89302 0.5 3.84223 0.641395C2.76763 0.785767 1.91926 1.08791 1.25321 1.75321C0.587163 2.41926 0.285767 3.26763 0.141395 4.34298C4.43569e-08 5.39302 0 6.73926 0 8.45758V8.54242C0 10.2607 4.43569e-08 11.607 0.141395 12.6578C0.285767 13.7324 0.587907 14.5807 1.25321 15.2468C1.91926 15.9128 2.76763 16.2142 3.84298 16.3586C4.89302 16.5 6.23926 16.5 7.95758 16.5H8.04242C9.76074 16.5 11.107 16.5 12.1578 16.3586C13.2324 16.2142 14.0807 15.9121 14.7468 15.2468C15.4128 14.5807 15.7142 13.7324 15.8586 12.657C16 11.607 16 10.2607 16 8.54242V8.45758C16 6.73926 16 5.39302 15.8586 4.34223C15.7142 3.26763 15.4121 2.41926 14.7468 1.75321C14.0807 1.08716 13.2324 0.785767 12.157 0.641395C11.107 0.5 9.76074 0.5 8.04242 0.5H7.95758ZM2.04279 2.54279C2.46698 2.1186 3.04 1.87526 3.99181 1.74726C4.95926 1.61777 6.23033 1.61628 8 1.61628C9.76967 1.61628 11.0407 1.61777 12.0082 1.74726C12.96 1.87526 13.5338 2.11935 13.958 2.54279C14.3814 2.96698 14.6247 3.54 14.7527 4.49181C14.8822 5.45926 14.8837 6.73033 14.8837 8.5C14.8837 10.2697 14.8822 11.5407 14.7527 12.5082C14.6247 13.46 14.3807 14.0338 13.9572 14.458C13.533 14.8814 12.96 15.1247 12.0082 15.2527C11.0407 15.3822 9.76967 15.3837 8 15.3837C6.23033 15.3837 4.95926 15.3822 3.99181 15.2527C3.04 15.1247 2.46623 14.8807 2.04205 14.4572C1.6186 14.033 1.37526 13.46 1.24726 12.5082C1.11777 11.5407 1.11628 10.2697 1.11628 8.5C1.11628 6.73033 1.11777 5.45926 1.24726 4.49181C1.37526 3.54 1.61935 2.96698 2.04279 2.54279Z" fill="#5C6476"/>
</g>
<defs>
<clipPath id="clip0_539_3675">
<rect width="16" height="16" fill="white" transform="translate(0 0.5)"/>
</clipPath>
</defs>
</svg>
