<svg width="14" height="25" viewBox="0 0 14 25" fill="none" xmlns="http://www.w3.org/2000/svg">
<path fill-rule="evenodd" clip-rule="evenodd" d="M10.0796 1.59912C10.7665 0.883344 11.869 0.883344 12.5558 1.59912C13.2579 2.33076 13.2579 3.52916 12.5558 4.2608L3.75262 13.4345C3.06575 14.1502 1.96328 14.1502 1.27641 13.4345C0.574316 12.7028 0.574317 11.5044 1.27641 10.7728L10.0796 1.59912Z" fill="#212529"/>
<path fill-rule="evenodd" clip-rule="evenodd" d="M12.5569 19.9465C13.259 20.6781 13.259 21.8765 12.5569 22.6082C11.87 23.324 10.7675 23.324 10.0807 22.6082L1.27748 13.4345C0.575383 12.7029 0.575383 11.5045 1.27748 10.7728C1.96435 10.0571 3.06682 10.0571 3.75369 10.7728L12.5569 19.9465Z" fill="#212529"/>
</svg>
