<svg width="15" height="24" viewBox="0 0 15 24" fill="none" xmlns="http://www.w3.org/2000/svg">
<path fill-rule="evenodd" clip-rule="evenodd" d="M4.58836 22.4116C3.90149 23.1274 2.79902 23.1274 2.11215 22.4116C1.41005 21.68 1.41005 20.4816 2.11215 19.7499L10.9153 10.5763C11.6022 9.8605 12.7047 9.8605 13.3916 10.5763C14.0937 11.3079 14.0937 12.5063 13.3916 13.238L4.58836 22.4116Z" fill="#212529"/>
<path fill-rule="evenodd" clip-rule="evenodd" d="M2.11108 4.06424C1.40898 3.3326 1.40899 2.1342 2.11108 1.40256C2.79795 0.686783 3.90042 0.686783 4.58729 1.40256L13.3905 10.5762C14.0926 11.3079 14.0926 12.5063 13.3905 13.2379C12.7036 13.9537 11.6012 13.9537 10.9143 13.2379L2.11108 4.06424Z" fill="#212529"/>
</svg>
