<svg width="24" height="24" viewBox="0 0 24 24" fill="none" xmlns="http://www.w3.org/2000/svg">
<path d="M15.1248 21.1L6.69982 12.7C6.59982 12.6 6.52882 12.4917 6.48682 12.375C6.44482 12.2583 6.42415 12.1333 6.42482 12C6.42482 11.8667 6.44549 11.7417 6.48682 11.625C6.52815 11.5083 6.59915 11.4 6.69982 11.3L15.1248 2.875C15.3582 2.64167 15.6498 2.525 15.9998 2.525C16.3498 2.525 16.6498 2.65 16.8998 2.9C17.1498 3.15 17.2748 3.44167 17.2748 3.775C17.2748 4.10833 17.1498 4.4 16.8998 4.65L9.54982 12L16.8998 19.35C17.1332 19.5833 17.2498 19.871 17.2498 20.213C17.2498 20.555 17.1248 20.8507 16.8748 21.1C16.6248 21.35 16.3332 21.475 15.9998 21.475C15.6665 21.475 15.3748 21.35 15.1248 21.1Z" fill="#5C6476"/>
</svg>
