<svg width="48" height="48" viewBox="0 0 48 48" fill="none" xmlns="http://www.w3.org/2000/svg">
<g clip-path="url(#clip0_149_2142)">
<path d="M37.75 39H12.75C10.6825 39 9 37.3175 9 35.25V10.25C9 9.56 9.56 9 10.25 9C10.94 9 11.5 9.56 11.5 10.25V35.25C11.5 35.9387 12.0613 36.5 12.75 36.5H37.75C38.44 36.5 39 37.06 39 37.75C39 38.44 38.44 39 37.75 39ZM39.0075 30.2613L39.0263 24.0375C39.0288 23.045 38.6288 22.0737 37.9275 21.375L35.4013 18.8488C33.9838 17.4313 31.5138 17.4313 30.0975 18.8488L27.7488 21.1962L22.9 16.3488C21.4838 14.9313 19.0138 14.9313 17.5975 16.3488L15.0975 18.8488C14.3888 19.5563 13.9988 20.4987 13.9988 21.5V30.25C13.9988 32.3175 15.6813 34 17.7488 34H35.2563C37.3188 34 39.0013 32.3225 39.0063 30.2613H39.0075ZM21.1338 18.1163L26.8663 23.8475C27.355 24.3363 28.145 24.3363 28.6338 23.8475L31.8663 20.6163C32.3375 20.1438 33.1613 20.1438 33.6338 20.6163L36.16 23.1425C36.3963 23.3787 36.5263 23.6938 36.525 24.03L36.5063 30.2537C36.505 30.94 35.9438 31.5 35.2563 31.5H17.75C17.0613 31.5 16.5 30.9387 16.5 30.25V21.5C16.5 21.1713 16.6338 20.8488 16.8663 20.6163L19.3663 18.1163C19.6013 17.88 19.915 17.75 20.25 17.75C20.585 17.75 20.8975 17.88 21.1338 18.1163Z" fill="#FBFBFB"/>
</g>
<defs>
<clipPath id="clip0_149_2142">
<rect width="30" height="30" fill="white" transform="translate(9 9)"/>
</clipPath>
</defs>
</svg>
