<svg width="48" height="48" viewBox="0 0 48 48" fill="none" xmlns="http://www.w3.org/2000/svg">
<path d="M16 25H19V27H16V25ZM21 27H24V25H21V27ZM16 31H19V29H16V31ZM21 31H24V29H21V31ZM16 19H19V17H16V19ZM21 19H24V17H21V19ZM16 23H19V21H16V23ZM21 23H24V21H21V23ZM36 20V36H12V15C12 14.2044 12.3161 13.4413 12.8787 12.8787C13.4413 12.3161 14.2044 12 15 12H25C25.7956 12 26.5587 12.3161 27.1213 12.8787C27.6839 13.4413 28 14.2044 28 15V17H33C33.7956 17 34.5587 17.3161 35.1213 17.8787C35.6839 18.4413 36 19.2044 36 20ZM26 15C26 14.7348 25.8946 14.4804 25.7071 14.2929C25.5196 14.1054 25.2652 14 25 14H15C14.7348 14 14.4804 14.1054 14.2929 14.2929C14.1054 14.4804 14 14.7348 14 15V34H26V15ZM34 20C34 19.7348 33.8946 19.4804 33.7071 19.2929C33.5196 19.1054 33.2652 19 33 19H28V34H34V20ZM30 27H32V25H30V27ZM30 31H32V29H30V31ZM30 23H32V21H30V23Z" fill="#FBFBFB"/>
</svg>
