<svg width="48" height="48" viewBox="0 0 48 48" fill="none" xmlns="http://www.w3.org/2000/svg">
<path d="M23.7964 20C23.0053 20 22.2319 20.2346 21.5741 20.6741C20.9163 21.1136 20.4036 21.7384 20.1009 22.4693C19.7981 23.2002 19.7189 24.0044 19.8732 24.7804C20.0276 25.5563 20.4086 26.269 20.968 26.8284C21.5274 27.3878 22.2401 27.7688 23.016 27.9231C23.792 28.0775 24.5962 27.9983 25.3271 27.6955C26.058 27.3928 26.6827 26.8801 27.1223 26.2223C27.5618 25.5645 27.7964 24.7911 27.7964 24C27.7964 22.9391 27.375 21.9217 26.6248 21.1716C25.8747 20.4214 24.8573 20 23.7964 20ZM23.7964 26C23.4008 26 23.0141 25.8827 22.6852 25.6629C22.3564 25.4432 22.1 25.1308 21.9486 24.7654C21.7973 24.3999 21.7576 23.9978 21.8348 23.6098C21.912 23.2219 22.1025 22.8655 22.3822 22.5858C22.6619 22.3061 23.0182 22.1156 23.4062 22.0384C23.7942 21.9613 24.1963 22.0009 24.5618 22.1522C24.9272 22.3036 25.2396 22.56 25.4593 22.8889C25.6791 23.2178 25.7964 23.6044 25.7964 24C25.7964 24.5304 25.5857 25.0391 25.2106 25.4142C24.8355 25.7893 24.3268 26 23.7964 26Z" fill="#FBFBFB"/>
<path d="M33.0907 25.9L32.6467 25.644C32.8466 24.5564 32.8466 23.4416 32.6467 22.354L33.0907 22.098C33.4321 21.901 33.7314 21.6387 33.9715 21.3261C34.2115 21.0134 34.3877 20.6565 34.4898 20.2758C34.592 19.8951 34.6181 19.498 34.5668 19.1072C34.5155 18.7163 34.3877 18.3394 34.1907 17.998C33.9937 17.6566 33.7314 17.3573 33.4187 17.1172C33.1061 16.8771 32.7492 16.701 32.3685 16.5989C31.9878 16.4967 31.5907 16.4706 31.1998 16.5219C30.809 16.5732 30.4321 16.701 30.0907 16.898L29.6457 17.155C28.8052 16.4369 27.8393 15.8802 26.7967 15.513V15C26.7967 14.2044 26.4806 13.4413 25.918 12.8787C25.3554 12.3161 24.5923 12 23.7967 12C23.001 12 22.238 12.3161 21.6754 12.8787C21.1127 13.4413 20.7967 14.2044 20.7967 15V15.513C19.7541 15.8816 18.7885 16.4396 17.9487 17.159L17.5017 16.9C16.8121 16.5022 15.9928 16.3946 15.2239 16.6009C14.455 16.8072 13.7995 17.3104 13.4017 18C13.0038 18.6896 12.8962 19.5089 13.1025 20.2778C13.3088 21.0467 13.8121 21.7022 14.5017 22.1L14.9457 22.356C14.7458 23.4436 14.7458 24.5584 14.9457 25.646L14.5017 25.902C13.8121 26.2998 13.3088 26.9553 13.1025 27.7242C12.8962 28.4931 13.0038 29.3124 13.4017 30.002C13.7995 30.6916 14.455 31.1948 15.2239 31.4011C15.9928 31.6074 16.8121 31.4998 17.5017 31.102L17.9467 30.845C18.7874 31.5632 19.7537 32.1199 20.7967 32.487V33C20.7967 33.7956 21.1127 34.5587 21.6754 35.1213C22.238 35.6839 23.001 36 23.7967 36C24.5923 36 25.3554 35.6839 25.918 35.1213C26.4806 34.5587 26.7967 33.7956 26.7967 33V32.487C27.8393 32.1184 28.8048 31.5604 29.6447 30.841L30.0917 31.099C30.7812 31.4968 31.6006 31.6044 32.3695 31.3981C33.1384 31.1918 33.7938 30.6886 34.1917 29.999C34.5895 29.3094 34.6971 28.4901 34.4908 27.7212C34.2845 26.9523 33.7812 26.2968 33.0917 25.899L33.0907 25.9ZM30.5427 22.124C30.8813 23.3511 30.8813 24.6469 30.5427 25.874C30.4835 26.0876 30.497 26.3147 30.581 26.5198C30.665 26.7249 30.8147 26.8963 31.0067 27.007L32.0907 27.633C32.3205 27.7656 32.4882 27.9841 32.5569 28.2403C32.6257 28.4966 32.5898 28.7697 32.4572 28.9995C32.3246 29.2293 32.1061 29.397 31.8498 29.4658C31.5936 29.5345 31.3205 29.4986 31.0907 29.366L30.0047 28.738C29.8126 28.6267 29.5889 28.5826 29.3689 28.6124C29.1489 28.6423 28.9451 28.7445 28.7897 28.903C27.8996 29.8117 26.7782 30.46 25.5467 30.778C25.3317 30.8333 25.1412 30.9585 25.0053 31.1339C24.8693 31.3094 24.7956 31.525 24.7957 31.747V33C24.7957 33.2652 24.6903 33.5196 24.5028 33.7071C24.3152 33.8946 24.0609 34 23.7957 34C23.5305 34 23.2761 33.8946 23.0886 33.7071C22.901 33.5196 22.7957 33.2652 22.7957 33V31.748C22.7958 31.526 22.722 31.3104 22.5861 31.1349C22.4501 30.9595 22.2596 30.8343 22.0447 30.779C20.813 30.4597 19.692 29.81 18.8027 28.9C18.6472 28.7415 18.4434 28.6393 18.2234 28.6094C18.0034 28.5796 17.7798 28.6237 17.5877 28.735L16.5037 29.362C16.3899 29.4287 16.2641 29.4722 16.1334 29.4901C16.0027 29.508 15.8698 29.4998 15.7423 29.4661C15.6148 29.4324 15.4953 29.3738 15.3905 29.2937C15.2857 29.2136 15.1979 29.1135 15.1319 28.9993C15.066 28.8851 15.0233 28.759 15.0063 28.6282C14.9893 28.4974 14.9983 28.3646 15.0329 28.2373C15.0674 28.11 15.1268 27.9909 15.2076 27.8866C15.2884 27.7824 15.389 27.6952 15.5037 27.63L16.5877 27.004C16.7796 26.8933 16.9293 26.7219 17.0133 26.5168C17.0973 26.3117 17.1108 26.0846 17.0517 25.871C16.713 24.6439 16.713 23.3481 17.0517 22.121C17.1097 21.9079 17.0956 21.6815 17.0115 21.4773C16.9274 21.273 16.778 21.1024 16.5867 20.992L15.5027 20.366C15.2729 20.2334 15.1051 20.0149 15.0364 19.7587C14.9677 19.5024 15.0036 19.2293 15.1362 18.9995C15.2688 18.7697 15.4873 18.602 15.7435 18.5332C15.9998 18.4645 16.2729 18.5004 16.5027 18.633L17.5887 19.261C17.7803 19.3725 18.0035 19.4172 18.2232 19.3881C18.4429 19.3589 18.6468 19.2576 18.8027 19.1C19.6928 18.1913 20.8141 17.543 22.0457 17.225C22.2613 17.1696 22.4523 17.0438 22.5883 16.8675C22.7243 16.6913 22.7977 16.4746 22.7967 16.252V15C22.7967 14.7348 22.902 14.4804 23.0896 14.2929C23.2771 14.1054 23.5315 14 23.7967 14C24.0619 14 24.3162 14.1054 24.5038 14.2929C24.6913 14.4804 24.7967 14.7348 24.7967 15V16.252C24.7966 16.474 24.8703 16.6896 25.0063 16.8651C25.1422 17.0405 25.3327 17.1657 25.5477 17.221C26.7797 17.5402 27.9011 18.1899 28.7907 19.1C28.9461 19.2585 29.1499 19.3607 29.3699 19.3906C29.5899 19.4204 29.8136 19.3763 30.0057 19.265L31.0897 18.638C31.2034 18.5713 31.3293 18.5278 31.4599 18.5099C31.5906 18.492 31.7235 18.5002 31.851 18.5339C31.9785 18.5676 32.0981 18.6262 32.2029 18.7063C32.3076 18.7864 32.3955 18.8865 32.4614 19.0007C32.5274 19.1149 32.5701 19.241 32.5871 19.3718C32.6041 19.5026 32.595 19.6354 32.5605 19.7627C32.5259 19.89 32.4665 20.0091 32.3857 20.1134C32.3049 20.2176 32.2043 20.3048 32.0897 20.37L31.0057 20.996C30.8147 21.1067 30.6658 21.2775 30.582 21.4817C30.4983 21.6859 30.4844 21.9121 30.5427 22.125V22.124Z" fill="#FBFBFB"/>
</svg>
