<svg width="48" height="48" viewBox="0 0 48 48" fill="none" xmlns="http://www.w3.org/2000/svg">
<g clip-path="url(#clip0_315_8082)">
<path d="M30 12H20C19.0282 12.0013 18.0779 12.2857 17.2652 12.8185C16.4525 13.3513 15.8127 14.1094 15.424 15H14C13.7348 15 13.4804 15.1054 13.2929 15.2929C13.1054 15.4804 13 15.7348 13 16C13 16.2652 13.1054 16.5196 13.2929 16.7071C13.4804 16.8946 13.7348 17 14 17H15V19H14C13.7348 19 13.4804 19.1054 13.2929 19.2929C13.1054 19.4804 13 19.7348 13 20C13 20.2652 13.1054 20.5196 13.2929 20.7071C13.4804 20.8946 13.7348 21 14 21H15V23H14C13.7348 23 13.4804 23.1054 13.2929 23.2929C13.1054 23.4804 13 23.7348 13 24C13 24.2652 13.1054 24.5196 13.2929 24.7071C13.4804 24.8946 13.7348 25 14 25H15V27H14C13.7348 27 13.4804 27.1054 13.2929 27.2929C13.1054 27.4804 13 27.7348 13 28C13 28.2652 13.1054 28.5196 13.2929 28.7071C13.4804 28.8946 13.7348 29 14 29H15V31H14C13.7348 31 13.4804 31.1054 13.2929 31.2929C13.1054 31.4804 13 31.7348 13 32C13 32.2652 13.1054 32.5196 13.2929 32.7071C13.4804 32.8946 13.7348 33 14 33H15.424C15.8127 33.8906 16.4525 34.6487 17.2652 35.1815C18.0779 35.7143 19.0282 35.9987 20 36H30C31.3256 35.9984 32.5964 35.4711 33.5338 34.5338C34.4711 33.5964 34.9984 32.3256 35 31V17C34.9984 15.6744 34.4711 14.4036 33.5338 13.4662C32.5964 12.5289 31.3256 12.0016 30 12ZM33 31C33 31.7956 32.6839 32.5587 32.1213 33.1213C31.5587 33.6839 30.7956 34 30 34H20C19.2044 34 18.4413 33.6839 17.8787 33.1213C17.3161 32.5587 17 31.7956 17 31V17C17 16.2044 17.3161 15.4413 17.8787 14.8787C18.4413 14.3161 19.2044 14 20 14H30C30.7956 14 31.5587 14.3161 32.1213 14.8787C32.6839 15.4413 33 16.2044 33 17V31ZM25 24C25.7956 24 26.5587 23.6839 27.1213 23.1213C27.6839 22.5587 28 21.7956 28 21C28 20.2044 27.6839 19.4413 27.1213 18.8787C26.5587 18.3161 25.7956 18 25 18C24.2044 18 23.4413 18.3161 22.8787 18.8787C22.3161 19.4413 22 20.2044 22 21C22 21.7956 22.3161 22.5587 22.8787 23.1213C23.4413 23.6839 24.2044 24 25 24ZM30 30C30 30.2652 29.8946 30.5196 29.7071 30.7071C29.5196 30.8946 29.2652 31 29 31C28.7348 31 28.4804 30.8946 28.2929 30.7071C28.1054 30.5196 28 30.2652 28 30C28 29.2044 27.6839 28.4413 27.1213 27.8787C26.5587 27.3161 25.7956 27 25 27C24.2044 27 23.4413 27.3161 22.8787 27.8787C22.3161 28.4413 22 29.2044 22 30C22 30.2652 21.8946 30.5196 21.7071 30.7071C21.5196 30.8946 21.2652 31 21 31C20.7348 31 20.4804 30.8946 20.2929 30.7071C20.1054 30.5196 20 30.2652 20 30C20.211 23.392 29.791 23.394 30 30Z" fill="#FBFBFB"/>
</g>
<defs>
<clipPath id="clip0_315_8082">
<rect width="24" height="24" fill="white" transform="translate(12 12)"/>
</clipPath>
</defs>
</svg>
