<svg width="48" height="48" viewBox="0 0 48 48" fill="none" xmlns="http://www.w3.org/2000/svg">
<rect width="48" height="48" rx="4" fill="#3670F0"/>
<path d="M18.1163 17.9012C17.6275 17.4125 17.6275 16.6225 18.1163 16.1337C18.605 15.645 19.395 15.645 19.8837 16.1337L22.75 19V10.25C22.75 9.55875 23.3088 9 24 9C24.6912 9 25.25 9.55875 25.25 10.25V19L28.1163 16.1337C28.605 15.645 29.395 15.645 29.8838 16.1337C30.3725 16.6225 30.3725 17.4125 29.8838 17.9012L25.7675 22.0175C25.2837 22.5012 24.6475 22.745 24.0112 22.7475L24 22.75L23.9888 22.7475C23.3525 22.745 22.7163 22.5012 22.2325 22.0175L18.1163 17.9012ZM35.25 24H31.5C30.1213 24 29 25.1213 29 26.5C29 27.8787 27.8787 29 26.5 29H21.5C20.1213 29 19 27.8787 19 26.5C19 25.1213 17.8787 24 16.5 24H12.75C10.6825 24 9 25.6825 9 27.75V32.75C9 36.1963 11.8038 39 15.25 39H32.75C36.1963 39 39 36.1963 39 32.75V27.75C39 25.6825 37.3175 24 35.25 24Z" fill="#FBFBFB"/>
</svg>
