<svg width="48" height="48" viewBox="0 0 48 48" fill="none" xmlns="http://www.w3.org/2000/svg">
<rect width="48" height="48" rx="4" fill="#3670F0"/>
<g clip-path="url(#clip0_149_1989)">
<path d="M39 24C39 21.9675 38.1076 20.05 36.5938 18.845C36.7688 16.8175 36.0438 14.8312 34.6063 13.3925C33.1688 11.9562 31.1888 11.2287 29.26 11.4487C26.7425 8.25374 21.3038 8.19249 18.845 11.405C16.815 11.23 14.83 11.9537 13.3925 13.3925C11.955 14.83 11.2313 16.8175 11.4488 18.7387C8.25505 21.2562 8.19255 26.6962 11.405 29.1537C11.23 31.1812 11.955 33.1687 13.3925 34.6062C14.83 36.045 16.8225 36.7712 18.7388 36.55C21.2575 39.745 26.695 39.8062 29.1551 36.5937C31.1776 36.7675 33.1676 36.045 34.6063 34.6062C36.0426 33.1687 36.7676 31.1812 36.5501 29.26C38.1076 27.95 39 26.0325 39 24ZM25.25 30.25V31.5C25.2425 33.135 22.7575 33.1337 22.75 31.5V30.25H22.415C20.7663 30.4062 17.7063 28.1937 19.6238 26.6687C20.22 26.3225 20.985 26.5275 21.3313 27.125C21.5538 27.51 21.97 27.75 22.415 27.75H25.25C26.4963 27.8312 27.0525 25.8125 25.695 25.55L21.8925 24.9162C17.5163 24.1037 18.4588 17.725 22.7488 17.75V16.5C22.7563 14.865 25.2413 14.8662 25.2488 16.5V17.75H25.5838C26.9175 17.75 28.1625 18.4687 28.8313 19.625C29.1775 20.2225 28.9725 20.9862 28.3763 21.3325C27.7763 21.6775 27.0113 21.4737 26.6688 20.8762C26.445 20.49 26.03 20.2512 25.585 20.2512H22.75C21.5038 20.17 20.9463 22.1887 22.305 22.4512L26.1063 23.085C30.4838 23.8962 29.5413 30.275 25.25 30.25Z" fill="#FBFBFB"/>
</g>
<defs>
<clipPath id="clip0_149_1989">
<rect width="30" height="30" fill="white" transform="translate(9 9)"/>
</clipPath>
</defs>
</svg>
