<svg width="48" height="48" viewBox="0 0 48 48" fill="none" xmlns="http://www.w3.org/2000/svg">
<g clip-path="url(#clip0_315_8082)">
<path d="M31.5 9H19C17.7853 9.0016 16.5974 9.35713 15.5815 10.0231C14.5657 10.6891 13.7659 11.6367 13.28 12.75H11.5C11.1685 12.75 10.8505 12.8817 10.6161 13.1161C10.3817 13.3505 10.25 13.6685 10.25 14C10.25 14.3315 10.3817 14.6495 10.6161 14.8839C10.8505 15.1183 11.1685 15.25 11.5 15.25H12.75V17.75H11.5C11.1685 17.75 10.8505 17.8817 10.6161 18.1161C10.3817 18.3505 10.25 18.6685 10.25 19C10.25 19.3315 10.3817 19.6495 10.6161 19.8839C10.8505 20.1183 11.1685 20.25 11.5 20.25H12.75V22.75H11.5C11.1685 22.75 10.8505 22.8817 10.6161 23.1161C10.3817 23.3505 10.25 23.6685 10.25 24C10.25 24.3315 10.3817 24.6495 10.6161 24.8839C10.8505 25.1183 11.1685 25.25 11.5 25.25H12.75V27.75H11.5C11.1685 27.75 10.8505 27.8817 10.6161 28.1161C10.3817 28.3505 10.25 28.6685 10.25 29C10.25 29.3315 10.3817 29.6495 10.6161 29.8839C10.8505 30.1183 11.1685 30.25 11.5 30.25H12.75V32.75H11.5C11.1685 32.75 10.8505 32.8817 10.6161 33.1161C10.3817 33.3505 10.25 33.6685 10.25 34C10.25 34.3315 10.3817 34.6495 10.6161 34.8839C10.8505 35.1183 11.1685 35.25 11.5 35.25H13.28C13.7659 36.3633 14.5657 37.3109 15.5815 37.9769C16.5974 38.6429 17.7853 38.9984 19 39H31.5C33.157 38.998 34.7456 38.3389 35.9172 37.1672C37.0889 35.9956 37.748 34.407 37.75 32.75V15.25C37.748 13.593 37.0889 12.0044 35.9172 10.8328C34.7456 9.6611 33.157 9.00198 31.5 9ZM35.25 32.75C35.25 33.7446 34.8549 34.6984 34.1517 35.4017C33.4484 36.1049 32.4946 36.5 31.5 36.5H19C18.0054 36.5 17.0516 36.1049 16.3483 35.4017C15.6451 34.6984 15.25 33.7446 15.25 32.75V15.25C15.25 14.2554 15.6451 13.3016 16.3483 12.5983C17.0516 11.8951 18.0054 11.5 19 11.5H31.5C32.4946 11.5 33.4484 11.8951 34.1517 12.5983C34.8549 13.3016 35.25 14.2554 35.25 15.25V32.75ZM25.25 24C26.2446 24 27.1984 23.6049 27.9017 22.9017C28.6049 22.1984 29 21.2446 29 20.25C29 19.2554 28.6049 18.3016 27.9017 17.5983C27.1984 16.8951 26.2446 16.5 25.25 16.5C24.2554 16.5 23.3016 16.8951 22.5983 17.5983C21.8951 18.3016 21.5 19.2554 21.5 20.25C21.5 21.2446 21.8951 22.1984 22.5983 22.9017C23.3016 23.6049 24.2554 24 25.25 24ZM31.5 31.5C31.5 31.8315 31.3683 32.1495 31.1339 32.3839C30.8995 32.6183 30.5815 32.75 30.25 32.75C29.9185 32.75 29.6005 32.6183 29.3661 32.3839C29.1317 32.1495 29 31.8315 29 31.5C29 30.5054 28.6049 29.5516 27.9017 28.8483C27.1984 28.1451 26.2446 27.75 25.25 27.75C24.2554 27.75 23.3016 28.1451 22.5983 28.8483C21.8951 29.5516 21.5 30.5054 21.5 31.5C21.5 31.8315 21.3683 32.1495 21.1339 32.3839C20.8995 32.6183 20.5815 32.75 20.25 32.75C19.9185 32.75 19.6005 32.6183 19.3661 32.3839C19.1317 32.1495 19 31.8315 19 31.5C19.2638 23.24 31.2388 23.2425 31.5 31.5Z" fill="#FBFBFB"/>
</g>
<defs>
<clipPath id="clip0_315_8082">
<rect width="30" height="30" fill="white" transform="translate(9 9)"/>
</clipPath>
</defs>
</svg>
