<svg width="48" height="48" viewBox="0 0 48 48" fill="none" xmlns="http://www.w3.org/2000/svg">
<rect width="48" height="48" rx="4" fill="#3670F0"/>
<g clip-path="url(#clip0_149_1947)">
<path d="M24 27.7407C21.9289 27.7407 20.25 29.4196 20.25 31.4907V38.9907H27.75V31.4907C27.75 29.4196 26.0711 27.7407 24 27.7407Z" fill="#FBFBFB"/>
<path d="M30.25 31.4907V38.9907H35.25C37.3211 38.9907 39 37.3117 39 35.2407V23.8395C39.0003 23.1901 38.7479 22.566 38.2962 22.0995L27.6738 10.6157C25.7995 8.58773 22.6361 8.46322 20.6082 10.3375C20.5119 10.4266 20.419 10.5193 20.33 10.6157L9.72627 22.0957C9.26092 22.5642 8.99982 23.1978 9 23.8582V35.2407C9 37.3117 10.6789 38.9907 12.75 38.9907H17.75V31.4907C17.7734 28.0822 20.5253 25.2987 23.848 25.2186C27.2818 25.1357 30.2238 27.9666 30.25 31.4907Z" fill="#FBFBFB"/>
<path d="M24 27.7407C21.9289 27.7407 20.25 29.4196 20.25 31.4907V38.9907H27.75V31.4907C27.75 29.4196 26.0711 27.7407 24 27.7407Z" fill="#FBFBFB"/>
</g>
<defs>
<clipPath id="clip0_149_1947">
<rect width="30" height="30" fill="white" transform="translate(9 9)"/>
</clipPath>
</defs>
</svg>
