<svg width="48" height="48" viewBox="0 0 48 48" fill="none" xmlns="http://www.w3.org/2000/svg">
<path d="M33 24H30C28.897 24 28 24.897 28 26C28 27.103 27.103 28 26 28H22C20.897 28 20 27.103 20 26C20 24.897 19.103 24 18 24H15C13.346 24 12 25.346 12 27V31C12 33.757 14.243 36 17 36H31C33.757 36 36 33.757 36 31V27C36 25.346 34.654 24 33 24ZM34 31C34 32.654 32.654 34 31 34H17C15.346 34 14 32.654 14 31V27C14 26.448 14.448 26 15 26L18 25.998V26C18 28.206 19.794 30 22 30H26C28.206 30 30 28.206 30 26H33C33.552 26 34 26.448 34 27V31ZM19.293 19.121C18.902 18.73 18.902 18.098 19.293 17.707C19.684 17.316 20.316 17.316 20.707 17.707L23 20V13C23 12.447 23.447 12 24 12C24.553 12 25 12.447 25 13V20L27.293 17.707C27.684 17.316 28.316 17.316 28.707 17.707C29.098 18.098 29.098 18.73 28.707 19.121L25.414 22.414C25.027 22.801 24.518 22.996 24.009 22.998L24 23L23.991 22.998C23.482 22.996 22.973 22.801 22.586 22.414L19.293 19.121Z" fill="#FBFBFB"/>
</svg>
