<svg width="19" height="24" viewBox="0 0 19 24" fill="none" xmlns="http://www.w3.org/2000/svg">
<path d="M0.295455 24V0.727272H9.02273C10.8106 0.727272 12.3106 1.03788 13.5227 1.65909C14.7424 2.2803 15.6629 3.15151 16.2841 4.27273C16.9129 5.38636 17.2273 6.68561 17.2273 8.17045C17.2273 9.66288 16.9091 10.9583 16.2727 12.0568C15.6439 13.1477 14.7159 13.9924 13.4886 14.5909C12.2614 15.1818 10.7538 15.4773 8.96591 15.4773H2.75V11.9773H8.39773C9.44318 11.9773 10.2992 11.8333 10.9659 11.5455C11.6326 11.25 12.125 10.822 12.4432 10.2614C12.7689 9.69318 12.9318 8.99621 12.9318 8.17045C12.9318 7.3447 12.7689 6.64015 12.4432 6.05682C12.1174 5.46591 11.6212 5.01894 10.9545 4.71591C10.2879 4.4053 9.42803 4.25 8.375 4.25H4.51136V24H0.295455ZM12.3182 13.4545L18.0795 24H13.375L7.71591 13.4545H12.3182Z" fill="#FBFBFB"/>
</svg>
