<svg width="48" height="48" viewBox="0 0 48 48" fill="none" xmlns="http://www.w3.org/2000/svg">
<g clip-path="url(#clip0_315_8717)">
<path d="M24 19C23.0111 19 22.0444 19.2932 21.2222 19.8427C20.3999 20.3921 19.759 21.173 19.3806 22.0866C19.0022 23.0002 18.9031 24.0055 19.0961 24.9755C19.289 25.9454 19.7652 26.8363 20.4645 27.5355C21.1637 28.2348 22.0546 28.711 23.0246 28.9039C23.9945 29.0969 24.9998 28.9978 25.9134 28.6194C26.8271 28.241 27.6079 27.6001 28.1574 26.7779C28.7068 25.9556 29 24.9889 29 24C29 22.6739 28.4732 21.4021 27.5355 20.4645C26.5979 19.5268 25.3261 19 24 19ZM24 26.5C23.5055 26.5 23.0222 26.3534 22.6111 26.0787C22.2 25.804 21.8795 25.4135 21.6903 24.9567C21.5011 24.4999 21.4516 23.9972 21.548 23.5123C21.6445 23.0273 21.8826 22.5819 22.2322 22.2322C22.5819 21.8826 23.0273 21.6445 23.5123 21.548C23.9972 21.4516 24.4999 21.5011 24.9567 21.6903C25.4135 21.8795 25.804 22.2 26.0787 22.6111C26.3534 23.0222 26.5 23.5055 26.5 24C26.5 24.663 26.2366 25.2989 25.7678 25.7678C25.2989 26.2366 24.663 26.5 24 26.5Z" fill="#FBFBFB"/>
<path d="M35.6177 26.375L35.0627 26.055C35.3126 24.6956 35.3126 23.3019 35.0627 21.9425L35.6177 21.6225C36.0445 21.3763 36.4187 21.0484 36.7187 20.6576C37.0188 20.2668 37.239 19.8207 37.3667 19.3448C37.4943 18.8689 37.527 18.3725 37.4629 17.8839C37.3987 17.3954 37.239 16.9243 36.9927 16.4975C36.7465 16.0707 36.4186 15.6966 36.0278 15.3965C35.637 15.0964 35.1909 14.8763 34.715 14.7486C34.2391 14.6209 33.7427 14.5882 33.2542 14.6524C32.7656 14.7165 32.2945 14.8763 31.8677 15.1225L31.3115 15.4438C30.2609 14.5461 29.0536 13.8503 27.7502 13.3913V12.75C27.7502 11.7554 27.3551 10.8016 26.6519 10.0983C25.9486 9.39509 24.9948 9 24.0002 9C23.0057 9 22.0518 9.39509 21.3486 10.0983C20.6453 10.8016 20.2502 11.7554 20.2502 12.75V13.3913C18.947 13.852 17.74 14.5495 16.6902 15.4487L16.1315 15.125C15.2695 14.6277 14.2453 14.4932 13.2842 14.7511C12.3231 15.0089 11.5038 15.638 11.0065 16.5C10.5092 17.362 10.3747 18.3861 10.6326 19.3473C10.8904 20.3084 11.5195 21.1277 12.3815 21.625L12.9365 21.945C12.6866 23.3044 12.6866 24.6981 12.9365 26.0575L12.3815 26.3775C11.5195 26.8748 10.8904 27.6941 10.6326 28.6552C10.3747 29.6164 10.5092 30.6405 11.0065 31.5025C11.5038 32.3645 12.3231 32.9936 13.2842 33.2514C14.2453 33.5093 15.2695 33.3748 16.1315 32.8775L16.6877 32.5562C17.7387 33.454 18.9465 34.1498 20.2502 34.6087V35.25C20.2502 36.2446 20.6453 37.1984 21.3486 37.9017C22.0518 38.6049 23.0057 39 24.0002 39C24.9948 39 25.9486 38.6049 26.6519 37.9017C27.3551 37.1984 27.7502 36.2446 27.7502 35.25V34.6087C29.0535 34.148 30.2604 33.4505 31.3102 32.5512L31.869 32.8738C32.7309 33.371 33.7551 33.5055 34.7163 33.2477C35.6774 32.9898 36.4967 32.3607 36.994 31.4988C37.4913 30.6368 37.6258 29.6126 37.3679 28.6515C37.11 27.6904 36.4809 26.871 35.619 26.3738L35.6177 26.375ZM32.4327 21.655C32.856 23.1888 32.856 24.8087 32.4327 26.3425C32.3588 26.6095 32.3757 26.8934 32.4807 27.1498C32.5856 27.4061 32.7728 27.6203 33.0127 27.7587L34.3677 28.5413C34.655 28.707 34.8646 28.9801 34.9506 29.3004C35.0365 29.6208 34.9916 29.9621 34.8259 30.2494C34.6601 30.5366 34.387 30.7463 34.0667 30.8322C33.7463 30.9181 33.405 30.8733 33.1177 30.7075L31.7602 29.9225C31.5201 29.7834 31.2405 29.7282 30.9655 29.7655C30.6906 29.8029 30.4358 29.9307 30.2415 30.1287C29.1289 31.2646 27.7272 32.075 26.1877 32.4725C25.919 32.5416 25.6809 32.6981 25.511 32.9174C25.341 33.1367 25.2488 33.4063 25.249 33.6837V35.25C25.249 35.5815 25.1173 35.8995 24.8829 36.1339C24.6485 36.3683 24.3305 36.5 23.999 36.5C23.6675 36.5 23.3495 36.3683 23.1151 36.1339C22.8807 35.8995 22.749 35.5815 22.749 35.25V33.685C22.7491 33.4076 22.657 33.1379 22.487 32.9186C22.317 32.6994 22.0789 32.5428 21.8102 32.4737C20.2707 32.0746 18.8694 31.2624 17.7577 30.125C17.5634 29.9269 17.3087 29.7991 17.0337 29.7618C16.7587 29.7245 16.4791 29.7797 16.239 29.9188L14.884 30.7025C14.7418 30.7859 14.5845 30.8403 14.4211 30.8626C14.2578 30.885 14.0917 30.8748 13.9323 30.8326C13.7729 30.7905 13.6235 30.7172 13.4925 30.6171C13.3616 30.517 13.2517 30.3919 13.1693 30.2492C13.0869 30.1064 13.0335 29.9487 13.0122 29.7853C12.991 29.6218 13.0023 29.4557 13.0455 29.2966C13.0887 29.1375 13.1629 28.9886 13.2639 28.8583C13.3649 28.728 13.4907 28.619 13.634 28.5375L14.989 27.755C15.2289 27.6166 15.4161 27.4024 15.5211 27.146C15.626 26.8897 15.6429 26.6057 15.569 26.3388C15.1457 24.8049 15.1457 23.1851 15.569 21.6513C15.6416 21.3849 15.6239 21.1019 15.5188 20.8466C15.4136 20.5913 15.2269 20.378 14.9877 20.24L13.6327 19.4575C13.3455 19.2917 13.1358 19.0187 13.0499 18.6983C12.964 18.378 13.0089 18.0366 13.1746 17.7494C13.3404 17.4621 13.6135 17.2525 13.9338 17.1665C14.2541 17.0806 14.5955 17.1255 14.8827 17.2912L16.2402 18.0763C16.4797 18.2156 16.7587 18.2715 17.0334 18.2351C17.3081 18.1987 17.5629 18.072 17.7577 17.875C18.8703 16.7392 20.272 15.9288 21.8115 15.5312C22.081 15.462 22.3197 15.3047 22.4898 15.0844C22.6598 14.8641 22.7515 14.5933 22.7502 14.315V12.75C22.7502 12.4185 22.8819 12.1005 23.1164 11.8661C23.3508 11.6317 23.6687 11.5 24.0002 11.5C24.3318 11.5 24.6497 11.6317 24.8841 11.8661C25.1185 12.1005 25.2502 12.4185 25.2502 12.75V14.315C25.2501 14.5924 25.3423 14.8621 25.5122 15.0814C25.6822 15.3006 25.9203 15.4572 26.189 15.5263C27.729 15.9252 29.1307 16.7374 30.2427 17.875C30.4371 18.0731 30.6918 18.2009 30.9668 18.2382C31.2418 18.2756 31.5214 18.2203 31.7615 18.0812L33.1165 17.2975C33.2587 17.2141 33.416 17.1597 33.5793 17.1374C33.7427 17.115 33.9088 17.1252 34.0682 17.1674C34.2275 17.2095 34.377 17.2828 34.508 17.3829C34.6389 17.483 34.7488 17.6081 34.8312 17.7508C34.9136 17.8936 34.967 18.0513 34.9882 18.2147C35.0095 18.3782 34.9982 18.5443 34.955 18.7034C34.9118 18.8625 34.8376 19.0114 34.7366 19.1417C34.6356 19.272 34.5098 19.381 34.3665 19.4625L33.0115 20.245C32.7728 20.3834 32.5866 20.5968 32.4819 20.8521C32.3772 21.1074 32.3599 21.3901 32.4327 21.6562V21.655Z" fill="#FBFBFB"/>
</g>
<defs>
<clipPath id="clip0_315_8717">
<rect width="30" height="30" fill="white" transform="translate(9 9)"/>
</clipPath>
</defs>
</svg>
