<svg width="48" height="48" viewBox="0 0 48 48" fill="none" xmlns="http://www.w3.org/2000/svg">
<path d="M35 36H15C13.346 36 12 34.654 12 33V13C12 12.448 12.448 12 13 12C13.552 12 14 12.448 14 13V33C14 33.551 14.449 34 15 34H35C35.552 34 36 34.448 36 35C36 35.552 35.552 36 35 36ZM36.006 29.009L36.021 24.03C36.023 23.236 35.703 22.459 35.142 21.9L33.121 19.879C31.987 18.745 30.011 18.745 28.878 19.879L26.999 21.757L23.12 17.879C21.987 16.745 20.011 16.745 18.878 17.879L16.878 19.879C16.311 20.445 15.999 21.199 15.999 22V29C15.999 30.654 17.345 32 18.999 32H33.005C34.655 32 36.001 30.658 36.005 29.009H36.006ZM21.707 19.293L26.293 23.878C26.684 24.269 27.316 24.269 27.707 23.878L30.293 21.293C30.67 20.915 31.329 20.915 31.707 21.293L33.728 23.314C33.917 23.503 34.021 23.755 34.02 24.024L34.005 29.003C34.004 29.552 33.555 30 33.005 30H19C18.449 30 18 29.551 18 29V22C18 21.737 18.107 21.479 18.293 21.293L20.293 19.293C20.481 19.104 20.732 19 21 19C21.268 19 21.518 19.104 21.707 19.293Z" fill="#FBFBFB"/>
</svg>
