<svg width="48" height="48" viewBox="0 0 48 48" fill="none" xmlns="http://www.w3.org/2000/svg">
<g clip-path="url(#clip0_315_8185)">
<path d="M14 25.25H17.75V27.75H14V25.25ZM20.25 27.75H24V25.25H20.25V27.75ZM14 32.75H17.75V30.25H14V32.75ZM20.25 32.75H24V30.25H20.25V32.75ZM14 17.75H17.75V15.25H14V17.75ZM20.25 17.75H24V15.25H20.25V17.75ZM14 22.75H17.75V20.25H14V22.75ZM20.25 22.75H24V20.25H20.25V22.75ZM39 19V39H9V12.75C9 11.7554 9.39509 10.8016 10.0983 10.0983C10.8016 9.39509 11.7554 9 12.75 9H25.25C26.2446 9 27.1984 9.39509 27.9017 10.0983C28.6049 10.8016 29 11.7554 29 12.75V15.25H35.25C36.2446 15.25 37.1984 15.6451 37.9017 16.3483C38.6049 17.0516 39 18.0054 39 19ZM26.5 12.75C26.5 12.4185 26.3683 12.1005 26.1339 11.8661C25.8995 11.6317 25.5815 11.5 25.25 11.5H12.75C12.4185 11.5 12.1005 11.6317 11.8661 11.8661C11.6317 12.1005 11.5 12.4185 11.5 12.75V36.5H26.5V12.75ZM36.5 19C36.5 18.6685 36.3683 18.3505 36.1339 18.1161C35.8995 17.8817 35.5815 17.75 35.25 17.75H29V36.5H36.5V19ZM31.5 27.75H34V25.25H31.5V27.75ZM31.5 32.75H34V30.25H31.5V32.75ZM31.5 22.75H34V20.25H31.5V22.75Z" fill="#FBFBFB"/>
</g>
<defs>
<clipPath id="clip0_315_8185">
<rect width="30" height="30" fill="white" transform="translate(9 9)"/>
</clipPath>
</defs>
</svg>
