<svg width="48" height="48" viewBox="0 0 48 48" fill="none" xmlns="http://www.w3.org/2000/svg">
<rect width="48" height="48" rx="4" fill="#3670F0"/>
<path d="M36.0194 34.9992C36.0194 35.5516 35.571 36 35.0186 36H15.0024C13.3471 36 12 34.6529 12 32.9976V12.9814C12.006 11.6724 13.9956 11.6734 14.0016 12.9814V32.9976C14.0016 33.549 14.451 33.9984 15.0024 33.9984H35.0186C35.571 33.9984 36.0194 34.4467 36.0194 34.9992ZM35.1607 21.8886L33.1381 19.866C32.0031 18.7311 30.0256 18.7311 28.8916 19.866L27.0111 21.7455L23.129 17.8644C21.9951 16.7294 20.0175 16.7294 18.8836 17.8644L16.8819 19.866C16.3145 20.4324 16.0022 21.187 16.0022 21.9887V28.9943C16.0022 30.6497 17.3493 31.9968 19.0047 31.9968H33.022C34.6733 31.9968 36.0204 30.6537 36.0244 29.0034L36.0394 24.0203C36.0414 23.2257 35.7222 22.4481 35.1607 21.8886Z" fill="#FBFBFB"/>
</svg>
