<svg width="48" height="48" viewBox="0 0 48 48" fill="none" xmlns="http://www.w3.org/2000/svg">
<rect width="48" height="48" rx="4" fill="#3670F0"/>
<g clip-path="url(#clip0_149_2133)">
<path d="M39 37.75C39 38.44 38.44 39 37.75 39H12.75C10.6825 39 9 37.3175 9 35.25V10.25C9.0075 8.615 11.4925 8.61625 11.5 10.25V35.25C11.5 35.9387 12.0613 36.5 12.75 36.5H37.75C38.44 36.5 39 37.06 39 37.75ZM37.9275 21.375L35.4013 18.8487C33.9838 17.4312 31.5138 17.4312 30.0975 18.8487L27.7487 21.1962L22.9 16.3487C21.4837 14.9312 19.0137 14.9312 17.5975 16.3487L15.0975 18.8487C14.3887 19.5562 13.9988 20.4987 13.9988 21.5V30.25C13.9988 32.3175 15.6813 34 17.7488 34H35.2562C37.3187 34 39.0012 32.3225 39.0062 30.2613L39.025 24.0375C39.0275 23.045 38.6288 22.0737 37.9275 21.375Z" fill="#FBFBFB"/>
</g>
<defs>
<clipPath id="clip0_149_2133">
<rect width="30" height="30" fill="white" transform="translate(9 9)"/>
</clipPath>
</defs>
</svg>
