<svg width="48" height="48" viewBox="0 0 48 48" fill="none" xmlns="http://www.w3.org/2000/svg">
<rect width="48" height="48" rx="4" fill="#3670F0"/>
<path d="M11.0086 31.5C12.0426 33.2945 14.3355 33.911 16.13 32.8771C16.1313 32.8764 16.1324 32.8757 16.1337 32.875L16.6899 32.5537C17.7399 33.4521 18.9468 34.1487 20.2499 34.6087V35.25C20.2499 37.3211 21.9288 39 23.9999 39C26.0709 39 27.7499 37.3211 27.7499 35.25V34.6087C29.0531 34.148 30.2601 33.4505 31.3099 32.5512L31.8686 32.8737C33.6635 33.9093 35.9581 33.2937 36.9936 31.4987C38.0292 29.7038 37.4136 27.4092 35.6186 26.3737L35.0636 26.0537C35.3135 24.6943 35.3135 23.3007 35.0636 21.9412L35.6186 21.6212C37.4135 20.5857 38.0292 18.2912 36.9936 16.4962C35.9581 14.7013 33.6636 14.0856 31.8686 15.1212L31.3124 15.4424C30.2613 14.5452 29.0536 13.8498 27.7499 13.3913V12.75C27.7499 10.6789 26.0709 9 23.9999 9C21.9288 9 20.2499 10.6789 20.2499 12.75V13.3913C18.9466 13.852 17.7397 14.5495 16.6899 15.4488L16.1311 15.125C14.3362 14.0895 12.0417 14.7051 11.0061 16.5C9.9706 18.2949 10.5862 20.5895 12.3811 21.625L12.9361 21.945C12.6863 23.3044 12.6863 24.698 12.9361 26.0575L12.3811 26.3775C10.5912 27.4158 9.97757 29.7059 11.0086 31.5ZM23.9999 19C26.7613 19 28.9999 21.2386 28.9999 24C28.9999 26.7614 26.7613 29 23.9999 29C21.2385 29 18.9999 26.7614 18.9999 24C18.9999 21.2386 21.2385 19 23.9999 19Z" fill="#FBFBFB"/>
</svg>
