<svg width="48" height="48" viewBox="0 0 48 48" fill="none" xmlns="http://www.w3.org/2000/svg">
<rect width="48" height="48" rx="4" fill="#3670F0"/>
<path d="M36.0198 24.0005C36.0198 22.3718 35.3046 20.8353 34.0916 19.8697C34.2319 18.2451 33.6509 16.6535 32.499 15.5006C31.3471 14.3497 29.7605 13.7668 28.215 13.9431C26.1977 11.3829 21.8396 11.3338 19.8694 13.908C18.2427 13.7678 16.6521 14.3477 15.5002 15.5006C14.3483 16.6525 13.7684 18.2451 13.9427 19.7846C11.3835 21.8019 11.3334 26.161 13.9076 28.1303C13.7674 29.7549 14.3483 31.3475 15.5002 32.4994C16.6521 33.6523 18.2487 34.2342 19.7842 34.0569C21.8025 36.6171 26.1597 36.6662 28.1309 34.092C29.7515 34.2312 31.3461 33.6523 32.499 32.4994C33.6499 31.3475 34.2309 29.7549 34.0566 28.2154C35.3046 27.1657 36.0198 25.6292 36.0198 24.0005ZM25.0018 29.0087V30.0103C24.9958 31.3205 23.0045 31.3195 22.9985 30.0103V29.0087H22.7301C21.4089 29.1339 18.9569 27.361 20.4934 26.139C20.9712 25.8615 21.5842 26.0258 21.8616 26.5046C22.0399 26.8131 22.3735 27.0054 22.7301 27.0054H25.0018C26.0004 27.0705 26.4461 25.4529 25.3583 25.2425L22.3114 24.7347C18.8046 24.0836 19.5599 18.9723 22.9975 18.9923V17.9907C23.0035 16.6805 24.9948 16.6815 25.0008 17.9907V18.9923H25.2692C26.338 18.9923 27.3356 19.5683 27.8715 20.4948C28.1489 20.9736 27.9846 21.5856 27.5069 21.863C27.0261 22.1395 26.4131 21.9762 26.1386 21.4974C25.9593 21.1879 25.6268 20.9966 25.2702 20.9966H22.9985C21.9999 20.9315 21.5531 22.5491 22.6419 22.7595L25.6879 23.2673C29.1956 23.9174 28.4404 29.0287 25.0018 29.0087Z" fill="#FBFBFB"/>
</svg>
