<svg width="48" height="48" viewBox="0 0 48 48" fill="none" xmlns="http://www.w3.org/2000/svg">
<rect width="48" height="48" rx="4" fill="#3670F0"/>
<g clip-path="url(#clip0_202_1271)">
<path d="M22.75 9H12.75C11.7554 9 10.8016 9.39509 10.0983 10.0983C9.39509 10.8016 9 11.7554 9 12.75V39H26.5V12.75C26.5 11.7554 26.1049 10.8016 25.4017 10.0983C24.6984 9.39509 23.7446 9 22.75 9ZM16.5 32.75H12.75V30.25H16.5V32.75ZM16.5 27.75H12.75V25.25H16.5V27.75ZM16.5 22.75H12.75V20.25H16.5V22.75ZM16.5 17.75H12.75V15.25H16.5V17.75ZM22.75 32.75H19V30.25H22.75V32.75ZM22.75 27.75H19V25.25H22.75V27.75ZM22.75 22.75H19V20.25H22.75V22.75ZM22.75 17.75H19V15.25H22.75V17.75ZM35.25 15.25H29V39H39V19C39 18.0054 38.6049 17.0516 37.9017 16.3483C37.1984 15.6451 36.2446 15.25 35.25 15.25ZM35.25 32.75H32.75V30.25H35.25V32.75ZM35.25 27.75H32.75V25.25H35.25V27.75ZM35.25 22.75H32.75V20.25H35.25V22.75Z" fill="#FBFBFB"/>
</g>
<defs>
<clipPath id="clip0_202_1271">
<rect width="30" height="30" fill="white" transform="translate(9 9)"/>
</clipPath>
</defs>
</svg>
