<svg width="48" height="48" viewBox="0 0 48 48" fill="none" xmlns="http://www.w3.org/2000/svg">
<rect width="48" height="48" rx="4" fill="#3670F0"/>
<g clip-path="url(#clip0_769_20965)">
<path d="M24 26.9925C22.3432 26.9925 21 28.3357 21 29.9925V35.9925H27V29.9925C27 28.3357 25.6568 26.9925 24 26.9925Z" fill="#FBFBFB"/>
<path d="M29 29.9925V35.9925H33C34.6568 35.9925 36 34.6494 36 32.9925V23.8715C36.0002 23.352 35.7983 22.8528 35.437 22.4795L26.939 13.2925C25.4396 11.6702 22.9089 11.5706 21.2865 13.07C21.2095 13.1413 21.1352 13.2155 21.064 13.2925L12.581 22.4765C12.2087 22.8514 11.9999 23.3583 12 23.8865V32.9925C12 34.6494 13.3432 35.9925 15 35.9925H19V29.9925C19.0187 27.2657 21.2203 25.039 23.8784 24.9748C26.6255 24.9086 28.9791 27.1732 29 29.9925Z" fill="#FBFBFB"/>
<path d="M24 26.9925C22.3432 26.9925 21 28.3357 21 29.9925V35.9925H27V29.9925C27 28.3357 25.6568 26.9925 24 26.9925Z" fill="#FBFBFB"/>
</g>
<defs>
<clipPath id="clip0_769_20965">
<rect width="24" height="24" fill="white" transform="translate(12 12)"/>
</clipPath>
</defs>
</svg>
