<svg width="48" height="48" viewBox="0 0 48 48" fill="none" xmlns="http://www.w3.org/2000/svg">
<path d="M36 24C36 22.374 35.286 20.84 34.075 19.876C34.215 18.254 33.635 16.665 32.485 15.514C31.335 14.365 29.751 13.783 28.208 13.959C27.16 12.714 25.626 12 24 12C22.374 12 20.84 12.714 19.876 13.925C18.252 13.785 16.664 14.364 15.514 15.515C14.364 16.665 13.785 18.255 13.959 19.792C12.714 20.84 12 22.374 12 24C12 25.626 12.714 27.16 13.925 28.124C13.785 29.746 14.365 31.336 15.515 32.486C16.665 33.637 18.259 34.218 19.792 34.041C20.84 35.286 22.374 36 24 36C25.626 36 27.16 35.286 28.124 34.075C29.742 34.214 31.334 33.636 32.485 32.485C33.634 31.335 34.214 29.745 34.04 28.208C35.286 27.16 36 25.626 36 24ZM32.753 26.678C32.274 27.081 32.029 27.671 32.083 28.295C32.171 29.328 31.803 30.34 31.071 31.071C30.339 31.803 29.329 32.17 28.295 32.083C27.669 32.032 27.082 32.274 26.679 32.753C26.011 33.546 25.035 34.001 24 34.001C22.965 34.001 21.989 33.546 21.321 32.753C20.954 32.318 20.434 32.077 19.874 32.077C19.818 32.077 19.761 32.079 19.705 32.084C18.678 32.173 17.661 31.804 16.929 31.072C16.198 30.34 15.829 29.328 15.918 28.296C15.971 27.672 15.728 27.084 15.248 26.679C14.455 26.012 14 25.035 14 24.001C14 22.967 14.455 21.99 15.248 21.322C15.727 20.918 15.971 20.329 15.917 19.705C15.829 18.673 16.197 17.661 16.929 16.929C17.661 16.198 18.673 15.832 19.705 15.918C20.326 15.967 20.917 15.727 21.322 15.248C21.989 14.455 22.966 14 24 14C25.034 14 26.011 14.455 26.679 15.248C27.082 15.726 27.67 15.974 28.296 15.917C29.321 15.833 30.339 16.197 31.071 16.929C31.802 17.66 32.171 18.673 32.083 19.705C32.029 20.329 32.273 20.918 32.753 21.322C33.545 21.989 34 22.966 34 24C34 25.034 33.545 26.011 32.753 26.678ZM28 26C28 27.654 26.654 29 25 29V30C25 30.552 24.552 31 24 31C23.448 31 23 30.552 23 30V29H22.732C21.664 29 20.669 28.426 20.134 27.501C19.858 27.023 20.021 26.412 20.499 26.135C20.976 25.858 21.588 26.022 21.865 26.5C22.043 26.808 22.376 27 22.732 27H25C25.552 27 26 26.551 26 26C26 25.622 25.729 25.302 25.356 25.24L22.314 24.733C20.973 24.51 19.999 23.36 19.999 22C19.999 20.346 21.345 19 22.999 19V18C22.999 17.448 23.447 17 23.999 17C24.551 17 24.999 17.448 24.999 18V19H25.267C26.334 19 27.33 19.575 27.865 20.5C28.142 20.978 27.978 21.589 27.501 21.866C27.021 22.142 26.409 21.979 26.135 21.501C25.956 21.192 25.624 21.001 25.268 21.001H23C22.449 21.001 22 21.45 22 22.001C22 22.379 22.271 22.699 22.644 22.761L25.685 23.268C27.027 23.491 28 24.641 28 26.001V26Z" fill="#FBFBFB"/>
</svg>
