<svg width="48" height="48" viewBox="0 0 48 48" fill="none" xmlns="http://www.w3.org/2000/svg">
<rect width="48" height="48" rx="4" fill="#3670F0"/>
<g clip-path="url(#clip0_315_8084)">
<path d="M37.75 15.25V32.75C37.748 34.407 37.0889 35.9956 35.9172 37.1672C34.7456 38.3389 33.157 38.998 31.5 39H19C17.7853 38.9984 16.5974 38.6429 15.5815 37.9769C14.5657 37.3109 13.7659 36.3633 13.28 35.25H11.5C11.1685 35.25 10.8505 35.1183 10.6161 34.8839C10.3817 34.6495 10.25 34.3315 10.25 34C10.25 33.6685 10.3817 33.3505 10.6161 33.1161C10.8505 32.8817 11.1685 32.75 11.5 32.75H12.75V30.25H11.5C11.1685 30.25 10.8505 30.1183 10.6161 29.8839C10.3817 29.6495 10.25 29.3315 10.25 29C10.25 28.6685 10.3817 28.3505 10.6161 28.1161C10.8505 27.8817 11.1685 27.75 11.5 27.75H12.75V25.25H11.5C11.1685 25.25 10.8505 25.1183 10.6161 24.8839C10.3817 24.6495 10.25 24.3315 10.25 24C10.25 23.6685 10.3817 23.3505 10.6161 23.1161C10.8505 22.8817 11.1685 22.75 11.5 22.75H12.75V20.25H11.5C11.1685 20.25 10.8505 20.1183 10.6161 19.8839C10.3817 19.6495 10.25 19.3315 10.25 19C10.25 18.6685 10.3817 18.3505 10.6161 18.1161C10.8505 17.8817 11.1685 17.75 11.5 17.75H12.75V15.25H11.5C11.1685 15.25 10.8505 15.1183 10.6161 14.8839C10.3817 14.6495 10.25 14.3315 10.25 14C10.25 13.6685 10.3817 13.3505 10.6161 13.1161C10.8505 12.8817 11.1685 12.75 11.5 12.75H13.28C13.7659 11.6367 14.5657 10.6891 15.5815 10.0231C16.5974 9.35713 17.7853 9.0016 19 9L31.5 9C33.157 9.00198 34.7456 9.6611 35.9172 10.8328C37.0889 12.0044 37.748 13.593 37.75 15.25ZM21.5 20.25C21.5 21.2446 21.8951 22.1984 22.5983 22.9017C23.3016 23.6049 24.2554 24 25.25 24C26.2446 24 27.1984 23.6049 27.9017 22.9017C28.6049 22.1984 29 21.2446 29 20.25C29 19.2554 28.6049 18.3016 27.9017 17.5983C27.1984 16.8951 26.2446 16.5 25.25 16.5C24.2554 16.5 23.3016 16.8951 22.5983 17.5983C21.8951 18.3016 21.5 19.2554 21.5 20.25ZM31.5 31.5C31.2362 23.24 19.2612 23.2425 19 31.5C19 31.8315 19.1317 32.1495 19.3661 32.3839C19.6005 32.6183 19.9185 32.75 20.25 32.75C20.5815 32.75 20.8995 32.6183 21.1339 32.3839C21.3683 32.1495 21.5 31.8315 21.5 31.5C21.5 30.5054 21.8951 29.5516 22.5983 28.8483C23.3016 28.1451 24.2554 27.75 25.25 27.75C26.2446 27.75 27.1984 28.1451 27.9017 28.8483C28.6049 29.5516 29 30.5054 29 31.5C29 31.8315 29.1317 32.1495 29.3661 32.3839C29.6005 32.6183 29.9185 32.75 30.25 32.75C30.5815 32.75 30.8995 32.6183 31.1339 32.3839C31.3683 32.1495 31.5 31.8315 31.5 31.5Z" fill="#FBFBFB"/>
</g>
<defs>
<clipPath id="clip0_315_8084">
<rect width="30" height="30" fill="white" transform="translate(9 9)"/>
</clipPath>
</defs>
</svg>
