<svg width="48" height="48" viewBox="0 0 48 48" fill="none" xmlns="http://www.w3.org/2000/svg">
<rect width="48" height="48" rx="4" fill="#3670F0"/>
<path d="M13.4042 30C14.2313 31.4356 16.0657 31.9288 17.5013 31.1017C17.5023 31.1011 17.5032 31.1005 17.5042 31.1L17.9492 30.843C18.7892 31.5616 19.7547 32.119 20.7972 32.487V33C20.7972 34.6568 22.1403 36 23.7972 36C25.454 36 26.7972 34.6568 26.7972 33V32.487C27.8398 32.1184 28.8053 31.5604 29.6452 30.841L30.0922 31.099C31.5281 31.9274 33.3637 31.4349 34.1922 29.999C35.0206 28.563 34.5281 26.7274 33.0922 25.899L32.6482 25.643C32.848 24.5554 32.848 23.4405 32.6482 22.353L33.0922 22.097C34.5281 21.2685 35.0206 19.4329 34.1922 17.997C33.3637 16.561 31.5281 16.0685 30.0922 16.8969L29.6472 17.154C28.8063 16.4362 27.8401 15.8798 26.7972 15.513V15C26.7972 13.3432 25.454 12 23.7972 12C22.1403 12 20.7972 13.3432 20.7972 15V15.513C19.7546 15.8816 18.789 16.4396 17.9492 17.159L17.5022 16.9C16.0662 16.0716 14.2306 16.5641 13.4022 18C12.5737 19.4359 13.0662 21.2716 14.5022 22.1L14.9462 22.356C14.7463 23.4435 14.7463 24.5584 14.9462 25.646L14.5022 25.902C13.0702 26.7326 12.5793 28.5647 13.4042 30ZM23.7972 20C26.0063 20 27.7972 21.7909 27.7972 24C27.7972 26.2091 26.0063 28 23.7972 28C21.588 28 19.7972 26.2091 19.7972 24C19.7972 21.7909 21.588 20 23.7972 20Z" fill="#FBFBFB"/>
</svg>
