<svg width="48" height="48" viewBox="0 0 48 48" fill="none" xmlns="http://www.w3.org/2000/svg">
<path d="M31 14H30V13C30 12.448 29.552 12 29 12C28.448 12 28 12.448 28 13V14H20V13C20 12.448 19.552 12 19 12C18.448 12 18 12.448 18 13V14H17C14.243 14 12 16.243 12 19V31C12 33.757 14.243 36 17 36H31C33.757 36 36 33.757 36 31V19C36 16.243 33.757 14 31 14ZM17 16H31C32.654 16 34 17.346 34 19V20H14V19C14 17.346 15.346 16 17 16ZM31 34H17C15.346 34 14 32.654 14 31V22H34V31C34 32.654 32.654 34 31 34ZM28.397 27.352C28.397 27.731 28.133 28.05 27.831 28.218L26.267 29.088L26.961 30.981C27.095 31.348 26.974 31.759 26.662 31.994C26.343 32.234 25.903 32.231 25.587 31.987L24.031 30.784L22.475 31.987C22.159 32.231 21.719 32.234 21.4 31.994C21.088 31.759 20.967 31.348 21.101 30.981L21.795 29.088L20.231 28.218C19.929 28.05 19.665 27.731 19.665 27.352C19.665 27.031 19.944 26.676 20.396 26.676H22.643L23.239 24.393C23.333 24.031 23.658 23.779 24.031 23.772C24.404 23.779 24.729 24.031 24.823 24.393L25.419 26.676H27.666C28.118 26.676 28.397 27.03 28.397 27.352Z" fill="#FBFBFB"/>
</svg>
