<svg width="48" height="48" viewBox="0 0 48 48" fill="none" xmlns="http://www.w3.org/2000/svg">
<g clip-path="url(#clip0_149_1858)">
<path d="M37.9013 20.3363L28.42 10.8537C27.2466 9.68374 25.6571 9.02672 24 9.02672C22.3429 9.02672 20.7535 9.68374 19.58 10.8537L10.0988 20.3363C9.7493 20.6835 9.47223 21.0966 9.28362 21.5517C9.09501 22.0068 8.99861 22.4949 9.00002 22.9875V35.2587C9.00002 36.2533 9.3951 37.2071 10.0984 37.9104C10.8016 38.6137 11.7555 39.0087 12.75 39.0087H35.25C36.2446 39.0087 37.1984 38.6137 37.9017 37.9104C38.6049 37.2071 39 36.2533 39 35.2587V22.9875C39.0014 22.4949 38.905 22.0068 38.7164 21.5517C38.5278 21.0966 38.2507 20.6835 37.9013 20.3363ZM27.75 36.5087H20.25V31.5913C20.25 30.5967 20.6451 29.6429 21.3484 28.9396C22.0516 28.2363 23.0055 27.8413 24 27.8413C24.9946 27.8413 25.9484 28.2363 26.6517 28.9396C27.3549 29.6429 27.75 30.5967 27.75 31.5913V36.5087ZM36.5 35.2587C36.5 35.5903 36.3683 35.9082 36.1339 36.1426C35.8995 36.3771 35.5815 36.5087 35.25 36.5087H30.25V31.5913C30.25 29.9336 29.5915 28.3439 28.4194 27.1718C27.2473 25.9997 25.6576 25.3413 24 25.3413C22.3424 25.3413 20.7527 25.9997 19.5806 27.1718C18.4085 28.3439 17.75 29.9336 17.75 31.5913V36.5087H12.75C12.4185 36.5087 12.1006 36.3771 11.8661 36.1426C11.6317 35.9082 11.5 35.5903 11.5 35.2587V22.9875C11.5012 22.6562 11.6328 22.3387 11.8663 22.1037L21.3475 12.625C22.0521 11.9237 23.0058 11.5299 24 11.5299C24.9942 11.5299 25.9479 11.9237 26.6525 12.625L36.1338 22.1075C36.3664 22.3416 36.4979 22.6575 36.5 22.9875V35.2587Z" fill="#FBFBFB"/>
</g>
<defs>
<clipPath id="clip0_149_1858">
<rect width="30" height="30" fill="white" transform="translate(9 9)"/>
</clipPath>
</defs>
</svg>
