<svg width="48" height="48" viewBox="0 0 48 48" fill="none" xmlns="http://www.w3.org/2000/svg">
<g clip-path="url(#clip0_149_1996)">
<path d="M39 24C39 21.9675 38.1075 20.05 36.5938 18.845C36.7688 16.8175 36.0438 14.8313 34.6063 13.3925C33.1688 11.9562 31.1887 11.2287 29.26 11.4488C27.95 9.8925 26.0325 9 24 9C21.9675 9 20.05 9.8925 18.845 11.4062C16.815 11.2313 14.83 11.955 13.3925 13.3938C11.955 14.8313 11.2313 16.8187 11.4488 18.74C9.8925 20.05 9 21.9675 9 24C9 26.0325 9.8925 27.95 11.4062 29.155C11.2313 31.1825 11.9563 33.17 13.3938 34.6075C14.8313 36.0462 16.8237 36.7725 18.74 36.5513C20.05 38.1075 21.9675 39 24 39C26.0325 39 27.95 38.1075 29.155 36.5938C31.1775 36.7675 33.1675 36.045 34.6063 34.6063C36.0425 33.1688 36.7675 31.1812 36.55 29.26C38.1075 27.95 39 26.0325 39 24ZM34.9412 27.3475C34.3425 27.8512 34.0363 28.5888 34.1038 29.3687C34.2138 30.66 33.7537 31.925 32.8387 32.8387C31.9237 33.7537 30.6613 34.2125 29.3687 34.1038C28.5863 34.04 27.8525 34.3425 27.3487 34.9412C26.5138 35.9325 25.2938 36.5012 24 36.5012C22.7063 36.5012 21.4862 35.9325 20.6512 34.9412C20.1925 34.3975 19.5425 34.0962 18.8425 34.0962C18.7725 34.0962 18.7013 34.0987 18.6313 34.105C17.3475 34.2162 16.0763 33.755 15.1613 32.84C14.2475 31.925 13.7863 30.66 13.8975 29.37C13.9637 28.59 13.66 27.855 13.06 27.3487C12.0687 26.515 11.5 25.2938 11.5 24.0013C11.5 22.7088 12.0687 21.4875 13.06 20.6525C13.6588 20.1475 13.9637 19.4113 13.8963 18.6313C13.7863 17.3413 14.2462 16.0763 15.1613 15.1613C16.0763 14.2475 17.3413 13.79 18.6313 13.8975C19.4075 13.9587 20.1462 13.6588 20.6525 13.06C21.4862 12.0687 22.7075 11.5 24 11.5C25.2925 11.5 26.5138 12.0687 27.3487 13.06C27.8525 13.6575 28.5875 13.9675 29.37 13.8963C30.6512 13.7913 31.9237 14.2462 32.8387 15.1613C33.7525 16.075 34.2138 17.3413 34.1038 18.6313C34.0363 19.4113 34.3412 20.1475 34.9412 20.6525C35.9312 21.4862 36.5 22.7075 36.5 24C36.5 25.2925 35.9312 26.5138 34.9412 27.3475ZM29 26.5C29 28.5675 27.3175 30.25 25.25 30.25V31.5C25.25 32.19 24.69 32.75 24 32.75C23.31 32.75 22.75 32.19 22.75 31.5V30.25H22.415C21.08 30.25 19.8362 29.5325 19.1675 28.3763C18.8225 27.7788 19.0262 27.015 19.6237 26.6688C20.22 26.3225 20.985 26.5275 21.3312 27.125C21.5538 27.51 21.97 27.75 22.415 27.75H25.25C25.94 27.75 26.5 27.1887 26.5 26.5C26.5 26.0275 26.1612 25.6275 25.695 25.55L21.8925 24.9163C20.2163 24.6375 18.9987 23.2 18.9987 21.5C18.9987 19.4325 20.6812 17.75 22.7487 17.75V16.5C22.7487 15.81 23.3087 15.25 23.9987 15.25C24.6887 15.25 25.2487 15.81 25.2487 16.5V17.75H25.5837C26.9175 17.75 28.1625 18.4688 28.8312 19.625C29.1775 20.2225 28.9725 20.9862 28.3763 21.3325C27.7763 21.6775 27.0112 21.4738 26.6688 20.8763C26.445 20.49 26.03 20.2513 25.585 20.2513H22.75C22.0612 20.2513 21.5 20.8125 21.5 21.5013C21.5 21.9738 21.8387 22.3737 22.305 22.4513L26.1063 23.085C27.7838 23.3637 29 24.8013 29 26.5013V26.5Z" fill="#FBFBFB"/>
</g>
<defs>
<clipPath id="clip0_149_1996">
<rect width="30" height="30" fill="white" transform="translate(9 9)"/>
</clipPath>
</defs>
</svg>
