<svg width="48" height="48" viewBox="0 0 48 48" fill="none" xmlns="http://www.w3.org/2000/svg">
<rect width="48" height="48" rx="4" fill="#3670F0"/>
<path d="M12 31C12 33.757 14.243 36 17 36H31C33.757 36 36 33.757 36 31V22H12V31ZM20.397 27.677H22.644L23.24 25.394C23.334 25.032 23.659 24.78 24.032 24.773C24.405 24.78 24.73 25.032 24.824 25.394L25.42 27.677H27.667C28.119 27.677 28.398 28.031 28.398 28.353C28.398 28.732 28.134 29.051 27.832 29.219L26.268 30.089L26.962 31.982C27.096 32.349 26.975 32.76 26.663 32.995C26.344 33.235 25.904 33.232 25.588 32.988L24.032 31.785L22.476 32.988C22.16 33.232 21.72 33.235 21.401 32.995C21.089 32.76 20.968 32.349 21.102 31.982L21.796 30.089L20.232 29.219C19.93 29.051 19.666 28.732 19.666 28.353C19.666 28.032 19.945 27.677 20.397 27.677ZM36 19V20H12V19C12 16.243 14.243 14 17 14H18V13C18 12.448 18.448 12 19 12C19.552 12 20 12.448 20 13V14H28V13C28 12.448 28.448 12 29 12C29.552 12 30 12.448 30 13V14H31C33.757 14 36 16.243 36 19Z" fill="#FBFBFB"/>
</svg>
