<svg width="44" height="44" viewBox="0 0 44 44" fill="none" xmlns="http://www.w3.org/2000/svg">
<g clip-path="url(#clip0_769_20978)">
<path d="M33.121 19.069L25.536 11.483C24.5973 10.547 23.3257 10.0214 22 10.0214C20.6744 10.0214 19.4028 10.547 18.464 11.483L10.879 19.069C10.5994 19.3468 10.3778 19.6773 10.2269 20.0414C10.076 20.4055 9.99889 20.7959 10 21.19V31.007C10 31.8026 10.3161 32.5657 10.8787 33.1283C11.4413 33.6909 12.2044 34.007 13 34.007H31C31.7957 34.007 32.5587 33.6909 33.1213 33.1283C33.6839 32.5657 34 31.8026 34 31.007V21.19C34.0011 20.7959 33.924 20.4055 33.7731 20.0414C33.6222 19.6773 33.4006 19.3468 33.121 19.069ZM25 32.007H19V28.073C19 27.2773 19.3161 26.5143 19.8787 25.9517C20.4413 25.3891 21.2044 25.073 22 25.073C22.7957 25.073 23.5587 25.3891 24.1213 25.9517C24.6839 26.5143 25 27.2773 25 28.073V32.007ZM32 31.007C32 31.2722 31.8947 31.5266 31.7071 31.7141C31.5196 31.9016 31.2652 32.007 31 32.007H27V28.073C27 26.7469 26.4732 25.4751 25.5355 24.5375C24.5979 23.5998 23.3261 23.073 22 23.073C20.6739 23.073 19.4022 23.5998 18.4645 24.5375C17.5268 25.4751 17 26.7469 17 28.073V32.007H13C12.7348 32.007 12.4804 31.9016 12.2929 31.7141C12.1054 31.5266 12 31.2722 12 31.007V21.19C12.0009 20.925 12.1062 20.671 12.293 20.483L19.878 12.9C20.4417 12.3389 21.2047 12.0239 22 12.0239C22.7953 12.0239 23.5583 12.3389 24.122 12.9L31.707 20.486C31.8931 20.6732 31.9983 20.926 32 21.19V31.007Z" fill="#FBFBFB"/>
</g>
<defs>
<clipPath id="clip0_769_20978">
<rect width="24" height="24" fill="white" transform="translate(10 10)"/>
</clipPath>
</defs>
</svg>
