<svg width="48" height="48" viewBox="0 0 48 48" fill="none" xmlns="http://www.w3.org/2000/svg">
<rect width="48" height="48" rx="4" fill="#3670F0"/>
<path d="M23 12H15C14.2044 12 13.4413 12.3161 12.8787 12.8787C12.3161 13.4413 12 14.2044 12 15V36H26V15C26 14.2044 25.6839 13.4413 25.1213 12.8787C24.5587 12.3161 23.7956 12 23 12ZM18 31H15V29H18V31ZM18 27H15V25H18V27ZM18 23H15V21H18V23ZM18 19H15V17H18V19ZM23 31H20V29H23V31ZM23 27H20V25H23V27ZM23 23H20V21H23V23ZM23 19H20V17H23V19ZM33 17H28V36H36V20C36 19.2044 35.6839 18.4413 35.1213 17.8787C34.5587 17.3161 33.7956 17 33 17ZM33 31H31V29H33V31ZM33 27H31V25H33V27ZM33 23H31V21H33V23Z" fill="#FBFBFB"/>
</svg>
