<svg width="48" height="48" viewBox="0 0 48 48" fill="none" xmlns="http://www.w3.org/2000/svg">
<rect width="48" height="48" rx="4" fill="#3670F0"/>
<g clip-path="url(#clip0_315_8084)">
<path d="M35 17V31C34.9984 32.3256 34.4711 33.5964 33.5338 34.5338C32.5964 35.4711 31.3256 35.9984 30 36H20C19.0282 35.9987 18.0779 35.7143 17.2652 35.1815C16.4525 34.6487 15.8127 33.8906 15.424 33H14C13.7348 33 13.4804 32.8946 13.2929 32.7071C13.1054 32.5196 13 32.2652 13 32C13 31.7348 13.1054 31.4804 13.2929 31.2929C13.4804 31.1054 13.7348 31 14 31H15V29H14C13.7348 29 13.4804 28.8946 13.2929 28.7071C13.1054 28.5196 13 28.2652 13 28C13 27.7348 13.1054 27.4804 13.2929 27.2929C13.4804 27.1054 13.7348 27 14 27H15V25H14C13.7348 25 13.4804 24.8946 13.2929 24.7071C13.1054 24.5196 13 24.2652 13 24C13 23.7348 13.1054 23.4804 13.2929 23.2929C13.4804 23.1054 13.7348 23 14 23H15V21H14C13.7348 21 13.4804 20.8946 13.2929 20.7071C13.1054 20.5196 13 20.2652 13 20C13 19.7348 13.1054 19.4804 13.2929 19.2929C13.4804 19.1054 13.7348 19 14 19H15V17H14C13.7348 17 13.4804 16.8946 13.2929 16.7071C13.1054 16.5196 13 16.2652 13 16C13 15.7348 13.1054 15.4804 13.2929 15.2929C13.4804 15.1054 13.7348 15 14 15H15.424C15.8127 14.1094 16.4525 13.3513 17.2652 12.8185C18.0779 12.2857 19.0282 12.0013 20 12H30C31.3256 12.0016 32.5964 12.5289 33.5338 13.4662C34.4711 14.4036 34.9984 15.6744 35 17ZM22 21C22 21.7956 22.3161 22.5587 22.8787 23.1213C23.4413 23.6839 24.2044 24 25 24C25.7956 24 26.5587 23.6839 27.1213 23.1213C27.6839 22.5587 28 21.7956 28 21C28 20.2044 27.6839 19.4413 27.1213 18.8787C26.5587 18.3161 25.7956 18 25 18C24.2044 18 23.4413 18.3161 22.8787 18.8787C22.3161 19.4413 22 20.2044 22 21ZM30 30C29.789 23.392 20.209 23.394 20 30C20 30.2652 20.1054 30.5196 20.2929 30.7071C20.4804 30.8946 20.7348 31 21 31C21.2652 31 21.5196 30.8946 21.7071 30.7071C21.8946 30.5196 22 30.2652 22 30C22 29.2044 22.3161 28.4413 22.8787 27.8787C23.4413 27.3161 24.2044 27 25 27C25.7956 27 26.5587 27.3161 27.1213 27.8787C27.6839 28.4413 28 29.2044 28 30C28 30.2652 28.1054 30.5196 28.2929 30.7071C28.4804 30.8946 28.7348 31 29 31C29.2652 31 29.5196 30.8946 29.7071 30.7071C29.8946 30.5196 30 30.2652 30 30Z" fill="#FBFBFB"/>
</g>
<defs>
<clipPath id="clip0_315_8084">
<rect width="24" height="24" fill="white" transform="translate(12 12)"/>
</clipPath>
</defs>
</svg>
