<svg width="16" height="16" viewBox="0 0 16 16" fill="none" xmlns="http://www.w3.org/2000/svg">
<g clip-path="url(#clip0_1711_140777)">
<path fill-rule="evenodd" clip-rule="evenodd" d="M1.51905 7.03026C1.35449 7.19477 1.22396 7.39009 1.1349 7.60505C1.04584 7.82002 1 8.05043 1 8.28311C1 8.5158 1.04584 8.7462 1.1349 8.96117C1.22396 9.17614 1.35449 9.37145 1.51905 9.53596L3.52375 11.54C3.78669 11.8027 4.1256 11.976 4.4925 12.0355C4.85939 12.0949 5.2357 12.0375 5.56814 11.8712C5.90059 11.705 6.17233 11.4385 6.34491 11.1093C6.51748 10.7801 6.58215 10.4049 6.52975 10.037L7.21925 9.34747L11.5263 14.3178C11.7043 14.523 11.9227 14.6894 12.1679 14.8066C12.413 14.9237 12.6797 14.9891 12.9512 14.9988C13.2228 15.0084 13.4934 14.962 13.7462 14.8625C13.999 14.7629 14.2287 14.6124 14.4208 14.4203C14.6129 14.2282 14.7634 13.9985 14.863 13.7457C14.9625 13.4929 15.0089 13.2223 14.9993 12.9507C14.9896 12.6792 14.9242 12.4126 14.8071 12.1674C14.6899 11.9222 14.5235 11.7038 14.3183 11.5258L9.34867 7.21804L10.0375 6.52926C10.4056 6.58185 10.7809 6.51728 11.1103 6.34469C11.4397 6.17209 11.7064 5.90023 11.8726 5.56762C12.0389 5.235 12.0963 4.85851 12.0367 4.49146C11.9771 4.12442 11.8035 3.78544 11.5405 3.52255L9.53646 1.51926C9.27354 1.25618 8.93448 1.08252 8.56735 1.02291C8.20022 0.96329 7.82363 1.02074 7.49097 1.18711C7.15832 1.35347 6.88646 1.62032 6.71393 1.94983C6.54141 2.27934 6.47697 2.65479 6.52975 3.02297L3.02205 6.52997C2.74993 6.49099 2.47247 6.51597 2.2117 6.60294C1.95092 6.68991 1.71401 6.83646 1.51975 7.03097L1.51905 7.03026ZM8.78531 5.77811L5.77931 8.78411L4.27561 7.28111L7.28231 4.2744L8.78531 5.77811ZM2.52105 8.53396C2.4881 8.50107 2.46196 8.46201 2.44412 8.41901C2.42627 8.37601 2.41707 8.32992 2.41703 8.28336C2.417 8.23681 2.42614 8.1907 2.44392 8.14768C2.46171 8.10465 2.48779 8.06555 2.52069 8.03261C2.55359 7.99967 2.59265 7.97353 2.63565 7.95568C2.67865 7.93783 2.72474 7.92863 2.77129 7.9286C2.81785 7.92857 2.86396 7.9377 2.90698 7.95549C2.95 7.97327 2.9891 7.99936 3.02205 8.03226L5.02675 10.037C5.06059 10.0696 5.08759 10.1087 5.10615 10.152C5.12472 10.1952 5.1345 10.2417 5.13491 10.2887C5.13532 10.3358 5.12635 10.3824 5.10854 10.426C5.09072 10.4695 5.06441 10.5091 5.03114 10.5424C4.99788 10.5756 4.95832 10.6019 4.91477 10.6197C4.87123 10.6376 4.82457 10.6465 4.77753 10.6461C4.73048 10.6457 4.68399 10.6359 4.64076 10.6174C4.59753 10.5988 4.55844 10.5718 4.52575 10.538L2.52105 8.53396ZM8.03275 3.02155C7.99891 2.98887 7.97192 2.94977 7.95335 2.90654C7.93478 2.86331 7.92501 2.81682 7.9246 2.76978C7.92419 2.72273 7.93315 2.67607 7.95097 2.63253C7.96878 2.58899 7.99509 2.54943 8.02836 2.51616C8.06163 2.48289 8.10119 2.45658 8.14473 2.43877C8.18827 2.42095 8.23493 2.41199 8.28198 2.4124C8.32902 2.41281 8.37551 2.42258 8.41874 2.44115C8.46197 2.45972 8.50107 2.48671 8.53375 2.52055L10.5385 4.52526C10.5723 4.55794 10.5993 4.59704 10.6179 4.64027C10.6364 4.68349 10.6462 4.72999 10.6466 4.77703C10.647 4.82408 10.6381 4.87073 10.6202 4.91428C10.6024 4.95782 10.5761 4.99738 10.5428 5.03065C10.5096 5.06392 10.47 5.09023 10.4265 5.10804C10.3829 5.12586 10.3363 5.13482 10.2892 5.13441C10.2422 5.134 10.1957 5.12423 10.1525 5.10566C10.1092 5.08709 10.0701 5.0601 10.0375 5.02626L8.03275 3.02155ZM12.5977 13.3895L8.3403 8.47727L8.47777 8.33909L13.3907 12.5965C13.4473 12.6476 13.4929 12.7096 13.5247 12.7789C13.5566 12.8481 13.574 12.9231 13.576 12.9993C13.5779 13.0755 13.5643 13.1513 13.5361 13.2221C13.5078 13.2929 13.4654 13.3572 13.4116 13.4111C13.3577 13.465 13.2934 13.5073 13.2226 13.5356C13.1518 13.5638 13.076 13.5774 12.9998 13.5755C12.9236 13.5735 12.8486 13.5561 12.7794 13.5242C12.7101 13.4924 12.6481 13.4468 12.597 13.3902L12.5977 13.3895Z" fill="#383D54"/>
</g>
<defs>
<clipPath id="clip0_1711_140777">
<rect width="16" height="16" fill="white"/>
</clipPath>
</defs>
</svg>
