<svg width="30" height="30" viewBox="0 0 30 30" fill="none" xmlns="http://www.w3.org/2000/svg">
<path d="M15 9.75C14.826 9.75 14.659 9.81914 14.536 9.94221C14.4129 10.0653 14.3438 10.2322 14.3438 10.4062V14.3438H10.4062C10.2322 14.3438 10.0653 14.4129 9.94221 14.536C9.81914 14.659 9.75 14.826 9.75 15C9.75 15.174 9.81914 15.341 9.94221 15.464C10.0653 15.5871 10.2322 15.6562 10.4062 15.6562H14.3438V19.5938C14.3438 19.7678 14.4129 19.9347 14.536 20.0578C14.659 20.1809 14.826 20.25 15 20.25C15.174 20.25 15.341 20.1809 15.464 20.0578C15.5871 19.9347 15.6562 19.7678 15.6562 19.5938V15.6562H19.5938C19.7678 15.6562 19.9347 15.5871 20.0578 15.464C20.1809 15.341 20.25 15.174 20.25 15C20.25 14.826 20.1809 14.659 20.0578 14.536C19.9347 14.4129 19.7678 14.3438 19.5938 14.3438H15.6562V10.4062C15.6562 10.2322 15.5871 10.0653 15.464 9.94221C15.341 9.81914 15.174 9.75 15 9.75Z" fill="#3670F0"/>
<rect x="0.5" y="0.5" width="29" height="29" rx="14.5" stroke="#3670F0"/>
</svg>
