<svg width="16" height="16" viewBox="0 0 16 16" fill="none" xmlns="http://www.w3.org/2000/svg">
<g clip-path="url(#clip0_1386_82426)">
<path d="M15.4294 5.71373C15.4294 5.41062 15.309 5.11993 15.0947 4.90561C14.8803 4.69128 14.5897 4.57087 14.2866 4.57087H12.0008L10.2866 2.28516H5.71512L4.00084 4.57087H1.71512C1.41202 4.57087 1.12133 4.69128 0.907001 4.90561C0.692673 5.11993 0.572266 5.41062 0.572266 5.71373V12.5709C0.572266 12.874 0.692673 13.1647 0.907001 13.379C1.12133 13.5933 1.41202 13.7137 1.71512 13.7137H14.2866C14.5897 13.7137 14.8803 13.5933 15.0947 13.379C15.309 13.1647 15.4294 12.874 15.4294 12.5709V5.71373Z" stroke="#3670F0" stroke-width="1.5" stroke-linecap="round" stroke-linejoin="round"/>
<path d="M8.00112 11.1419C9.42128 11.1419 10.5725 9.99061 10.5725 8.57045C10.5725 7.15029 9.42128 5.99902 8.00112 5.99902C6.58096 5.99902 5.42969 7.15029 5.42969 8.57045C5.42969 9.99061 6.58096 11.1419 8.00112 11.1419Z" stroke="#3670F0" stroke-width="1.5" stroke-linecap="round" stroke-linejoin="round"/>
</g>
<defs>
<clipPath id="clip0_1386_82426">
<rect width="16" height="16" fill="white"/>
</clipPath>
</defs>
</svg>
