<svg width="18" height="18" viewBox="0 0 18 18" fill="none" xmlns="http://www.w3.org/2000/svg">
<path d="M15.4801 11.8315C15.8935 11.3598 16.1226 10.7547 16.1251 10.1275C16.1251 9.43131 15.8486 8.76363 15.3563 8.27135C14.864 7.77906 14.1963 7.5025 13.5001 7.5025C12.8039 7.5025 12.1363 7.77906 11.644 8.27135C11.1517 8.76363 10.8751 9.43131 10.8751 10.1275C10.8776 10.7547 11.1067 11.3598 11.5201 11.8315C10.9801 12.1663 10.5342 12.633 10.2245 13.1878C9.91487 13.7426 9.75159 14.3671 9.75012 15.0025C9.75012 15.2014 9.82914 15.3922 9.96979 15.5328C10.1104 15.6735 10.3012 15.7525 10.5001 15.7525C10.699 15.7525 10.8898 15.6735 11.0305 15.5328C11.1711 15.3922 11.2501 15.2014 11.2501 15.0025C11.2501 14.4058 11.4872 13.8335 11.9091 13.4115C12.3311 12.9896 12.9034 12.7525 13.5001 12.7525C14.0969 12.7525 14.6692 12.9896 15.0911 13.4115C15.5131 13.8335 15.7501 14.4058 15.7501 15.0025C15.7501 15.2014 15.8291 15.3922 15.9698 15.5328C16.1104 15.6735 16.3012 15.7525 16.5001 15.7525C16.699 15.7525 16.8898 15.6735 17.0305 15.5328C17.1711 15.3922 17.2501 15.2014 17.2501 15.0025C17.2486 14.3671 17.0854 13.7426 16.7757 13.1878C16.466 12.633 16.0202 12.1663 15.4801 11.8315ZM13.5001 11.2525C13.2776 11.2525 13.0601 11.1865 12.8751 11.0629C12.6901 10.9393 12.5459 10.7636 12.4608 10.558C12.3756 10.3525 12.3533 10.1263 12.3967 9.90803C12.4401 9.6898 12.5473 9.48934 12.7046 9.33201C12.862 9.17467 13.0624 9.06753 13.2806 9.02412C13.4989 8.98071 13.7251 9.00299 13.9306 9.08814C14.1362 9.17329 14.3119 9.31748 14.4355 9.50249C14.5591 9.68749 14.6251 9.905 14.6251 10.1275C14.6247 10.4257 14.5061 10.7117 14.2952 10.9226C14.0843 11.1335 13.7984 11.2521 13.5001 11.2525ZM5.09487 4.65775L6.59487 6.15775C6.73632 6.29437 6.92578 6.36997 7.12242 6.36826C7.31907 6.36655 7.50718 6.28767 7.64624 6.14862C7.78529 6.00956 7.86417 5.82145 7.86588 5.6248C7.86759 5.42816 7.79199 5.2387 7.65537 5.09725L7.43562 4.8775H10.5646L10.3449 5.09725C10.2732 5.16644 10.2161 5.2492 10.1768 5.3407C10.1375 5.4322 10.1168 5.53062 10.1159 5.6302C10.1151 5.72979 10.134 5.82855 10.1718 5.92072C10.2095 6.01289 10.2652 6.09663 10.3356 6.16705C10.406 6.23747 10.4897 6.29316 10.5819 6.33087C10.6741 6.36858 10.7728 6.38756 10.8724 6.38669C10.972 6.38583 11.0704 6.36514 11.1619 6.32583C11.2534 6.28652 11.3362 6.22939 11.4054 6.15775L12.9054 4.65775C13.0452 4.51672 13.1237 4.32613 13.1237 4.1275C13.1237 3.92887 13.0452 3.73829 12.9054 3.59725L11.4054 2.09725C11.2639 1.96063 11.0745 1.88504 10.8778 1.88675C10.6812 1.88846 10.4931 1.96733 10.354 2.10639C10.215 2.24544 10.1361 2.43355 10.1344 2.6302C10.1327 2.82685 10.2083 3.0163 10.3449 3.15775L10.5646 3.3775H7.43562L7.65537 3.15775C7.79199 3.0163 7.86759 2.82685 7.86588 2.6302C7.86417 2.43355 7.78529 2.24544 7.64624 2.10639C7.50718 1.96733 7.31907 1.88846 7.12242 1.88675C6.92578 1.88504 6.73632 1.96063 6.59487 2.09725L5.09487 3.59725C4.955 3.73829 4.87652 3.92887 4.87652 4.1275C4.87652 4.32613 4.955 4.51672 5.09487 4.65775ZM6.48012 11.8315C6.89354 11.3598 7.1226 10.7547 7.12512 10.1275C7.12512 9.43131 6.84856 8.76363 6.35628 8.27135C5.86399 7.77906 5.19632 7.5025 4.50012 7.5025C3.80393 7.5025 3.13625 7.77906 2.64397 8.27135C2.15168 8.76363 1.87512 9.43131 1.87512 10.1275C1.87764 10.7547 2.10671 11.3598 2.52012 11.8315C1.98009 12.1663 1.53422 12.633 1.22454 13.1878C0.914865 13.7426 0.751594 14.3671 0.750122 15.0025C0.750122 15.2014 0.82914 15.3922 0.969792 15.5328C1.11044 15.6735 1.30121 15.7525 1.50012 15.7525C1.69903 15.7525 1.8898 15.6735 2.03045 15.5328C2.1711 15.3922 2.25012 15.2014 2.25012 15.0025C2.25012 14.4058 2.48717 13.8335 2.90913 13.4115C3.33109 12.9896 3.90339 12.7525 4.50012 12.7525C5.09686 12.7525 5.66916 12.9896 6.09111 13.4115C6.51307 13.8335 6.75012 14.4058 6.75012 15.0025C6.75012 15.2014 6.82914 15.3922 6.96979 15.5328C7.11044 15.6735 7.30121 15.7525 7.50012 15.7525C7.69903 15.7525 7.8898 15.6735 8.03045 15.5328C8.1711 15.3922 8.25012 15.2014 8.25012 15.0025C8.24865 14.3671 8.08538 13.7426 7.7757 13.1878C7.46603 12.633 7.02015 12.1663 6.48012 11.8315ZM4.50012 11.2525C4.27762 11.2525 4.06011 11.1865 3.87511 11.0629C3.6901 10.9393 3.54591 10.7636 3.46076 10.558C3.37561 10.3525 3.35333 10.1263 3.39674 9.90803C3.44015 9.6898 3.54729 9.48934 3.70463 9.33201C3.86196 9.17467 4.06242 9.06753 4.28065 9.02412C4.49887 8.98071 4.72507 9.00299 4.93064 9.08814C5.13621 9.17329 5.31191 9.31748 5.43553 9.50249C5.55914 9.68749 5.62512 9.905 5.62512 10.1275C5.62473 10.4257 5.50607 10.7117 5.29518 10.9226C5.08429 11.1335 4.79837 11.2521 4.50012 11.2525Z" fill="#3670F0"/>
</svg>
