<svg width="18" height="18" viewBox="0 0 18 18" fill="none" xmlns="http://www.w3.org/2000/svg">
<path d="M14.097 12.903C14.1756 12.9814 14.238 13.0746 14.2806 13.1771C14.3232 13.2797 14.3451 13.3897 14.3451 13.5007C14.3451 13.6118 14.3232 13.7217 14.2806 13.8243C14.238 13.9268 14.1756 14.02 14.097 14.0984C14.0175 14.1771 12.1282 16.0327 9 16.0327C6.62977 16.0327 4.82695 14.805 3.65625 13.6519V14.625C3.65625 14.8488 3.56736 15.0634 3.40912 15.2216C3.25089 15.3799 3.03628 15.4687 2.8125 15.4687C2.58872 15.4687 2.37411 15.3799 2.21588 15.2216C2.05764 15.0634 1.96875 14.8488 1.96875 14.625V11.25C1.96875 11.0262 2.05764 10.8116 2.21588 10.6534C2.37411 10.4951 2.58872 10.4062 2.8125 10.4062H6.1875C6.41128 10.4062 6.62589 10.4951 6.78412 10.6534C6.94236 10.8116 7.03125 11.0262 7.03125 11.25C7.03125 11.4738 6.94236 11.6884 6.78412 11.8466C6.62589 12.0049 6.41128 12.0937 6.1875 12.0937H4.50844C5.42953 13.1006 6.975 14.3437 9 14.3437C11.4349 14.3437 12.889 12.9178 12.903 12.903C12.9814 12.8246 13.0745 12.7624 13.1769 12.7199C13.2793 12.6774 13.3891 12.6556 13.5 12.6556C13.6109 12.6556 13.7207 12.6774 13.8231 12.7199C13.9255 12.7624 14.0186 12.8246 14.097 12.903ZM15.1875 2.53125C14.9637 2.53125 14.7491 2.62014 14.5909 2.77838C14.4326 2.93661 14.3438 3.15122 14.3438 3.375V4.34953C13.173 3.19641 11.3702 1.96875 9 1.96875C5.87391 1.96875 3.9825 3.8243 3.90305 3.90305C3.74454 4.06155 3.65549 4.27654 3.65549 4.5007C3.65549 4.72487 3.74454 4.93985 3.90305 5.09836C4.06156 5.25687 4.27654 5.34592 4.5007 5.34592C4.72487 5.34592 4.93985 5.25687 5.09836 5.09836C5.11102 5.08219 6.56508 3.65625 9 3.65625C11.025 3.65625 12.5705 4.89937 13.4916 5.90625H11.8125C11.5887 5.90625 11.3741 5.99514 11.2159 6.15338C11.0576 6.31161 10.9688 6.52622 10.9688 6.75C10.9688 6.97378 11.0576 7.18839 11.2159 7.34662C11.3741 7.50485 11.5887 7.59375 11.8125 7.59375H15.1875C15.4113 7.59375 15.6259 7.50485 15.7841 7.34662C15.9424 7.18839 16.0312 6.97378 16.0312 6.75V3.375C16.0312 3.15122 15.9424 2.93661 15.7841 2.77838C15.6259 2.62014 15.4113 2.53125 15.1875 2.53125Z" fill="#3670F0"/>
</svg>
