<svg width="16" height="16" viewBox="0 0 16 16" fill="none" xmlns="http://www.w3.org/2000/svg">
<path d="M4.16699 1.33594C3.76917 1.33594 3.38764 1.49397 3.10633 1.77528C2.82503 2.05658 2.66699 2.43811 2.66699 2.83594V13.1693C2.66699 13.5671 2.82503 13.9486 3.10633 14.2299C3.38764 14.5112 3.76917 14.6693 4.16699 14.6693H9.16699C9.5624 14.6693 9.94183 14.5132 10.2227 14.2349C10.5036 13.9566 10.6633 13.5787 10.667 13.1833V12.1699C10.667 12.0373 10.6143 11.9102 10.5205 11.8164C10.4268 11.7226 10.2996 11.6699 10.167 11.6699C9.86499 11.6699 9.67433 11.5879 9.54299 11.4819C9.40433 11.3706 9.28966 11.1986 9.20233 10.9559C9.02033 10.4526 9.00099 9.78927 9.00099 9.16927C9.00098 9.04254 8.95285 8.92054 8.86633 8.82794L8.75633 8.70994C8.72048 8.66964 8.68265 8.63115 8.64299 8.5946C8.59366 8.54794 8.44299 8.4046 7.85433 7.81594C7.54166 7.50327 7.36899 7.23927 7.31233 7.03727C7.28941 6.96731 7.28573 6.89248 7.30166 6.8206C7.32675 6.73772 7.374 6.66326 7.43833 6.60527C7.49615 6.54122 7.57038 6.49419 7.65299 6.46927C7.72464 6.45333 7.79926 6.45702 7.86899 6.47994C8.07033 6.5366 8.33433 6.7106 8.64699 7.02327C9.00699 7.38327 9.34899 7.7206 9.65499 8.02327C10.1617 8.5246 10.5703 8.92994 10.8017 9.1766C10.8923 9.27278 11.0173 9.32916 11.1494 9.33342C11.2815 9.33769 11.4099 9.28949 11.5065 9.19936C11.6032 9.10923 11.6602 8.9845 11.6652 8.85244C11.6701 8.72038 11.6226 8.59173 11.533 8.4946C11.2492 8.19781 10.9605 7.90577 10.667 7.6186V5.37594L12.561 7.2706C12.8423 7.55194 13.001 7.93327 13.001 8.3306V14.1693C13.001 14.3019 13.0537 14.4291 13.1474 14.5228C13.2412 14.6166 13.3684 14.6693 13.501 14.6693C13.6336 14.6693 13.7608 14.6166 13.8545 14.5228C13.9483 14.4291 14.001 14.3019 14.001 14.1693V8.33127C14.001 8.0029 13.9362 7.67774 13.8105 7.37439C13.6848 7.07103 13.5006 6.79541 13.2683 6.56327L10.667 3.96194V2.83527C10.6668 2.43756 10.5087 2.0562 10.2274 1.77504C9.94613 1.49388 9.5647 1.33594 9.16699 1.33594H4.16699ZM8.91633 12.2613C9.13549 12.4366 9.39251 12.5585 9.66699 12.6173V12.6693H9.16699C9.03438 12.6693 8.90721 12.7219 8.81344 12.8157C8.71967 12.9095 8.66699 13.0367 8.66699 13.1693V13.6693H7.66699V13.1693C7.66702 12.8867 7.74689 12.6098 7.89739 12.3706C8.04789 12.1314 8.26291 11.9396 8.51766 11.8173C8.62433 11.9799 8.75499 12.1319 8.91633 12.2613ZM8.00166 9.3666C8.00299 9.53527 8.00633 9.71727 8.01633 9.9066C7.7059 10.1265 7.34642 10.2671 6.96921 10.3163C6.59199 10.3655 6.20847 10.3216 5.85206 10.1887C5.49565 10.0557 5.17715 9.83763 4.9243 9.55341C4.67146 9.26919 4.49194 8.92746 4.40139 8.55798C4.31083 8.18851 4.31198 7.8025 4.40474 7.43358C4.4975 7.06465 4.67905 6.724 4.93358 6.44129C5.18811 6.15858 5.5079 5.94239 5.8651 5.81155C6.2223 5.68071 6.60607 5.63919 6.98299 5.6906C6.89433 5.74994 6.80966 5.81927 6.73099 5.8986C6.53633 6.09327 6.39766 6.3186 6.33299 6.57194C6.26833 6.82527 6.28366 7.0746 6.34966 7.30794C6.47566 7.7566 6.79299 8.1686 7.14766 8.52327C7.41879 8.79772 7.69348 9.06863 7.97166 9.33594L7.97433 9.33794L7.99899 9.36394L8.00166 9.3666ZM4.66699 2.33594H5.66699V2.83594C5.66699 3.23376 5.50896 3.61529 5.22765 3.8966C4.94635 4.1779 4.56482 4.33594 4.16699 4.33594H3.66699V3.33594H4.16699C4.2996 3.33594 4.42678 3.28326 4.52055 3.18949C4.61431 3.09572 4.66699 2.96855 4.66699 2.83594V2.33594ZM7.66699 2.33594H8.66699V2.83594C8.66699 3.11194 8.89099 3.33594 9.16699 3.33594H9.66699V4.33594H9.16699C8.76917 4.33594 8.38764 4.1779 8.10633 3.8966C7.82503 3.61529 7.66699 3.23376 7.66699 2.83594V2.33594ZM5.66699 13.6693H4.66699V13.1693C4.66699 13.0367 4.61431 12.9095 4.52055 12.8157C4.42678 12.7219 4.2996 12.6693 4.16699 12.6693H3.66699V11.6693H4.16699C4.56482 11.6693 4.94635 11.8273 5.22765 12.1086C5.50896 12.3899 5.66699 12.7714 5.66699 13.1693V13.6693Z" fill="#F58707"/>
</svg>
