<svg width="16" height="16" viewBox="0 0 16 16" fill="none" xmlns="http://www.w3.org/2000/svg">
<path d="M7.2 11.6C7.35913 11.6 7.51174 11.5368 7.62426 11.4243C7.73679 11.3117 7.8 11.1591 7.8 11V7.4C7.8 7.24087 7.73679 7.08826 7.62426 6.97574C7.51174 6.86321 7.35913 6.8 7.2 6.8C7.04087 6.8 6.88826 6.86321 6.77574 6.97574C6.66321 7.08826 6.6 7.24087 6.6 7.4V11C6.6 11.1591 6.66321 11.3117 6.77574 11.4243C6.88826 11.5368 7.04087 11.6 7.2 11.6ZM13.2 4.4H10.8V3.8C10.8 3.32261 10.6104 2.86477 10.2728 2.52721C9.93523 2.18964 9.47739 2 9 2H7.8C7.32261 2 6.86477 2.18964 6.52721 2.52721C6.18964 2.86477 6 3.32261 6 3.8V4.4H3.6C3.44087 4.4 3.28826 4.46321 3.17574 4.57574C3.06321 4.68826 3 4.84087 3 5C3 5.15913 3.06321 5.31174 3.17574 5.42426C3.28826 5.53679 3.44087 5.6 3.6 5.6H4.2V12.2C4.2 12.6774 4.38964 13.1352 4.72721 13.4728C5.06477 13.8104 5.52261 14 6 14H10.8C11.2774 14 11.7352 13.8104 12.0728 13.4728C12.4104 13.1352 12.6 12.6774 12.6 12.2V5.6H13.2C13.3591 5.6 13.5117 5.53679 13.6243 5.42426C13.7368 5.31174 13.8 5.15913 13.8 5C13.8 4.84087 13.7368 4.68826 13.6243 4.57574C13.5117 4.46321 13.3591 4.4 13.2 4.4ZM7.2 3.8C7.2 3.64087 7.26321 3.48826 7.37574 3.37574C7.48826 3.26321 7.64087 3.2 7.8 3.2H9C9.15913 3.2 9.31174 3.26321 9.42426 3.37574C9.53679 3.48826 9.6 3.64087 9.6 3.8V4.4H7.2V3.8ZM11.4 12.2C11.4 12.3591 11.3368 12.5117 11.2243 12.6243C11.1117 12.7368 10.9591 12.8 10.8 12.8H6C5.84087 12.8 5.68826 12.7368 5.57574 12.6243C5.46321 12.5117 5.4 12.3591 5.4 12.2V5.6H11.4V12.2ZM9.6 11.6C9.75913 11.6 9.91174 11.5368 10.0243 11.4243C10.1368 11.3117 10.2 11.1591 10.2 11V7.4C10.2 7.24087 10.1368 7.08826 10.0243 6.97574C9.91174 6.86321 9.75913 6.8 9.6 6.8C9.44087 6.8 9.28826 6.86321 9.17574 6.97574C9.06321 7.08826 9 7.24087 9 7.4V11C9 11.1591 9.06321 11.3117 9.17574 11.4243C9.28826 11.5368 9.44087 11.6 9.6 11.6Z" fill="#383D54"/>
</svg>
