<svg width="16" height="16" viewBox="0 0 16 16" fill="none" xmlns="http://www.w3.org/2000/svg">
<path d="M10.667 10.6641V11.9974C10.667 12.351 10.5265 12.6902 10.2765 12.9402C10.0264 13.1903 9.68728 13.3307 9.33366 13.3307H4.00033C3.6467 13.3307 3.30756 13.1903 3.05752 12.9402C2.80747 12.6902 2.66699 12.351 2.66699 11.9974V6.66406C2.66699 6.31044 2.80747 5.9713 3.05752 5.72125C3.30756 5.47121 3.6467 5.33073 4.00033 5.33073H5.33366V3.9974C5.33366 3.64377 5.47414 3.30464 5.72418 3.05459C5.97423 2.80454 6.31337 2.66406 6.66699 2.66406H12.0003C12.3539 2.66406 12.6931 2.80454 12.9431 3.05459C13.1932 3.30464 13.3337 3.64377 13.3337 3.9974V9.33073C13.3337 9.68435 13.1932 10.0235 12.9431 10.2735C12.6931 10.5236 12.3539 10.6641 12.0003 10.6641H10.667Z" stroke="#383D54" stroke-width="1.7" stroke-linecap="round" stroke-linejoin="round"/>
</svg>
