<svg width="16" height="16" viewBox="0 0 16 16" fill="none" xmlns="http://www.w3.org/2000/svg">
<path d="M10.666 7.99935C10.666 7.64573 10.8065 7.30659 11.0565 7.05654C11.3066 6.80649 11.6457 6.66602 11.9993 6.66602C12.353 6.66602 12.6921 6.80649 12.9422 7.05654C13.1922 7.30659 13.3327 7.64573 13.3327 7.99935C13.3327 8.35297 13.1922 8.69211 12.9422 8.94216C12.6921 9.19221 12.353 9.33268 11.9993 9.33268C11.6457 9.33268 11.3066 9.19221 11.0565 8.94216C10.8065 8.69211 10.666 8.35297 10.666 7.99935ZM6.66602 7.99935C6.66602 7.64573 6.80649 7.30659 7.05654 7.05654C7.30659 6.80649 7.64573 6.66602 7.99935 6.66602C8.35297 6.66602 8.69211 6.80649 8.94216 7.05654C9.19221 7.30659 9.33268 7.64573 9.33268 7.99935C9.33268 8.35297 9.19221 8.69211 8.94216 8.94216C8.69211 9.19221 8.35297 9.33268 7.99935 9.33268C7.64573 9.33268 7.30659 9.19221 7.05654 8.94216C6.80649 8.69211 6.66602 8.35297 6.66602 7.99935ZM2.66602 7.99935C2.66602 7.64573 2.80649 7.30659 3.05654 7.05654C3.30659 6.80649 3.64573 6.66602 3.99935 6.66602C4.35297 6.66602 4.69211 6.80649 4.94216 7.05654C5.19221 7.30659 5.33268 7.64573 5.33268 7.99935C5.33268 8.35297 5.19221 8.69211 4.94216 8.94216C4.69211 9.19221 4.35297 9.33268 3.99935 9.33268C3.64573 9.33268 3.30659 9.19221 3.05654 8.94216C2.80649 8.69211 2.66602 8.35297 2.66602 7.99935Z" fill="#383D54"/>
</svg>
