<svg width="24" height="25" viewBox="0 0 24 25" fill="none" xmlns="http://www.w3.org/2000/svg">
<rect x="0.5" y="1" width="23" height="23" rx="1.5" fill="#F5F5F5"/>
<path d="M12 14.2875C11.9333 14.2875 11.8708 14.2772 11.8125 14.2565C11.7542 14.2358 11.7 14.2003 11.65 14.15L9.85 12.35C9.75833 12.2583 9.7125 12.1417 9.7125 12C9.7125 11.8583 9.75833 11.7417 9.85 11.65C9.94167 11.5583 10.0605 11.5105 10.2065 11.5065C10.3525 11.5025 10.4712 11.5462 10.5625 11.6375L11.5 12.575V9C11.5 8.85834 11.548 8.7395 11.644 8.6435C11.74 8.5475 11.8587 8.49967 12 8.5C12.1417 8.5 12.2605 8.548 12.3565 8.644C12.4525 8.74 12.5003 8.85867 12.5 9V12.575L13.4375 11.6375C13.5292 11.5458 13.648 11.502 13.794 11.506C13.94 11.51 14.0587 11.558 14.15 11.65C14.2417 11.7417 14.2875 11.8583 14.2875 12C14.2875 12.1417 14.2417 12.2583 14.15 12.35L12.35 14.15C12.3 14.2 12.2458 14.2355 12.1875 14.2565C12.1292 14.2775 12.0667 14.2878 12 14.2875ZM9 16.5C8.725 16.5 8.4895 16.402 8.2935 16.206C8.0975 16.01 7.99967 15.7747 8 15.5V14.5C8 14.3583 8.048 14.2395 8.144 14.1435C8.24 14.0475 8.35867 13.9997 8.5 14C8.64167 14 8.7605 14.048 8.8565 14.144C8.9525 14.24 9.00033 14.3587 9 14.5V15.5H15V14.5C15 14.3583 15.048 14.2395 15.144 14.1435C15.24 14.0475 15.3587 13.9997 15.5 14C15.6417 14 15.7605 14.048 15.8565 14.144C15.9525 14.24 16.0003 14.3587 16 14.5V15.5C16 15.775 15.902 16.0105 15.706 16.2065C15.51 16.4025 15.2747 16.5003 15 16.5H9Z" fill="#5C6476"/>
<rect x="0.5" y="1" width="23" height="23" rx="1.5" stroke="#D9D9D9"/>
</svg>
