<svg width="18" height="18" viewBox="0 0 18 18" fill="none" xmlns="http://www.w3.org/2000/svg">
<path d="M15.1875 1.96875H6.1875C5.96372 1.96875 5.74911 2.05764 5.59088 2.21588C5.43264 2.37411 5.34375 2.58872 5.34375 2.8125V5.34375H2.8125C2.58872 5.34375 2.37411 5.43264 2.21588 5.59088C2.05764 5.74911 1.96875 5.96372 1.96875 6.1875V15.1875C1.96875 15.4113 2.05764 15.6259 2.21588 15.7841C2.37411 15.9424 2.58872 16.0312 2.8125 16.0312H11.8125C12.0363 16.0312 12.2509 15.9424 12.4091 15.7841C12.5674 15.6259 12.6562 15.4113 12.6562 15.1875V12.6562H15.1875C15.4113 12.6562 15.6259 12.5674 15.7841 12.4091C15.9424 12.2509 16.0312 12.0363 16.0312 11.8125V2.8125C16.0312 2.58872 15.9424 2.37411 15.7841 2.21588C15.6259 2.05764 15.4113 1.96875 15.1875 1.96875ZM10.9688 14.3438H3.65625V7.03125H10.9688V14.3438ZM14.3438 10.9688H12.6562V6.1875C12.6562 5.96372 12.5674 5.74911 12.4091 5.59088C12.2509 5.43264 12.0363 5.34375 11.8125 5.34375H7.03125V3.65625H14.3438V10.9688Z" fill="#3670F0"/>
</svg>
