<svg width="16" height="16" viewBox="0 0 16 16" fill="none" xmlns="http://www.w3.org/2000/svg">
<path d="M14.6666 4.82733C14.6671 4.73959 14.6503 4.65262 14.6171 4.57139C14.5839 4.49017 14.5351 4.41629 14.4733 4.354L11.6466 1.52733C11.5843 1.46554 11.5104 1.41666 11.4292 1.38348C11.348 1.3503 11.261 1.33349 11.1733 1.334C11.0855 1.33349 10.9986 1.3503 10.9173 1.38348C10.8361 1.41666 10.7622 1.46554 10.6999 1.52733L8.81326 3.414L1.5266 10.7007C1.46481 10.763 1.41593 10.8368 1.38275 10.9181C1.34957 10.9993 1.33276 11.0863 1.33326 11.174V14.0007C1.33326 14.1775 1.4035 14.347 1.52853 14.4721C1.65355 14.5971 1.82312 14.6673 1.99993 14.6673H4.8266C4.91988 14.6724 5.01319 14.6578 5.10048 14.6245C5.18776 14.5912 5.26707 14.5399 5.33326 14.474L12.5799 7.18733L14.4733 5.334C14.5341 5.26938 14.5837 5.19502 14.6199 5.114C14.6264 5.06086 14.6264 5.00714 14.6199 4.954C14.623 4.92296 14.623 4.8917 14.6199 4.86066L14.6666 4.82733ZM4.55326 13.334H2.6666V11.4473L9.2866 4.82733L11.1733 6.714L4.55326 13.334ZM12.1133 5.774L10.2266 3.88733L11.1733 2.94733L13.0533 4.82733L12.1133 5.774Z" fill="#383D54"/>
</svg>
