<svg width="24" height="24" viewBox="0 0 24 24" fill="none" xmlns="http://www.w3.org/2000/svg">
<rect x="0.5" y="0.5" width="23" height="23" rx="1.5" fill="#F5F5F5"/>
<path d="M17 9.62001C17.0004 9.55421 16.9878 9.48897 16.9629 9.42806C16.938 9.36714 16.9014 9.31173 16.855 9.26501L14.735 7.14501C14.6883 7.09867 14.6329 7.06201 14.572 7.03712C14.511 7.01224 14.4458 6.99963 14.38 7.00001C14.3142 6.99963 14.249 7.01224 14.1881 7.03712C14.1271 7.06201 14.0717 7.09867 14.025 7.14501L12.61 8.56001L7.14501 14.025C7.09867 14.0717 7.06201 14.1271 7.03712 14.1881C7.01224 14.249 6.99963 14.3142 7.00001 14.38V16.5C7.00001 16.6326 7.05269 16.7598 7.14645 16.8536C7.24022 16.9473 7.3674 17 7.50001 17H9.62001C9.68997 17.0038 9.75996 16.9929 9.82542 16.9679C9.89088 16.9429 9.95036 16.9045 10 16.855L15.435 11.39L16.855 10C16.9006 9.95155 16.9378 9.89577 16.965 9.83501C16.9698 9.79515 16.9698 9.75486 16.965 9.71501C16.9673 9.69173 16.9673 9.66828 16.965 9.64501L17 9.62001ZM9.41501 16H8.00001V14.585L12.965 9.62001L14.38 11.035L9.41501 16ZM15.085 10.33L13.67 8.91501L14.38 8.21001L15.79 9.62001L15.085 10.33Z" fill="#5C6476"/>
<rect x="0.5" y="0.5" width="23" height="23" rx="1.5" stroke="#D9D9D9"/>
</svg>
