<svg width="17" height="16" viewBox="0 0 17 16" fill="none" xmlns="http://www.w3.org/2000/svg">
<path d="M10.9667 4.4V4.73333H11.3H13.7C13.7707 4.73333 13.8386 4.76143 13.8886 4.81144C13.9386 4.86145 13.9667 4.92928 13.9667 5C13.9667 5.07073 13.9386 5.13855 13.8886 5.18856C13.8386 5.23857 13.7707 5.26667 13.7 5.26667H13.1H12.7667V5.6V12.2C12.7667 12.589 12.6121 12.962 12.3371 13.2371C12.062 13.5121 11.689 13.6667 11.3 13.6667H6.5C6.11102 13.6667 5.73796 13.5121 5.46291 13.2371C5.18786 12.962 5.03333 12.589 5.03333 12.2V5.6V5.26667H4.7H4.1C4.02928 5.26667 3.96145 5.23857 3.91144 5.18856C3.86143 5.13855 3.83333 5.07072 3.83333 5C3.83333 4.92928 3.86143 4.86145 3.91144 4.81144C3.96145 4.76143 4.02928 4.73333 4.1 4.73333H6.5H6.83333V4.4V3.8C6.83333 3.41102 6.98786 3.03796 7.26291 2.76291C7.53796 2.48786 7.91102 2.33333 8.3 2.33333H9.5C9.88898 2.33333 10.262 2.48786 10.5371 2.76291C10.8121 3.03796 10.9667 3.41102 10.9667 3.8V4.4ZM10.1 4.73333H10.4333V4.4V3.8C10.4333 3.55246 10.335 3.31507 10.16 3.14003C9.98493 2.965 9.74754 2.86667 9.5 2.86667H8.3C8.05246 2.86667 7.81507 2.965 7.64003 3.14003C7.465 3.31507 7.36667 3.55246 7.36667 3.8V4.4V4.73333H7.7H10.1ZM5.9 5.26667H5.56667V5.6V12.2C5.56667 12.4475 5.665 12.6849 5.84003 12.86C6.01507 13.035 6.25247 13.1333 6.5 13.1333H11.3C11.5475 13.1333 11.7849 13.035 11.96 12.86C12.135 12.6849 12.2333 12.4475 12.2333 12.2V5.6V5.26667H11.9H5.9ZM7.88856 11.1886C7.83855 11.2386 7.77073 11.2667 7.7 11.2667C7.62928 11.2667 7.56145 11.2386 7.51144 11.1886C7.46143 11.1386 7.43333 11.0707 7.43333 11V7.4C7.43333 7.32928 7.46143 7.26145 7.51144 7.21144C7.56145 7.16143 7.62928 7.13333 7.7 7.13333C7.77072 7.13333 7.83855 7.16143 7.88856 7.21144C7.93857 7.26145 7.96667 7.32928 7.96667 7.4V11C7.96667 11.0707 7.93857 11.1386 7.88856 11.1886ZM10.2886 11.1886C10.2386 11.2386 10.1707 11.2667 10.1 11.2667C10.0293 11.2667 9.96145 11.2386 9.91144 11.1886C9.86143 11.1386 9.83333 11.0707 9.83333 11V7.4C9.83333 7.32928 9.86143 7.26145 9.91144 7.21144C9.96145 7.16143 10.0293 7.13333 10.1 7.13333C10.1707 7.13333 10.2386 7.16143 10.2886 7.21144C10.3386 7.26145 10.3667 7.32928 10.3667 7.4V11C10.3667 11.0707 10.3386 11.1386 10.2886 11.1886Z" fill="#3670F0" stroke="#3670F0" stroke-width="0.666667"/>
</svg>
