<svg width="16" height="16" viewBox="0 0 16 16" fill="none" xmlns="http://www.w3.org/2000/svg">
<path d="M7.89413 3.64274L8.08447 3.86625L8.27481 3.64274C9.00111 2.78983 10.1155 2.25 11.2725 2.25C13.3164 2.25 14.9189 3.85251 14.9189 5.89646C14.9189 7.1533 14.3559 8.31328 13.315 9.58593C12.2712 10.8621 10.7731 12.2209 8.94378 13.8797L8.94342 13.88L8.08383 14.6625L7.22535 13.8869L7.22481 13.8864L7.21063 13.8735C5.38797 12.2172 3.89506 10.8606 2.85399 9.58688C1.81299 8.31329 1.25 7.15331 1.25 5.89646C1.25 3.85251 2.85251 2.25 4.89646 2.25C6.05346 2.25 7.16782 2.78983 7.89413 3.64274Z" fill="#3670F0" stroke="#3670F0" stroke-width="0.5"/>
</svg>
