<svg width="17" height="16" viewBox="0 0 17 16" fill="none" xmlns="http://www.w3.org/2000/svg">
<path fill-rule="evenodd" clip-rule="evenodd" d="M11.3 4.4H13.7C13.8591 4.4 14.0117 4.46321 14.1243 4.57574C14.2368 4.68826 14.3 4.84087 14.3 5C14.3 5.15913 14.2368 5.31174 14.1243 5.42426C14.0117 5.53679 13.8591 5.6 13.7 5.6H13.1V12.2C13.1 12.6774 12.9104 13.1352 12.5728 13.4728C12.2352 13.8104 11.7774 14 11.3 14H6.5C6.02261 14 5.56477 13.8104 5.22721 13.4728C4.88964 13.1352 4.7 12.6774 4.7 12.2V5.6H4.1C3.94087 5.6 3.78826 5.53679 3.67574 5.42426C3.56321 5.31174 3.5 5.15913 3.5 5C3.5 4.84087 3.56321 4.68826 3.67574 4.57574C3.78826 4.46321 3.94087 4.4 4.1 4.4H6.5V3.8C6.5 3.32261 6.68964 2.86477 7.02721 2.52721C7.36477 2.18964 7.82261 2 8.3 2H9.5C9.97739 2 10.4352 2.18964 10.7728 2.52721C11.1104 2.86477 11.3 3.32261 11.3 3.8V4.4ZM8.12395 11.4235C8.01143 11.5361 7.85881 11.5993 7.69968 11.5993C7.54055 11.5993 7.38794 11.5361 7.27542 11.4235C7.1629 11.311 7.09968 11.1584 7.09968 10.9993V7.39928C7.09968 7.24015 7.1629 7.08754 7.27542 6.97502C7.38794 6.86249 7.54055 6.79928 7.69968 6.79928C7.85881 6.79928 8.01143 6.86249 8.12395 6.97502C8.23647 7.08754 8.29969 7.24015 8.29969 7.39928V10.9993C8.29969 11.1584 8.23647 11.311 8.12395 11.4235ZM10.5239 11.4235C10.4114 11.5361 10.2588 11.5993 10.0997 11.5993C9.94056 11.5993 9.78794 11.5361 9.67542 11.4235C9.5629 11.311 9.49969 11.1584 9.49969 10.9993V7.39928C9.49969 7.24015 9.5629 7.08754 9.67542 6.97502C9.78794 6.86249 9.94056 6.79928 10.0997 6.79928C10.2588 6.79928 10.4114 6.86249 10.5239 6.97502C10.6365 7.08754 10.6997 7.24015 10.6997 7.39928V10.9993C10.6997 11.1584 10.6365 11.311 10.5239 11.4235ZM7.70005 3.67993C7.70005 3.5208 7.76326 3.36819 7.87578 3.25566C7.9883 3.14314 8.14092 3.07993 8.30005 3.07993H9.50005C9.65917 3.07993 9.81179 3.14314 9.92431 3.25566C10.0368 3.36819 10.1 3.5208 10.1 3.67993V4.27993H7.70005V3.67993Z" fill="#3670F0"/>
</svg>
