<svg width="16" height="16" viewBox="0 0 16 16" fill="none" xmlns="http://www.w3.org/2000/svg">
<mask id="path-1-inside-1_2082_200704" fill="white">
<path d="M11.2725 2C10.0398 2 8.85668 2.57384 8.08447 3.48065C7.31226 2.57384 6.12916 2 4.89646 2C2.71444 2 1 3.71444 1 5.89646C1 8.57439 3.40872 10.7564 7.05722 14.0719L8.08447 15L9.11172 14.0649C12.7602 10.7564 15.1689 8.57439 15.1689 5.89646C15.1689 3.71444 13.4545 2 11.2725 2ZM8.15531 13.0163L8.08447 13.0872L8.01362 13.0163C4.64142 9.96294 2.41689 7.94387 2.41689 5.89646C2.41689 4.47956 3.47956 3.41689 4.89646 3.41689C5.98747 3.41689 7.05014 4.11826 7.42561 5.08883H8.75041C9.1188 4.11826 10.1815 3.41689 11.2725 3.41689C12.6894 3.41689 13.752 4.47956 13.752 5.89646C13.752 7.94387 11.5275 9.96294 8.15531 13.0163Z"/>
</mask>
<path d="M11.2725 2C10.0398 2 8.85668 2.57384 8.08447 3.48065C7.31226 2.57384 6.12916 2 4.89646 2C2.71444 2 1 3.71444 1 5.89646C1 8.57439 3.40872 10.7564 7.05722 14.0719L8.08447 15L9.11172 14.0649C12.7602 10.7564 15.1689 8.57439 15.1689 5.89646C15.1689 3.71444 13.4545 2 11.2725 2ZM8.15531 13.0163L8.08447 13.0872L8.01362 13.0163C4.64142 9.96294 2.41689 7.94387 2.41689 5.89646C2.41689 4.47956 3.47956 3.41689 4.89646 3.41689C5.98747 3.41689 7.05014 4.11826 7.42561 5.08883H8.75041C9.1188 4.11826 10.1815 3.41689 11.2725 3.41689C12.6894 3.41689 13.752 4.47956 13.752 5.89646C13.752 7.94387 11.5275 9.96294 8.15531 13.0163Z" fill="#383D54"/>
<path d="M8.08447 3.48065L-1.05175 11.2607L8.08447 21.9895L17.2207 11.2607L8.08447 3.48065ZM7.05722 14.0719L-1.01314 22.9528L-1.00024 22.9645L-0.987302 22.9762L7.05722 14.0719ZM8.08447 15L0.039946 23.9042L8.11512 31.1997L16.1626 23.8737L8.08447 15ZM9.11172 14.0649L1.05082 5.17542L1.04218 5.18326L1.03356 5.19111L9.11172 14.0649ZM8.15531 13.0163L0.10093 4.12102L-0.119602 4.3207L-0.329968 4.53107L8.15531 13.0163ZM8.08447 13.0872L-0.400846 21.5724L8.08443 30.0578L16.5697 21.5725L8.08447 13.0872ZM8.01362 13.0163L16.4989 4.5311L16.2886 4.32072L16.068 4.12102L8.01362 13.0163ZM7.42561 5.08883L-3.76609 9.41847L-0.798725 17.0888H7.42561V5.08883ZM8.75041 5.08883V17.0888H17.031L19.9694 9.34715L8.75041 5.08883ZM11.2725 -10C6.40635 -10 1.92358 -7.79338 -1.05175 -4.29941L17.2207 11.2607C15.7898 12.9411 13.6732 14 11.2725 14V-10ZM17.2207 -4.29941C14.2454 -7.79338 9.76259 -10 4.89646 -10V14C2.49572 14 0.379162 12.9411 -1.05175 11.2607L17.2207 -4.29941ZM4.89646 -10C-3.91298 -10 -11 -2.91298 -11 5.89646H13C13 10.3419 9.34186 14 4.89646 14V-10ZM-11 5.89646C-11 11.1771 -8.51676 15.032 -6.63075 17.3394C-4.8828 19.4779 -2.59322 21.5169 -1.01314 22.9528L15.1276 5.19109C14.1788 4.32888 13.4869 3.69916 12.9021 3.13513C12.3184 2.57217 12.0536 2.27556 11.9516 2.15074C11.8503 2.02681 12.1058 2.30726 12.3894 2.94186C12.7088 3.65682 13 4.68014 13 5.89646H-11ZM-0.987302 22.9762L0.039946 23.9042L16.129 6.09575L15.1017 5.16769L-0.987302 22.9762ZM16.1626 23.8737L17.1899 22.9386L1.03356 5.19111L0.00630772 6.12626L16.1626 23.8737ZM17.1726 22.9543C18.7554 21.519 21.0464 19.4821 22.7971 17.3417C24.6857 15.0327 27.1689 11.1772 27.1689 5.89646H3.16894C3.16894 4.68024 3.46006 3.65668 3.77989 2.94104C4.06388 2.30559 4.32007 2.02427 4.21989 2.14674C4.11899 2.27011 3.85527 2.56537 3.27285 3.12632C2.68955 3.68812 1.9983 4.31625 1.05082 5.17542L17.1726 22.9543ZM27.1689 5.89646C27.1689 -2.91297 20.0819 -10 11.2725 -10V14C6.82708 14 3.16894 10.3419 3.16894 5.89646H27.1689ZM-0.329968 4.53107L-0.400813 4.60191L16.5697 21.5725L16.6406 21.5016L-0.329968 4.53107ZM16.5698 4.60195L16.4989 4.5311L-0.471691 21.5016L-0.400846 21.5724L16.5698 4.60195ZM16.068 4.12102C15.1972 3.33257 14.5459 2.74149 13.9951 2.21658C13.4406 1.68817 13.1763 1.4035 13.0677 1.27665C12.943 1.13085 13.2264 1.42584 13.5602 2.09669C13.9287 2.83695 14.4169 4.15622 14.4169 5.89646H-9.58311C-9.58311 11.3495 -6.63616 15.1643 -5.16638 16.8817C-3.58001 18.7353 -1.51659 20.5754 -0.0407603 21.9117L16.068 4.12102ZM14.4169 5.89646C14.4169 8.26905 13.4891 10.7322 11.6106 12.6106C9.73215 14.4891 7.26905 15.4169 4.89646 15.4169V-8.58311C-3.14785 -8.58311 -9.58311 -2.14785 -9.58311 5.89646H14.4169ZM4.89646 15.4169C2.90986 15.4169 1.17205 14.7981 -0.185974 13.9008C-1.53422 13.0099 -2.94076 11.5519 -3.76609 9.41847L18.6173 0.759191C16.3364 -5.13683 10.6115 -8.58311 4.89646 -8.58311V15.4169ZM7.42561 17.0888H8.75041V-6.91117H7.42561V17.0888ZM19.9694 9.34715C19.1451 11.519 17.7205 12.9973 16.3649 13.8947C14.9992 14.7989 13.2575 15.4169 11.2725 15.4169V-8.58311C5.57553 -8.58311 -0.200713 -5.14457 -2.46862 0.830509L19.9694 9.34715ZM11.2725 15.4169C8.89989 15.4169 6.43678 14.4891 4.55831 12.6106C2.67985 10.7322 1.75204 8.26905 1.75204 5.89646H25.752C25.752 -2.14785 19.3168 -8.58311 11.2725 -8.58311V15.4169ZM1.75204 5.89646C1.75204 4.15622 2.24028 2.83695 2.6087 2.09669C2.94256 1.42584 3.22597 1.13085 3.10119 1.27665C2.99263 1.4035 2.72833 1.68817 2.17385 2.21658C1.62305 2.74149 0.971697 3.33257 0.10093 4.12102L16.2097 21.9117C17.6855 20.5754 19.749 18.7353 21.3353 16.8817C22.8051 15.1643 25.752 11.3495 25.752 5.89646H1.75204Z" fill="#3670F0" mask="url(#path-1-inside-1_2082_200704)"/>
</svg>
