<svg width="26" height="26" viewBox="0 0 26 26" fill="none" xmlns="http://www.w3.org/2000/svg">
<rect width="26" height="26" rx="4" fill="#3670F0"/>
<path d="M12.25 10H16M16 13H12.25M16 16H12.25M10 10H10.0008M10 13H10.0008M10 16H10.0008M8.5 19H17.5C17.8978 19 18.2794 18.842 18.5607 18.5607C18.842 18.2794 19 17.8978 19 17.5V8.5C19 8.10218 18.842 7.72064 18.5607 7.43934C18.2794 7.15804 17.8978 7 17.5 7H8.5C8.10218 7 7.72064 7.15804 7.43934 7.43934C7.15804 7.72064 7 8.10218 7 8.5V17.5C7 17.8978 7.15804 18.2794 7.43934 18.5607C7.72064 18.842 8.10218 19 8.5 19Z" stroke="#FBFBFB" stroke-width="1.3" stroke-linecap="round" stroke-linejoin="round"/>
</svg>
