<svg width="14" height="14" viewBox="0 0 14 14" fill="none" xmlns="http://www.w3.org/2000/svg">
<path d="M6.53333 1.40039H2.79999C2.42869 1.40039 2.0726 1.54789 1.81004 1.81044C1.54749 2.07299 1.39999 2.42909 1.39999 2.80039L1.39999 12.6004H7.93333V2.80039C7.93333 2.42909 7.78583 2.07299 7.52328 1.81044C7.26073 1.54789 6.90463 1.40039 6.53333 1.40039ZM4.19999 10.2671H2.79999V9.33372H4.19999V10.2671ZM4.19999 8.40039H2.79999V7.46706H4.19999V8.40039ZM4.19999 6.53372H2.79999V5.60039H4.19999V6.53372ZM4.19999 4.66706H2.79999V3.73372H4.19999V4.66706ZM6.53333 10.2671H5.13333V9.33372H6.53333V10.2671ZM6.53333 8.40039H5.13333V7.46706H6.53333V8.40039ZM6.53333 6.53372H5.13333V5.60039H6.53333V6.53372ZM6.53333 4.66706H5.13333V3.73372H6.53333V4.66706ZM11.2 3.73372H8.86666V12.6004H12.6V5.13372C12.6 4.76242 12.4525 4.40633 12.1899 4.14377C11.9274 3.88122 11.5713 3.73372 11.2 3.73372ZM11.2 10.2671H10.2667V9.33372H11.2V10.2671ZM11.2 8.40039H10.2667V7.46706H11.2V8.40039ZM11.2 6.53372H10.2667V5.60039H11.2V6.53372Z" fill="#383D54"/>
</svg>
