<svg width="20" height="20" viewBox="0 0 20 20" fill="none" xmlns="http://www.w3.org/2000/svg">
<g clip-path="url(#clip0_2067_212584)">
<path d="M17.779 13.3876L17.5099 13.1858L11.6382 8.78242L10.8838 8.21664L11.565 7.56452L12.9716 6.21787C12.9716 6.21786 12.9716 6.21786 12.9716 6.21785C12.9759 6.21372 12.978 6.21031 12.9793 6.2073C12.9808 6.20376 12.9819 6.19919 12.982 6.19399C12.9821 6.18879 12.9812 6.18437 12.98 6.18111C12.979 6.1784 12.9773 6.17532 12.9736 6.17139C12.9692 6.16689 12.9656 6.16476 12.9625 6.16339C12.9588 6.1618 12.9541 6.16066 12.9487 6.16054C12.9434 6.16043 12.9389 6.16138 12.9356 6.16262C12.9329 6.16366 12.93 6.16524 12.9263 6.16876L12.9256 6.16944L9.45334 9.49357C9.11791 9.82494 8.65574 9.99995 8.17253 9.9597C7.6821 9.91977 7.25364 9.66682 6.97267 9.27504C6.47615 8.58517 6.67215 7.65687 7.19588 7.13167L7.20475 7.12278L7.21389 7.11417L11.1331 3.42333L11.1338 3.42265C12.1195 2.49666 13.6418 2.27118 14.8515 2.87793C14.8516 2.87803 14.8518 2.87812 14.852 2.87821L16.781 3.84269C17.2445 4.07444 17.7669 4.1974 18.2857 4.1974H19.1657C19.1847 4.1974 19.199 4.18307 19.199 4.16406C19.199 4.14506 19.1847 4.13073 19.1657 4.13073H18.2857C17.7766 4.13073 17.2665 4.01138 16.8096 3.78294L16.8093 3.78281L14.881 2.81781L14.8809 2.81778C13.6607 2.207 12.0821 2.43691 11.0868 3.37466L11.0867 3.37479L10.5717 3.85979L10.0321 4.36793L9.4843 3.86866L8.90118 3.33719C8.9011 3.33712 8.90103 3.33706 8.90096 3.33699C8.28474 2.77585 7.48606 2.46406 6.61486 2.46406C6.09671 2.46406 5.57828 2.58674 5.11661 2.81719C5.11654 2.81723 5.11646 2.81727 5.11638 2.81731L3.18871 3.78198L3.18777 3.78245C2.73058 4.0105 2.22078 4.1299 1.71152 4.1299H0.83319C0.814185 4.1299 0.799857 4.14422 0.799857 4.16323C0.799857 4.18223 0.814185 4.19656 0.83319 4.19656H1.71319C2.23101 4.19656 2.75385 4.07319 3.21947 3.84149C3.21965 3.84141 3.21982 3.84132 3.22 3.84123L5.14708 2.8777C5.14737 2.87755 5.14766 2.8774 5.14795 2.87726C6.28066 2.30806 7.83684 2.45451 8.85708 3.38613C8.85711 3.38615 8.85714 3.38618 8.85717 3.38621C8.85739 3.38641 8.85761 3.38661 8.85784 3.38682L9.34625 3.83196L9.98443 4.41361L9.35584 5.00561L7.16018 7.07348C6.53035 7.70992 6.46271 8.68127 6.91916 9.31307L6.92016 9.31445C7.20522 9.7108 7.82579 10.0307 8.30736 10.0307C8.76035 10.0307 9.18944 9.852 9.49449 9.54639L9.50092 9.53995L9.50749 9.53366L10.3458 8.73116L10.8361 8.26188L11.379 8.66904L16.6673 12.6349L17.5445 13.2927L16.6504 13.9273C16.6531 13.9253 16.5524 14.0008 16.3724 14.1357C16.2385 14.236 16.0608 14.3691 15.8492 14.5277L14.075 15.8577L12.3057 17.1843L11.7231 17.621L11.56 17.7433L11.517 17.7756L11.5073 17.7829C10.6148 18.4723 9.3768 18.4666 8.47915 17.7737L3.40821 13.9707L3.40783 13.9705C2.83086 13.5372 2.11117 13.2974 1.38819 13.2974H0.832357C0.813351 13.2974 0.799023 13.3117 0.799023 13.3307C0.799023 13.3497 0.813352 13.3641 0.832357 13.3641H1.38819C2.09879 13.3641 2.79971 13.5977 3.36819 14.0241L3.36821 14.0241L8.43237 17.8224L8.44365 17.8309L8.44357 17.831C8.9038 18.189 9.45412 18.3674 10.0032 18.3674C10.5492 18.3674 11.0925 18.1908 11.5425 17.8404L11.5483 17.8359L11.5541 17.8315L16.6309 14.0253L17.779 13.3876ZM17.779 13.3876L18.1115 13.3364M17.779 13.3876L18.1115 13.3364M18.1115 13.3364C18.2771 13.3109 18.4431 13.2982 18.6107 13.2982H19.1665M18.1115 13.3364L19.1665 13.2982M19.1665 13.2982C19.1855 13.2982 19.1999 13.3126 19.1999 13.3316C19.1999 13.3506 19.1855 13.3649 19.1665 13.3649H18.6107C17.9005 13.3649 17.1996 13.5983 16.6316 14.0248L19.1665 13.2982Z" stroke="#5C6476" stroke-width="1.6"/>
</g>
<defs>
<clipPath id="clip0_2067_212584">
<rect width="20" height="20" fill="white"/>
</clipPath>
</defs>
</svg>
