<svg width="32" height="32" viewBox="0 0 32 32" fill="none" xmlns="http://www.w3.org/2000/svg">
<rect width="32" height="32" rx="16" fill="#050A15" fill-opacity="0.5"/>
<path d="M15.9993 16.0026C16.366 16.0026 16.68 15.8719 16.9413 15.6106C17.2027 15.3493 17.3331 15.0355 17.3327 14.6693C17.3327 14.3026 17.202 13.9886 16.9407 13.7273C16.6793 13.4659 16.3656 13.3355 15.9993 13.3359C15.6327 13.3359 15.3187 13.4666 15.0573 13.7279C14.796 13.9893 14.6656 14.303 14.666 14.6693C14.666 15.0359 14.7967 15.3499 15.058 15.6113C15.3193 15.8726 15.6331 16.003 15.9993 16.0026ZM15.9993 20.9026C17.3549 19.6582 18.3605 18.5275 19.016 17.5106C19.6716 16.4937 19.9993 15.591 19.9993 14.8026C19.9993 13.5915 19.6131 12.5999 18.8407 11.8279C18.0682 11.0559 17.1211 10.6697 15.9993 10.6693C14.8771 10.6693 13.9298 11.0555 13.1573 11.8279C12.3849 12.6004 11.9989 13.5919 11.9993 14.8026C11.9993 15.5915 12.3271 16.4944 12.9827 17.5113C13.6382 18.5282 14.6438 19.6586 15.9993 20.9026ZM15.9993 22.4193C15.9105 22.4193 15.8216 22.4026 15.7327 22.3693C15.6438 22.3359 15.566 22.2915 15.4993 22.2359C13.8771 20.8026 12.666 19.4719 11.866 18.2439C11.066 17.0159 10.666 15.8688 10.666 14.8026C10.666 13.1359 11.2022 11.8082 12.2747 10.8193C13.3471 9.83038 14.5887 9.33594 15.9993 9.33594C17.4105 9.33594 18.6522 9.83038 19.7247 10.8193C20.7971 11.8082 21.3331 13.1359 21.3327 14.8026C21.3327 15.8693 20.9327 17.0166 20.1327 18.2446C19.3327 19.4726 18.1216 20.803 16.4993 22.2359C16.4327 22.2915 16.3549 22.3359 16.266 22.3693C16.1771 22.4026 16.0882 22.4193 15.9993 22.4193Z" fill="#FBFBFB"/>
</svg>
