<svg width="15" height="16" viewBox="0 0 15 16" fill="none" xmlns="http://www.w3.org/2000/svg">
<path fill-rule="evenodd" clip-rule="evenodd" d="M10.4 3.2H13.6C13.8122 3.2 14.0157 3.28429 14.1657 3.43431C14.3157 3.58434 14.4 3.78783 14.4 4C14.4 4.21217 14.3157 4.41566 14.1657 4.56569C14.0157 4.71571 13.8122 4.8 13.6 4.8H12.8V13.6C12.8 14.2365 12.5471 14.847 12.0971 15.2971C11.647 15.7471 11.0365 16 10.4 16H4C3.36348 16 2.75303 15.7471 2.30294 15.2971C1.85286 14.847 1.6 14.2365 1.6 13.6V4.8H0.8C0.587827 4.8 0.384344 4.71571 0.234315 4.56569C0.0842855 4.41566 0 4.21217 0 4C0 3.78783 0.0842855 3.58434 0.234315 3.43431C0.384344 3.28429 0.587827 3.2 0.8 3.2H4V2.4C4 1.76348 4.25286 1.15303 4.70294 0.702944C5.15303 0.252857 5.76348 0 6.4 0H8C8.63652 0 9.24697 0.252857 9.69706 0.702944C10.1471 1.15303 10.4 1.76348 10.4 2.4V3.2ZM6.16569 12.5574C6.01566 12.7074 5.81217 12.7917 5.6 12.7917C5.38783 12.7917 5.18434 12.7074 5.03432 12.5574C4.88429 12.4073 4.8 12.2038 4.8 11.9917V7.19167C4.8 6.97949 4.88429 6.77601 5.03432 6.62598C5.18434 6.47595 5.38783 6.39167 5.6 6.39167C5.81217 6.39167 6.01566 6.47595 6.16569 6.62598C6.31571 6.77601 6.4 6.97949 6.4 7.19167V11.9917C6.4 12.2038 6.31571 12.4073 6.16569 12.5574ZM9.36569 12.5574C9.21566 12.7074 9.01218 12.7917 8.8 12.7917C8.58783 12.7917 8.38435 12.7074 8.23432 12.5574C8.08429 12.4073 8 12.2038 8 11.9917V7.19167C8 6.97949 8.08429 6.77601 8.23432 6.62598C8.38435 6.47595 8.58783 6.39167 8.8 6.39167C9.01218 6.39167 9.21566 6.47595 9.36569 6.62598C9.51572 6.77601 9.6 6.97949 9.6 7.19167V11.9917C9.6 12.2038 9.51572 12.4073 9.36569 12.5574ZM5.60417 2.25C5.60417 2.03783 5.68845 1.83434 5.83848 1.68431C5.98851 1.53429 6.19199 1.45 6.40417 1.45H8.00417C8.21634 1.45 8.41982 1.53429 8.56985 1.68431C8.71988 1.83434 8.80417 2.03783 8.80417 2.25V3.05H5.60417V2.25Z" fill="#383D54"/>
</svg>
