<svg width="16" height="16" viewBox="0 0 16 16" fill="none" xmlns="http://www.w3.org/2000/svg">
<path fill-rule="evenodd" clip-rule="evenodd" d="M10.8 4.4H13.2C13.3591 4.4 13.5117 4.46321 13.6243 4.57574C13.7368 4.68826 13.8 4.84087 13.8 5C13.8 5.15913 13.7368 5.31174 13.6243 5.42426C13.5117 5.53679 13.3591 5.6 13.2 5.6H12.6V12.2C12.6 12.6774 12.4104 13.1352 12.0728 13.4728C11.7352 13.8104 11.2774 14 10.8 14H6C5.52261 14 5.06477 13.8104 4.72721 13.4728C4.38964 13.1352 4.2 12.6774 4.2 12.2V5.6H3.6C3.44087 5.6 3.28826 5.53679 3.17574 5.42426C3.06321 5.31174 3 5.15913 3 5C3 4.84087 3.06321 4.68826 3.17574 4.57574C3.28826 4.46321 3.44087 4.4 3.6 4.4H6V3.8C6 3.32261 6.18964 2.86477 6.52721 2.52721C6.86477 2.18964 7.32261 2 7.8 2H9C9.47739 2 9.93523 2.18964 10.2728 2.52721C10.6104 2.86477 10.8 3.32261 10.8 3.8V4.4ZM7.62395 11.4235C7.51143 11.5361 7.35881 11.5993 7.19968 11.5993C7.04055 11.5993 6.88794 11.5361 6.77542 11.4235C6.6629 11.311 6.59968 11.1584 6.59968 10.9993V7.39928C6.59968 7.24015 6.6629 7.08754 6.77542 6.97502C6.88794 6.86249 7.04055 6.79928 7.19968 6.79928C7.35881 6.79928 7.51143 6.86249 7.62395 6.97502C7.73647 7.08754 7.79969 7.24015 7.79969 7.39928V10.9993C7.79969 11.1584 7.73647 11.311 7.62395 11.4235ZM10.0239 11.4235C9.91143 11.5361 9.75882 11.5993 9.59969 11.5993C9.44056 11.5993 9.28794 11.5361 9.17542 11.4235C9.0629 11.311 8.99969 11.1584 8.99969 10.9993V7.39928C8.99969 7.24015 9.0629 7.08754 9.17542 6.97502C9.28794 6.86249 9.44056 6.79928 9.59969 6.79928C9.75882 6.79928 9.91143 6.86249 10.0239 6.97502C10.1365 7.08754 10.1997 7.24015 10.1997 7.39928V10.9993C10.1997 11.1584 10.1365 11.311 10.0239 11.4235ZM7.20005 3.67993C7.20005 3.5208 7.26326 3.36819 7.37578 3.25566C7.4883 3.14314 7.64092 3.07993 7.80005 3.07993H9.00005C9.15917 3.07993 9.31179 3.14314 9.42431 3.25566C9.53683 3.36819 9.60005 3.5208 9.60005 3.67993V4.27993H7.20005V3.67993Z" fill="#383D54"/>
</svg>
