<svg width="32" height="32" viewBox="0 0 32 32" fill="none" xmlns="http://www.w3.org/2000/svg">
<path d="M20.0928 7.67188C19.255 7.68491 18.4354 7.91879 17.7169 8.34991C16.9984 8.78102 16.4063 9.3941 16.0005 10.1272C15.5948 9.3941 15.0027 8.78102 14.2842 8.34991C13.5657 7.91879 12.7461 7.68491 11.9083 7.67188C10.5727 7.7299 9.31431 8.31418 8.40811 9.29705C7.50192 10.2799 7.02155 11.5815 7.07196 12.9174C7.07196 17.9584 15.2238 23.7805 15.5705 24.0276L16.0005 24.3319L16.4306 24.0276C16.7773 23.782 24.9291 17.9584 24.9291 12.9174C24.9795 11.5815 24.4992 10.2799 23.593 9.29705C22.6868 8.31418 21.4284 7.7299 20.0928 7.67188ZM16.0005 22.5C13.5802 20.692 8.56006 16.25 8.56006 12.9174C8.5092 11.976 8.83265 11.0526 9.45988 10.3487C10.0871 9.64485 10.9672 9.21753 11.9083 9.15997C12.8493 9.21753 13.7294 9.64485 14.3567 10.3487C14.9839 11.0526 15.3074 11.976 15.2565 12.9174H16.7446C16.6937 11.976 17.0172 11.0526 17.6444 10.3487C18.2717 9.64485 19.1518 9.21753 20.0928 9.15997C21.0339 9.21753 21.914 9.64485 22.5412 10.3487C23.1684 11.0526 23.4919 11.976 23.441 12.9174C23.441 16.2515 18.4209 20.692 16.0005 22.5Z" fill="#FBFBFB"/>
</svg>
