<svg width="12" height="13" viewBox="0 0 12 13" fill="none" xmlns="http://www.w3.org/2000/svg">
<g clip-path="url(#clip0_2186_209582)">
<path d="M12 6.58594C12 8.17724 11.3679 9.70336 10.2426 10.8286C9.11742 11.9538 7.5913 12.5859 6 12.5859C4.4087 12.5859 2.88258 11.9538 1.75736 10.8286C0.632141 9.70336 0 8.17724 0 6.58594C0 6.45333 0.0526784 6.32615 0.146447 6.23238C0.240215 6.13862 0.367392 6.08594 0.5 6.08594C0.632608 6.08594 0.759785 6.13862 0.853553 6.23238C0.947322 6.32615 1 6.45333 1 6.58594C1 7.57484 1.29324 8.54154 1.84265 9.36379C2.39206 10.186 3.17295 10.8269 4.08658 11.2053C5.00021 11.5838 6.00555 11.6828 6.97545 11.4899C7.94536 11.2969 8.83627 10.8207 9.53553 10.1215C10.2348 9.42221 10.711 8.53129 10.9039 7.56139C11.0969 6.59148 10.9978 5.58615 10.6194 4.67252C10.241 3.75889 9.6001 2.978 8.77785 2.42859C7.95561 1.87918 6.98891 1.58594 6 1.58594C5.86739 1.58594 5.74021 1.53326 5.64645 1.43949C5.55268 1.34572 5.5 1.21855 5.5 1.08594C5.5 0.953329 5.55268 0.826152 5.64645 0.732384C5.74021 0.638616 5.86739 0.585938 6 0.585938C7.59077 0.587658 9.1159 1.22035 10.2407 2.3452C11.3656 3.47004 11.9983 4.99517 12 6.58594ZM5.1385 6.08594H4C3.86739 6.08594 3.74021 6.13862 3.64645 6.23238C3.55268 6.32615 3.5 6.45333 3.5 6.58594C3.5 6.71855 3.55268 6.84572 3.64645 6.93949C3.74021 7.03326 3.86739 7.08594 4 7.08594H5.1385C5.21486 7.21855 5.32072 7.33181 5.44788 7.41694C5.57504 7.50206 5.72009 7.55678 5.8718 7.57684C6.0235 7.5969 6.17779 7.58178 6.32271 7.53263C6.46763 7.48348 6.59929 7.40164 6.70749 7.29343C6.8157 7.18523 6.89755 7.05357 6.94669 6.90865C6.99584 6.76373 7.01097 6.60944 6.9909 6.45773C6.97084 6.30603 6.91613 6.16098 6.831 6.03382C6.74587 5.90665 6.63261 5.8008 6.5 5.72444V4.08594C6.5 3.95333 6.44732 3.82615 6.35355 3.73238C6.25979 3.63862 6.13261 3.58594 6 3.58594C5.86739 3.58594 5.74021 3.63862 5.64645 3.73238C5.55268 3.82615 5.5 3.95333 5.5 4.08594V5.72444C5.35021 5.81158 5.22564 5.93615 5.1385 6.08594ZM0.9135 4.97794C1.01239 4.97794 1.10906 4.94861 1.19129 4.89367C1.27351 4.83873 1.3376 4.76064 1.37544 4.66928C1.41328 4.57792 1.42319 4.47738 1.40389 4.38039C1.3846 4.2834 1.33698 4.19431 1.26705 4.12438C1.19713 4.05446 1.10804 4.00684 1.01105 3.98754C0.914055 3.96825 0.813521 3.97815 0.722158 4.016C0.630795 4.05384 0.552706 4.11793 0.497765 4.20015C0.442824 4.28238 0.4135 4.37905 0.4135 4.47794C0.4135 4.61055 0.466178 4.73772 0.559947 4.83149C0.653715 4.92526 0.780892 4.97794 0.9135 4.97794ZM2.1105 3.18944C2.20939 3.18944 2.30606 3.16011 2.38829 3.10517C2.47051 3.05023 2.5346 2.97214 2.57244 2.88078C2.61028 2.78942 2.62019 2.68888 2.60089 2.59189C2.5816 2.4949 2.53398 2.40581 2.46405 2.33588C2.39413 2.26596 2.30504 2.21834 2.20805 2.19904C2.11105 2.17975 2.01052 2.18965 1.91916 2.2275C1.8278 2.26534 1.74971 2.32943 1.69477 2.41165C1.63982 2.49388 1.6105 2.59055 1.6105 2.68944C1.6105 2.82205 1.66318 2.94922 1.75695 3.04299C1.85071 3.13676 1.97789 3.18944 2.1105 3.18944ZM3.8895 2.00644C3.98839 2.00644 4.08506 1.97711 4.16728 1.92217C4.24951 1.86723 4.3136 1.78914 4.35144 1.69778C4.38928 1.60642 4.39919 1.50588 4.37989 1.40889C4.3606 1.3119 4.31298 1.22281 4.24305 1.15288C4.17313 1.08296 4.08404 1.03534 3.98705 1.01604C3.89005 0.996752 3.78952 1.00665 3.69816 1.0445C3.6068 1.08234 3.52871 1.14643 3.47377 1.22865C3.41882 1.31088 3.3895 1.40755 3.3895 1.50644C3.3895 1.63905 3.44218 1.76622 3.53595 1.85999C3.62971 1.95376 3.75689 2.00644 3.8895 2.00644Z" fill="#22232A"/>
</g>
<defs>
<clipPath id="clip0_2186_209582">
<rect width="12" height="12" fill="white" transform="translate(0 0.585938)"/>
</clipPath>
</defs>
</svg>
