<svg width="24" height="24" viewBox="0 0 24 24" fill="none" xmlns="http://www.w3.org/2000/svg">
<path d="M8.88889 15.8889C9.10926 15.8889 9.29411 15.8142 9.44345 15.6649C9.59278 15.5156 9.66719 15.331 9.66667 15.1111C9.66667 14.8907 9.592 14.7059 9.44267 14.5566C9.29333 14.4072 9.10874 14.3328 8.88889 14.3333C8.66852 14.3333 8.48367 14.408 8.33433 14.5573C8.185 14.7067 8.11059 14.8913 8.11111 15.1111C8.11111 15.3315 8.18578 15.5163 8.33511 15.6657C8.48445 15.815 8.66904 15.8894 8.88889 15.8889ZM8.88889 12.7778C9.10926 12.7778 9.29411 12.7031 9.44345 12.5538C9.59278 12.4044 9.66719 12.2199 9.66667 12C9.66667 11.7796 9.592 11.5948 9.44267 11.4454C9.29333 11.2961 9.10874 11.2217 8.88889 11.2222C8.66852 11.2222 8.48367 11.2969 8.33433 11.4462C8.185 11.5956 8.11059 11.7801 8.11111 12C8.11111 12.2204 8.18578 12.4052 8.33511 12.5546C8.48445 12.7039 8.66904 12.7783 8.88889 12.7778ZM8.88889 9.66667C9.10926 9.66667 9.29411 9.592 9.44345 9.44267C9.59278 9.29333 9.66719 9.10874 9.66667 8.88889C9.66667 8.66852 9.592 8.48367 9.44267 8.33433C9.29333 8.185 9.10874 8.11059 8.88889 8.11111C8.66852 8.11111 8.48367 8.18578 8.33433 8.33511C8.185 8.48445 8.11059 8.66904 8.11111 8.88889C8.11111 9.10926 8.18578 9.29411 8.33511 9.44345C8.48445 9.59278 8.66904 9.66719 8.88889 9.66667ZM12 15.8889H15.1111C15.3315 15.8889 15.5163 15.8142 15.6657 15.6649C15.815 15.5156 15.8894 15.331 15.8889 15.1111C15.8889 14.8907 15.8142 14.7059 15.6649 14.5566C15.5156 14.4072 15.331 14.3328 15.1111 14.3333H12C11.7796 14.3333 11.5948 14.408 11.4454 14.5573C11.2961 14.7067 11.2217 14.8913 11.2222 15.1111C11.2222 15.3315 11.2969 15.5163 11.4462 15.6657C11.5956 15.815 11.7801 15.8894 12 15.8889ZM12 12.7778H15.1111C15.3315 12.7778 15.5163 12.7031 15.6657 12.5538C15.815 12.4044 15.8894 12.2199 15.8889 12C15.8889 11.7796 15.8142 11.5948 15.6649 11.4454C15.5156 11.2961 15.331 11.2217 15.1111 11.2222H12C11.7796 11.2222 11.5948 11.2969 11.4454 11.4462C11.2961 11.5956 11.2217 11.7801 11.2222 12C11.2222 12.2204 11.2969 12.4052 11.4462 12.5546C11.5956 12.7039 11.7801 12.7783 12 12.7778ZM12 9.66667H15.1111C15.3315 9.66667 15.5163 9.592 15.6657 9.44267C15.815 9.29333 15.8894 9.10874 15.8889 8.88889C15.8889 8.66852 15.8142 8.48367 15.6649 8.33433C15.5156 8.185 15.331 8.11059 15.1111 8.11111H12C11.7796 8.11111 11.5948 8.18578 11.4454 8.33511C11.2961 8.48445 11.2217 8.66904 11.2222 8.88889C11.2222 9.10926 11.2969 9.29411 11.4462 9.44345C11.5956 9.59278 11.7801 9.66719 12 9.66667ZM6.55556 19C6.12778 19 5.76145 18.8476 5.45656 18.5427C5.15167 18.2378 4.99948 17.8717 5 17.4444V6.55556C5 6.12778 5.15245 5.76145 5.45733 5.45656C5.76222 5.15167 6.1283 4.99948 6.55556 5H17.4444C17.8722 5 18.2386 5.15245 18.5434 5.45733C18.8483 5.76222 19.0005 6.1283 19 6.55556V17.4444C19 17.8722 18.8476 18.2386 18.5427 18.5434C18.2378 18.8483 17.8717 19.0005 17.4444 19H6.55556ZM6.55556 17.4444H17.4444V6.55556H6.55556V17.4444Z" fill="#383D54"/>
</svg>
