<svg width="14" height="14" viewBox="0 0 14 14" fill="none" xmlns="http://www.w3.org/2000/svg">
<path d="M11.9392 4.45269C11.9259 4.17646 11.9259 3.91278 11.9259 3.6491C11.9259 3.43565 11.7537 3.27242 11.5285 3.27242C9.87271 3.27242 8.61428 2.8204 7.5678 1.85359C7.40884 1.71547 7.1704 1.71547 7.01144 1.85359C5.96495 2.8204 4.70652 3.27242 3.0507 3.27242C2.8255 3.27242 2.6533 3.43565 2.6533 3.6491C2.6533 3.91278 2.6533 4.17646 2.64005 4.45269C2.58706 7.08946 2.50758 10.7056 7.15715 12.2249L7.28962 12.25L7.42208 12.2249C12.0584 10.7056 11.9922 7.10202 11.9392 4.45269ZM6.9717 8.1065C6.89222 8.16928 6.79949 8.20695 6.69352 8.20695H6.68027C6.5743 8.20695 6.46833 8.15673 6.40209 8.08139L5.17016 6.78812L5.76626 6.28587L6.73326 7.30292L8.87921 5.36928L9.42233 5.92175L6.9717 8.1065Z" fill="#FBFBFB"/>
</svg>
