<svg width="32" height="32" viewBox="0 0 32 32" fill="none" xmlns="http://www.w3.org/2000/svg">
<path d="M23.5 10H19.75V8.5C19.75 8.10218 19.592 7.72064 19.3107 7.43934C19.0294 7.15804 18.6478 7 18.25 7H13.75C13.3522 7 12.9706 7.15804 12.6893 7.43934C12.408 7.72064 12.25 8.10218 12.25 8.5V10H8.5V11.5H10V22.75C10 23.3467 10.2371 23.919 10.659 24.341C11.081 24.7629 11.6533 25 12.25 25H19.75C20.3467 25 20.919 24.7629 21.341 24.341C21.7629 23.919 22 23.3467 22 22.75V11.5H23.5V10ZM13.75 8.5H18.25V10H13.75V8.5ZM20.5 22.75C20.5 22.9489 20.421 23.1397 20.2803 23.2803C20.1397 23.421 19.9489 23.5 19.75 23.5H12.25C12.0511 23.5 11.8603 23.421 11.7197 23.2803C11.579 23.1397 11.5 22.9489 11.5 22.75V11.5H20.5V22.75Z" fill="#FBFBFB"/>
<path d="M15.248 14.5078H13.748V20.5078H15.248V14.5078Z" fill="#FBFBFB"/>
<path d="M18.252 14.5078H16.752V20.5078H18.252V14.5078Z" fill="#FBFBFB"/>
</svg>
