<svg width="32" height="32" viewBox="0 0 32 32" fill="none" xmlns="http://www.w3.org/2000/svg">
<path d="M20.0928 7.67188C19.255 7.68491 18.4354 7.91879 17.7169 8.34991C16.9984 8.78102 16.4063 9.3941 16.0005 10.1272C15.5948 9.3941 15.0027 8.78102 14.2842 8.34991C13.5657 7.91879 12.7461 7.68491 11.9083 7.67188C10.5727 7.7299 9.31431 8.31418 8.40811 9.29705C7.50192 10.2799 7.02155 11.5815 7.07196 12.9174C7.07196 17.9584 15.2238 23.7805 15.5705 24.0276L16.0005 24.3319L16.4306 24.0276C16.7773 23.782 24.9291 17.9584 24.9291 12.9174C24.9795 11.5815 24.4992 10.2799 23.593 9.29705C22.6868 8.31418 21.4284 7.7299 20.0928 7.67188Z" fill="#FBFBFB"/>
</svg>
