<svg width="32" height="32" viewBox="0 0 32 32" fill="none" xmlns="http://www.w3.org/2000/svg">
<path d="M19.75 10V8.5C19.75 8.10218 19.592 7.72064 19.3107 7.43934C19.0294 7.15804 18.6478 7 18.25 7H13.75C13.3522 7 12.9706 7.15804 12.6893 7.43934C12.408 7.72064 12.25 8.10218 12.25 8.5V10H8.5V11.5H10V22.75C10 23.3467 10.2371 23.919 10.659 24.341C11.081 24.7629 11.6533 25 12.25 25H19.75C20.3467 25 20.919 24.7629 21.341 24.341C21.7629 23.919 22 23.3467 22 22.75V11.5H23.5V10H19.75ZM15.25 19.75H13.75V15.25H15.25V19.75ZM18.25 19.75H16.75V15.25H18.25V19.75ZM18.25 10H13.75V8.5H18.25V10Z" fill="#FBFBFB"/>
</svg>
