<svg width="24" height="24" viewBox="0 0 24 24" fill="none" xmlns="http://www.w3.org/2000/svg">
<path d="M15.2725 6C14.0398 6 12.8567 6.57384 12.0845 7.48065C11.3123 6.57384 10.1292 6 8.89646 6C6.71444 6 5 7.71444 5 9.89646C5 12.5744 7.40872 14.7564 11.0572 18.0719L12.0845 19L13.1117 18.0649C16.7602 14.7564 19.1689 12.5744 19.1689 9.89646C19.1689 7.71444 17.4545 6 15.2725 6ZM12.1553 17.0163L12.0845 17.0872L12.0136 17.0163C8.64142 13.9629 6.41689 11.9439 6.41689 9.89646C6.41689 8.47956 7.47956 7.41689 8.89646 7.41689C9.98747 7.41689 11.0501 8.11826 11.4256 9.08883H12.7504C13.1188 8.11826 14.1815 7.41689 15.2725 7.41689C16.6894 7.41689 17.752 8.47956 17.752 9.89646C17.752 11.9439 15.5275 13.9629 12.1553 17.0163Z" fill="#383D54"/>
</svg>
