<svg width="12" height="13" viewBox="0 0 12 13" fill="none" xmlns="http://www.w3.org/2000/svg">
<g clip-path="url(#clip0_2186_209577)">
<path d="M6 0.585938C4.52275 0.586991 3.09807 1.13425 2 2.12244V1.08594C2 0.953329 1.94732 0.826152 1.85355 0.732384C1.75979 0.638616 1.63261 0.585938 1.5 0.585938C1.36739 0.585938 1.24021 0.638616 1.14645 0.732384C1.05268 0.826152 1 0.953329 1 1.08594V2.58594C1 2.98376 1.15804 3.36529 1.43934 3.6466C1.72064 3.9279 2.10218 4.08594 2.5 4.08594H4C4.13261 4.08594 4.25979 4.03326 4.35355 3.93949C4.44732 3.84572 4.5 3.71855 4.5 3.58594C4.5 3.45333 4.44732 3.32615 4.35355 3.23238C4.25979 3.13862 4.13261 3.08594 4 3.08594H2.5C2.48314 3.08344 2.46644 3.07993 2.45 3.07544C3.26476 2.25485 4.33906 1.74248 5.48953 1.62577C6.64 1.50907 7.79531 1.79527 8.75826 2.43552C9.72121 3.07577 10.4321 4.03038 10.7696 5.13641C11.1071 6.24244 11.0503 7.43132 10.6088 8.50011C10.1673 9.5689 9.36861 10.4513 8.34898 10.9968C7.32934 11.5423 6.152 11.717 5.01791 11.491C3.88382 11.2651 2.86329 10.6526 2.13053 9.75803C1.39776 8.86347 0.998185 7.74231 1 6.58594C1 6.45333 0.947322 6.32615 0.853554 6.23238C0.759785 6.13862 0.632608 6.08594 0.5 6.08594C0.367392 6.08594 0.240215 6.13862 0.146447 6.23238C0.0526784 6.32615 0 6.45333 0 6.58594C0 7.77263 0.351894 8.93266 1.01118 9.91936C1.67047 10.9061 2.60754 11.6751 3.7039 12.1292C4.80026 12.5833 6.00666 12.7022 7.17054 12.4706C8.33443 12.2391 9.40353 11.6677 10.2426 10.8286C11.0818 9.98946 11.6532 8.92037 11.8847 7.75648C12.1162 6.59259 11.9974 5.38619 11.5433 4.28984C11.0892 3.19348 10.3201 2.25641 9.33342 1.59712C8.34673 0.937831 7.18669 0.585937 6 0.585938Z" fill="#22232A"/>
<path d="M6 3.58594C5.86739 3.58594 5.74021 3.63862 5.64645 3.73238C5.55268 3.82615 5.5 3.95333 5.5 4.08594V6.58594C5.50003 6.71854 5.55273 6.84569 5.6465 6.93944L7.1465 8.43944C7.2408 8.53052 7.3671 8.58091 7.4982 8.57977C7.6293 8.57864 7.75471 8.52605 7.84741 8.43335C7.94011 8.34064 7.9927 8.21524 7.99384 8.08414C7.99498 7.95304 7.94458 7.82674 7.8535 7.73244L6.5 6.37894V4.08594C6.5 3.95333 6.44732 3.82615 6.35355 3.73238C6.25979 3.63862 6.13261 3.58594 6 3.58594Z" fill="#22232A"/>
</g>
<defs>
<clipPath id="clip0_2186_209577">
<rect width="12" height="12" fill="white" transform="translate(0 0.585938)"/>
</clipPath>
</defs>
</svg>
