<svg width="64" height="72" viewBox="0 0 64 72" fill="none" xmlns="http://www.w3.org/2000/svg">
<g filter="url(#filter0_dd_2512_241206)">
<rect x="3" y="3" width="56" height="56" rx="28" fill="#FBFBFB" shape-rendering="crispEdges"/>
<path d="M37.75 18C35.14 18 32.635 19.1918 31 21.0752C29.365 19.1918 26.86 18 24.25 18C19.63 18 16 21.5608 16 26.0926C16 31.6545 21.1 36.1864 28.825 43.0725L31 45L33.175 43.0578C40.9 36.1864 46 31.6545 46 26.0926C46 21.5608 42.37 18 37.75 18Z" fill="#F24137"/>
</g>
<g clip-path="url(#clip0_2512_241206)">
<path d="M30.9736 53.7181C30.4578 52.3182 30.5193 50.7708 31.1444 49.4163C31.7696 48.0617 32.9072 47.011 34.3071 46.4952C35.7069 45.9795 37.2543 46.0409 38.6089 46.6661C39.9634 47.2912 41.0141 48.4288 41.5299 49.8287C41.5987 50.0153 41.5905 50.2217 41.5071 50.4023C41.4238 50.5829 41.2721 50.723 41.0854 50.7917C40.8988 50.8605 40.6925 50.8523 40.5119 50.769C40.3313 50.6856 40.1912 50.5339 40.1224 50.3473C39.7442 49.3207 38.9736 48.4864 37.9803 48.028C36.987 47.5696 35.8522 47.5245 34.8257 47.9027C33.7991 48.281 32.9648 49.0515 32.5064 50.0448C32.048 51.0382 32.0029 52.1729 32.3811 53.1995C32.4499 53.3861 32.4417 53.5924 32.3583 53.773C32.275 53.9537 32.1233 54.0937 31.9367 54.1625C31.75 54.2313 31.5437 54.2231 31.3631 54.1397C31.1825 54.0564 31.0424 53.9047 30.9736 53.7181ZM44.7154 53.0511C44.3047 53.2019 43.9384 53.4533 43.65 53.7823C43.4194 53.4885 43.1287 53.2474 42.7974 53.0749C42.4661 52.9024 42.1018 52.8026 41.7288 52.7822C41.3559 52.7618 40.9829 52.8212 40.6347 52.9564C40.2866 53.0917 39.9713 53.2997 39.7099 53.5665L38.7149 50.8659C38.4742 50.2126 37.9839 49.6817 37.3517 49.39C36.7196 49.0982 35.9975 49.0695 35.3442 49.3102C34.691 49.5509 34.1601 50.0413 33.8683 50.6734C33.5766 51.3055 33.5479 52.0276 33.7886 52.6809L36.3815 59.7184L35.8468 59.303C35.3101 58.8593 34.6192 58.6471 33.926 58.7128C33.2328 58.7786 32.5941 59.1171 32.1505 59.6538C31.7068 60.1904 31.4945 60.8814 31.5603 61.5746C31.6261 62.2678 31.9646 62.9065 32.5013 63.3501L36.7011 66.7983C36.7759 66.868 36.8642 66.9217 36.9605 66.956C37.0569 66.9904 37.1592 67.0047 37.2613 66.998C37.3633 66.9913 37.4629 66.9639 37.554 66.9173C37.645 66.8707 37.7256 66.806 37.7907 66.7271C37.8558 66.6483 37.9041 66.5569 37.9327 66.4587C37.9612 66.3605 37.9693 66.2575 37.9565 66.156C37.9438 66.0545 37.9104 65.9567 37.8585 65.8686C37.8065 65.7805 37.7371 65.704 37.6545 65.6437L33.4573 62.1946C33.3407 62.1011 33.2439 61.9853 33.1725 61.854C33.1012 61.7226 33.0567 61.5784 33.0417 61.4297C33.0267 61.281 33.0415 61.1308 33.0852 60.9878C33.129 60.8449 33.2007 60.7121 33.2963 60.5972C33.3919 60.4824 33.5095 60.3877 33.6421 60.3187C33.7747 60.2498 33.9197 60.208 34.0687 60.1957C34.2176 60.1834 34.3676 60.201 34.5097 60.2473C34.6518 60.2936 34.7832 60.3678 34.8963 60.4654L34.9161 60.4811L37.5317 62.5148C37.6604 62.6152 37.8183 62.671 37.9815 62.6736C38.1447 62.6761 38.3043 62.6254 38.436 62.5291C38.5678 62.4327 38.6645 62.296 38.7115 62.1397C38.7585 61.9834 38.7533 61.816 38.6966 61.663L35.1961 52.1623C35.093 51.8823 35.1053 51.5729 35.2303 51.3019C35.3553 51.031 35.5828 50.8209 35.8628 50.7177C36.1428 50.6146 36.4523 50.6269 36.7232 50.7519C36.9941 50.8769 37.2042 51.1045 37.3074 51.3844L39.5114 57.3663C39.5801 57.553 39.7202 57.7047 39.9008 57.788C40.0814 57.8714 40.2878 57.8796 40.4744 57.8108C40.6611 57.742 40.8127 57.6019 40.8961 57.4213C40.9794 57.2407 40.9876 57.0344 40.9189 56.8478L40.5299 55.7921C40.4268 55.5122 40.4391 55.2027 40.5641 54.9318C40.6891 54.6609 40.9167 54.4507 41.1966 54.3476C41.4766 54.2444 41.7861 54.2567 42.057 54.3817C42.3279 54.5068 42.538 54.7343 42.6412 55.0142L43.2894 56.7736C43.3582 56.9603 43.4983 57.112 43.6789 57.1953C43.8595 57.2787 44.0658 57.2869 44.2525 57.2181C44.4391 57.1493 44.5908 57.0092 44.6741 56.8286C44.7575 56.648 44.7657 56.4417 44.6969 56.255L44.5673 55.9032C44.4641 55.6232 44.4764 55.3137 44.6014 55.0428C44.7265 54.7719 44.954 54.5618 45.234 54.4586C45.5139 54.3555 45.8234 54.3677 46.0943 54.4928C46.3652 54.6178 46.5754 54.8453 46.6785 55.1253L47.8453 58.2922C48.5458 60.1932 48.3973 61.7156 48.3959 61.7281C48.374 61.9257 48.4316 62.124 48.5558 62.2792C48.6801 62.4345 48.861 62.534 49.0586 62.556C49.1744 62.5694 49.2918 62.5552 49.4011 62.5147C49.5319 62.4666 49.6467 62.3831 49.7326 62.2734C49.8186 62.1637 49.8723 62.0323 49.8877 61.8938C49.8966 61.8176 50.0828 60.0235 49.2537 57.7733L48.0869 54.6064C47.9677 54.2829 47.7859 53.986 47.552 53.7327C47.318 53.4794 47.0364 53.2747 46.7233 53.1303C46.4103 52.9859 46.0718 52.9045 45.7272 52.891C45.3827 52.8774 45.0389 52.9318 44.7154 53.0511Z" fill="#22232A" fill-opacity="0.6"/>
</g>
<defs>
<filter id="filter0_dd_2512_241206" x="0" y="0" width="64" height="65" filterUnits="userSpaceOnUse" color-interpolation-filters="sRGB">
<feFlood flood-opacity="0" result="BackgroundImageFix"/>
<feColorMatrix in="SourceAlpha" type="matrix" values="0 0 0 0 0 0 0 0 0 0 0 0 0 0 0 0 0 0 127 0" result="hardAlpha"/>
<feOffset dy="3"/>
<feGaussianBlur stdDeviation="1.5"/>
<feComposite in2="hardAlpha" operator="out"/>
<feColorMatrix type="matrix" values="0 0 0 0 0 0 0 0 0 0 0 0 0 0 0 0 0 0 0.08 0"/>
<feBlend mode="normal" in2="BackgroundImageFix" result="effect1_dropShadow_2512_241206"/>
<feColorMatrix in="SourceAlpha" type="matrix" values="0 0 0 0 0 0 0 0 0 0 0 0 0 0 0 0 0 0 127 0" result="hardAlpha"/>
<feOffset dx="2"/>
<feGaussianBlur stdDeviation="1.5"/>
<feComposite in2="hardAlpha" operator="out"/>
<feColorMatrix type="matrix" values="0 0 0 0 0 0 0 0 0 0 0 0 0 0 0 0 0 0 0.08 0"/>
<feBlend mode="normal" in2="effect1_dropShadow_2512_241206" result="effect2_dropShadow_2512_241206"/>
<feBlend mode="normal" in="SourceGraphic" in2="effect2_dropShadow_2512_241206" result="shape"/>
</filter>
<clipPath id="clip0_2512_241206">
<rect width="24" height="24" fill="white" transform="translate(24.2881 48.5859) rotate(-20.2258)"/>
</clipPath>
</defs>
</svg>
