<svg width="75" height="65" viewBox="0 0 75 65" fill="none" xmlns="http://www.w3.org/2000/svg">
<g filter="url(#filter0_dd_2408_230243)">
<rect x="3" y="3" width="56" height="56" rx="28" fill="#FBFBFB" shape-rendering="crispEdges"/>
<path fill-rule="evenodd" clip-rule="evenodd" d="M37.5 22H43.5C43.8978 22 44.2794 22.158 44.5607 22.4393C44.842 22.7206 45 23.1022 45 23.5C45 23.8978 44.842 24.2794 44.5607 24.5607C44.2794 24.842 43.8978 25 43.5 25H42V41.5C42 42.6935 41.5259 43.8381 40.682 44.682C39.8381 45.5259 38.6935 46 37.5 46H25.5C24.3065 46 23.1619 45.5259 22.318 44.682C21.4741 43.8381 21 42.6935 21 41.5V25H19.5C19.1022 25 18.7206 24.842 18.4393 24.5607C18.158 24.2794 18 23.8978 18 23.5C18 23.1022 18.158 22.7206 18.4393 22.4393C18.7206 22.158 19.1022 22 19.5 22H25.5V20.5C25.5 19.3065 25.9741 18.1619 26.818 17.318C27.6619 16.4741 28.8065 16 30 16H33C34.1935 16 35.3381 16.4741 36.182 17.318C37.0259 18.1619 37.5 19.3065 37.5 20.5V22ZM29.5603 39.5577C29.279 39.839 28.8975 39.9971 28.4996 39.9971C28.1018 39.9971 27.7203 39.839 27.439 39.5577C27.1577 39.2764 26.9996 38.8949 26.9996 38.4971V29.4971C26.9996 29.0992 27.1577 28.7177 27.439 28.4364C27.7203 28.1551 28.1018 27.9971 28.4996 27.9971C28.8975 27.9971 29.279 28.1551 29.5603 28.4364C29.8416 28.7177 29.9996 29.0992 29.9996 29.4971V38.4971C29.9996 38.8949 29.8416 39.2764 29.5603 39.5577ZM35.5603 39.5577C35.279 39.839 34.8975 39.9971 34.4996 39.9971C34.1018 39.9971 33.7203 39.839 33.439 39.5577C33.1577 39.2764 32.9996 38.8949 32.9996 38.4971V29.4971C32.9996 29.0992 33.1577 28.7177 33.439 28.4364C33.7203 28.1551 34.1018 27.9971 34.4996 27.9971C34.8975 27.9971 35.279 28.1551 35.5603 28.4364C35.8416 28.7177 35.9996 29.0992 35.9996 29.4971V38.4971C35.9996 38.8949 35.8416 39.2764 35.5603 39.5577ZM28.4993 20.1953C28.4993 19.7975 28.6573 19.416 28.9386 19.1347C29.2199 18.8533 29.6014 18.6953 29.9993 18.6953H32.9993C33.3971 18.6953 33.7786 18.8533 34.0599 19.1347C34.3412 19.416 34.4993 19.7975 34.4993 20.1953V21.6953H28.4993V20.1953Z" fill="#383D54"/>
</g>
<g clip-path="url(#clip0_2408_230243)">
<path d="M49.3058 49.2616C48.1971 48.2633 47.5304 46.8656 47.4523 45.3758C47.3743 43.886 47.8912 42.4262 48.8894 41.3175C49.8877 40.2089 51.2854 39.5422 52.7752 39.4641C54.265 39.386 55.7248 39.903 56.8335 40.9012C56.9813 41.0343 57.0702 41.2207 57.0806 41.4193C57.091 41.6179 57.0221 41.8126 56.889 41.9604C56.7559 42.1082 56.5695 42.1971 56.3709 42.2075C56.1723 42.2179 55.9776 42.149 55.8298 42.0159C55.0168 41.2839 53.9463 40.9048 52.8537 40.962C51.7612 41.0193 50.7362 41.5082 50.0042 42.3212C49.2721 43.1342 48.893 44.2048 48.9503 45.2973C49.0075 46.3898 49.4965 47.4148 50.3095 48.1469C50.4573 48.28 50.5462 48.4663 50.5566 48.665C50.567 48.8636 50.4981 49.0582 50.365 49.2061C50.2319 49.3539 50.0455 49.4428 49.8469 49.4532C49.6482 49.4636 49.4536 49.3947 49.3058 49.2616ZM61.1536 42.268C60.8605 42.5928 60.6535 42.9859 60.5517 43.4114C60.2107 43.2589 59.8411 43.181 59.4676 43.1828C59.0941 43.1846 58.7253 43.266 58.3858 43.4218C58.0463 43.5775 57.7439 43.8038 57.4989 44.0857C57.2539 44.3676 57.0719 44.6986 56.965 45.0565L54.8261 43.1306C54.3087 42.6648 53.6275 42.4235 52.9323 42.46C52.237 42.4964 51.5847 42.8075 51.1189 43.3249C50.653 43.8423 50.4118 44.5235 50.4482 45.2188C50.4847 45.914 50.7958 46.5663 51.3132 47.0321L56.8867 52.0506L56.22 51.9322C55.5385 51.7898 54.8282 51.9239 54.2455 52.3051C53.6628 52.6864 53.2555 53.2835 53.113 53.965C52.9706 54.6466 53.1047 55.3569 53.4859 55.9396C53.8672 56.5222 54.4642 56.9296 55.1458 57.0721L60.4686 58.1659C60.5673 58.1927 60.6704 58.1991 60.7717 58.1846C60.8729 58.1701 60.9701 58.135 61.0573 58.0816C61.1445 58.0281 61.2199 57.9574 61.2787 57.8738C61.3376 57.7901 61.3787 57.6953 61.3996 57.5952C61.4204 57.4951 61.4206 57.3918 61.4001 57.2916C61.3795 57.1914 61.3387 57.0964 61.2801 57.0126C61.2216 56.9288 61.1465 56.8578 61.0594 56.8041C60.9724 56.7503 60.8753 56.7149 60.7741 56.7001L55.4533 55.6042C55.3065 55.5758 55.1669 55.5184 55.0426 55.4355C54.9182 55.3525 54.8117 55.2456 54.7291 55.121C54.6466 54.9965 54.5897 54.8567 54.5617 54.7098C54.5338 54.563 54.5354 54.4121 54.5665 54.2659C54.5976 54.1197 54.6574 53.9811 54.7427 53.8583C54.8279 53.7355 54.9367 53.6309 55.0628 53.5507C55.1888 53.4704 55.3297 53.4161 55.477 53.3908C55.6243 53.3656 55.7752 53.3699 55.9208 53.4037L55.9456 53.4083L59.2075 53.9888C59.3681 54.0178 59.5338 53.9935 59.6794 53.9197C59.825 53.846 59.9426 53.7267 60.0143 53.5801C60.0859 53.4334 60.1078 53.2674 60.0766 53.1072C60.0454 52.947 59.9627 52.8014 59.8412 52.6924L52.3169 45.9174C52.0951 45.7178 51.9618 45.4382 51.9462 45.1403C51.9306 44.8423 52.0339 44.5503 52.2336 44.3286C52.4332 44.1069 52.7128 43.9735 53.0108 43.9579C53.3087 43.9423 53.6007 44.0457 53.8224 44.2453L58.56 48.5111C58.7078 48.6442 58.9024 48.7131 59.1011 48.7027C59.2997 48.6923 59.4861 48.6034 59.6192 48.4555C59.7523 48.3077 59.8212 48.1131 59.8108 47.9144C59.8004 47.7158 59.7115 47.5294 59.5636 47.3963L58.7276 46.6436C58.5059 46.4439 58.3725 46.1644 58.3569 45.8664C58.3413 45.5684 58.4447 45.2765 58.6443 45.0548C58.844 44.833 59.1235 44.6997 59.4215 44.6841C59.7195 44.6685 60.0114 44.7718 60.2332 44.9715L61.6266 46.2261C61.7744 46.3592 61.969 46.4281 62.1676 46.4177C62.3663 46.4073 62.5527 46.3184 62.6858 46.1706C62.8189 46.0228 62.8878 45.8281 62.8774 45.6295C62.867 45.4309 62.7781 45.2445 62.6302 45.1114L62.3516 44.8605C62.1298 44.6608 61.9965 44.3813 61.9809 44.0833C61.9653 43.7854 62.0687 43.4934 62.2683 43.2717C62.4679 43.0499 62.7475 42.9166 63.0455 42.901C63.3434 42.8854 63.6354 42.9887 63.8571 43.1884L66.3652 45.4467C67.8708 46.8023 68.4488 48.2185 68.4534 48.2302C68.5262 48.4153 68.6695 48.5639 68.8518 48.6433C69.0341 48.7228 69.2405 48.7266 69.4256 48.6539C69.5343 48.6118 69.6315 48.5446 69.7094 48.4578C69.8027 48.3543 69.8653 48.2269 69.8903 48.0898C69.9152 47.9527 69.9015 47.8114 69.8506 47.6817C69.8229 47.6101 69.1517 45.936 67.3695 44.3313L64.8614 42.073C64.6052 41.8423 64.306 41.6643 63.981 41.5492C63.656 41.4342 63.3114 41.3843 62.9671 41.4024C62.6228 41.4205 62.2854 41.5062 61.9742 41.6548C61.6631 41.8033 61.3842 42.0116 61.1536 42.268Z" fill="#22232A" fill-opacity="0.6"/>
</g>
<defs>
<filter id="filter0_dd_2408_230243" x="0" y="0" width="64" height="65" filterUnits="userSpaceOnUse" color-interpolation-filters="sRGB">
<feFlood flood-opacity="0" result="BackgroundImageFix"/>
<feColorMatrix in="SourceAlpha" type="matrix" values="0 0 0 0 0 0 0 0 0 0 0 0 0 0 0 0 0 0 127 0" result="hardAlpha"/>
<feOffset dy="3"/>
<feGaussianBlur stdDeviation="1.5"/>
<feComposite in2="hardAlpha" operator="out"/>
<feColorMatrix type="matrix" values="0 0 0 0 0 0 0 0 0 0 0 0 0 0 0 0 0 0 0.08 0"/>
<feBlend mode="normal" in2="BackgroundImageFix" result="effect1_dropShadow_2408_230243"/>
<feColorMatrix in="SourceAlpha" type="matrix" values="0 0 0 0 0 0 0 0 0 0 0 0 0 0 0 0 0 0 127 0" result="hardAlpha"/>
<feOffset dx="2"/>
<feGaussianBlur stdDeviation="1.5"/>
<feComposite in2="hardAlpha" operator="out"/>
<feColorMatrix type="matrix" values="0 0 0 0 0 0 0 0 0 0 0 0 0 0 0 0 0 0 0.08 0"/>
<feBlend mode="normal" in2="effect1_dropShadow_2408_230243" result="effect2_dropShadow_2408_230243"/>
<feBlend mode="normal" in="SourceGraphic" in2="effect2_dropShadow_2408_230243" result="shape"/>
</filter>
<clipPath id="clip0_2408_230243">
<rect width="24" height="24" fill="white" transform="translate(41 47.8359) rotate(-48)"/>
</clipPath>
</defs>
</svg>
