<svg width="83" height="24" viewBox="0 0 83 24" fill="none" xmlns="http://www.w3.org/2000/svg">
<rect width="83" height="24" rx="4" fill="#050A15" fill-opacity="0.5"/>
<g clip-path="url(#clip0_2142_205324)">
<path d="M24.1975 11.061L21.6015 9.6395C21.265 9.45 20.865 9.4535 20.5325 9.648C20.199 9.843 20.0005 10.1895 20.0005 10.5755V13.425C20.0005 13.811 20.199 14.1575 20.5325 14.3525C20.7025 14.452 20.8895 14.501 21.076 14.501C21.255 14.501 21.434 14.4555 21.5965 14.364L24.2025 12.937C24.546 12.744 24.7505 12.394 24.7505 12.0005C24.7505 11.607 24.546 11.257 24.198 11.0615L24.1975 11.061ZM23.717 12.0625L21.111 13.49C21.1015 13.495 21.0725 13.511 21.0375 13.4895C21.0005 13.468 21.0005 13.436 21.0005 13.4255V10.576C21.0005 10.5655 21.0005 10.5335 21.0375 10.512C21.051 10.504 21.0635 10.5015 21.0745 10.5015C21.0925 10.5015 21.107 10.5095 21.116 10.5145L23.712 11.9365C23.7215 11.942 23.75 11.958 23.75 12.0015C23.75 12.045 23.721 12.061 23.717 12.064V12.0625ZM22 6C18.6915 6 16 8.6915 16 12C16 15.3085 18.6915 18 22 18C25.3085 18 28 15.3085 28 12C28 8.6915 25.3085 6 22 6ZM22 17C19.243 17 17 14.757 17 12C17 9.243 19.243 7 22 7C24.757 7 27 9.243 27 12C27 14.757 24.757 17 22 17Z" fill="#FBFBFB"/>
</g>
<path d="M43.1943 10.87C43.5209 11.01 43.7776 11.2333 43.9643 11.54C44.1509 11.8467 44.2443 12.19 44.2443 12.57C44.2443 13.1167 44.0409 13.5767 43.6343 13.95C43.2276 14.3167 42.7243 14.5 42.1243 14.5H39.3243V7.5H42.0843C42.6576 7.5 43.1276 7.67 43.4943 8.01C43.8676 8.35 44.0543 8.77667 44.0543 9.29C44.0543 9.60333 43.9743 9.90667 43.8143 10.2C43.6609 10.4933 43.4543 10.7167 43.1943 10.87ZM43.1643 9.41C43.1643 9.21 43.1143 9.03 43.0143 8.87C42.9209 8.71 42.7909 8.58667 42.6243 8.5C42.4576 8.40667 42.2709 8.36 42.0643 8.36H40.1843V10.46H42.0743C42.3809 10.46 42.6376 10.36 42.8443 10.16C43.0576 9.95333 43.1643 9.70333 43.1643 9.41ZM42.1143 13.63C42.4609 13.63 42.7509 13.52 42.9843 13.3C43.2176 13.08 43.3343 12.8033 43.3343 12.47C43.3343 12.1433 43.2176 11.87 42.9843 11.65C42.7509 11.43 42.4609 11.32 42.1143 11.32H40.1843V13.63H42.1143ZM45.5807 8.16V7.19H46.5007V8.16H45.5807ZM45.6207 14.5V9.1H46.4707V14.5H45.6207ZM52.6993 13.7H53.4293V15.93H52.6493V14.5H48.2993V15.93H47.5193V13.7H48.0993C48.2593 13.5533 48.3827 13.3467 48.4693 13.08C48.556 12.8067 48.6327 12.3933 48.6993 11.84C48.7727 11.28 48.8593 10.3667 48.9593 9.1H52.6993V13.7ZM49.7193 9.85C49.6593 10.7433 49.596 11.44 49.5293 11.94C49.4693 12.4333 49.3993 12.8133 49.3193 13.08C49.2393 13.34 49.136 13.5467 49.0093 13.7H51.8693V9.85H49.7193ZM59.6356 11.82C59.6356 11.8933 59.6289 11.9967 59.6156 12.13H55.0056C55.0723 12.63 55.2789 13.0333 55.6256 13.34C55.9723 13.64 56.3989 13.79 56.9056 13.79C57.2789 13.79 57.6089 13.71 57.8956 13.55C58.1889 13.3833 58.4223 13.15 58.5956 12.85H59.4856C59.2589 13.41 58.9189 13.8467 58.4656 14.16C58.0123 14.4667 57.4923 14.62 56.9056 14.62C56.1256 14.62 55.4723 14.35 54.9456 13.81C54.4189 13.27 54.1556 12.6 54.1556 11.8C54.1556 10.9933 54.4189 10.3233 54.9456 9.79C55.4723 9.25 56.1256 8.98 56.9056 8.98C57.7123 8.98 58.3689 9.25333 58.8756 9.8C59.3823 10.3467 59.6356 11.02 59.6356 11.82ZM56.9056 9.79C56.5856 9.79 56.2923 9.85333 56.0256 9.98C55.7656 10.1067 55.5489 10.29 55.3756 10.53C55.2023 10.7633 55.0856 11.0333 55.0256 11.34H58.7756C58.7156 11.0267 58.5989 10.7533 58.4256 10.52C58.2523 10.28 58.0356 10.1 57.7756 9.98C57.5156 9.85333 57.2256 9.79 56.9056 9.79ZM63.3339 14.62C62.8006 14.62 62.3139 14.5 61.8739 14.26C61.4339 14.0133 61.0906 13.6767 60.8439 13.25C60.5973 12.8167 60.4739 12.3333 60.4739 11.8C60.4739 10.9867 60.7439 10.3133 61.2839 9.78C61.8306 9.24667 62.5139 8.98 63.3339 8.98C63.8739 8.98 64.3606 9.10333 64.7939 9.35C65.2339 9.59 65.5773 9.92667 65.8239 10.36C66.0773 10.7867 66.2039 11.2667 66.2039 11.8C66.2039 12.6067 65.9306 13.28 65.3839 13.82C64.8373 14.3533 64.1539 14.62 63.3339 14.62ZM61.9039 13.24C62.2839 13.6133 62.7606 13.8 63.3339 13.8C63.9139 13.8 64.3906 13.6133 64.7639 13.24C65.1439 12.86 65.3339 12.38 65.3339 11.8C65.3339 11.22 65.1439 10.7433 64.7639 10.37C64.3906 9.99 63.9139 9.8 63.3339 9.8C62.7606 9.8 62.2839 9.99 61.9039 10.37C61.5306 10.7433 61.3439 11.22 61.3439 11.8C61.3439 12.38 61.5306 12.86 61.9039 13.24Z" fill="#FBFBFB"/>
<defs>
<clipPath id="clip0_2142_205324">
<rect width="12" height="12" fill="white" transform="translate(16 6)"/>
</clipPath>
</defs>
</svg>
