<svg width="24" height="24" viewBox="0 0 24 24" fill="none" xmlns="http://www.w3.org/2000/svg">
<path d="M11.2 15.6C11.3591 15.6 11.5117 15.5368 11.6243 15.4243C11.7368 15.3117 11.8 15.1591 11.8 15V11.4C11.8 11.2409 11.7368 11.0883 11.6243 10.9757C11.5117 10.8632 11.3591 10.8 11.2 10.8C11.0409 10.8 10.8883 10.8632 10.7757 10.9757C10.6632 11.0883 10.6 11.2409 10.6 11.4V15C10.6 15.1591 10.6632 15.3117 10.7757 15.4243C10.8883 15.5368 11.0409 15.6 11.2 15.6ZM17.2 8.4H14.8V7.8C14.8 7.32261 14.6104 6.86477 14.2728 6.52721C13.9352 6.18964 13.4774 6 13 6H11.8C11.3226 6 10.8648 6.18964 10.5272 6.52721C10.1896 6.86477 10 7.32261 10 7.8V8.4H7.6C7.44087 8.4 7.28826 8.46321 7.17574 8.57574C7.06321 8.68826 7 8.84087 7 9C7 9.15913 7.06321 9.31174 7.17574 9.42426C7.28826 9.53679 7.44087 9.6 7.6 9.6H8.2V16.2C8.2 16.6774 8.38964 17.1352 8.72721 17.4728C9.06477 17.8104 9.52261 18 10 18H14.8C15.2774 18 15.7352 17.8104 16.0728 17.4728C16.4104 17.1352 16.6 16.6774 16.6 16.2V9.6H17.2C17.3591 9.6 17.5117 9.53679 17.6243 9.42426C17.7368 9.31174 17.8 9.15913 17.8 9C17.8 8.84087 17.7368 8.68826 17.6243 8.57574C17.5117 8.46321 17.3591 8.4 17.2 8.4ZM11.2 7.8C11.2 7.64087 11.2632 7.48826 11.3757 7.37574C11.4883 7.26321 11.6409 7.2 11.8 7.2H13C13.1591 7.2 13.3117 7.26321 13.4243 7.37574C13.5368 7.48826 13.6 7.64087 13.6 7.8V8.4H11.2V7.8ZM15.4 16.2C15.4 16.3591 15.3368 16.5117 15.2243 16.6243C15.1117 16.7368 14.9591 16.8 14.8 16.8H10C9.84087 16.8 9.68826 16.7368 9.57574 16.6243C9.46321 16.5117 9.4 16.3591 9.4 16.2V9.6H15.4V16.2ZM13.6 15.6C13.7591 15.6 13.9117 15.5368 14.0243 15.4243C14.1368 15.3117 14.2 15.1591 14.2 15V11.4C14.2 11.2409 14.1368 11.0883 14.0243 10.9757C13.9117 10.8632 13.7591 10.8 13.6 10.8C13.4409 10.8 13.2883 10.8632 13.1757 10.9757C13.0632 11.0883 13 11.2409 13 11.4V15C13 15.1591 13.0632 15.3117 13.1757 15.4243C13.2883 15.5368 13.4409 15.6 13.6 15.6Z" fill="#383D54"/>
</svg>
