<svg width="112" height="24" viewBox="0 0 112 24" fill="none" xmlns="http://www.w3.org/2000/svg">
<rect width="112" height="24" rx="4" fill="#050A15" fill-opacity="0.5"/>
<path d="M21.5 13.5V11M21.5 11H17.5M21.5 11V10M26.5 9.5H23.5V10.5M23.5 14.5V16M21.5 15V16M21.5 7V8.5M26.5 13H23.5V12" stroke="#FBFBFB" stroke-width="0.8" stroke-linecap="round" stroke-linejoin="round"/>
<path d="M26.5 7.3V15.7C26.5 15.7796 26.4684 15.8559 26.4121 15.9121C26.3559 15.9684 26.2796 16 26.2 16H17.8C17.7204 16 17.6441 15.9684 17.5879 15.9121C17.5316 15.8559 17.5 15.7796 17.5 15.7V7.3C17.5 7.22044 17.5316 7.14413 17.5879 7.08787C17.6441 7.03161 17.7204 7 17.8 7H26.2C26.2796 7 26.3559 7.03161 26.4121 7.08787C26.4684 7.14413 26.5 7.22044 26.5 7.3Z" stroke="#FBFBFB" stroke-width="0.8" stroke-linecap="round" stroke-linejoin="round"/>
<path d="M33.3731 7.5H38.4731V14.5H37.5831V8.32H34.2431V14.5H33.3731V7.5ZM41.2048 9.1H44.7448V14.5H43.8948V9.84H41.9148L41.6348 12.57C41.5615 13.2833 41.3781 13.79 41.0848 14.09C40.7915 14.3833 40.3515 14.53 39.7648 14.53H39.6148V13.73H39.8048C40.1115 13.73 40.3448 13.6433 40.5048 13.47C40.6648 13.29 40.7648 13.0067 40.8048 12.62L41.2048 9.1ZM51.0567 9.1H51.7367V14.5H51.0267L50.9367 13.68C50.6833 13.98 50.3733 14.2133 50.0067 14.38C49.6467 14.54 49.25 14.62 48.8167 14.62C48.0233 14.62 47.36 14.3533 46.8267 13.82C46.2933 13.28 46.0267 12.6067 46.0267 11.8C46.0267 10.9933 46.2933 10.3233 46.8267 9.79C47.36 9.25 48.0233 8.98 48.8167 8.98C49.2567 8.98 49.6567 9.06333 50.0167 9.23C50.3833 9.39667 50.6933 9.63 50.9467 9.93L51.0567 9.1ZM47.4567 13.23C47.8367 13.61 48.3133 13.8 48.8867 13.8C49.46 13.8 49.9333 13.61 50.3067 13.23C50.68 12.85 50.8667 12.3733 50.8667 11.8C50.8667 11.2267 50.68 10.75 50.3067 10.37C49.9333 9.99 49.46 9.8 48.8867 9.8C48.3133 9.8 47.8367 9.99333 47.4567 10.38C47.0833 10.76 46.8967 11.2333 46.8967 11.8C46.8967 12.3667 47.0833 12.8433 47.4567 13.23ZM57.1689 9.1H57.9989V14.5H57.1689V12.11H54.2789V14.5H53.4489V9.1H54.2789V11.31H57.1689V9.1ZM63.6584 9.1H64.5684L61.9984 14.72C61.7984 15.16 61.6017 15.5 61.4084 15.74C61.2151 15.98 60.9984 16.1533 60.7584 16.26C60.5184 16.3733 60.2251 16.43 59.8784 16.43H59.3684V15.66H59.8084C60.1684 15.66 60.4384 15.5867 60.6184 15.44C60.7984 15.2933 60.9984 14.9933 61.2184 14.54L61.4084 14.13L59.0084 9.1H59.9384L61.8584 13.19L63.6584 9.1ZM69.0478 11.7C69.3211 11.8 69.5378 11.9667 69.6978 12.2C69.8644 12.4333 69.9478 12.6967 69.9478 12.99C69.9478 13.4233 69.7878 13.7833 69.4678 14.07C69.1544 14.3567 68.7611 14.5 68.2878 14.5H65.5778V9.1H68.2578C68.7044 9.1 69.0678 9.23 69.3478 9.49C69.6278 9.74333 69.7678 10.07 69.7678 10.47C69.7678 10.65 69.7378 10.82 69.6778 10.98C69.6178 11.14 69.5344 11.2833 69.4278 11.41C69.3211 11.53 69.1944 11.6267 69.0478 11.7ZM68.9278 10.62C68.9278 10.4 68.8544 10.2267 68.7078 10.1C68.5611 9.96667 68.3711 9.9 68.1378 9.9H66.4078V11.33H68.1378C68.3778 11.33 68.5678 11.2667 68.7078 11.14C68.8544 11.0067 68.9278 10.8333 68.9278 10.62ZM68.1878 13.7C68.3544 13.7 68.5044 13.6667 68.6378 13.6C68.7778 13.5267 68.8844 13.43 68.9578 13.31C69.0311 13.19 69.0678 13.0567 69.0678 12.91C69.0678 12.7567 69.0311 12.62 68.9578 12.5C68.8844 12.3733 68.7778 12.2767 68.6378 12.21C68.5044 12.1433 68.3511 12.11 68.1778 12.11H66.4078V13.7H68.1878ZM75.92 9.1H76.6V14.5H75.89L75.8 13.68C75.5466 13.98 75.2366 14.2133 74.87 14.38C74.51 14.54 74.1133 14.62 73.68 14.62C72.8866 14.62 72.2233 14.3533 71.69 13.82C71.1566 13.28 70.89 12.6067 70.89 11.8C70.89 10.9933 71.1566 10.3233 71.69 9.79C72.2233 9.25 72.8866 8.98 73.68 8.98C74.12 8.98 74.52 9.06333 74.88 9.23C75.2466 9.39667 75.5566 9.63 75.81 9.93L75.92 9.1ZM72.32 13.23C72.7 13.61 73.1766 13.8 73.75 13.8C74.3233 13.8 74.7966 13.61 75.17 13.23C75.5433 12.85 75.73 12.3733 75.73 11.8C75.73 11.2267 75.5433 10.75 75.17 10.37C74.7966 9.99 74.3233 9.8 73.75 9.8C73.1766 9.8 72.7 9.99333 72.32 10.38C71.9466 10.76 71.76 11.2333 71.76 11.8C71.76 12.3667 71.9466 12.8433 72.32 13.23ZM82.0321 9.1H82.8621V14.5H82.0321V12.11H79.1421V14.5H78.3121V9.1H79.1421V11.31H82.0321V9.1ZM88.3017 9.1H89.1317V14.5H88.3017V12.11H85.4117V14.5H84.5817V9.1H85.4117V11.31H88.3017V9.1ZM92.2612 9.1H94.7412V14.5H93.9012V12.43H92.5512L91.2712 14.5H90.3312L91.6812 12.31C91.3279 12.1967 91.0479 12.0033 90.8412 11.73C90.6345 11.4567 90.5312 11.1367 90.5312 10.77C90.5312 10.29 90.6945 9.89333 91.0212 9.58C91.3479 9.26 91.7612 9.1 92.2612 9.1ZM92.3312 11.61H93.9012V9.92H92.3312C92.0512 9.92 91.8245 10 91.6512 10.16C91.4779 10.3133 91.3912 10.5167 91.3912 10.77C91.3912 11.0167 91.4779 11.22 91.6512 11.38C91.8245 11.5333 92.0512 11.61 92.3312 11.61Z" fill="#FBFBFB"/>
</svg>
