<svg width="24" height="24" viewBox="0 0 24 24" fill="none" xmlns="http://www.w3.org/2000/svg">
<path fill-rule="evenodd" clip-rule="evenodd" d="M7.33333 5C6.71449 5 6.121 5.24583 5.68342 5.68342C5.24583 6.121 5 6.71449 5 7.33333V16.6667C5 17.2855 5.24583 17.879 5.68342 18.3166C6.121 18.7542 6.71449 19 7.33333 19H16.6667C17.2855 19 17.879 18.7542 18.3166 18.3166C18.7542 17.879 19 17.2855 19 16.6667V7.33333C19 6.71449 18.7542 6.121 18.3166 5.68342C17.879 5.24583 17.2855 5 16.6667 5H7.33333ZM10.4444 8.88889C10.4444 8.68261 10.5264 8.48478 10.6723 8.33892C10.8181 8.19306 11.0159 8.11111 11.2222 8.11111H15.8889C16.0952 8.11111 16.293 8.19306 16.4389 8.33892C16.5847 8.48478 16.6667 8.68261 16.6667 8.88889C16.6667 9.09517 16.5847 9.293 16.4389 9.43886C16.293 9.58472 16.0952 9.66667 15.8889 9.66667H11.2222C11.0159 9.66667 10.8181 9.58472 10.6723 9.43886C10.5264 9.293 10.4444 9.09517 10.4444 8.88889ZM10.4444 12C10.4444 11.7937 10.5264 11.5959 10.6723 11.45C10.8181 11.3042 11.0159 11.2222 11.2222 11.2222H15.8889C16.0952 11.2222 16.293 11.3042 16.4389 11.45C16.5847 11.5959 16.6667 11.7937 16.6667 12C16.6667 12.2063 16.5847 12.4041 16.4389 12.55C16.293 12.6958 16.0952 12.7778 15.8889 12.7778H11.2222C11.0159 12.7778 10.8181 12.6958 10.6723 12.55C10.5264 12.4041 10.4444 12.2063 10.4444 12ZM10.4444 15.1111C10.4444 14.9048 10.5264 14.707 10.6723 14.5611C10.8181 14.4153 11.0159 14.3333 11.2222 14.3333H15.8889C16.0952 14.3333 16.293 14.4153 16.4389 14.5611C16.5847 14.707 16.6667 14.9048 16.6667 15.1111C16.6667 15.3174 16.5847 15.5152 16.4389 15.6611C16.293 15.8069 16.0952 15.8889 15.8889 15.8889H11.2222C11.0159 15.8889 10.8181 15.8069 10.6723 15.6611C10.5264 15.5152 10.4444 15.3174 10.4444 15.1111ZM8.11111 8.11111C7.90483 8.11111 7.707 8.19306 7.56114 8.33892C7.41528 8.48478 7.33333 8.68261 7.33333 8.88889C7.33333 9.09517 7.41528 9.293 7.56114 9.43886C7.707 9.58472 7.90483 9.66667 8.11111 9.66667C8.31739 9.66667 8.516 9.58472 8.66186 9.43886C8.80772 9.293 8.88967 9.09517 8.88967 8.88889C8.88967 8.68261 8.80772 8.48478 8.66186 8.33892C8.516 8.19306 8.31739 8.11111 8.11111 8.11111ZM7.33333 12C7.33333 11.7937 7.41528 11.5959 7.56114 11.45C7.707 11.3042 7.90483 11.2222 8.11111 11.2222C8.31739 11.2222 8.516 11.3042 8.66186 11.45C8.80772 11.5959 8.88967 11.7937 8.88967 12C8.88967 12.2063 8.80772 12.4041 8.66186 12.55C8.516 12.6958 8.31817 12.7778 8.11189 12.7778C7.90561 12.7778 7.707 12.6958 7.56114 12.55C7.41528 12.4041 7.33333 12.2063 7.33333 12ZM8.11111 14.3333C7.90483 14.3333 7.707 14.4153 7.56114 14.5611C7.41528 14.707 7.33333 14.9048 7.33333 15.1111C7.33333 15.3174 7.41528 15.5152 7.56114 15.6611C7.707 15.8069 7.90483 15.8889 8.11111 15.8889C8.31739 15.8889 8.516 15.8069 8.66186 15.6611C8.80772 15.5152 8.88967 15.3174 8.88967 15.1111C8.88967 14.9048 8.80772 14.707 8.66186 14.5611C8.516 14.4153 8.31739 14.3333 8.11111 14.3333Z" fill="#383D54"/>
</svg>
