<svg width="12" height="13" viewBox="0 0 12 13" fill="none" xmlns="http://www.w3.org/2000/svg">
<g clip-path="url(#clip0_2186_209551)">
<path d="M12 5.58594L10.9 0.585938H1.1L0.012 5.47744L0 6.08594C0.00181335 6.56858 0.179587 7.03399 0.5 7.39494V11.0859C0.5 11.4838 0.658035 11.8653 0.93934 12.1466C1.22064 12.4279 1.60218 12.5859 2 12.5859H10C10.3978 12.5859 10.7794 12.4279 11.0607 12.1466C11.342 11.8653 11.5 11.4838 11.5 11.0859V7.39494C11.8204 7.03399 11.9982 6.56858 12 6.08594V5.58594ZM1 5.64044L1.9 1.58594H3.5V3.58594H4.5V1.58594H7.5V3.58594H8.5V1.58594H10.1L11 5.64044V6.08594C11 6.35115 10.8946 6.60551 10.7071 6.79304C10.5196 6.98058 10.2652 7.08594 10 7.08594H9.5C9.23478 7.08594 8.98043 6.98058 8.79289 6.79304C8.60536 6.60551 8.5 6.35115 8.5 6.08594H7.5C7.5 6.35115 7.39464 6.60551 7.20711 6.79304C7.01957 6.98058 6.76522 7.08594 6.5 7.08594H5.5C5.23478 7.08594 4.98043 6.98058 4.79289 6.79304C4.60536 6.60551 4.5 6.35115 4.5 6.08594H3.5C3.5 6.35115 3.39464 6.60551 3.20711 6.79304C3.01957 6.98058 2.76522 7.08594 2.5 7.08594H2C1.73478 7.08594 1.48043 6.98058 1.29289 6.79304C1.10536 6.60551 1 6.35115 1 6.08594V5.64044ZM10 11.5859H2C1.86739 11.5859 1.74021 11.5333 1.64645 11.4395C1.55268 11.3457 1.5 11.2185 1.5 11.0859V8.01494C1.66293 8.05996 1.83098 8.08383 2 8.08594H2.5C2.78495 8.08502 3.06636 8.02284 3.32517 7.90362C3.58398 7.78439 3.81412 7.61091 4 7.39494C4.18588 7.61091 4.41602 7.78439 4.67483 7.90362C4.93364 8.02284 5.21505 8.08502 5.5 8.08594H6.5C6.78391 8.08609 7.06458 8.02564 7.32325 7.90863C7.58193 7.79162 7.81265 7.62075 8 7.40744C8.18735 7.62075 8.41807 7.79162 8.67675 7.90863C8.93542 8.02564 9.21609 8.08609 9.5 8.08594H10C10.169 8.08383 10.3371 8.05996 10.5 8.01494V11.0859C10.5 11.2185 10.4473 11.3457 10.3536 11.4395C10.2598 11.5333 10.1326 11.5859 10 11.5859Z" fill="#22232A"/>
</g>
<defs>
<clipPath id="clip0_2186_209551">
<rect width="12" height="12" fill="white" transform="translate(0 0.585938)"/>
</clipPath>
</defs>
</svg>
