<svg width="16" height="16" viewBox="0 0 16 16" fill="none" xmlns="http://www.w3.org/2000/svg">
<path d="M0.75 3.5H15.25C15.3163 3.5 15.3799 3.52634 15.4268 3.57322C15.4737 3.62011 15.5 3.6837 15.5 3.75C15.5 3.8163 15.4737 3.87989 15.4268 3.92678C15.3799 3.97366 15.3163 4 15.25 4H0.75C0.683696 4 0.620107 3.97366 0.573223 3.92678C0.526339 3.87989 0.5 3.8163 0.5 3.75C0.5 3.6837 0.526339 3.62011 0.573223 3.57322C0.620107 3.52634 0.683696 3.5 0.75 3.5ZM3.5 7.75C3.5 7.6837 3.52634 7.62011 3.57322 7.57322C3.62011 7.52634 3.6837 7.5 3.75 7.5H12.25C12.3163 7.5 12.3799 7.52634 12.4268 7.57322C12.4737 7.62011 12.5 7.6837 12.5 7.75C12.5 7.8163 12.4737 7.87989 12.4268 7.92678C12.3799 7.97366 12.3163 8 12.25 8H3.75C3.6837 8 3.62011 7.97366 3.57322 7.92678C3.52634 7.87989 3.5 7.8163 3.5 7.75ZM6.5 11.75C6.5 11.6837 6.52634 11.6201 6.57322 11.5732C6.62011 11.5263 6.6837 11.5 6.75 11.5H9.25C9.3163 11.5 9.37989 11.5263 9.42678 11.5732C9.47366 11.6201 9.5 11.6837 9.5 11.75C9.5 11.8163 9.47366 11.8799 9.42678 11.9268C9.37989 11.9737 9.3163 12 9.25 12H6.75C6.6837 12 6.62011 11.9737 6.57322 11.9268C6.52634 11.8799 6.5 11.8163 6.5 11.75Z" fill="#383D54" stroke="#3670F0"/>
</svg>
