<svg width="13" height="13" viewBox="0 0 13 13" fill="none" xmlns="http://www.w3.org/2000/svg">
<path d="M3.59375 8.95654L6.25875 11.6215C6.28995 11.6541 6.32743 11.68 6.36892 11.6978C6.41042 11.7155 6.45506 11.7246 6.50018 11.7246C6.54529 11.7246 6.58994 11.7155 6.63143 11.6978C6.67293 11.68 6.7104 11.6541 6.74161 11.6215L9.40661 8.95654M3.59375 4.04439L6.25875 1.37939C6.28995 1.34681 6.32743 1.32088 6.36892 1.30317C6.41042 1.28545 6.45506 1.27632 6.50018 1.27632C6.54529 1.27632 6.58994 1.28545 6.63143 1.30317C6.67293 1.32088 6.7104 1.34681 6.74161 1.37939L9.40661 4.04439" stroke="#050A15" stroke-opacity="0.5" stroke-width="1.3" stroke-linecap="round" stroke-linejoin="round"/>
</svg>
