<svg width="16" height="16" viewBox="0 0 16 16" fill="none" xmlns="http://www.w3.org/2000/svg">
<path d="M5.46865 9.46987L9.46865 5.46987C9.53841 5.4001 9.62123 5.34476 9.71239 5.307C9.80354 5.26925 9.90123 5.24981 9.9999 5.24981C10.0986 5.24981 10.1963 5.26925 10.2874 5.307C10.3786 5.34476 10.4614 5.4001 10.5311 5.46987C10.6009 5.53963 10.6563 5.62245 10.694 5.71361C10.7318 5.80476 10.7512 5.90245 10.7512 6.00112C10.7512 6.09978 10.7318 6.19747 10.694 6.28863C10.6563 6.37978 10.6009 6.4626 10.5311 6.53237L6.53115 10.5324C6.39025 10.6733 6.19915 10.7524 5.9999 10.7524C5.80064 10.7524 5.60954 10.6733 5.46865 10.5324C5.32775 10.3915 5.2486 10.2004 5.2486 10.0011C5.2486 9.80186 5.32775 9.61076 5.46865 9.46987ZM13.6561 2.34487C12.9522 1.6425 11.9984 1.24805 11.004 1.24805C10.0095 1.24805 9.05573 1.6425 8.35177 2.34487L6.46927 4.22549C6.32838 4.36639 6.24922 4.55748 6.24922 4.75674C6.24922 4.956 6.32838 5.14709 6.46927 5.28799C6.61017 5.42889 6.80126 5.50804 7.00052 5.50804C7.19978 5.50804 7.39088 5.42889 7.53177 5.28799L9.41115 3.40924C9.62011 3.20023 9.8682 3.03443 10.1412 2.9213C10.4143 2.80817 10.7069 2.74993 11.0025 2.7499C11.298 2.74987 11.5907 2.80806 11.8638 2.92113C12.1368 3.03421 12.385 3.19996 12.594 3.40893C12.803 3.61789 12.9688 3.86598 13.0819 4.13902C13.195 4.41207 13.2533 4.70472 13.2533 5.00027C13.2533 5.29582 13.1951 5.58848 13.0821 5.86155C12.969 6.13461 12.8032 6.38273 12.5943 6.59174L10.7124 8.46987C10.5715 8.61076 10.4923 8.80186 10.4923 9.00112C10.4923 9.20037 10.5715 9.39147 10.7124 9.53237C10.8533 9.67326 11.0444 9.75242 11.2436 9.75242C11.4429 9.75242 11.634 9.67326 11.7749 9.53237L13.6549 7.65362C14.3576 6.94923 14.7521 5.99477 14.7518 4.99979C14.7514 4.00481 14.3562 3.05063 13.653 2.34674L13.6561 2.34487ZM8.4699 10.7124L6.59052 12.5924C6.38151 12.8013 6.1334 12.9671 5.86033 13.0802C5.58727 13.1932 5.2946 13.2514 4.99905 13.2514C4.7035 13.2514 4.41085 13.1931 4.1378 13.08C3.86476 12.9669 3.61668 12.8011 3.40771 12.5921C2.98568 12.1699 2.74862 11.5975 2.74868 11.0006C2.74874 10.4037 2.98591 9.83127 3.40802 9.40924L5.28677 7.52987C5.35654 7.4601 5.41188 7.37728 5.44963 7.28613C5.48739 7.19497 5.50682 7.09728 5.50682 6.99862C5.50682 6.89995 5.48739 6.80226 5.44963 6.71111C5.41188 6.61995 5.35654 6.53713 5.28677 6.46737C5.21701 6.3976 5.13418 6.34226 5.04303 6.3045C4.95188 6.26675 4.85418 6.24731 4.75552 6.24731C4.65686 6.24731 4.55916 6.26675 4.46801 6.3045C4.37686 6.34226 4.29404 6.3976 4.22427 6.46737L2.34677 8.34862C1.64337 9.0521 1.24823 10.0062 1.24829 11.001C1.24835 11.9958 1.6436 12.9499 2.34708 13.6533C3.05057 14.3567 4.00467 14.7518 4.99949 14.7518C5.99431 14.7517 6.94837 14.3565 7.65177 13.653L9.53052 11.7736C9.67142 11.6327 9.75057 11.4416 9.75057 11.2424C9.75057 11.0431 9.67142 10.852 9.53052 10.7111C9.38963 10.5702 9.19853 10.4911 8.99927 10.4911C8.80001 10.4911 8.60892 10.5702 8.46802 10.7111L8.4699 10.7124Z" fill="#3670F0"/>
</svg>
