<svg width="16" height="16" viewBox="0 0 16 16" fill="none" xmlns="http://www.w3.org/2000/svg">
<path d="M3.13203 0C2.65464 0 2.1968 0.189642 1.85924 0.527208C1.52167 0.864773 1.33203 1.32261 1.33203 1.8V14.2C1.33203 14.6774 1.52167 15.1352 1.85924 15.4728C2.1968 15.8104 2.65464 16 3.13203 16H9.13203C9.60652 16 10.0618 15.8127 10.3989 15.4787C10.736 15.1448 10.9276 14.6913 10.932 14.2168V13.0008C10.932 12.8417 10.8688 12.6891 10.7563 12.5765C10.6438 12.464 10.4912 12.4008 10.332 12.4008C9.96963 12.4008 9.74083 12.3024 9.58323 12.1752C9.41683 12.0416 9.27923 11.8352 9.17443 11.544C8.95603 10.94 8.93283 10.144 8.93283 9.4C8.93282 9.24792 8.87506 9.10152 8.77123 8.9904L8.63923 8.8488C8.59621 8.80045 8.55082 8.75426 8.50323 8.7104C8.44403 8.6544 8.26323 8.4824 7.55683 7.776C7.18163 7.4008 6.97443 7.084 6.90643 6.8416C6.87894 6.75765 6.87452 6.66785 6.89363 6.5816C6.92374 6.48214 6.98045 6.39279 7.05763 6.3232C7.12702 6.24634 7.21609 6.1899 7.31523 6.16C7.40121 6.14087 7.49076 6.1453 7.57443 6.1728C7.81603 6.2408 8.13283 6.4496 8.50803 6.8248C8.94003 7.2568 9.35043 7.6616 9.71763 8.0248C10.3256 8.6264 10.816 9.1128 11.0936 9.4088C11.2024 9.52421 11.3524 9.59187 11.5109 9.59698C11.6694 9.6021 11.8235 9.54426 11.9395 9.4361C12.0555 9.32795 12.1239 9.17827 12.1299 9.0198C12.1358 8.86133 12.0788 8.70695 11.9712 8.5904C11.6307 8.23425 11.2842 7.8838 10.932 7.5392V4.848L13.2048 7.1216C13.5424 7.4592 13.7328 7.9168 13.7328 8.3936V15.4C13.7328 15.5591 13.796 15.7117 13.9086 15.8243C14.0211 15.9368 14.1737 16 14.3328 16C14.492 16 14.6446 15.9368 14.7571 15.8243C14.8696 15.7117 14.9328 15.5591 14.9328 15.4V8.3944C14.9328 8.00035 14.8551 7.61017 14.7043 7.24614C14.5534 6.88211 14.3323 6.55137 14.0536 6.2728L10.932 3.1512V1.7992C10.9318 1.32195 10.7421 0.864317 10.4045 0.526925C10.067 0.189532 9.60928 -4.71359e-08 9.13203 0H3.13203ZM8.04563 11.952C8.12323 12.1664 8.22323 12.3792 8.35283 12.5776C8.04713 12.7244 7.78911 12.9546 7.60851 13.2416C7.42791 13.5287 7.33207 13.8609 7.33203 14.2V14.8H4.93203V14.2C4.93203 13.7226 4.74239 13.2648 4.40482 12.9272C4.06726 12.5896 3.60942 12.4 3.13203 12.4H2.53203V3.6H3.13203C3.60942 3.6 4.06726 3.41036 4.40482 3.07279C4.74239 2.73523 4.93203 2.27739 4.93203 1.8V1.2H7.33203V1.8C7.33203 2.27739 7.52167 2.73523 7.85924 3.07279C8.19681 3.41036 8.65464 3.6 9.13203 3.6H9.73203V6.3504L9.35683 5.976C8.93203 5.5512 8.43843 5.1696 7.90003 5.0176C7.61265 4.93249 7.30777 4.92559 7.01683 4.9976C6.83661 5.04443 6.66564 5.12153 6.51123 5.2256C6.05893 5.16391 5.5984 5.21373 5.16976 5.37074C4.74113 5.52775 4.35737 5.78717 4.05194 6.12642C3.7465 6.46567 3.52864 6.87446 3.41733 7.31717C3.30602 7.75988 3.30464 8.22309 3.41331 8.66646C3.52197 9.10982 3.7374 9.5199 4.04081 9.86096C4.34422 10.202 4.72641 10.4637 5.15411 10.6233C5.58181 10.7829 6.04203 10.8354 6.49469 10.7764C6.94735 10.7174 7.37872 10.5487 7.75123 10.2848C7.78083 10.832 7.85523 11.4264 8.04563 11.952ZM4.53203 8C4.53196 7.65147 4.64569 7.31246 4.85594 7.03449C5.06619 6.75652 5.36145 6.5548 5.69683 6.46C5.66598 6.6967 5.6845 6.93722 5.75123 7.1664C5.90243 7.7048 6.28323 8.1992 6.70883 8.6248L7.24083 9.1544C7.01458 9.37189 6.72936 9.51803 6.42067 9.57465C6.11198 9.63127 5.79346 9.59585 5.50475 9.47281C5.21604 9.34977 4.96989 9.14454 4.79693 8.88267C4.62398 8.62079 4.53185 8.31384 4.53203 8ZM2.53203 1.8C2.53203 1.64087 2.59525 1.48826 2.70777 1.37574C2.82029 1.26321 2.9729 1.2 3.13203 1.2H3.73203V1.8C3.73203 1.95913 3.66882 2.11174 3.5563 2.22426C3.44377 2.33679 3.29116 2.4 3.13203 2.4H2.53203V1.8ZM8.53203 1.2H9.13203C9.29116 1.2 9.44377 1.26321 9.5563 1.37574C9.66882 1.48826 9.73203 1.64087 9.73203 1.8V2.4H9.13203C8.9729 2.4 8.82029 2.33679 8.70777 2.22426C8.59525 2.11174 8.53203 1.95913 8.53203 1.8V1.2ZM9.73203 13.6V14.2C9.73203 14.3591 9.66882 14.5117 9.5563 14.6243C9.44377 14.7368 9.29116 14.8 9.13203 14.8H8.53203V14.2C8.53203 14.0409 8.59525 13.8883 8.70777 13.7757C8.82029 13.6632 8.9729 13.6 9.13203 13.6H9.73203ZM3.73203 14.8H3.13203C2.9729 14.8 2.82029 14.7368 2.70777 14.6243C2.59525 14.5117 2.53203 14.3591 2.53203 14.2V13.6H3.13203C3.29116 13.6 3.44377 13.6632 3.5563 13.7757C3.66882 13.8883 3.73203 14.0409 3.73203 14.2V14.8Z" fill="#383D54"/>
</svg>
