<svg width="24" height="24" viewBox="0 0 24 24" fill="none" xmlns="http://www.w3.org/2000/svg">
<rect x="0.5" y="0.5" width="23" height="23" rx="1.5" fill="#F5F5F5"/>
<path d="M16.5865 11.1784L8.70867 6.68308C8.54246 6.58997 8.35183 6.5497 8.16216 6.56765C7.9725 6.58559 7.7928 6.6609 7.647 6.78353C7.50121 6.90616 7.39623 7.0703 7.34606 7.25409C7.29589 7.43788 7.30291 7.63259 7.36617 7.8123L8.80102 11.994L7.36617 16.187C7.31617 16.3283 7.3008 16.4796 7.32135 16.6281C7.3419 16.7767 7.39777 16.9181 7.48428 17.0406C7.57079 17.163 7.68541 17.2629 7.81853 17.3319C7.95164 17.401 8.09936 17.437 8.2493 17.4371C8.4104 17.4368 8.56872 17.3952 8.70914 17.3162L8.71336 17.3134L16.5884 12.8101C16.7327 12.7284 16.8529 12.6098 16.9364 12.4665C17.02 12.3231 17.064 12.1602 17.064 11.9943C17.064 11.8283 17.02 11.6654 16.9364 11.522C16.8529 11.3787 16.7327 11.2601 16.5884 11.1784H16.5865ZM8.58867 16.0885L9.79617 12.5621H12.3743C12.5235 12.5621 12.6666 12.5029 12.772 12.3974C12.8775 12.2919 12.9368 12.1488 12.9368 11.9996C12.9368 11.8505 12.8775 11.7074 12.772 11.6019C12.6666 11.4964 12.5235 11.4371 12.3743 11.4371H9.79945L8.58914 7.91027L15.7465 11.9945L8.58867 16.0885Z" fill="#5C6476"/>
<rect x="0.5" y="0.5" width="23" height="23" rx="1.5" stroke="#D9D9D9"/>
</svg>
