<svg width="16" height="16" viewBox="0 0 16 16" fill="none" xmlns="http://www.w3.org/2000/svg">
<path d="M7.29264 1.28711C3.98683 1.28711 1.29395 3.97999 1.29395 7.28582C1.29395 10.5916 3.98683 13.2898 7.29264 13.2898C8.70466 13.2898 10.0033 12.7949 11.0296 11.9733L13.5283 14.4707C13.6544 14.5916 13.8228 14.6583 13.9975 14.6565C14.1722 14.6547 14.3392 14.5846 14.4628 14.4612C14.5864 14.3377 14.6567 14.1708 14.6588 13.9962C14.6608 13.8215 14.5943 13.653 14.4736 13.5267L11.9749 11.0281C12.7972 10.0001 13.2926 8.69946 13.2926 7.28582C13.2926 3.97999 10.5985 1.28711 7.29264 1.28711V1.28711ZM7.29264 2.62046C9.87787 2.62046 11.958 4.7006 11.958 7.28582C11.958 9.87104 9.87787 11.9564 7.29264 11.9564C4.70742 11.9564 2.62728 9.87104 2.62728 7.28582C2.62728 4.7006 4.70742 2.62046 7.29264 2.62046Z" fill="#5C6476"/>
</svg>
