<svg width="17" height="16" viewBox="0 0 17 16" fill="none" xmlns="http://www.w3.org/2000/svg">
<path d="M12.8083 5.93773C12.6203 6.12446 12.3662 6.22926 12.1012 6.22926C11.8363 6.22926 11.5821 6.12446 11.3942 5.93773L10.5639 5.10742C10.377 4.91951 10.2721 4.66526 10.2721 4.40023C10.2721 4.13521 10.377 3.88095 10.5639 3.69305L12.4433 1.81273C12.447 1.80916 12.4498 1.80471 12.4513 1.7998C12.4529 1.79489 12.4533 1.78967 12.4523 1.78459C12.4514 1.77952 12.4492 1.77475 12.446 1.77072C12.4428 1.76669 12.4386 1.76351 12.4339 1.76148C11.2208 1.24148 9.64795 1.50648 8.6492 2.49805C7.69357 3.44648 7.6392 4.87305 7.9892 6.11805C8.03893 6.29501 8.03881 6.48228 7.98885 6.65918C7.93889 6.83608 7.84103 6.99574 7.70608 7.12055L2.49982 11.8752C2.34622 12.0114 2.2221 12.1776 2.13508 12.3635C2.04807 12.5495 2 12.7512 1.99384 12.9564C1.98768 13.1616 2.02356 13.3659 2.09926 13.5567C2.17497 13.7475 2.2889 13.9208 2.43406 14.066C2.57922 14.2112 2.75253 14.3251 2.94335 14.4008C3.13417 14.4765 3.33845 14.5124 3.54364 14.5062C3.74884 14.5001 3.9506 14.452 4.13653 14.365C4.32247 14.278 4.48863 14.1538 4.62483 14.0002L9.43295 8.78148C9.55617 8.6488 9.71318 8.55215 9.88714 8.50189C10.0611 8.45163 10.2455 8.44965 10.4204 8.49617C11.6561 8.82711 13.0623 8.76492 14.0054 7.83398C15.0208 6.83398 15.2398 5.06648 14.7476 4.05492C14.7454 4.0505 14.7422 4.04667 14.7382 4.04374C14.7342 4.04081 14.7296 4.03887 14.7247 4.03808C14.7198 4.03729 14.7148 4.03766 14.7101 4.03918C14.7054 4.04069 14.7011 4.04331 14.6976 4.0468L12.8083 5.93773Z" stroke="#3670F0" stroke-width="1.2" stroke-miterlimit="10" stroke-linecap="round"/>
<path d="M3.5 13.5C3.77614 13.5 4 13.2761 4 13C4 12.7239 3.77614 12.5 3.5 12.5C3.22386 12.5 3 12.7239 3 13C3 13.2761 3.22386 13.5 3.5 13.5Z" fill="#3670F0"/>
</svg>
