<svg width="16" height="16" viewBox="0 0 16 16" fill="none" xmlns="http://www.w3.org/2000/svg">
<path d="M7.99935 10.3837C7.91046 10.3837 7.82713 10.3699 7.74935 10.3423C7.67157 10.3148 7.59935 10.2674 7.53268 10.2003L5.13268 7.80033C5.01046 7.67811 4.94935 7.52255 4.94935 7.33366C4.94935 7.14477 5.01046 6.98922 5.13268 6.86699C5.25491 6.74477 5.41335 6.68099 5.60802 6.67566C5.80268 6.67033 5.96091 6.72855 6.08268 6.85033L7.33268 8.10033V3.33366C7.33268 3.14477 7.39668 2.98633 7.52468 2.85833C7.65268 2.73033 7.81091 2.66655 7.99935 2.66699C8.18824 2.66699 8.34668 2.73099 8.47468 2.85899C8.60268 2.98699 8.66646 3.14522 8.66602 3.33366V8.10033L9.91602 6.85033C10.0382 6.72811 10.1967 6.66966 10.3914 6.67499C10.586 6.68033 10.7442 6.74433 10.866 6.86699C10.9882 6.98922 11.0494 7.14477 11.0494 7.33366C11.0494 7.52255 10.9882 7.67811 10.866 7.80033L8.46602 10.2003C8.39935 10.267 8.32713 10.3143 8.24935 10.3423C8.17157 10.3703 8.08824 10.3841 7.99935 10.3837ZM3.99935 13.3337C3.63268 13.3337 3.31868 13.203 3.05735 12.9417C2.79602 12.6803 2.66557 12.3666 2.66602 12.0003V10.667C2.66602 10.4781 2.73002 10.3197 2.85802 10.1917C2.98602 10.0637 3.14424 9.99988 3.33268 10.0003C3.52157 10.0003 3.68002 10.0643 3.80802 10.1923C3.93602 10.3203 3.99979 10.4786 3.99935 10.667V12.0003H11.9994V10.667C11.9994 10.4781 12.0634 10.3197 12.1914 10.1917C12.3194 10.0637 12.4776 9.99988 12.666 10.0003C12.8549 10.0003 13.0134 10.0643 13.1413 10.1923C13.2694 10.3203 13.3331 10.4786 13.3327 10.667V12.0003C13.3327 12.367 13.202 12.681 12.9407 12.9423C12.6794 13.2037 12.3656 13.3341 11.9994 13.3337H3.99935Z" fill="#3670F0"/>
</svg>
