<svg width="17" height="16" viewBox="0 0 17 16" fill="none" xmlns="http://www.w3.org/2000/svg">
<path d="M14.5 7.40699V3.33366C14.5 2.98004 14.3595 2.6409 14.1095 2.39085C13.8594 2.1408 13.5203 2.00033 13.1667 2.00033H10.38C10.1 1.22699 9.36667 0.666992 8.5 0.666992C7.63333 0.666992 6.9 1.22699 6.62 2.00033H3.83333C3.1 2.00033 2.5 2.60033 2.5 3.33366V12.667C2.5 13.0206 2.64048 13.3598 2.89052 13.6098C3.14057 13.8598 3.47971 14.0003 3.83333 14.0003H7.90667C8.74667 14.827 9.89333 15.3337 11.1667 15.3337C13.7467 15.3337 15.8333 13.247 15.8333 10.667C15.8333 9.39366 15.3267 8.24699 14.5 7.40699ZM8.5 2.00033C8.86667 2.00033 9.16667 2.30033 9.16667 2.66699C9.16667 3.03366 8.86667 3.33366 8.5 3.33366C8.13333 3.33366 7.83333 3.03366 7.83333 2.66699C7.83333 2.30033 8.13333 2.00033 8.5 2.00033ZM3.83333 12.667V3.33366H5.16667V4.66699H11.8333V3.33366H13.1667V6.45366C12.56 6.16699 11.8867 6.00033 11.1667 6.00033H5.16667V7.33366H7.9C7.5 7.71366 7.19333 8.16699 6.95333 8.66699H5.16667V10.0003H6.55333C6.52 10.2203 6.5 10.4403 6.5 10.667C6.5 11.387 6.66667 12.0603 6.95333 12.667H3.83333ZM11.1667 14.0003C9.32667 14.0003 7.83333 12.507 7.83333 10.667C7.83333 8.82699 9.32667 7.33366 11.1667 7.33366C13.0067 7.33366 14.5 8.82699 14.5 10.667C14.5 12.507 13.0067 14.0003 11.1667 14.0003ZM11.5 10.8337L13.4067 11.9603L12.9067 12.7737L10.5 11.3337V8.00033H11.5V10.8337Z" fill="#5C6476"/>
</svg>
