<svg width="24" height="24" viewBox="0 0 24 24" fill="none" xmlns="http://www.w3.org/2000/svg">
<rect x="0.5" y="0.5" width="23" height="23" rx="1.5" fill="#F5F5F5"/>
<path d="M10.8889 14.8889C11.0362 14.8889 11.1775 14.8304 11.2817 14.7262C11.3859 14.622 11.4444 14.4807 11.4444 14.3333V11C11.4444 10.8527 11.3859 10.7113 11.2817 10.6072C11.1775 10.503 11.0362 10.4444 10.8889 10.4444C10.7415 10.4444 10.6002 10.503 10.4961 10.6072C10.3919 10.7113 10.3333 10.8527 10.3333 11V14.3333C10.3333 14.4807 10.3919 14.622 10.4961 14.7262C10.6002 14.8304 10.7415 14.8889 10.8889 14.8889ZM16.4444 8.22222H14.2222V7.66667C14.2222 7.22464 14.0466 6.80072 13.7341 6.48816C13.4215 6.17559 12.9976 6 12.5556 6H11.4444C11.0024 6 10.5785 6.17559 10.2659 6.48816C9.95337 6.80072 9.77778 7.22464 9.77778 7.66667V8.22222H7.55556C7.40821 8.22222 7.26691 8.28075 7.16272 8.38494C7.05853 8.48913 7 8.63044 7 8.77778C7 8.92512 7.05853 9.06643 7.16272 9.17061C7.26691 9.2748 7.40821 9.33333 7.55556 9.33333H8.11111V15.4444C8.11111 15.8865 8.28671 16.3104 8.59927 16.623C8.91183 16.9355 9.33575 17.1111 9.77778 17.1111H14.2222C14.6642 17.1111 15.0882 16.9355 15.4007 16.623C15.7133 16.3104 15.8889 15.8865 15.8889 15.4444V9.33333H16.4444C16.5918 9.33333 16.7331 9.2748 16.8373 9.17061C16.9415 9.06643 17 8.92512 17 8.77778C17 8.63044 16.9415 8.48913 16.8373 8.38494C16.7331 8.28075 16.5918 8.22222 16.4444 8.22222ZM10.8889 7.66667C10.8889 7.51932 10.9474 7.37802 11.0516 7.27383C11.1558 7.16964 11.2971 7.11111 11.4444 7.11111H12.5556C12.7029 7.11111 12.8442 7.16964 12.9484 7.27383C13.0526 7.37802 13.1111 7.51932 13.1111 7.66667V8.22222H10.8889V7.66667ZM14.7778 15.4444C14.7778 15.5918 14.7192 15.7331 14.6151 15.8373C14.5109 15.9415 14.3696 16 14.2222 16H9.77778C9.63044 16 9.48913 15.9415 9.38494 15.8373C9.28075 15.7331 9.22222 15.5918 9.22222 15.4444V9.33333H14.7778V15.4444ZM13.1111 14.8889C13.2585 14.8889 13.3998 14.8304 13.5039 14.7262C13.6081 14.622 13.6667 14.4807 13.6667 14.3333V11C13.6667 10.8527 13.6081 10.7113 13.5039 10.6072C13.3998 10.503 13.2585 10.4444 13.1111 10.4444C12.9638 10.4444 12.8225 10.503 12.7183 10.6072C12.6141 10.7113 12.5556 10.8527 12.5556 11V14.3333C12.5556 14.4807 12.6141 14.622 12.7183 14.7262C12.8225 14.8304 12.9638 14.8889 13.1111 14.8889Z" fill="#5C6476"/>
<rect x="0.5" y="0.5" width="23" height="23" rx="1.5" stroke="#D9D9D9"/>
</svg>
