<svg width="24" height="25" viewBox="0 0 24 25" fill="none" xmlns="http://www.w3.org/2000/svg">
<rect x="0.5" y="1" width="23" height="23" rx="1.5" fill="#F5F5F5"/>
<g clip-path="url(#clip0_1525_34260)">
<mask id="path-2-inside-1_1525_34260" fill="white">
<path d="M16.125 8.75H14.4375V8.1875C14.4375 7.8394 14.2992 7.50556 14.0531 7.25942C13.8069 7.01328 13.4731 6.875 13.125 6.875H10.875C10.5269 6.875 10.1931 7.01328 9.94692 7.25942C9.70078 7.50556 9.5625 7.8394 9.5625 8.1875V8.75H7.875C7.72582 8.75 7.58274 8.80926 7.47725 8.91475C7.37176 9.02024 7.3125 9.16332 7.3125 9.3125C7.3125 9.46168 7.37176 9.60476 7.47725 9.71025C7.58274 9.81574 7.72582 9.875 7.875 9.875H8.0625V16.25C8.0625 16.4986 8.16127 16.7371 8.33709 16.9129C8.5129 17.0887 8.75136 17.1875 9 17.1875H15C15.2486 17.1875 15.4871 17.0887 15.6629 16.9129C15.8387 16.7371 15.9375 16.4986 15.9375 16.25V9.875H16.125C16.2742 9.875 16.4173 9.81574 16.5227 9.71025C16.6282 9.60476 16.6875 9.46168 16.6875 9.3125C16.6875 9.16332 16.6282 9.02024 16.5227 8.91475C16.4173 8.80926 16.2742 8.75 16.125 8.75ZM10.6875 8.1875C10.6875 8.13777 10.7073 8.09008 10.7424 8.05492C10.7776 8.01975 10.8253 8 10.875 8H13.125C13.1747 8 13.2224 8.01975 13.2576 8.05492C13.2927 8.09008 13.3125 8.13777 13.3125 8.1875V8.75H10.6875V8.1875ZM14.8125 16.0625H9.1875V9.875H14.8125V16.0625ZM11.4375 11.375V14.375C11.4375 14.5242 11.3782 14.6673 11.2727 14.7727C11.1673 14.8782 11.0242 14.9375 10.875 14.9375C10.7258 14.9375 10.5827 14.8782 10.4773 14.7727C10.3718 14.6673 10.3125 14.5242 10.3125 14.375V11.375C10.3125 11.2258 10.3718 11.0827 10.4773 10.9773C10.5827 10.8718 10.7258 10.8125 10.875 10.8125C11.0242 10.8125 11.1673 10.8718 11.2727 10.9773C11.3782 11.0827 11.4375 11.2258 11.4375 11.375ZM13.6875 11.375V14.375C13.6875 14.5242 13.6282 14.6673 13.5227 14.7727C13.4173 14.8782 13.2742 14.9375 13.125 14.9375C12.9758 14.9375 12.8327 14.8782 12.7273 14.7727C12.6218 14.6673 12.5625 14.5242 12.5625 14.375V11.375C12.5625 11.2258 12.6218 11.0827 12.7273 10.9773C12.8327 10.8718 12.9758 10.8125 13.125 10.8125C13.2742 10.8125 13.4173 10.8718 13.5227 10.9773C13.6282 11.0827 13.6875 11.2258 13.6875 11.375Z"/>
</mask>
<path d="M16.125 8.75H14.4375V8.1875C14.4375 7.8394 14.2992 7.50556 14.0531 7.25942C13.8069 7.01328 13.4731 6.875 13.125 6.875H10.875C10.5269 6.875 10.1931 7.01328 9.94692 7.25942C9.70078 7.50556 9.5625 7.8394 9.5625 8.1875V8.75H7.875C7.72582 8.75 7.58274 8.80926 7.47725 8.91475C7.37176 9.02024 7.3125 9.16332 7.3125 9.3125C7.3125 9.46168 7.37176 9.60476 7.47725 9.71025C7.58274 9.81574 7.72582 9.875 7.875 9.875H8.0625V16.25C8.0625 16.4986 8.16127 16.7371 8.33709 16.9129C8.5129 17.0887 8.75136 17.1875 9 17.1875H15C15.2486 17.1875 15.4871 17.0887 15.6629 16.9129C15.8387 16.7371 15.9375 16.4986 15.9375 16.25V9.875H16.125C16.2742 9.875 16.4173 9.81574 16.5227 9.71025C16.6282 9.60476 16.6875 9.46168 16.6875 9.3125C16.6875 9.16332 16.6282 9.02024 16.5227 8.91475C16.4173 8.80926 16.2742 8.75 16.125 8.75ZM10.6875 8.1875C10.6875 8.13777 10.7073 8.09008 10.7424 8.05492C10.7776 8.01975 10.8253 8 10.875 8H13.125C13.1747 8 13.2224 8.01975 13.2576 8.05492C13.2927 8.09008 13.3125 8.13777 13.3125 8.1875V8.75H10.6875V8.1875ZM14.8125 16.0625H9.1875V9.875H14.8125V16.0625ZM11.4375 11.375V14.375C11.4375 14.5242 11.3782 14.6673 11.2727 14.7727C11.1673 14.8782 11.0242 14.9375 10.875 14.9375C10.7258 14.9375 10.5827 14.8782 10.4773 14.7727C10.3718 14.6673 10.3125 14.5242 10.3125 14.375V11.375C10.3125 11.2258 10.3718 11.0827 10.4773 10.9773C10.5827 10.8718 10.7258 10.8125 10.875 10.8125C11.0242 10.8125 11.1673 10.8718 11.2727 10.9773C11.3782 11.0827 11.4375 11.2258 11.4375 11.375ZM13.6875 11.375V14.375C13.6875 14.5242 13.6282 14.6673 13.5227 14.7727C13.4173 14.8782 13.2742 14.9375 13.125 14.9375C12.9758 14.9375 12.8327 14.8782 12.7273 14.7727C12.6218 14.6673 12.5625 14.5242 12.5625 14.375V11.375C12.5625 11.2258 12.6218 11.0827 12.7273 10.9773C12.8327 10.8718 12.9758 10.8125 13.125 10.8125C13.2742 10.8125 13.4173 10.8718 13.5227 10.9773C13.6282 11.0827 13.6875 11.2258 13.6875 11.375Z" fill="#5C6476"/>
<path d="M14.4375 8.75H13.2375V9.95H14.4375V8.75ZM9.5625 8.75V9.95H10.7625V8.75H9.5625ZM8.0625 9.875H9.2625V8.675H8.0625V9.875ZM8.0625 16.25H6.8625H8.0625ZM15.9375 9.875V8.675H14.7375V9.875H15.9375ZM16.125 9.875L16.125 11.075L16.125 9.875ZM10.875 8V9.2V8ZM13.125 8L13.125 9.2L13.125 8ZM13.3125 8.75V9.95H14.5125V8.75H13.3125ZM10.6875 8.75H9.4875V9.95H10.6875V8.75ZM14.8125 16.0625V17.2625H16.0125V16.0625H14.8125ZM9.1875 16.0625H7.9875V17.2625H9.1875V16.0625ZM9.1875 9.875V8.675H7.9875V9.875H9.1875ZM14.8125 9.875H16.0125V8.675H14.8125V9.875ZM11.4375 14.375H12.6375H11.4375ZM10.3125 14.375L9.1125 14.375L10.3125 14.375ZM10.875 10.8125L10.875 9.6125L10.875 10.8125ZM13.125 10.8125L13.125 9.6125L13.125 10.8125ZM16.125 7.55H14.4375V9.95H16.125V7.55ZM15.6375 8.75V8.1875H13.2375V8.75H15.6375ZM15.6375 8.1875C15.6375 7.52114 15.3728 6.88208 14.9016 6.41089L13.2045 8.10795C13.2256 8.12905 13.2375 8.15766 13.2375 8.1875H15.6375ZM14.9016 6.41089C14.4304 5.93971 13.7914 5.675 13.125 5.675V8.075C13.1548 8.075 13.1835 8.08685 13.2045 8.10795L14.9016 6.41089ZM13.125 5.675H10.875V8.075H13.125V5.675ZM10.875 5.675C10.2086 5.675 9.56958 5.93971 9.09839 6.41089L10.7955 8.10795C10.8165 8.08685 10.8452 8.075 10.875 8.075V5.675ZM9.09839 6.41089C8.62721 6.88208 8.3625 7.52114 8.3625 8.1875H10.7625C10.7625 8.15766 10.7744 8.12905 10.7955 8.10795L9.09839 6.41089ZM8.3625 8.1875V8.75H10.7625V8.1875H8.3625ZM9.5625 7.55H7.875V9.95H9.5625V7.55ZM7.875 7.55C7.40756 7.55 6.95926 7.73569 6.62872 8.06622L8.32578 9.76328C8.20623 9.88284 8.04408 9.95 7.875 9.95V7.55ZM6.62872 8.06622C6.29819 8.39676 6.1125 8.84506 6.1125 9.3125H8.5125C8.5125 9.48158 8.44534 9.64373 8.32578 9.76328L6.62872 8.06622ZM6.1125 9.3125C6.1125 9.77994 6.29819 10.2282 6.62872 10.5588L8.32578 8.86172C8.44534 8.98127 8.5125 9.14342 8.5125 9.3125H6.1125ZM6.62872 10.5588C6.95926 10.8893 7.40756 11.075 7.875 11.075V8.675C8.04408 8.675 8.20623 8.74216 8.32578 8.86172L6.62872 10.5588ZM7.875 11.075H8.0625V8.675H7.875V11.075ZM6.8625 9.875V16.25H9.2625V9.875H6.8625ZM6.8625 16.25C6.8625 16.8169 7.0877 17.3606 7.48856 17.7614L9.18562 16.0644C9.23484 16.1136 9.2625 16.1804 9.2625 16.25H6.8625ZM7.48856 17.7614C7.88942 18.1623 8.4331 18.3875 9 18.3875V15.9875C9.06962 15.9875 9.13639 16.0152 9.18562 16.0644L7.48856 17.7614ZM9 18.3875H15V15.9875H9V18.3875ZM15 18.3875C15.5669 18.3875 16.1106 18.1623 16.5114 17.7614L14.8144 16.0644C14.8636 16.0152 14.9304 15.9875 15 15.9875V18.3875ZM16.5114 17.7614C16.9123 17.3606 17.1375 16.8169 17.1375 16.25H14.7375C14.7375 16.1804 14.7652 16.1136 14.8144 16.0644L16.5114 17.7614ZM17.1375 16.25V9.875H14.7375V16.25H17.1375ZM15.9375 11.075H16.125V8.675H15.9375V11.075ZM16.125 11.075C16.5924 11.075 17.0407 10.8893 17.3713 10.5588L15.6742 8.86172C15.7938 8.74217 15.9559 8.675 16.125 8.675L16.125 11.075ZM17.3713 10.5588C17.7018 10.2282 17.8875 9.77995 17.8875 9.3125H15.4875C15.4875 9.14342 15.5547 8.98127 15.6742 8.86172L17.3713 10.5588ZM17.8875 9.3125C17.8875 8.84505 17.7018 8.39676 17.3713 8.06622L15.6742 9.76328C15.5547 9.64373 15.4875 9.48158 15.4875 9.3125H17.8875ZM17.3713 8.06622C17.0407 7.73569 16.5924 7.55 16.125 7.55V9.95C15.9559 9.95 15.7938 9.88283 15.6742 9.76328L17.3713 8.06622ZM11.8875 8.1875C11.8875 8.45603 11.7808 8.71356 11.5909 8.90345L9.89389 7.20639C9.63368 7.4666 9.4875 7.81951 9.4875 8.1875H11.8875ZM11.5909 8.90345C11.4011 9.09333 11.1435 9.2 10.875 9.2L10.875 6.8C10.507 6.8 10.1541 6.94618 9.89389 7.20639L11.5909 8.90345ZM10.875 9.2H13.125V6.8H10.875V9.2ZM13.125 9.2C12.8565 9.2 12.5989 9.09333 12.4091 8.90345L14.1061 7.20639C13.8459 6.94618 13.493 6.8 13.125 6.8L13.125 9.2ZM12.4091 8.90345C12.2192 8.71356 12.1125 8.45603 12.1125 8.1875H14.5125C14.5125 7.81951 14.3663 7.4666 14.1061 7.20639L12.4091 8.90345ZM12.1125 8.1875V8.75H14.5125V8.1875H12.1125ZM13.3125 7.55H10.6875V9.95H13.3125V7.55ZM11.8875 8.75V8.1875H9.4875V8.75H11.8875ZM14.8125 14.8625H9.1875V17.2625H14.8125V14.8625ZM10.3875 16.0625V9.875H7.9875V16.0625H10.3875ZM9.1875 11.075H14.8125V8.675H9.1875V11.075ZM13.6125 9.875V16.0625H16.0125V9.875H13.6125ZM10.2375 11.375V14.375H12.6375V11.375H10.2375ZM10.2375 14.375C10.2375 14.2059 10.3047 14.0438 10.4242 13.9242L12.1213 15.6213C12.4518 15.2907 12.6375 14.8424 12.6375 14.375L10.2375 14.375ZM10.4242 13.9242C10.5438 13.8047 10.7059 13.7375 10.875 13.7375V16.1375C11.3424 16.1375 11.7907 15.9518 12.1213 15.6213L10.4242 13.9242ZM10.875 13.7375C11.0441 13.7375 11.2062 13.8047 11.3258 13.9242L9.62872 15.6213C9.95926 15.9518 10.4076 16.1375 10.875 16.1375V13.7375ZM11.3258 13.9242C11.4453 14.0438 11.5125 14.2059 11.5125 14.375L9.1125 14.375C9.1125 14.8424 9.29819 15.2907 9.62872 15.6213L11.3258 13.9242ZM11.5125 14.375V11.375H9.1125V14.375H11.5125ZM11.5125 11.375C11.5125 11.5441 11.4453 11.7062 11.3258 11.8258L9.62872 10.1287C9.29819 10.4593 9.1125 10.9076 9.1125 11.375H11.5125ZM11.3258 11.8258C11.2062 11.9453 11.0441 12.0125 10.875 12.0125L10.875 9.6125C10.4076 9.6125 9.95926 9.79819 9.62872 10.1287L11.3258 11.8258ZM10.875 12.0125C10.7059 12.0125 10.5438 11.9453 10.4242 11.8258L12.1213 10.1287C11.7907 9.79819 11.3424 9.6125 10.875 9.6125L10.875 12.0125ZM10.4242 11.8258C10.3047 11.7062 10.2375 11.5441 10.2375 11.375H12.6375C12.6375 10.9076 12.4518 10.4593 12.1213 10.1287L10.4242 11.8258ZM12.4875 11.375V14.375H14.8875V11.375H12.4875ZM12.4875 14.375C12.4875 14.2059 12.5547 14.0438 12.6742 13.9242L14.3713 15.6213C14.7018 15.2907 14.8875 14.8424 14.8875 14.375H12.4875ZM12.6742 13.9242C12.7938 13.8047 12.9559 13.7375 13.125 13.7375V16.1375C13.5924 16.1375 14.0407 15.9518 14.3713 15.6213L12.6742 13.9242ZM13.125 13.7375C13.2941 13.7375 13.4562 13.8047 13.5758 13.9242L11.8787 15.6213C12.2093 15.9518 12.6576 16.1375 13.125 16.1375V13.7375ZM13.5758 13.9242C13.6953 14.0438 13.7625 14.2059 13.7625 14.375H11.3625C11.3625 14.8424 11.5482 15.2907 11.8787 15.6213L13.5758 13.9242ZM13.7625 14.375V11.375H11.3625V14.375H13.7625ZM13.7625 11.375C13.7625 11.5441 13.6953 11.7062 13.5758 11.8258L11.8787 10.1287C11.5482 10.4593 11.3625 10.9076 11.3625 11.375H13.7625ZM13.5758 11.8258C13.4562 11.9453 13.2941 12.0125 13.125 12.0125L13.125 9.6125C12.6576 9.6125 12.2093 9.79819 11.8787 10.1287L13.5758 11.8258ZM13.125 12.0125C12.9559 12.0125 12.7938 11.9453 12.6742 11.8258L14.3713 10.1287C14.0407 9.79819 13.5924 9.6125 13.125 9.6125L13.125 12.0125ZM12.6742 11.8258C12.5547 11.7062 12.4875 11.5441 12.4875 11.375H14.8875C14.8875 10.9076 14.7018 10.4593 14.3713 10.1287L12.6742 11.8258Z" fill="#5C6476" mask="url(#path-2-inside-1_1525_34260)"/>
</g>
<rect x="0.5" y="1" width="23" height="23" rx="1.5" stroke="#D9D9D9"/>
<defs>
<clipPath id="clip0_1525_34260">
<rect width="12" height="12" fill="white" transform="translate(6 6.5)"/>
</clipPath>
</defs>
</svg>
