<svg width="16" height="16" viewBox="0 0 16 16" fill="none" xmlns="http://www.w3.org/2000/svg">
<path d="M5.33333 11.3333C5.52222 11.3333 5.68067 11.2693 5.80867 11.1413C5.93667 11.0133 6.00045 10.8551 6 10.6667C6 10.4778 5.936 10.3193 5.808 10.1913C5.68 10.0633 5.52178 9.99956 5.33333 10C5.14445 10 4.986 10.064 4.858 10.192C4.73 10.32 4.66622 10.4782 4.66667 10.6667C4.66667 10.8556 4.73067 11.014 4.85867 11.142C4.98667 11.27 5.14489 11.3338 5.33333 11.3333ZM5.33333 8.66667C5.52222 8.66667 5.68067 8.60267 5.80867 8.47467C5.93667 8.34667 6.00045 8.18845 6 8C6 7.81111 5.936 7.65267 5.808 7.52467C5.68 7.39667 5.52178 7.33289 5.33333 7.33333C5.14445 7.33333 4.986 7.39734 4.858 7.52533C4.73 7.65333 4.66622 7.81156 4.66667 8C4.66667 8.18889 4.73067 8.34733 4.85867 8.47534C4.98667 8.60333 5.14489 8.66711 5.33333 8.66667ZM5.33333 6C5.52222 6 5.68067 5.936 5.80867 5.808C5.93667 5.68 6.00045 5.52178 6 5.33333C6 5.14445 5.936 4.986 5.808 4.858C5.68 4.73 5.52178 4.66622 5.33333 4.66667C5.14445 4.66667 4.986 4.73067 4.858 4.85867C4.73 4.98667 4.66622 5.14489 4.66667 5.33333C4.66667 5.52222 4.73067 5.68067 4.85867 5.80867C4.98667 5.93667 5.14489 6.00045 5.33333 6ZM8 11.3333H10.6667C10.8556 11.3333 11.014 11.2693 11.142 11.1413C11.27 11.0133 11.3338 10.8551 11.3333 10.6667C11.3333 10.4778 11.2693 10.3193 11.1413 10.1913C11.0133 10.0633 10.8551 9.99956 10.6667 10H8C7.81111 10 7.65267 10.064 7.52467 10.192C7.39667 10.32 7.33289 10.4782 7.33333 10.6667C7.33333 10.8556 7.39734 11.014 7.52533 11.142C7.65333 11.27 7.81156 11.3338 8 11.3333ZM8 8.66667H10.6667C10.8556 8.66667 11.014 8.60267 11.142 8.47467C11.27 8.34667 11.3338 8.18845 11.3333 8C11.3333 7.81111 11.2693 7.65267 11.1413 7.52467C11.0133 7.39667 10.8551 7.33289 10.6667 7.33333H8C7.81111 7.33333 7.65267 7.39734 7.52467 7.52533C7.39667 7.65333 7.33289 7.81156 7.33333 8C7.33333 8.18889 7.39734 8.34733 7.52533 8.47534C7.65333 8.60333 7.81156 8.66711 8 8.66667ZM8 6H10.6667C10.8556 6 11.014 5.936 11.142 5.808C11.27 5.68 11.3338 5.52178 11.3333 5.33333C11.3333 5.14445 11.2693 4.986 11.1413 4.858C11.0133 4.73 10.8551 4.66622 10.6667 4.66667H8C7.81111 4.66667 7.65267 4.73067 7.52467 4.85867C7.39667 4.98667 7.33289 5.14489 7.33333 5.33333C7.33333 5.52222 7.39734 5.68067 7.52533 5.80867C7.65333 5.93667 7.81156 6.00045 8 6ZM3.33333 14C2.96667 14 2.65267 13.8693 2.39133 13.608C2.13 13.3467 1.99956 13.0329 2 12.6667V3.33333C2 2.96667 2.13067 2.65267 2.392 2.39133C2.65333 2.13 2.96711 1.99956 3.33333 2H12.6667C13.0333 2 13.3473 2.13067 13.6087 2.392C13.87 2.65333 14.0004 2.96711 14 3.33333V12.6667C14 13.0333 13.8693 13.3473 13.608 13.6087C13.3467 13.87 13.0329 14.0004 12.6667 14H3.33333ZM3.33333 12.6667H12.6667V3.33333H3.33333V12.6667Z" fill="#5C6476"/>
</svg>
