<svg width="24" height="25" viewBox="0 0 24 25" fill="none" xmlns="http://www.w3.org/2000/svg">
<rect x="0.5" y="1" width="23" height="23" rx="1.5" fill="#F5F5F5"/>
<mask id="path-2-inside-1_1525_34057" fill="white">
<path d="M12 8C11.8508 8 11.7077 8.05926 11.6023 8.16475C11.4968 8.27024 11.4375 8.41332 11.4375 8.5625V11.9375H8.0625C7.91332 11.9375 7.77024 11.9968 7.66475 12.1023C7.55926 12.2077 7.5 12.3508 7.5 12.5C7.5 12.6492 7.55926 12.7923 7.66475 12.8977C7.77024 13.0032 7.91332 13.0625 8.0625 13.0625H11.4375V16.4375C11.4375 16.5867 11.4968 16.7298 11.6023 16.8352C11.7077 16.9407 11.8508 17 12 17C12.1492 17 12.2923 16.9407 12.3977 16.8352C12.5032 16.7298 12.5625 16.5867 12.5625 16.4375V13.0625H15.9375C16.0867 13.0625 16.2298 13.0032 16.3352 12.8977C16.4407 12.7923 16.5 12.6492 16.5 12.5C16.5 12.3508 16.4407 12.2077 16.3352 12.1023C16.2298 11.9968 16.0867 11.9375 15.9375 11.9375H12.5625V8.5625C12.5625 8.41332 12.5032 8.27024 12.3977 8.16475C12.2923 8.05926 12.1492 8 12 8Z"/>
</mask>
<path d="M12 8V6.8V8ZM11.4375 11.9375V13.1375H12.6375V11.9375H11.4375ZM7.5 12.5L6.3 12.5L7.5 12.5ZM11.4375 13.0625H12.6375V11.8625H11.4375V13.0625ZM12.5625 13.0625V11.8625H11.3625V13.0625H12.5625ZM12.5625 11.9375H11.3625V13.1375H12.5625V11.9375ZM12 6.8C11.5326 6.8 11.0843 6.98569 10.7537 7.31622L12.4508 9.01328C12.3312 9.13283 12.1691 9.2 12 9.2V6.8ZM10.7537 7.31622C10.4232 7.64676 10.2375 8.09506 10.2375 8.5625H12.6375C12.6375 8.73158 12.5703 8.89373 12.4508 9.01328L10.7537 7.31622ZM10.2375 8.5625V11.9375H12.6375V8.5625H10.2375ZM11.4375 10.7375H8.0625V13.1375H11.4375V10.7375ZM8.0625 10.7375C7.59506 10.7375 7.14676 10.9232 6.81622 11.2537L8.51328 12.9508C8.39373 13.0703 8.23158 13.1375 8.0625 13.1375V10.7375ZM6.81622 11.2537C6.48569 11.5843 6.3 12.0326 6.3 12.5L8.7 12.5C8.7 12.6691 8.63283 12.8312 8.51328 12.9508L6.81622 11.2537ZM6.3 12.5C6.3 12.9674 6.48569 13.4157 6.81622 13.7463L8.51328 12.0492C8.63283 12.1688 8.7 12.3309 8.7 12.5L6.3 12.5ZM6.81622 13.7463C7.14676 14.0768 7.59506 14.2625 8.0625 14.2625V11.8625C8.23158 11.8625 8.39373 11.9297 8.51328 12.0492L6.81622 13.7463ZM8.0625 14.2625H11.4375V11.8625H8.0625V14.2625ZM10.2375 13.0625V16.4375H12.6375V13.0625H10.2375ZM10.2375 16.4375C10.2375 16.9049 10.4232 17.3532 10.7537 17.6838L12.4508 15.9867C12.5703 16.1063 12.6375 16.2684 12.6375 16.4375H10.2375ZM10.7537 17.6838C11.0843 18.0143 11.5326 18.2 12 18.2V15.8C12.1691 15.8 12.3312 15.8672 12.4508 15.9867L10.7537 17.6838ZM12 18.2C12.4674 18.2 12.9157 18.0143 13.2463 17.6838L11.5492 15.9867C11.6688 15.8672 11.8309 15.8 12 15.8V18.2ZM13.2463 17.6838C13.5768 17.3532 13.7625 16.9049 13.7625 16.4375H11.3625C11.3625 16.2684 11.4297 16.1063 11.5492 15.9867L13.2463 17.6838ZM13.7625 16.4375V13.0625H11.3625V16.4375H13.7625ZM12.5625 14.2625H15.9375V11.8625H12.5625V14.2625ZM15.9375 14.2625C16.4049 14.2625 16.8532 14.0768 17.1838 13.7463L15.4867 12.0492C15.6063 11.9297 15.7684 11.8625 15.9375 11.8625V14.2625ZM17.1838 13.7463C17.5143 13.4157 17.7 12.9674 17.7 12.5H15.3C15.3 12.3309 15.3672 12.1688 15.4867 12.0492L17.1838 13.7463ZM17.7 12.5C17.7 12.0326 17.5143 11.5843 17.1838 11.2537L15.4867 12.9508C15.3672 12.8312 15.3 12.6691 15.3 12.5H17.7ZM17.1838 11.2537C16.8532 10.9232 16.4049 10.7375 15.9375 10.7375V13.1375C15.7684 13.1375 15.6063 13.0703 15.4867 12.9508L17.1838 11.2537ZM15.9375 10.7375H12.5625V13.1375H15.9375V10.7375ZM13.7625 11.9375V8.5625H11.3625V11.9375H13.7625ZM13.7625 8.5625C13.7625 8.09506 13.5768 7.64676 13.2463 7.31622L11.5492 9.01328C11.4297 8.89373 11.3625 8.73158 11.3625 8.5625H13.7625ZM13.2463 7.31622C12.9157 6.98569 12.4674 6.8 12 6.8L12 9.2C11.8309 9.2 11.6688 9.13283 11.5492 9.01328L13.2463 7.31622Z" fill="#5C6476" mask="url(#path-2-inside-1_1525_34057)"/>
<rect x="0.5" y="1" width="23" height="23" rx="1.5" stroke="#D9D9D9"/>
</svg>
