<svg width="16" height="16" viewBox="0 0 16 16" fill="none" xmlns="http://www.w3.org/2000/svg">
<path d="M7.29362 1.28711C3.98781 1.28711 1.29492 3.97999 1.29492 7.28582C1.29492 10.5916 3.98781 13.2898 7.29362 13.2898C8.70563 13.2898 10.0042 12.7949 11.0306 11.9733L13.5293 14.4707C13.6554 14.5916 13.8238 14.6583 13.9985 14.6565C14.1731 14.6547 14.3402 14.5846 14.4638 14.4612C14.5874 14.3377 14.6577 14.1708 14.6597 13.9962C14.6618 13.8215 14.5953 13.653 14.4746 13.5267L11.9759 11.0281C12.7982 10.0001 13.2936 8.69946 13.2936 7.28582C13.2936 3.97999 10.5994 1.28711 7.29362 1.28711V1.28711ZM7.29362 2.62046C9.87885 2.62046 11.959 4.7006 11.959 7.28582C11.959 9.87104 9.87885 11.9564 7.29362 11.9564C4.70839 11.9564 2.62826 9.87104 2.62826 7.28582C2.62826 4.7006 4.70839 2.62046 7.29362 2.62046Z" fill="#383D54"/>
</svg>
