<svg width="16" height="16" viewBox="0 0 16 16" fill="none" xmlns="http://www.w3.org/2000/svg">
<path d="M14.1153 6.90517L3.61156 0.911422C3.38995 0.787271 3.13577 0.733585 2.88289 0.757512C2.63 0.781439 2.3904 0.881845 2.196 1.04536C2.00161 1.20887 1.86165 1.42772 1.79475 1.67278C1.72786 1.91783 1.73721 2.17744 1.82156 2.41705L3.73469 7.99267L1.82156 13.5833C1.75489 13.7718 1.7344 13.9735 1.7618 14.1715C1.7892 14.3695 1.8637 14.5581 1.97905 14.7214C2.09439 14.8847 2.24722 15.0179 2.4247 15.1099C2.60218 15.2019 2.79915 15.25 2.99906 15.2502C3.21386 15.2497 3.42496 15.1942 3.61219 15.0889L3.61781 15.0852L14.1178 9.0808C14.3103 8.97182 14.4705 8.8137 14.5819 8.62259C14.6933 8.43147 14.752 8.21421 14.752 7.99298C14.752 7.77176 14.6933 7.5545 14.5819 7.36338C14.4705 7.17227 14.3103 7.01415 14.1178 6.90517H14.1153ZM3.45156 13.452L5.06156 8.75017H8.49906C8.69797 8.75017 8.88874 8.67115 9.02939 8.5305C9.17004 8.38985 9.24906 8.19908 9.24906 8.00017C9.24906 7.80126 9.17004 7.61049 9.02939 7.46984C8.88874 7.32919 8.69797 7.25017 8.49906 7.25017H5.06594L3.45219 2.54767L12.9953 7.9933L3.45156 13.452Z" fill="#383D54"/>
</svg>
