<svg width="16" height="16" viewBox="0 0 16 16" fill="none" xmlns="http://www.w3.org/2000/svg">
<path d="M13.5 2.75H2.5C2.30109 2.75 2.11032 2.82902 1.96967 2.96967C1.82902 3.11032 1.75 3.30109 1.75 3.5V13C1.75 13.3315 1.8817 13.6495 2.11612 13.8839C2.35054 14.1183 2.66848 14.25 3 14.25H5.5C5.83152 14.25 6.14946 14.1183 6.38388 13.8839C6.6183 13.6495 6.75 13.3315 6.75 13V10.25H9.25V11C9.25 11.3315 9.3817 11.6495 9.61612 11.8839C9.85054 12.1183 10.1685 12.25 10.5 12.25H13C13.3315 12.25 13.6495 12.1183 13.8839 11.8839C14.1183 11.6495 14.25 11.3315 14.25 11V3.5C14.25 3.30109 14.171 3.11032 14.0303 2.96967C13.8897 2.82902 13.6989 2.75 13.5 2.75ZM12.75 6.75H10.75V4.25H12.75V6.75ZM5.25 4.25V6.75H3.25V4.25H5.25ZM5.25 12.75H3.25V8.25H5.25V12.75ZM6.75 8.75V4.25H9.25V8.75H6.75ZM10.75 10.75V8.25H12.75V10.75H10.75Z" fill="#5C6476"/>
</svg>
