<svg width="30" height="30" viewBox="0 0 30 30" fill="none" xmlns="http://www.w3.org/2000/svg">
<rect width="30" height="30" rx="15" fill="#D9D9D9"/>
<path d="M14.5332 9.40039H10.7999C10.4286 9.40039 10.0725 9.54789 9.80995 9.81044C9.5474 10.073 9.3999 10.4291 9.3999 10.8004V20.6004H15.9332V10.8004C15.9332 10.4291 15.7857 10.073 15.5232 9.81044C15.2606 9.54789 14.9045 9.40039 14.5332 9.40039ZM12.1999 18.2671H10.7999V17.3337H12.1999V18.2671ZM12.1999 16.4004H10.7999V15.4671H12.1999V16.4004ZM12.1999 14.5337H10.7999V13.6004H12.1999V14.5337ZM12.1999 12.6671H10.7999V11.7337H12.1999V12.6671ZM14.5332 18.2671H13.1332V17.3337H14.5332V18.2671ZM14.5332 16.4004H13.1332V15.4671H14.5332V16.4004ZM14.5332 14.5337H13.1332V13.6004H14.5332V14.5337ZM14.5332 12.6671H13.1332V11.7337H14.5332V12.6671ZM19.1999 11.7337H16.8666V20.6004H20.5999V13.1337C20.5999 12.7624 20.4524 12.4063 20.1899 12.1438C19.9273 11.8812 19.5712 11.7337 19.1999 11.7337ZM19.1999 18.2671H18.2666V17.3337H19.1999V18.2671ZM19.1999 16.4004H18.2666V15.4671H19.1999V16.4004ZM19.1999 14.5337H18.2666V13.6004H19.1999V14.5337Z" fill="#5C6476"/>
</svg>
