<svg width="16" height="16" viewBox="0 0 16 16" fill="none" xmlns="http://www.w3.org/2000/svg">
<path d="M14 9.67473L11.0569 8.35535L11.0456 8.35035C10.8543 8.26788 10.6454 8.23467 10.4379 8.25378C10.2305 8.27289 10.0312 8.3437 9.85813 8.45973C9.83388 8.47596 9.81051 8.49349 9.78813 8.51223L8.39375 9.69973C7.58125 9.2591 6.74188 8.4266 6.30063 7.6241L7.49188 6.20785C7.51103 6.18499 7.52877 6.16099 7.545 6.13598C7.65799 5.96357 7.72659 5.7659 7.74469 5.56057C7.76279 5.35524 7.72984 5.14861 7.64875 4.9591C7.64683 4.95547 7.64516 4.95171 7.64375 4.94785L6.325 1.99973C6.21676 1.75318 6.03201 1.54803 5.7981 1.41464C5.5642 1.28126 5.29357 1.22672 5.02625 1.2591C4.11899 1.37828 3.28612 1.82365 2.68322 2.51201C2.08031 3.20037 1.74859 4.08466 1.75 4.99973C1.75 10.1004 5.89938 14.2497 11 14.2497C11.9151 14.2511 12.7994 13.9194 13.4877 13.3165C14.1761 12.7136 14.6214 11.8807 14.7406 10.9735C14.773 10.7062 14.7185 10.4355 14.5851 10.2016C14.4517 9.96772 14.2466 9.78297 14 9.67473ZM11 12.7497C8.94534 12.7472 6.97554 11.9299 5.52267 10.4771C4.0698 9.02419 3.25249 7.05439 3.25 4.99973C3.24857 4.48191 3.42437 3.97919 3.74818 3.57511C4.07199 3.17103 4.52432 2.88991 5.03 2.77848L6.20625 5.40348L5.00875 6.82973C4.9894 6.85279 4.97145 6.877 4.955 6.90223C4.83697 7.08257 4.76758 7.29037 4.75356 7.50545C4.73954 7.72053 4.78138 7.93559 4.875 8.12973C5.46375 9.33473 6.67688 10.5397 7.89438 11.1297C8.08982 11.2224 8.30595 11.2627 8.52165 11.2469C8.73736 11.231 8.94525 11.1594 9.125 11.0391C9.14917 11.0228 9.17234 11.0051 9.19438 10.986L10.5963 9.7941L13.2213 10.9697C13.1098 11.4754 12.8287 11.9277 12.4246 12.2516C12.0205 12.5754 11.5178 12.7512 11 12.7497Z" fill="#383D54"/>
</svg>
