<svg width="19" height="19" viewBox="0 0 19 19" fill="none" xmlns="http://www.w3.org/2000/svg">
<path d="M9.37791 7.3877C8.90323 7.3877 8.43922 7.52845 8.04454 7.79217C7.64986 8.05588 7.34225 8.43071 7.1606 8.86926C6.97895 9.3078 6.93142 9.79036 7.02402 10.2559C7.11663 10.7215 7.3452 11.1491 7.68085 11.4848C8.0165 11.8204 8.44414 12.049 8.90969 12.1416C9.37524 12.2342 9.8578 12.1867 10.2963 12.005C10.7349 11.8234 11.1097 11.5157 11.3734 11.1211C11.6371 10.7264 11.7779 10.2624 11.7779 9.7877C11.7779 9.15118 11.5251 8.54073 11.075 8.09064C10.6249 7.64055 10.0144 7.3877 9.37791 7.3877ZM9.37791 10.9877C9.14057 10.9877 8.90856 10.9173 8.71122 10.7855C8.51388 10.6536 8.36008 10.4662 8.26925 10.2469C8.17843 10.0276 8.15466 9.78636 8.20096 9.55359C8.24727 9.32081 8.36156 9.10699 8.52938 8.93917C8.6972 8.77134 8.91102 8.65706 9.1438 8.61075C9.37658 8.56445 9.61786 8.58821 9.83713 8.67904C10.0564 8.76987 10.2438 8.92367 10.3757 9.12101C10.5075 9.31835 10.5779 9.55036 10.5779 9.7877C10.5779 10.106 10.4515 10.4112 10.2264 10.6362C10.0014 10.8613 9.69617 10.9877 9.37791 10.9877Z" fill="#383D54"/>
<path d="M14.9544 10.9279L14.688 10.7743C14.808 10.1218 14.808 9.45283 14.688 8.80029L14.9544 8.64669C15.1593 8.5285 15.3389 8.37112 15.4829 8.18353C15.6269 7.99594 15.7326 7.78181 15.7939 7.55338C15.8552 7.32495 15.8709 7.08668 15.8401 6.85219C15.8093 6.61769 15.7326 6.39155 15.6144 6.18669C15.4962 5.98183 15.3389 5.80225 15.1513 5.65821C14.9637 5.51417 14.7496 5.40849 14.5211 5.34721C14.2927 5.28592 14.0544 5.27023 13.8199 5.30102C13.5854 5.33182 13.3593 5.4085 13.1544 5.52669L12.8874 5.68089C12.3832 5.25004 11.8036 4.91604 11.178 4.69569V4.38789C11.178 3.9105 10.9884 3.45266 10.6508 3.1151C10.3133 2.77753 9.85542 2.58789 9.37803 2.58789C8.90064 2.58789 8.4428 2.77753 8.10524 3.1151C7.76767 3.45266 7.57803 3.9105 7.57803 4.38789V4.69569C6.95246 4.91683 6.37314 5.25165 5.86923 5.68329L5.60103 5.52789C5.18729 5.2892 4.69568 5.22463 4.23434 5.34841C3.773 5.47218 3.37972 5.77415 3.14103 6.18789C2.90233 6.60163 2.83777 7.09324 2.96155 7.55458C3.08532 8.01592 3.38729 8.4092 3.80103 8.64789L4.06743 8.80149C3.94749 9.45403 3.94749 10.123 4.06743 10.7755L3.80103 10.9291C3.38729 11.1678 3.08532 11.5611 2.96155 12.0224C2.83777 12.4837 2.90233 12.9754 3.14103 13.3891C3.37972 13.8028 3.773 14.1048 4.23434 14.2286C4.69568 14.3523 5.18729 14.2878 5.60103 14.0491L5.86803 13.8949C6.37249 14.3258 6.95222 14.6598 7.57803 14.8801V15.1879C7.57803 15.6653 7.76767 16.1231 8.10524 16.4607C8.4428 16.7982 8.90064 16.9879 9.37803 16.9879C9.85542 16.9879 10.3133 16.7982 10.6508 16.4607C10.9884 16.1231 11.178 15.6653 11.178 15.1879V14.8801C11.8036 14.659 12.3829 14.3241 12.8868 13.8925L13.155 14.0473C13.5688 14.286 14.0604 14.3505 14.5217 14.2268C14.9831 14.103 15.3763 13.801 15.615 13.3873C15.8537 12.9736 15.9183 12.4819 15.7945 12.0206C15.6707 11.5593 15.3688 11.166 14.955 10.9273L14.9544 10.9279ZM13.4256 8.66229C13.6288 9.39853 13.6288 10.1761 13.4256 10.9123C13.3902 11.0404 13.3982 11.1767 13.4486 11.2998C13.499 11.4228 13.5889 11.5256 13.704 11.5921L14.3544 11.9677C14.4923 12.0473 14.5929 12.1783 14.6342 12.3321C14.6754 12.4859 14.6539 12.6497 14.5743 12.7876C14.4948 12.9255 14.3637 13.0261 14.2099 13.0673C14.0562 13.1086 13.8923 13.0871 13.7544 13.0075L13.1028 12.6307C12.9876 12.5639 12.8534 12.5374 12.7214 12.5554C12.5894 12.5733 12.4671 12.6346 12.3738 12.7297C11.8398 13.2749 11.167 13.6639 10.428 13.8547C10.299 13.8879 10.1848 13.963 10.1032 14.0682C10.0216 14.1735 9.97736 14.3029 9.97743 14.4361V15.1879C9.97743 15.347 9.91422 15.4996 9.80169 15.6122C9.68917 15.7247 9.53656 15.7879 9.37743 15.7879C9.2183 15.7879 9.06569 15.7247 8.95316 15.6122C8.84064 15.4996 8.77743 15.347 8.77743 15.1879V14.4367C8.77749 14.3035 8.73325 14.1741 8.65167 14.0688C8.57009 13.9636 8.45581 13.8885 8.32683 13.8553C7.58784 13.6637 6.91523 13.2739 6.38163 12.7279C6.28834 12.6328 6.16607 12.5715 6.03408 12.5536C5.90209 12.5356 5.76789 12.5621 5.65263 12.6289L5.00223 13.0051C4.93397 13.0451 4.85846 13.0712 4.78006 13.082C4.70167 13.0927 4.62192 13.0878 4.54542 13.0676C4.46892 13.0473 4.39718 13.0122 4.33432 12.9641C4.27146 12.916 4.21874 12.856 4.17917 12.7875C4.13961 12.719 4.11399 12.6433 4.10379 12.5648C4.09359 12.4864 4.09901 12.4066 4.11974 12.3303C4.14048 12.2539 4.17611 12.1824 4.22459 12.1199C4.27307 12.0573 4.33344 12.005 4.40223 11.9659L5.05263 11.5903C5.1678 11.5238 5.25763 11.421 5.30802 11.298C5.35842 11.1749 5.36651 11.0386 5.33103 10.9105C5.12784 10.1743 5.12784 9.39673 5.33103 8.66049C5.36587 8.53262 5.35739 8.39681 5.30692 8.27427C5.25644 8.15172 5.16682 8.04933 5.05203 7.98309L4.40163 7.60749C4.26374 7.52793 4.16311 7.39684 4.12187 7.24308C4.08063 7.08932 4.10216 6.92548 4.18173 6.78759C4.26129 6.6497 4.39237 6.54907 4.54614 6.50783C4.6999 6.46659 4.86374 6.48813 5.00163 6.56769L5.65323 6.94449C5.76818 7.0114 5.9021 7.03822 6.03395 7.02073C6.16579 7.00325 6.28809 6.94245 6.38163 6.84789C6.91568 6.3027 7.58848 5.9137 8.32743 5.72289C8.45681 5.68963 8.57139 5.61414 8.65301 5.50839C8.73463 5.40264 8.77863 5.27268 8.77803 5.13909V4.38789C8.77803 4.22876 8.84124 4.07615 8.95376 3.96363C9.06629 3.8511 9.2189 3.78789 9.37803 3.78789C9.53716 3.78789 9.68977 3.8511 9.80229 3.96363C9.91481 4.07615 9.97803 4.22876 9.97803 4.38789V5.13909C9.97796 5.27227 10.0222 5.40168 10.1038 5.50694C10.1854 5.6122 10.2996 5.68733 10.4286 5.72049C11.1678 5.91198 11.8407 6.30182 12.3744 6.84789C12.4677 6.94297 12.59 7.00431 12.722 7.02223C12.854 7.04015 12.9882 7.01365 13.1034 6.94689L13.7538 6.57069C13.8221 6.53067 13.8976 6.50455 13.976 6.49383C14.0544 6.48311 14.1341 6.48801 14.2106 6.50823C14.2871 6.52846 14.3589 6.56361 14.4217 6.61168C14.4846 6.65974 14.5373 6.71977 14.5769 6.78829C14.6165 6.85682 14.6421 6.9325 14.6523 7.01096C14.6625 7.08943 14.657 7.16914 14.6363 7.24551C14.6156 7.32187 14.58 7.39338 14.5315 7.45591C14.483 7.51845 14.4226 7.57078 14.3538 7.60989L13.7034 7.98549C13.5889 8.05191 13.4995 8.15438 13.4492 8.27691C13.399 8.39944 13.3907 8.53515 13.4256 8.66289V8.66229Z" fill="#383D54"/>
</svg>
