<svg width="16" height="17" viewBox="0 0 16 17" fill="none" xmlns="http://www.w3.org/2000/svg">
<path d="M14.4744 6.20922C10.965 2.70109 5.03502 2.70109 1.52565 6.20922C0.275645 7.45922 0.155645 9.30234 1.23252 10.6911C1.32612 10.8111 1.44588 10.9082 1.58268 10.9749C1.71948 11.0416 1.8697 11.0762 2.02189 11.0761C2.14484 11.0762 2.26672 11.0533 2.38127 11.0086L5.44377 9.92297L5.46189 9.91609C5.61646 9.85427 5.75315 9.75484 5.85957 9.62682C5.96598 9.4988 6.03875 9.34623 6.07127 9.18297L6.44002 7.33797C7.44545 6.99041 8.53806 6.98799 9.54502 7.33109L9.93314 9.19047C9.96681 9.35195 10.0399 9.50259 10.1459 9.62898C10.2519 9.75537 10.3875 9.85357 10.5406 9.91484L10.5588 9.92172L13.6213 11.0086C13.8213 11.0861 14.041 11.0972 14.2479 11.0402C14.4547 10.9833 14.6378 10.8613 14.77 10.6923C15.8444 9.30234 15.7238 7.45922 14.4744 6.20922ZM13.9794 10.0761L13.9606 10.0686L10.9094 8.98547L10.5213 7.12672C10.486 6.95853 10.4081 6.80225 10.2949 6.67296C10.1817 6.54367 10.0371 6.44573 9.87502 6.38859C8.65232 5.96997 7.32466 5.97284 6.10377 6.39672C5.94045 6.45507 5.79512 6.55489 5.68204 6.68638C5.56896 6.81787 5.49202 6.97651 5.45877 7.14672L5.09002 8.99109L2.0394 10.0673C2.03315 10.0673 2.02877 10.0755 2.02252 10.078C1.2519 9.08359 1.33502 7.81359 2.23252 6.91672C3.79502 5.35422 5.89814 4.57109 8.00002 4.57109C10.1019 4.57109 12.2044 5.35297 13.7675 6.91672C14.6631 7.81359 14.75 9.08359 13.9794 10.0761ZM13.9994 13.0761C13.9994 13.2087 13.9467 13.3359 13.8529 13.4296C13.7592 13.5234 13.632 13.5761 13.4994 13.5761H2.50002C2.36741 13.5761 2.24023 13.5234 2.14647 13.4296C2.0527 13.3359 2.00002 13.2087 2.00002 13.0761C2.00002 12.9435 2.0527 12.8163 2.14647 12.7225C2.24023 12.6288 2.36741 12.5761 2.50002 12.5761H13.5C13.6326 12.5761 13.7598 12.6288 13.8536 12.7225C13.9473 12.8163 14 12.9435 14 13.0761H13.9994Z" fill="#F24137"/>
</svg>
