<svg width="16" height="16" viewBox="0 0 16 16" fill="none" xmlns="http://www.w3.org/2000/svg">
<path d="M14.5306 3.46961L12.5306 1.46961C12.4609 1.39969 12.3782 1.34422 12.287 1.30636C12.1958 1.26851 12.0981 1.24902 11.9994 1.24902C11.9007 1.24902 11.8029 1.26851 11.7118 1.30636C11.6206 1.34422 11.5378 1.39969 11.4681 1.46961L5.46812 7.46961C5.32797 7.61059 5.24951 7.80145 5.25 8.00024V10.0002C5.25 10.1992 5.32902 10.3899 5.46967 10.5306C5.61032 10.6712 5.80109 10.7502 6 10.7502H8C8.09852 10.7503 8.19609 10.731 8.28714 10.6933C8.37818 10.6557 8.46092 10.6005 8.53063 10.5309L14.5306 4.53086C14.6004 4.46121 14.6557 4.37849 14.6934 4.28745C14.7312 4.1964 14.7506 4.0988 14.7506 4.00024C14.7506 3.90168 14.7312 3.80408 14.6934 3.71303C14.6557 3.62199 14.6004 3.53927 14.5306 3.46961ZM12 3.06274L12.9375 4.00024L12.25 4.68774L11.3125 3.75024L12 3.06274ZM7.6875 9.25024H6.75V8.31274L10.25 4.81274L11.1875 5.75024L7.6875 9.25024ZM14.25 8.28587V13.0002C14.25 13.3318 14.1183 13.6497 13.8839 13.8841C13.6495 14.1185 13.3315 14.2502 13 14.2502H3C2.66848 14.2502 2.35054 14.1185 2.11612 13.8841C1.8817 13.6497 1.75 13.3318 1.75 13.0002V3.00024C1.75 2.66872 1.8817 2.35078 2.11612 2.11636C2.35054 1.88194 2.66848 1.75024 3 1.75024H7.71438C7.91329 1.75024 8.10405 1.82926 8.24471 1.96991C8.38536 2.11056 8.46437 2.30133 8.46437 2.50024C8.46437 2.69915 8.38536 2.88992 8.24471 3.03057C8.10405 3.17122 7.91329 3.25024 7.71438 3.25024H3.25V12.7502H12.75V8.28587C12.75 8.08695 12.829 7.89619 12.9697 7.75553C13.1103 7.61488 13.3011 7.53586 13.5 7.53586C13.6989 7.53586 13.8897 7.61488 14.0303 7.75553C14.171 7.89619 14.25 8.08695 14.25 8.28587Z" fill="#EDB21C"/>
</svg>
