<svg width="24" height="25" viewBox="0 0 24 25" fill="none" xmlns="http://www.w3.org/2000/svg">
<rect y="0.5" width="24" height="24" rx="12" fill="#D9F3A4"/>
<path d="M13.125 11.0004V9.12544C13.125 9.02598 13.1645 8.9306 13.2348 8.86027C13.3052 8.78995 13.4005 8.75044 13.5 8.75044C13.5995 8.75044 13.6948 8.78995 13.7652 8.86027C13.8355 8.9306 13.875 9.02598 13.875 9.12544V10.0953L15.4847 8.48512C15.5551 8.41476 15.6505 8.37523 15.75 8.37523C15.8495 8.37523 15.945 8.41476 16.0153 8.48512C16.0857 8.55549 16.1252 8.65093 16.1252 8.75044C16.1252 8.84995 16.0857 8.94538 16.0153 9.01575L14.4056 10.6254H15.375C15.4745 10.6254 15.5698 10.6649 15.6402 10.7353C15.7105 10.8056 15.75 10.901 15.75 11.0004C15.75 11.0999 15.7105 11.1953 15.6402 11.2656C15.5698 11.3359 15.4745 11.3754 15.375 11.3754H13.5C13.4005 11.3754 13.3052 11.3359 13.2348 11.2656C13.1645 11.1953 13.125 11.0999 13.125 11.0004ZM16.8694 14.7073C16.7858 15.3425 16.4739 15.9255 15.9918 16.3475C15.5098 16.7695 14.8906 17.0016 14.25 17.0004C10.5281 17.0004 7.5 13.9723 7.5 10.2504C7.49877 9.60982 7.73085 8.99067 8.15286 8.50869C8.57488 8.02672 9.15796 7.71491 9.79313 7.63153C9.95369 7.61188 10.1163 7.64467 10.2567 7.72501C10.3971 7.80535 10.5078 7.92893 10.5722 8.07731L11.5622 10.2875V10.2931C11.6115 10.4067 11.6318 10.5308 11.6214 10.6543C11.611 10.7777 11.5702 10.8966 11.5027 11.0004C11.4942 11.0131 11.4853 11.0248 11.4759 11.0365L10.5 12.1934C10.8511 12.9068 11.5973 13.6465 12.3202 13.9986L13.4611 13.0278C13.4723 13.0184 13.484 13.0096 13.4963 13.0015C13.6 12.9323 13.7193 12.8901 13.8435 12.8787C13.9676 12.8672 14.0927 12.8869 14.2073 12.9359L14.2134 12.9387L16.4217 13.9282C16.5705 13.9924 16.6944 14.1029 16.7751 14.2433C16.8558 14.3838 16.8889 14.5465 16.8694 14.7073ZM16.125 14.6136H16.1198L13.9167 13.6268L12.7753 14.5976C12.7644 14.6071 12.7528 14.6159 12.7406 14.6239C12.6327 14.6959 12.5079 14.7387 12.3785 14.748C12.2491 14.7574 12.1195 14.733 12.0023 14.6773C11.1244 14.2531 10.2492 13.3845 9.82454 12.5159C9.7683 12.3996 9.74306 12.2707 9.75128 12.1418C9.75949 12.0128 9.80087 11.8882 9.87141 11.78C9.87936 11.7673 9.8883 11.7552 9.89813 11.7439L10.875 10.5856L9.89063 8.38247C9.89044 8.3806 9.89044 8.37871 9.89063 8.37684C9.43606 8.43614 9.0187 8.65911 8.7167 9.00399C8.4147 9.34887 8.24878 9.79202 8.25 10.2504C8.25174 11.8412 8.88444 13.3663 10.0093 14.4912C11.1341 15.616 12.6592 16.2487 14.25 16.2504C14.7081 16.252 15.1512 16.0867 15.4963 15.7853C15.8413 15.484 16.0648 15.0673 16.125 14.6131V14.6136Z" fill="#72AA00"/>
</svg>
