<svg width="16" height="17" viewBox="0 0 16 17" fill="none" xmlns="http://www.w3.org/2000/svg">
<path d="M9.50001 6.57643V4.07643C9.50001 3.94382 9.55268 3.81664 9.64645 3.72288C9.74022 3.62911 9.8674 3.57643 10 3.57643C10.1326 3.57643 10.2598 3.62911 10.3536 3.72288C10.4473 3.81664 10.5 3.94382 10.5 4.07643V5.36955L12.6463 3.22268C12.7401 3.12886 12.8673 3.07615 13 3.07615C13.1327 3.07615 13.2599 3.12886 13.3538 3.22268C13.4476 3.3165 13.5003 3.44375 13.5003 3.57643C13.5003 3.70911 13.4476 3.83636 13.3538 3.93018L11.2075 6.07643H12.5C12.6326 6.07643 12.7598 6.12911 12.8536 6.22288C12.9473 6.31664 13 6.44382 13 6.57643C13 6.70904 12.9473 6.83621 12.8536 6.92998C12.7598 7.02375 12.6326 7.07643 12.5 7.07643H10C9.8674 7.07643 9.74022 7.02375 9.64645 6.92998C9.55268 6.83621 9.50001 6.70904 9.50001 6.57643ZM14.4925 11.5189C14.3811 12.3658 13.9652 13.1432 13.3224 13.7058C12.6797 14.2685 11.8542 14.578 11 14.5764C6.03751 14.5764 2.00001 10.5389 2.00001 5.57643C1.99836 4.72227 2.3078 3.89674 2.87048 3.25411C3.43317 2.61148 4.21061 2.19573 5.05751 2.08455C5.27159 2.05836 5.48841 2.10208 5.67561 2.2092C5.86281 2.31631 6.01037 2.48109 6.09626 2.67893L7.41626 5.6258V5.6333C7.48194 5.78484 7.50906 5.95028 7.49521 6.11485C7.48136 6.27942 7.42696 6.438 7.33688 6.57643C7.32563 6.5933 7.31376 6.60893 7.30126 6.62455L6.00001 8.16705C6.46813 9.1183 7.46313 10.1046 8.42688 10.5739L9.94813 9.27955C9.96307 9.26699 9.97872 9.25531 9.99501 9.24455C10.1333 9.15231 10.2924 9.09599 10.458 9.08072C10.6235 9.06544 10.7903 9.09168 10.9431 9.15705L10.9513 9.1608L13.8956 10.4802C14.0939 10.5657 14.2592 10.713 14.3668 10.9003C14.4744 11.0875 14.5185 11.3046 14.4925 11.5189ZM13.5 11.3939H13.4931L10.5556 10.0783L9.03376 11.3727C9.01915 11.3854 9.0037 11.3971 8.98751 11.4077C8.8436 11.5037 8.67726 11.5607 8.50472 11.5732C8.33219 11.5857 8.15936 11.5532 8.00313 11.4789C6.83251 10.9133 5.66563 9.75518 5.09938 8.59705C5.0244 8.44196 4.99075 8.27013 5.0017 8.09822C5.01265 7.9263 5.06783 7.76013 5.16188 7.6158C5.17248 7.59886 5.18439 7.58277 5.19751 7.56768L6.50001 6.0233L5.18751 3.0858C5.18726 3.08331 5.18726 3.0808 5.18751 3.0783C4.58142 3.15737 4.02493 3.45466 3.62226 3.9145C3.2196 4.37435 2.99837 4.9652 3.00001 5.57643C3.00232 7.69745 3.84592 9.73094 5.34571 11.2307C6.8455 12.7305 8.87899 13.5741 11 13.5764C11.6109 13.5785 12.2016 13.3581 12.6617 12.9563C13.1218 12.5545 13.4198 11.9989 13.5 11.3933V11.3939Z" fill="#72AA00"/>
</svg>
