<svg width="36" height="36" viewBox="0 0 36 36" fill="none" xmlns="http://www.w3.org/2000/svg">
<rect width="36" height="36" rx="18" fill="#FFD2CF"/>
<path d="M24.4748 15.633C20.9654 12.1249 15.0354 12.1249 11.526 15.633C10.276 16.883 10.156 18.7262 11.2329 20.1149C11.3265 20.2349 11.4463 20.332 11.583 20.3987C11.7198 20.4654 11.8701 20.5001 12.0223 20.4999C12.1452 20.5 12.2671 20.4771 12.3816 20.4324L15.4441 19.3468L15.4623 19.3399C15.6168 19.2781 15.7535 19.1787 15.8599 19.0506C15.9663 18.9226 16.0391 18.7701 16.0716 18.6068L16.4404 16.7618C17.4458 16.4142 18.5384 16.4118 19.5454 16.7549L19.9335 18.6143C19.9672 18.7758 20.0403 18.9264 20.1463 19.0528C20.2522 19.1792 20.3879 19.2774 20.541 19.3387L20.5591 19.3455L23.6216 20.4324C23.8217 20.5099 24.0414 20.521 24.2483 20.4641C24.4551 20.4071 24.6382 20.2851 24.7704 20.1162C25.8448 18.7262 25.7241 16.883 24.4748 15.633ZM23.9798 19.4999L23.961 19.4924L20.9098 18.4093L20.5216 16.5505C20.4864 16.3824 20.4084 16.2261 20.2952 16.0968C20.1821 15.9675 20.0374 15.8696 19.8754 15.8124C18.6527 15.3938 17.325 15.3967 16.1041 15.8205C15.9408 15.8789 15.7955 15.9787 15.6824 16.1102C15.5693 16.2417 15.4924 16.4003 15.4591 16.5705L15.0904 18.4149L12.0398 19.4912C12.0335 19.4912 12.0291 19.4993 12.0229 19.5018C11.2523 18.5074 11.3354 17.2374 12.2329 16.3405C13.7954 14.778 15.8985 13.9949 18.0004 13.9949C20.1023 13.9949 22.2048 14.7768 23.7679 16.3405C24.6635 17.2374 24.7504 18.5074 23.9798 19.4999ZM23.9998 22.4999C23.9998 22.6325 23.9471 22.7597 23.8533 22.8535C23.7595 22.9472 23.6324 22.9999 23.4998 22.9999H12.5004C12.3678 22.9999 12.2406 22.9472 12.1468 22.8535C12.0531 22.7597 12.0004 22.6325 12.0004 22.4999C12.0004 22.3673 12.0531 22.2401 12.1468 22.1464C12.2406 22.0526 12.3678 21.9999 12.5004 21.9999H23.5004C23.633 21.9999 23.7602 22.0526 23.8539 22.1464C23.9477 22.2401 24.0004 22.3673 24.0004 22.4999H23.9998Z" fill="#F24137"/>
</svg>
