<svg width="16" height="16" viewBox="0 0 16 16" fill="none" xmlns="http://www.w3.org/2000/svg">
<path d="M8 8C7.175 8 6.46875 7.70625 5.88125 7.11875C5.29375 6.53125 5 5.825 5 5C5 4.175 5.29375 3.46875 5.88125 2.88125C6.46875 2.29375 7.175 2 8 2C8.825 2 9.53125 2.29375 10.1187 2.88125C10.7062 3.46875 11 4.175 11 5C11 5.825 10.7062 6.53125 10.1187 7.11875C9.53125 7.70625 8.825 8 8 8ZM12.5 14H3.5C3.0875 14 2.73425 13.853 2.44025 13.559C2.14625 13.265 1.9995 12.912 2 12.5V11.9C2 11.475 2.1095 11.0842 2.3285 10.7277C2.5475 10.3712 2.838 10.0995 3.2 9.9125C3.975 9.525 4.7625 9.23425 5.5625 9.04025C6.3625 8.84625 7.175 8.7495 8 8.75C8.825 8.75 9.6375 8.847 10.4375 9.041C11.2375 9.235 12.025 9.5255 12.8 9.9125C13.1625 10.1 13.4532 10.372 13.6722 10.7285C13.8912 11.085 14.0005 11.4755 14 11.9V12.5C14 12.9125 13.853 13.2657 13.559 13.5597C13.265 13.8537 12.912 14.0005 12.5 14ZM3.5 12.5H12.5V11.9C12.5 11.7625 12.4655 11.6375 12.3965 11.525C12.3275 11.4125 12.237 11.325 12.125 11.2625C11.45 10.925 10.7687 10.672 10.0812 10.5035C9.39375 10.335 8.7 10.2505 8 10.25C7.3 10.25 6.60625 10.3345 5.91875 10.5035C5.23125 10.6725 4.55 10.9255 3.875 11.2625C3.7625 11.325 3.67175 11.4125 3.60275 11.525C3.53375 11.6375 3.4995 11.7625 3.5 11.9V12.5ZM8 6.5C8.4125 6.5 8.76575 6.353 9.05975 6.059C9.35375 5.765 9.5005 5.412 9.5 5C9.5 4.5875 9.353 4.23425 9.059 3.94025C8.765 3.64625 8.412 3.4995 8 3.5C7.5875 3.5 7.23425 3.647 6.94025 3.941C6.64625 4.235 6.4995 4.588 6.5 5C6.5 5.4125 6.647 5.76575 6.941 6.05975C7.235 6.35375 7.588 6.5005 8 6.5Z" fill="#72AA00"/>
</svg>
