<svg width="16" height="17" viewBox="0 0 16 17" fill="none" xmlns="http://www.w3.org/2000/svg">
<path d="M14 10.2509L11.0569 8.93152L11.0456 8.92652C10.8543 8.84405 10.6454 8.81085 10.4379 8.82995C10.2305 8.84906 10.0312 8.91987 9.85813 9.0359C9.83388 9.05214 9.81051 9.06966 9.78813 9.0884L8.39375 10.2759C7.58125 9.83527 6.74188 9.00277 6.30063 8.20027L7.49188 6.78402C7.51103 6.76116 7.52877 6.73716 7.545 6.71215C7.65799 6.53974 7.72659 6.34207 7.74469 6.13674C7.76279 5.93141 7.72984 5.72478 7.64875 5.53527C7.64683 5.53164 7.64516 5.52788 7.64375 5.52402L6.325 2.5759C6.21676 2.32935 6.03201 2.1242 5.7981 1.99082C5.5642 1.85743 5.29357 1.80289 5.02625 1.83527C4.11899 1.95446 3.28612 2.39982 2.68322 3.08818C2.08031 3.77654 1.74859 4.66084 1.75 5.5759C1.75 10.6765 5.89938 14.8259 11 14.8259C11.9151 14.8273 12.7994 14.4956 13.4877 13.8927C14.1761 13.2898 14.6214 12.4569 14.7406 11.5496C14.773 11.2823 14.7185 11.0117 14.5851 10.7778C14.4517 10.5439 14.2466 10.3591 14 10.2509ZM11 13.3259C8.94534 13.3234 6.97554 12.5061 5.52267 11.0532C4.0698 9.60036 3.25249 7.63056 3.25 5.5759C3.24857 5.05808 3.42437 4.55536 3.74818 4.15128C4.07199 3.7472 4.52432 3.46609 5.03 3.35465L6.20625 5.97965L5.00875 7.4059C4.9894 7.42896 4.97145 7.45317 4.955 7.4784C4.83697 7.65874 4.76758 7.86655 4.75356 8.08163C4.73954 8.29671 4.78138 8.51176 4.875 8.7059C5.46375 9.9109 6.67688 11.1159 7.89438 11.7059C8.08982 11.7985 8.30595 11.8389 8.52165 11.823C8.73736 11.8071 8.94525 11.7356 9.125 11.6153C9.14917 11.599 9.17234 11.5812 9.19438 11.5621L10.5963 10.3703L13.2213 11.5459C13.1098 12.0516 12.8287 12.5039 12.4246 12.8277C12.0205 13.1515 11.5178 13.3273 11 13.3259Z" fill="#72AA00"/>
</svg>
