<svg width="16" height="17" viewBox="0 0 16 17" fill="none" xmlns="http://www.w3.org/2000/svg">
<path d="M14 7.98316V3.90983C14 3.55621 13.8595 3.21707 13.6095 2.96702C13.3594 2.71697 13.0203 2.5765 12.6667 2.5765H9.88C9.6 1.80316 8.86667 1.24316 8 1.24316C7.13333 1.24316 6.4 1.80316 6.12 2.5765H3.33333C2.6 2.5765 2 3.1765 2 3.90983V13.2432C2 13.5968 2.14048 13.9359 2.39052 14.186C2.64057 14.436 2.97971 14.5765 3.33333 14.5765H7.40667C8.24667 15.4032 9.39333 15.9098 10.6667 15.9098C13.2467 15.9098 15.3333 13.8232 15.3333 11.2432C15.3333 9.96983 14.8267 8.82316 14 7.98316ZM8 2.5765C8.36667 2.5765 8.66667 2.8765 8.66667 3.24316C8.66667 3.60983 8.36667 3.90983 8 3.90983C7.63333 3.90983 7.33333 3.60983 7.33333 3.24316C7.33333 2.8765 7.63333 2.5765 8 2.5765ZM3.33333 13.2432V3.90983H4.66667V5.24316H11.3333V3.90983H12.6667V7.02983C12.06 6.74316 11.3867 6.5765 10.6667 6.5765H4.66667V7.90983H7.4C7 8.28983 6.69333 8.74316 6.45333 9.24316H4.66667V10.5765H6.05333C6.02 10.7965 6 11.0165 6 11.2432C6 11.9632 6.16667 12.6365 6.45333 13.2432H3.33333ZM10.6667 14.5765C8.82667 14.5765 7.33333 13.0832 7.33333 11.2432C7.33333 9.40316 8.82667 7.90983 10.6667 7.90983C12.5067 7.90983 14 9.40316 14 11.2432C14 13.0832 12.5067 14.5765 10.6667 14.5765ZM11 11.4098L12.9067 12.5365L12.4067 13.3498L10 11.9098V8.5765H11V11.4098Z" fill="#72AA00"/>
</svg>
