<svg width="19" height="19" viewBox="0 0 19 19" fill="none" xmlns="http://www.w3.org/2000/svg">
<path d="M12.5 9.57617C12.5 9.17835 12.658 8.79682 12.9393 8.51551C13.2206 8.23421 13.6022 8.07617 14 8.07617C14.3978 8.07617 14.7794 8.23421 15.0607 8.51551C15.342 8.79682 15.5 9.17835 15.5 9.57617C15.5 9.974 15.342 10.3555 15.0607 10.6368C14.7794 10.9181 14.3978 11.0762 14 11.0762C13.6022 11.0762 13.2206 10.9181 12.9393 10.6368C12.658 10.3555 12.5 9.974 12.5 9.57617ZM8 9.57617C8 9.17835 8.15804 8.79682 8.43934 8.51551C8.72064 8.23421 9.10218 8.07617 9.5 8.07617C9.89782 8.07617 10.2794 8.23421 10.5607 8.51551C10.842 8.79682 11 9.17835 11 9.57617C11 9.974 10.842 10.3555 10.5607 10.6368C10.2794 10.9181 9.89782 11.0762 9.5 11.0762C9.10218 11.0762 8.72064 10.9181 8.43934 10.6368C8.15804 10.3555 8 9.974 8 9.57617ZM3.5 9.57617C3.5 9.17835 3.65804 8.79682 3.93934 8.51551C4.22064 8.23421 4.60218 8.07617 5 8.07617C5.39782 8.07617 5.77936 8.23421 6.06066 8.51551C6.34196 8.79682 6.5 9.17835 6.5 9.57617C6.5 9.974 6.34196 10.3555 6.06066 10.6368C5.77936 10.9181 5.39782 11.0762 5 11.0762C4.60218 11.0762 4.22064 10.9181 3.93934 10.6368C3.65804 10.3555 3.5 9.974 3.5 9.57617Z" fill="#5C6476"/>
</svg>
