<svg width="16" height="17" viewBox="0 0 16 17" fill="none" xmlns="http://www.w3.org/2000/svg">
<path d="M8 8.57617C7.175 8.57617 6.46875 8.28242 5.88125 7.69492C5.29375 7.10742 5 6.40117 5 5.57617C5 4.75117 5.29375 4.04492 5.88125 3.45742C6.46875 2.86992 7.175 2.57617 8 2.57617C8.825 2.57617 9.53125 2.86992 10.1187 3.45742C10.7062 4.04492 11 4.75117 11 5.57617C11 6.40117 10.7062 7.10742 10.1187 7.69492C9.53125 8.28242 8.825 8.57617 8 8.57617ZM12.5 14.5762H3.5C3.0875 14.5762 2.73425 14.4292 2.44025 14.1352C2.14625 13.8412 1.9995 13.4882 2 13.0762V12.4762C2 12.0512 2.1095 11.6604 2.3285 11.3039C2.5475 10.9474 2.838 10.6757 3.2 10.4887C3.975 10.1012 4.7625 9.81042 5.5625 9.61642C6.3625 9.42242 7.175 9.32567 8 9.32617C8.825 9.32617 9.6375 9.42317 10.4375 9.61717C11.2375 9.81117 12.025 10.1017 12.8 10.4887C13.1625 10.6762 13.4532 10.9482 13.6722 11.3047C13.8912 11.6612 14.0005 12.0517 14 12.4762V13.0762C14 13.4887 13.853 13.8419 13.559 14.1359C13.265 14.4299 12.912 14.5767 12.5 14.5762ZM3.5 13.0762H12.5V12.4762C12.5 12.3387 12.4655 12.2137 12.3965 12.1012C12.3275 11.9887 12.237 11.9012 12.125 11.8387C11.45 11.5012 10.7687 11.2482 10.0812 11.0797C9.39375 10.9112 8.7 10.8267 8 10.8262C7.3 10.8262 6.60625 10.9107 5.91875 11.0797C5.23125 11.2487 4.55 11.5017 3.875 11.8387C3.7625 11.9012 3.67175 11.9887 3.60275 12.1012C3.53375 12.2137 3.4995 12.3387 3.5 12.4762V13.0762ZM8 7.07617C8.4125 7.07617 8.76575 6.92917 9.05975 6.63517C9.35375 6.34117 9.5005 5.98817 9.5 5.57617C9.5 5.16367 9.353 4.81042 9.059 4.51642C8.765 4.22242 8.412 4.07567 8 4.07617C7.5875 4.07617 7.23425 4.22317 6.94025 4.51717C6.64625 4.81117 6.4995 5.16417 6.5 5.57617C6.5 5.98867 6.647 6.34192 6.941 6.63592C7.235 6.92992 7.588 7.07667 8 7.07617Z" fill="#F24137"/>
</svg>
