<svg width="24" height="24" viewBox="0 0 24 24" fill="none" xmlns="http://www.w3.org/2000/svg">
<rect x="0.5" y="0.5" width="23" height="23" rx="1.5" fill="#D9D9D9"/>
<path fill-rule="evenodd" clip-rule="evenodd" d="M13.793 7.50006C13.9805 7.31259 14.2348 7.20728 14.5 7.20728C14.7652 7.20728 15.0195 7.31259 15.207 7.50006L16.5 8.79306C16.6875 8.98059 16.7928 9.2349 16.7928 9.50006C16.7928 9.76523 16.6875 10.0195 16.5 10.2071L15.707 11.0001L13 8.29306L13.793 7.50006ZM12.293 9.00006L7.793 13.5001C7.60545 13.6876 7.50006 13.9419 7.5 14.2071V15.5001C7.5 15.7653 7.60536 16.0196 7.79289 16.2072C7.98043 16.3947 8.23478 16.5001 8.5 16.5001H9.793C10.0582 16.5 10.3125 16.3946 10.5 16.2071L15 11.7071L12.293 9.00006Z" fill="#22232A"/>
<rect x="0.5" y="0.5" width="23" height="23" rx="1.5" stroke="#D9D9D9"/>
</svg>
