<svg width="16" height="16" viewBox="0 0 16 16" fill="none" xmlns="http://www.w3.org/2000/svg">
<path d="M14 7.40797V3.33464C14 2.98101 13.8595 2.64187 13.6095 2.39183C13.3594 2.14178 13.0203 2.0013 12.6667 2.0013H9.88C9.6 1.22797 8.86667 0.667969 8 0.667969C7.13333 0.667969 6.4 1.22797 6.12 2.0013H3.33333C2.6 2.0013 2 2.6013 2 3.33464V12.668C2 13.0216 2.14048 13.3607 2.39052 13.6108C2.64057 13.8608 2.97971 14.0013 3.33333 14.0013H7.40667C8.24667 14.828 9.39333 15.3346 10.6667 15.3346C13.2467 15.3346 15.3333 13.248 15.3333 10.668C15.3333 9.39464 14.8267 8.24797 14 7.40797ZM8 2.0013C8.36667 2.0013 8.66667 2.3013 8.66667 2.66797C8.66667 3.03464 8.36667 3.33464 8 3.33464C7.63333 3.33464 7.33333 3.03464 7.33333 2.66797C7.33333 2.3013 7.63333 2.0013 8 2.0013ZM3.33333 12.668V3.33464H4.66667V4.66797H11.3333V3.33464H12.6667V6.45464C12.06 6.16797 11.3867 6.0013 10.6667 6.0013H4.66667V7.33464H7.4C7 7.71464 6.69333 8.16797 6.45333 8.66797H4.66667V10.0013H6.05333C6.02 10.2213 6 10.4413 6 10.668C6 11.388 6.16667 12.0613 6.45333 12.668H3.33333ZM10.6667 14.0013C8.82667 14.0013 7.33333 12.508 7.33333 10.668C7.33333 8.82797 8.82667 7.33464 10.6667 7.33464C12.5067 7.33464 14 8.82797 14 10.668C14 12.508 12.5067 14.0013 10.6667 14.0013ZM11 10.8346L12.9067 11.9613L12.4067 12.7746L10 11.3346V8.0013H11V10.8346Z" fill="#F24137"/>
</svg>
