<svg width="16" height="17" viewBox="0 0 16 17" fill="none" xmlns="http://www.w3.org/2000/svg">
<path d="M9.64626 6.92983C9.59977 6.88339 9.56289 6.82825 9.53773 6.76755C9.51256 6.70685 9.49961 6.64178 9.49961 6.57608C9.49961 6.51037 9.51256 6.44531 9.53773 6.38461C9.56289 6.32391 9.59977 6.26876 9.64626 6.22233L11.7931 4.07608H10.5C10.3674 4.07608 10.2402 4.0234 10.1465 3.92963C10.0527 3.83586 10 3.70869 10 3.57608C10 3.44347 10.0527 3.31629 10.1465 3.22252C10.2402 3.12876 10.3674 3.07608 10.5 3.07608H13C13.1326 3.07608 13.2598 3.12876 13.3536 3.22252C13.4473 3.31629 13.5 3.44347 13.5 3.57608V6.07608C13.5 6.20868 13.4473 6.33586 13.3536 6.42963C13.2598 6.5234 13.1326 6.57608 13 6.57608C12.8674 6.57608 12.7402 6.5234 12.6465 6.42963C12.5527 6.33586 12.5 6.20868 12.5 6.07608V4.78295L10.3538 6.92983C10.3073 6.97632 10.2522 7.01319 10.1915 7.03836C10.1308 7.06352 10.0657 7.07647 10 7.07647C9.9343 7.07647 9.86923 7.06352 9.80854 7.03836C9.74784 7.01319 9.69269 6.97632 9.64626 6.92983ZM14.4925 11.5186C14.3811 12.3655 13.9651 13.1428 13.3224 13.7055C12.6797 14.2681 11.8542 14.5776 11 14.5761C6.03751 14.5761 2.00001 10.5386 2.00001 5.57608C1.99847 4.72188 2.30794 3.89634 2.87059 3.25364C3.43324 2.61093 4.21061 2.19502 5.05751 2.08358C5.27159 2.05738 5.48841 2.1011 5.67561 2.20822C5.86281 2.31534 6.01037 2.48011 6.09626 2.67795L7.41626 5.62545V5.63295C7.48194 5.78449 7.50906 5.94993 7.49521 6.1145C7.48136 6.27907 7.42696 6.43765 7.33688 6.57608C7.32563 6.59295 7.31376 6.60858 7.30126 6.6242L6.00001 8.1667C6.46813 9.11795 7.46313 10.1042 8.42688 10.5736L9.94813 9.2792C9.96307 9.26664 9.97872 9.25496 9.99501 9.2442C10.1332 9.15158 10.2923 9.09505 10.4579 9.07976C10.6236 9.06448 10.7904 9.09093 10.9431 9.1567L10.9513 9.16045L13.8956 10.4798C14.0939 10.5653 14.2592 10.7127 14.3668 10.8999C14.4744 11.0872 14.5185 11.3042 14.4925 11.5186ZM13.5 11.3936H13.4931L10.5556 10.0773L9.03376 11.3723C9.01899 11.3848 9.00355 11.3965 8.98751 11.4073C8.8436 11.5033 8.67726 11.5604 8.50472 11.5729C8.33218 11.5853 8.15936 11.5529 8.00313 11.4786C6.83251 10.913 5.66563 9.75483 5.09938 8.5967C5.0244 8.44161 4.99075 8.26978 5.0017 8.09787C5.01265 7.92595 5.06783 7.75978 5.16188 7.61545C5.17248 7.59851 5.18439 7.58241 5.19751 7.56733L6.50001 6.02295L5.18751 3.08545C5.18726 3.08296 5.18726 3.08045 5.18751 3.07795C4.58141 3.15701 4.02493 3.4543 3.62226 3.91415C3.2196 4.37399 2.99837 4.96485 3.00001 5.57608C3.00232 7.6971 3.84592 9.73058 5.34571 11.2304C6.8455 12.7302 8.87898 13.5738 11 13.5761C11.6109 13.5782 12.2016 13.3577 12.6617 12.9559C13.1218 12.5541 13.4198 11.9985 13.5 11.393V11.3936Z" fill="#3670F0"/>
</svg>
