<svg width="14" height="14" viewBox="0 0 14 14" fill="none" xmlns="http://www.w3.org/2000/svg">
<path d="M4.78558 8.28784L8.28558 4.78784C8.34663 4.7268 8.4191 4.67837 8.49886 4.64534C8.57861 4.6123 8.6641 4.5953 8.75043 4.5953C8.83676 4.5953 8.92224 4.6123 9.002 4.64534C9.08176 4.67837 9.15423 4.7268 9.21527 4.78784C9.27632 4.84889 9.32474 4.92136 9.35778 5.00111C9.39081 5.08087 9.40782 5.16636 9.40782 5.25269C9.40782 5.33901 9.39081 5.4245 9.35778 5.50426C9.32474 5.58402 9.27632 5.65648 9.21527 5.71753L5.71527 9.21753C5.59199 9.34081 5.42478 9.41007 5.25043 9.41007C5.07608 9.41007 4.90887 9.34081 4.78558 9.21753C4.6623 9.09424 4.59304 8.92704 4.59304 8.75269C4.59304 8.57834 4.6623 8.41113 4.78558 8.28784ZM11.9496 2.05347C11.3337 1.4389 10.4991 1.09375 9.62898 1.09375C8.75887 1.09375 7.92428 1.4389 7.30832 2.05347L5.66113 3.69901C5.53785 3.8223 5.46859 3.98951 5.46859 4.16386C5.46859 4.33821 5.53785 4.50542 5.66113 4.6287C5.78442 4.75199 5.95163 4.82125 6.12598 4.82125C6.30033 4.82125 6.46753 4.75199 6.59082 4.6287L8.23527 2.98479C8.41812 2.80191 8.63519 2.65684 8.87411 2.55785C9.11302 2.45886 9.36909 2.4079 9.6277 2.40787C9.8863 2.40785 10.1424 2.45876 10.3813 2.5577C10.6202 2.65664 10.8374 2.80168 11.0202 2.98452C11.2031 3.16737 11.3482 3.38444 11.4472 3.62335C11.5462 3.86227 11.5971 4.11834 11.5972 4.37695C11.5972 4.63555 11.5463 4.89163 11.4473 5.13057C11.3484 5.3695 11.2034 5.5866 11.0205 5.76948L9.37387 7.41284C9.25058 7.53613 9.18132 7.70334 9.18132 7.87769C9.18132 8.05204 9.25058 8.21924 9.37387 8.34253C9.49715 8.46581 9.66436 8.53507 9.83871 8.53507C10.0131 8.53507 10.1803 8.46581 10.3036 8.34253L11.9486 6.69862C12.5634 6.08229 12.9086 5.24713 12.9083 4.37653C12.908 3.50592 12.5622 2.67101 11.9469 2.05511L11.9496 2.05347ZM7.41168 9.37503L5.76722 11.02C5.58434 11.2029 5.36724 11.3479 5.12831 11.4468C4.88938 11.5458 4.6333 11.5967 4.37469 11.5967C4.11608 11.5967 3.86001 11.5457 3.6211 11.4467C3.38219 11.3477 3.16511 11.2026 2.98226 11.0198C2.61299 10.6504 2.40557 10.1495 2.40562 9.62722C2.40567 9.10494 2.61319 8.60407 2.98254 8.23479L4.62644 6.59034C4.68749 6.5293 4.73591 6.45683 4.76895 6.37707C4.80198 6.29731 4.81899 6.21183 4.81899 6.1255C4.81899 6.03917 4.80198 5.95368 4.76895 5.87393C4.73591 5.79417 4.68749 5.7217 4.62644 5.66065C4.5654 5.59961 4.49293 5.55119 4.41317 5.51815C4.33341 5.48511 4.24793 5.46811 4.1616 5.46811C4.07527 5.46811 3.98979 5.48511 3.91003 5.51815C3.83027 5.55119 3.7578 5.59961 3.69676 5.66065L2.05394 7.30675C1.43847 7.9223 1.09272 8.75714 1.09277 9.62761C1.09282 10.4981 1.43867 11.3329 2.05422 11.9483C2.66977 12.5638 3.50461 12.9096 4.37507 12.9095C5.24554 12.9095 6.08034 12.5636 6.69582 11.9481L8.33973 10.3036C8.46301 10.1803 8.53227 10.0131 8.53227 9.83878C8.53227 9.66443 8.46301 9.49722 8.33973 9.37394C8.21644 9.25065 8.04923 9.18139 7.87488 9.18139C7.70053 9.18139 7.53332 9.25065 7.41004 9.37394L7.41168 9.37503Z" fill="#383D54"/>
</svg>
