<svg width="16" height="16" viewBox="0 0 16 16" fill="none" xmlns="http://www.w3.org/2000/svg">
<path d="M5 10.6667L5 10.6659C4.99976 10.5621 5.03122 10.4902 5.0937 10.4277C5.15623 10.3652 5.22857 10.3333 5.33333 10.3333L5.33412 10.3333C5.43795 10.3331 5.50982 10.3646 5.5723 10.427C5.63482 10.4896 5.66667 10.5619 5.66667 10.6667L5.66667 10.6675C5.66691 10.7713 5.63545 10.8432 5.57297 10.9056C5.51044 10.9682 5.4381 11 5.33333 11L5.33255 11C5.22872 11.0002 5.15685 10.9688 5.09437 10.9063C5.03185 10.8438 5 10.7714 5 10.6667ZM5 8L5 7.99922C4.99976 7.89539 5.03122 7.82352 5.0937 7.76104C5.15623 7.69851 5.22857 7.66667 5.33333 7.66667L5.33412 7.66667C5.43795 7.66642 5.50982 7.69789 5.5723 7.76037C5.63482 7.82289 5.66667 7.89523 5.66667 8L5.66667 8.00079C5.66691 8.10462 5.63545 8.17648 5.57297 8.23897C5.51044 8.30149 5.4381 8.33333 5.33333 8.33333L5.33255 8.33334C5.22872 8.33358 5.15685 8.30211 5.09437 8.23963C5.03185 8.17711 5 8.10477 5 8ZM5.33333 5.66667L5.33255 5.66667C5.22872 5.66691 5.15685 5.63545 5.09437 5.57297C5.03185 5.51044 5 5.4381 5 5.33333L5 5.33255C4.99976 5.22872 5.03122 5.15685 5.0937 5.09437C5.15623 5.03185 5.22857 5 5.33333 5L5.33412 5C5.43795 4.99976 5.50982 5.03122 5.5723 5.0937C5.63482 5.15623 5.66667 5.22857 5.66667 5.33333L5.66667 5.33412C5.66691 5.43795 5.63545 5.50982 5.57297 5.5723C5.51044 5.63482 5.4381 5.66667 5.33333 5.66667ZM8 11L7.99922 11C7.89539 11.0002 7.82352 10.9688 7.76104 10.9063C7.69851 10.8438 7.66667 10.7714 7.66667 10.6667L7.66667 10.6659C7.66642 10.5621 7.69789 10.4902 7.76037 10.4277C7.82289 10.3652 7.89523 10.3333 8 10.3333L10.6667 10.3333L10.6675 10.3333C10.7713 10.3331 10.8432 10.3646 10.9056 10.427C10.9682 10.4896 11 10.5619 11 10.6667L11 10.6675C11.0002 10.7713 10.9688 10.8432 10.9063 10.9056C10.8438 10.9682 10.7714 11 10.6667 11L8 11ZM8 8.33333L7.99922 8.33334C7.89539 8.33358 7.82352 8.30211 7.76104 8.23963C7.69851 8.17711 7.66667 8.10477 7.66667 8L7.66667 7.99922C7.66642 7.89539 7.69789 7.82352 7.76037 7.76104C7.82289 7.69851 7.89523 7.66667 8 7.66667L10.6667 7.66667L10.6675 7.66667C10.7713 7.66642 10.8432 7.69789 10.9056 7.76037C10.9682 7.82289 11 7.89523 11 8L11 8.00079C11.0002 8.10461 10.9688 8.17648 10.9063 8.23897C10.8438 8.30149 10.7714 8.33333 10.6667 8.33333L8 8.33333ZM8 5.66667L7.99922 5.66667C7.89539 5.66691 7.82352 5.63545 7.76104 5.57297C7.69851 5.51044 7.66667 5.4381 7.66667 5.33333L7.66667 5.33255C7.66642 5.22872 7.69789 5.15685 7.76037 5.09437C7.82289 5.03185 7.89523 5 8 5L10.6667 5L10.6675 5C10.7713 4.99976 10.8432 5.03122 10.9056 5.0937C10.9682 5.15623 11 5.22857 11 5.33333L11 5.33412C11.0002 5.43795 10.9688 5.50982 10.9063 5.5723C10.8438 5.63482 10.7714 5.66667 10.6667 5.66667L8 5.66667ZM2.33333 12.6671V12.6667V3.33333C2.33333 3.05586 2.42832 2.82642 2.6277 2.62704C2.82707 2.42767 3.05616 2.333 3.33293 2.33333H3.33333H12.6667C12.9441 2.33333 13.1736 2.42832 13.373 2.6277C13.5723 2.82707 13.667 3.05616 13.6667 3.33293V3.33333V12.6667C13.6667 12.9441 13.5717 13.1736 13.3723 13.373C13.1729 13.5723 12.9438 13.667 12.6671 13.6667H12.6667H3.33333C3.05586 13.6667 2.82642 13.5717 2.62704 13.3723C2.42767 13.1729 2.333 12.9438 2.33333 12.6671ZM3 12.6667V13H3.33333H12.6667H13V12.6667V3.33333V3H12.6667H3.33333H3V3.33333V12.6667Z" fill="#3670F0" stroke="#3670F0" stroke-width="0.666667"/>
</svg>
