<svg width="14" height="14" viewBox="0 0 14 14" fill="none" xmlns="http://www.w3.org/2000/svg">
<g clip-path="url(#clip0_1435_122701)">
<path d="M7 2.33333C6.84529 2.33333 6.69692 2.27188 6.58752 2.16248C6.47812 2.05308 6.41667 1.90471 6.41667 1.75V0.583333C6.41667 0.428624 6.47812 0.280251 6.58752 0.170854C6.69692 0.0614582 6.84529 0 7 0C7.15471 0 7.30308 0.0614582 7.41248 0.170854C7.52187 0.280251 7.58333 0.428624 7.58333 0.583333V1.75C7.58333 1.90471 7.52187 2.05308 7.41248 2.16248C7.30308 2.27188 7.15471 2.33333 7 2.33333ZM7.58333 13.4167V12.25C7.58333 12.0953 7.52187 11.9469 7.41248 11.8375C7.30308 11.7281 7.15471 11.6667 7 11.6667C6.84529 11.6667 6.69692 11.7281 6.58752 11.8375C6.47812 11.9469 6.41667 12.0953 6.41667 12.25V13.4167C6.41667 13.5714 6.47812 13.7197 6.58752 13.8291C6.69692 13.9385 6.84529 14 7 14C7.15471 14 7.30308 13.9385 7.41248 13.8291C7.52187 13.7197 7.58333 13.5714 7.58333 13.4167ZM2.33333 7C2.33333 6.84529 2.27188 6.69692 2.16248 6.58752C2.05308 6.47812 1.90471 6.41667 1.75 6.41667H0.583333C0.428624 6.41667 0.280251 6.47812 0.170854 6.58752C0.0614582 6.69692 0 6.84529 0 7C0 7.15471 0.0614582 7.30308 0.170854 7.41248C0.280251 7.52187 0.428624 7.58333 0.583333 7.58333H1.75C1.90471 7.58333 2.05308 7.52187 2.16248 7.41248C2.27188 7.30308 2.33333 7.15471 2.33333 7ZM14 7C14 6.84529 13.9385 6.69692 13.8291 6.58752C13.7197 6.47812 13.5714 6.41667 13.4167 6.41667H12.25C12.0953 6.41667 11.9469 6.47812 11.8375 6.58752C11.7281 6.69692 11.6667 6.84529 11.6667 7C11.6667 7.15471 11.7281 7.30308 11.8375 7.41248C11.9469 7.52187 12.0953 7.58333 12.25 7.58333H13.4167C13.5714 7.58333 13.7197 7.52187 13.8291 7.41248C13.9385 7.30308 14 7.15471 14 7ZM10.1377 2.75042L10.7211 1.74067C10.793 1.60711 10.81 1.45082 10.7686 1.30492C10.7271 1.15903 10.6305 1.035 10.4992 0.95913C10.3679 0.883264 10.2122 0.861527 10.0651 0.898528C9.91801 0.935528 9.79113 1.02836 9.71133 1.15733L9.128 2.16708C9.0506 2.30099 9.02955 2.46016 9.06948 2.60958C9.1094 2.75901 9.20704 2.88646 9.34092 2.96392C9.4294 3.01566 9.53008 3.04285 9.63258 3.04267C9.73503 3.0426 9.83566 3.01556 9.92434 2.96426C10.013 2.91295 10.0866 2.8392 10.1377 2.75042ZM4.28692 12.8421L4.87025 11.8323C4.94212 11.6988 4.95915 11.5425 4.91773 11.3966C4.87631 11.2507 4.7797 11.1267 4.64837 11.0508C4.51705 10.9749 4.36134 10.9532 4.21426 10.9902C4.06718 11.0272 3.94029 11.12 3.8605 11.249L3.27717 12.2587C3.19972 12.3926 3.17858 12.5517 3.21839 12.7011C3.25821 12.8505 3.35572 12.978 3.4895 13.0556C3.578 13.1073 3.67868 13.1345 3.78117 13.1343C3.88355 13.1346 3.98418 13.1078 4.07295 13.0568C4.16173 13.0058 4.23552 12.9324 4.28692 12.8438V12.8421ZM2.96275 4.65908C3.0402 4.52525 3.06134 4.36613 3.02152 4.21671C2.98171 4.0673 2.88419 3.9398 2.75042 3.86225L1.74067 3.27892C1.60711 3.20705 1.45082 3.19002 1.30492 3.23144C1.15903 3.27286 1.035 3.36947 0.95913 3.50079C0.883264 3.63212 0.861527 3.78783 0.898528 3.93491C0.935528 4.08199 1.02836 4.20887 1.15733 4.28867L2.16708 4.872C2.30099 4.9494 2.46016 4.97045 2.60958 4.93052C2.75901 4.8906 2.88646 4.79296 2.96392 4.65908H2.96275ZM13.0544 10.5105C13.0929 10.4442 13.1179 10.371 13.128 10.295C13.1381 10.2191 13.1332 10.1418 13.1135 10.0678C13.0938 9.99374 13.0596 9.9243 13.0131 9.86344C12.9665 9.80258 12.9084 9.75148 12.8421 9.71308L11.8323 9.12975C11.6988 9.05788 11.5425 9.04085 11.3966 9.08227C11.2507 9.12369 11.1267 9.2203 11.0508 9.35163C10.9749 9.48295 10.9532 9.63866 10.9902 9.78574C11.0272 9.93282 11.12 10.0597 11.249 10.1395L12.2587 10.7228C12.3472 10.7746 12.4479 10.8018 12.5504 10.8016C12.6529 10.8017 12.7535 10.7749 12.8423 10.7238C12.9311 10.6727 13.0048 10.5992 13.0562 10.5105H13.0544ZM4.65908 2.96275C4.79296 2.8853 4.8906 2.75784 4.93052 2.60842C4.97045 2.45899 4.9494 2.29983 4.872 2.16592L4.28867 1.15617C4.20887 1.02719 4.08199 0.934362 3.93491 0.897361C3.78783 0.86036 3.63212 0.882098 3.50079 0.957964C3.36947 1.03383 3.27286 1.15786 3.23144 1.30376C3.19002 1.44965 3.20705 1.60595 3.27892 1.7395L3.86225 2.74925C3.91345 2.83793 3.98708 2.91156 4.07576 2.96276C4.16443 3.01396 4.26502 3.04091 4.36742 3.04092C4.46986 3.04127 4.57055 3.01429 4.65908 2.96275ZM10.5105 13.0544C10.6443 12.9769 10.7418 12.8494 10.7816 12.7C10.8214 12.5505 10.8003 12.3914 10.7228 12.2576L10.1395 11.2478C10.0597 11.1189 9.93282 11.026 9.78574 10.989C9.63866 10.952 9.48295 10.9738 9.35163 11.0496C9.2203 11.1255 9.12369 11.2495 9.08227 11.3954C9.04085 11.5413 9.05788 11.6976 9.12975 11.8312L9.71308 12.8409C9.75148 12.9072 9.80258 12.9653 9.86344 13.0119C9.9243 13.0585 9.99374 13.0926 10.0678 13.1123C10.1418 13.132 10.2191 13.137 10.295 13.1268C10.371 13.1167 10.4442 13.0917 10.5105 13.0533V13.0544ZM11.8341 4.87025L12.8438 4.28692C12.9728 4.20712 13.0656 4.08024 13.1026 3.93316C13.1396 3.78608 13.1179 3.63037 13.042 3.49904C12.9662 3.36772 12.8421 3.27111 12.6962 3.22969C12.5503 3.18827 12.3941 3.2053 12.2605 3.27717L11.2507 3.8605C11.1218 3.94029 11.0289 4.06718 10.9919 4.21426C10.9549 4.36134 10.9767 4.51705 11.0525 4.64837C11.1284 4.7797 11.2524 4.87631 11.3983 4.91773C11.5442 4.95915 11.7005 4.94212 11.8341 4.87025ZM1.74242 10.7211L2.75217 10.1377C2.88114 10.058 2.97397 9.93107 3.01097 9.78399C3.04797 9.63691 3.02624 9.4812 2.95037 9.34988C2.8745 9.21855 2.75047 9.12194 2.60458 9.08052C2.45868 9.0391 2.30239 9.05613 2.16883 9.128L1.15908 9.71133C1.04788 9.77554 0.960976 9.87465 0.91184 9.99328C0.862704 10.1119 0.854085 10.2434 0.887319 10.3675C0.920554 10.4915 0.993785 10.6011 1.09566 10.6793C1.19753 10.7575 1.32234 10.7998 1.45075 10.7998C1.55249 10.8002 1.65253 10.7737 1.74067 10.7228L1.74242 10.7211Z" fill="black"/>
</g>
<defs>
<clipPath id="clip0_1435_122701">
<rect width="14" height="14" fill="white"/>
</clipPath>
</defs>
</svg>
