<svg width="14" height="14" viewBox="0 0 14 14" fill="none" xmlns="http://www.w3.org/2000/svg">
<path d="M6.8578 0C3.86961 0 1.16602 2.29094 1.16602 5.83407C1.16602 8.09656 2.90912 10.7575 6.38822 13.8239C6.65858 14.0587 7.06412 14.0587 7.33448 13.8239C10.8065 10.7575 12.5496 8.09656 12.5496 5.83407C12.5496 2.29094 9.84598 0 6.8578 0ZM6.8578 7.11473C6.07518 7.11473 5.43485 6.4744 5.43485 5.69178C5.43485 4.90916 6.07518 4.26884 6.8578 4.26884C7.64042 4.26884 8.28074 4.90916 8.28074 5.69178C8.28074 6.4744 7.64042 7.11473 6.8578 7.11473Z" fill="#383D54"/>
</svg>
