<svg width="145" height="44" viewBox="0 0 145 44" fill="none" xmlns="http://www.w3.org/2000/svg">
<g clip-path="url(#clip0_2270_207046)">
<path d="M50.8487 9.97561V14.9634H32.6532V9.97561H50.8487ZM37.3264 12.4695L35.7024 22.4784L32.9184 19.3527H51.9424V24.939H28.8418L30.7309 12.4695L28.8418 0H51.7767V5.58634H32.9184L35.7024 2.46065L37.3264 12.4695Z" fill="#0A173B"/>
<path d="M63.4476 3.02593H70.3413V24.939H63.4476V3.02593ZM53.9688 0H79.8202V6.11837H53.9688V0Z" fill="#0A173B"/>
<path d="M83.6394 20.1507V14.5976H100.774V20.1507H83.6394ZM96.8634 0L108.166 24.939H100.841L91.3617 2.92618H93.3502L83.8382 24.939H76.5137L87.8154 0H96.8634Z" fill="#0A173B"/>
<path d="M110.52 0H117.381V24.939H110.52V0Z" fill="#0A173B"/>
<path d="M128.87 0V21.8798L125.788 18.8206H144.381V24.939H122.01V0H128.87Z" fill="#0A173B"/>
<path d="M8.45117 13.2676H16.1735L17.9484 15.5913L25.0889 24.939H17.1346L10.455 15.961L8.45117 13.2676Z" fill="#0A173B"/>
<path d="M13.7874 10.9067H6.66899L10.4553 15.961L8.45143 13.2676H16.1737L17.9487 15.5912C18.5764 15.4329 19.1668 15.2236 19.72 14.9634C21.1341 14.2984 22.2389 13.3673 23.0343 12.1702C23.8297 10.9732 24.2274 9.58768 24.2274 8.01374C24.2274 6.39548 23.8297 4.99889 23.0343 3.82398C22.2389 2.62691 21.1341 1.69585 19.72 1.03081C18.3059 0.343605 16.6487 0 14.7486 0H0V5.12081H6.86057H13.7874C14.8922 5.12081 15.7539 5.37575 16.3726 5.88561C16.9913 6.37331 17.3006 7.08268 17.3006 8.01374C17.3006 8.92264 16.9913 9.63201 16.3726 10.1419C15.7539 10.6517 14.8922 10.9067 13.7874 10.9067Z" fill="#0A173B"/>
<path d="M30.662 43.0858L18.1885 26.3584H24.0929L33.0473 38.5002L41.9626 26.3584H47.867L35.3544 43.0858H30.662Z" fill="#3670F0"/>
<path d="M50.5596 43.0858V26.3584H55.682V43.0858H50.5596Z" fill="#3670F0"/>
<path d="M65.5748 43.0858C64.5842 43.0858 63.6849 42.9031 62.8767 42.5378C62.0687 42.1725 61.4169 41.6918 60.9217 41.0958C60.4264 40.4997 60.1787 39.8364 60.1787 39.1058V38.4714H65.3011V38.9616C65.3011 39.0577 65.3402 39.1443 65.4184 39.2212C65.5227 39.2788 65.64 39.3077 65.7704 39.3077H77.6182C77.7486 39.3077 77.8528 39.2788 77.9311 39.2212C78.0353 39.1443 78.0875 39.0577 78.0875 38.9616V36.9717C78.0875 36.8755 78.0353 36.7986 77.9311 36.7409C77.8528 36.664 77.7486 36.6256 77.6182 36.6256H65.5748C64.5842 36.6256 63.6849 36.4429 62.8767 36.0776C62.0687 35.7123 61.4169 35.2316 60.9217 34.6356C60.4264 34.0395 60.1787 33.3762 60.1787 32.6456V30.3384C60.1787 29.6078 60.4264 28.9445 60.9217 28.3483C61.4169 27.7523 62.0687 27.2717 62.8767 26.9063C63.6849 26.5411 64.5842 26.3584 65.5748 26.3584H77.8137C78.8305 26.3584 79.7428 26.5411 80.551 26.9063C81.359 27.2717 82.0108 27.7523 82.5061 28.3483C83.0013 28.9445 83.249 29.6078 83.249 30.3384V30.9728H78.0875V30.4826C78.0875 30.3865 78.0353 30.3095 77.9311 30.2518C77.8528 30.175 77.7486 30.1365 77.6182 30.1365H65.7704C65.64 30.1365 65.5227 30.175 65.4184 30.2518C65.3402 30.3095 65.3011 30.3865 65.3011 30.4826V32.4725C65.3011 32.5687 65.3402 32.6552 65.4184 32.7321C65.5227 32.7898 65.64 32.8186 65.7704 32.8186H77.8137C78.8305 32.8186 79.7428 33.0013 80.551 33.3666C81.359 33.7319 82.0108 34.2126 82.5061 34.8086C83.0013 35.4047 83.249 36.068 83.249 36.7986V39.1058C83.249 39.8364 83.0013 40.4997 82.5061 41.0958C82.0108 41.6918 81.359 42.1725 80.551 42.5378C79.7428 42.9031 78.8305 43.0858 77.8137 43.0858H65.5748Z" fill="#3670F0"/>
<path d="M87.1416 43.0858V26.3584H92.264V43.0858H87.1416Z" fill="#3670F0"/>
<path d="M101.166 43.0858C100.176 43.0858 99.2767 42.9031 98.4685 42.5378C97.6605 42.1725 97.0087 41.6918 96.5135 41.0958C96.0182 40.4997 95.7705 39.8364 95.7705 39.1058V30.3384C95.7705 29.6078 96.0182 28.9445 96.5135 28.3483C97.0087 27.7523 97.6605 27.2717 98.4685 26.9063C99.2767 26.5411 100.176 26.3584 101.166 26.3584H113.406C114.396 26.3584 115.295 26.5411 116.104 26.9063C116.937 27.2717 117.589 27.7523 118.059 28.3483C118.554 28.9445 118.802 29.6078 118.802 30.3384V39.1058C118.802 39.8364 118.554 40.4997 118.059 41.0958C117.589 41.6918 116.951 42.1725 116.142 42.5378C115.335 42.9031 114.422 43.0858 113.406 43.0858H101.166ZM101.362 39.3077H113.21C113.34 39.3077 113.444 39.2788 113.523 39.2212C113.627 39.1443 113.68 39.0577 113.68 38.9616V30.4826C113.68 30.3865 113.627 30.3095 113.523 30.2518C113.444 30.175 113.34 30.1365 113.21 30.1365H101.362C101.232 30.1365 101.115 30.175 101.01 30.2518C100.932 30.3095 100.893 30.3865 100.893 30.4826V38.9616C100.893 39.0577 100.932 39.1443 101.01 39.2212C101.115 39.2788 101.232 39.3077 101.362 39.3077Z" fill="#3670F0"/>
<path d="M121.969 43.0858V26.3584H139.604C140.594 26.3584 141.494 26.5411 142.302 26.9063C143.136 27.2717 143.787 27.7523 144.257 28.3483C144.752 28.9445 145 29.6078 145 30.3384V43.0858H139.878V30.4826C139.878 30.3865 139.825 30.3095 139.721 30.2518C139.643 30.175 139.539 30.1365 139.408 30.1365H127.561C127.43 30.1365 127.313 30.175 127.209 30.2518C127.13 30.3095 127.092 30.3865 127.092 30.4826V43.0858H121.969Z" fill="#3670F0"/>
</g>
<defs>
<clipPath id="clip0_2270_207046">
<rect width="145" height="43.0857" fill="white"/>
</clipPath>
</defs>
</svg>
