<svg width="60" height="60" viewBox="0 0 60 60" fill="none" xmlns="http://www.w3.org/2000/svg">
<path d="M60 30C60 46.5685 46.5685 60 30 60C13.4315 60 0 46.5685 0 30C0 13.4315 13.4315 0 30 0C46.5685 0 60 13.4315 60 30ZM6 30C6 43.2548 16.7452 54 30 54C43.2548 54 54 43.2548 54 30C54 16.7452 43.2548 6 30 6C16.7452 6 6 16.7452 6 30Z" fill="#3B6EDF" fill-opacity="0.1"/>
<path d="M30 3C30 1.34315 31.3465 -0.0155442 32.9951 0.149864C37.8703 0.639013 42.5679 2.31691 46.6671 5.05591C51.6006 8.35235 55.4458 13.0377 57.7164 18.5195C59.987 24.0013 60.5811 30.0333 59.4236 35.8527C58.266 41.6721 55.4088 47.0176 51.2132 51.2132C47.0176 55.4088 41.6722 58.266 35.8527 59.4236C30.0333 60.5811 24.0013 59.987 18.5195 57.7164C13.0377 55.4458 8.35237 51.6006 5.05593 46.6671C2.31692 42.5679 0.639021 37.8703 0.149867 32.9951C-0.0155429 31.3466 1.34315 30 3 30C4.65685 30 5.98068 31.3484 6.18725 32.9923C6.65049 36.6787 7.9654 40.2218 10.0447 43.3337C12.6819 47.2805 16.4302 50.3566 20.8156 52.1731C25.201 53.9896 30.0266 54.4649 34.6822 53.5388C39.3377 52.6128 43.6141 50.327 46.9706 46.9706C50.327 43.6141 52.6128 39.3377 53.5388 34.6822C54.4649 30.0266 53.9896 25.201 52.1731 20.8156C50.3566 16.4302 47.2805 12.6819 43.3337 10.0447C40.2217 7.96539 36.6787 6.65048 32.9923 6.18725C31.3483 5.98067 30 4.65685 30 3Z" fill="#3670F0"/>
</svg>
