<svg width="16" height="16" viewBox="0 0 16 16" fill="none" xmlns="http://www.w3.org/2000/svg">
<path d="M4.91967 14.0062C5.24633 14.3329 5.773 14.3329 6.09967 14.0062L11.6397 8.46621C11.7015 8.40454 11.7505 8.33128 11.784 8.25063C11.8174 8.16998 11.8346 8.08352 11.8346 7.99621C11.8346 7.9089 11.8174 7.82244 11.784 7.74179C11.7505 7.66115 11.7015 7.58789 11.6397 7.52621L6.09967 1.98621C5.773 1.65954 5.24633 1.65954 4.91967 1.98621C4.593 2.31288 4.593 2.83954 4.91967 3.16621L9.74633 7.99954L4.913 12.8329C4.593 13.1529 4.593 13.6862 4.91967 14.0062Z" fill="#FBFBFB"/>
</svg>
