<svg width="108" height="36" viewBox="0 0 108 36" fill="none" xmlns="http://www.w3.org/2000/svg">
<rect width="108" height="36" rx="4" fill="#050A15" fill-opacity="0.5"/>
<g clip-path="url(#clip0_2705_86408)">
<path d="M29.6625 16.435L25.3358 14.0658C24.775 13.75 24.1083 13.7558 23.5542 14.08C22.9983 14.405 22.6675 14.9825 22.6675 15.6258V20.375C22.6675 21.0183 22.9983 21.5958 23.5542 21.9208C23.8375 22.0867 24.1492 22.1683 24.46 22.1683C24.7583 22.1683 25.0567 22.0925 25.3275 21.94L29.6708 19.5617C30.2433 19.24 30.5842 18.6567 30.5842 18.0008C30.5842 17.345 30.2433 16.7617 29.6633 16.4358L29.6625 16.435ZM28.8617 18.1042L24.5183 20.4833C24.5025 20.4917 24.4542 20.5183 24.3958 20.4825C24.3342 20.4467 24.3342 20.3933 24.3342 20.3758V15.6267C24.3342 15.6092 24.3342 15.5558 24.3958 15.52C24.4183 15.5067 24.4392 15.5025 24.4575 15.5025C24.4875 15.5025 24.5117 15.5158 24.5267 15.5242L28.8533 17.8942C28.8692 17.9033 28.9167 17.93 28.9167 18.0025C28.9167 18.075 28.8683 18.1017 28.8617 18.1067V18.1042ZM26 8C20.4858 8 16 12.4858 16 18C16 23.5142 20.4858 28 26 28C31.5142 28 36 23.5142 36 18C36 12.4858 31.5142 8 26 8ZM26 26.3333C21.405 26.3333 17.6667 22.595 17.6667 18C17.6667 13.405 21.405 9.66667 26 9.66667C30.595 9.66667 34.3333 13.405 34.3333 18C34.3333 22.595 30.595 26.3333 26 26.3333Z" fill="#FBFBFB"/>
</g>
<path d="M54.1108 16.192C54.6335 16.416 55.0441 16.7733 55.3428 17.264C55.6415 17.7547 55.7908 18.304 55.7908 18.912C55.7908 19.7867 55.4655 20.5227 54.8148 21.12C54.1641 21.7067 53.3588 22 52.3988 22H47.9188V10.8H52.3348C53.2521 10.8 54.0041 11.072 54.5908 11.616C55.1881 12.16 55.4868 12.8427 55.4868 13.664C55.4868 14.1653 55.3588 14.6507 55.1028 15.12C54.8575 15.5893 54.5268 15.9467 54.1108 16.192ZM54.0628 13.856C54.0628 13.536 53.9828 13.248 53.8228 12.992C53.6735 12.736 53.4655 12.5387 53.1988 12.4C52.9321 12.2507 52.6335 12.176 52.3028 12.176H49.2948V15.536H52.3188C52.8095 15.536 53.2201 15.376 53.5508 15.056C53.8921 14.7253 54.0628 14.3253 54.0628 13.856ZM52.3828 20.608C52.9375 20.608 53.4015 20.432 53.7748 20.08C54.1481 19.728 54.3348 19.2853 54.3348 18.752C54.3348 18.2293 54.1481 17.792 53.7748 17.44C53.4015 17.088 52.9375 16.912 52.3828 16.912H49.2948V20.608H52.3828ZM57.9292 11.856V10.304H59.4012V11.856H57.9292ZM57.9932 22V13.36H59.3532V22H57.9932ZM69.3189 20.72H70.4869V24.288H69.2389V22H62.2789V24.288H61.0309V20.72H61.9589C62.2149 20.4853 62.4123 20.1547 62.5509 19.728C62.6896 19.2907 62.8123 18.6293 62.9189 17.744C63.0363 16.848 63.1749 15.3867 63.3349 13.36H69.3189V20.72ZM64.5509 14.56C64.4549 15.9893 64.3536 17.104 64.2469 17.904C64.1509 18.6933 64.0389 19.3013 63.9109 19.728C63.7829 20.144 63.6176 20.4747 63.4149 20.72H67.9909V14.56H64.5509ZM80.4169 17.712C80.4169 17.8293 80.4063 17.9947 80.3849 18.208H73.0089C73.1156 19.008 73.4463 19.6533 74.0009 20.144C74.5556 20.624 75.2383 20.864 76.0489 20.864C76.6463 20.864 77.1743 20.736 77.6329 20.48C78.1023 20.2133 78.4756 19.84 78.7529 19.36H80.1769C79.8143 20.256 79.2703 20.9547 78.5449 21.456C77.8196 21.9467 76.9876 22.192 76.0489 22.192C74.8009 22.192 73.7556 21.76 72.9129 20.896C72.0703 20.032 71.6489 18.96 71.6489 17.68C71.6489 16.3893 72.0703 15.3173 72.9129 14.464C73.7556 13.6 74.8009 13.168 76.0489 13.168C77.3396 13.168 78.3903 13.6053 79.2009 14.48C80.0116 15.3547 80.4169 16.432 80.4169 17.712ZM76.0489 14.464C75.5369 14.464 75.0676 14.5653 74.6409 14.768C74.2249 14.9707 73.8783 15.264 73.6009 15.648C73.3236 16.0213 73.1369 16.4533 73.0409 16.944H79.0409C78.9449 16.4427 78.7583 16.0053 78.4809 15.632C78.2036 15.248 77.8569 14.96 77.4409 14.768C77.0249 14.5653 76.5609 14.464 76.0489 14.464ZM86.3343 22.192C85.481 22.192 84.7023 22 83.9983 21.616C83.2943 21.2213 82.745 20.6827 82.3503 20C81.9556 19.3067 81.7583 18.5333 81.7583 17.68C81.7583 16.3787 82.1903 15.3013 83.0543 14.448C83.929 13.5947 85.0223 13.168 86.3343 13.168C87.1983 13.168 87.977 13.3653 88.6703 13.76C89.3743 14.144 89.9236 14.6827 90.3183 15.376C90.7236 16.0587 90.9263 16.8267 90.9263 17.68C90.9263 18.9707 90.489 20.048 89.6143 20.912C88.7396 21.7653 87.6463 22.192 86.3343 22.192ZM84.0463 19.984C84.6543 20.5813 85.417 20.88 86.3343 20.88C87.2623 20.88 88.025 20.5813 88.6223 19.984C89.2303 19.376 89.5343 18.608 89.5343 17.68C89.5343 16.752 89.2303 15.9893 88.6223 15.392C88.025 14.784 87.2623 14.48 86.3343 14.48C85.417 14.48 84.6543 14.784 84.0463 15.392C83.449 15.9893 83.1503 16.752 83.1503 17.68C83.1503 18.608 83.449 19.376 84.0463 19.984Z" fill="#FBFBFB"/>
<defs>
<clipPath id="clip0_2705_86408">
<rect width="20" height="20" fill="white" transform="translate(16 8)"/>
</clipPath>
</defs>
</svg>
