<svg width="12" height="13" viewBox="0 0 12 13" fill="none" xmlns="http://www.w3.org/2000/svg">
<g clip-path="url(#clip0_2719_93830)">
<path d="M1.25 5.25H10.75M1.25 5.25V10.5C1.25 10.6326 1.30268 10.7598 1.39645 10.8536C1.49021 10.9473 1.61739 11 1.75 11H10.25C10.3826 11 10.5098 10.9473 10.6036 10.8536C10.6973 10.7598 10.75 10.6326 10.75 10.5V5.25M1.25 5.25V2.75C1.25 2.61739 1.30268 2.49021 1.39645 2.39645C1.49021 2.30268 1.61739 2.25 1.75 2.25H10.25C10.3826 2.25 10.5098 2.30268 10.6036 2.39645C10.6973 2.49021 10.75 2.61739 10.75 2.75V5.25" stroke="#4B5059" stroke-width="1.3" stroke-linejoin="round"/>
<path d="M4 1.5V3.5M8 1.5V3.5M7 9H8.5M3.5 9H5M7 7H8.5M3.5 7H5" stroke="#4B5059" stroke-width="1.3" stroke-linecap="round" stroke-linejoin="round"/>
</g>
<defs>
<clipPath id="clip0_2719_93830">
<rect width="12" height="12" fill="white" transform="translate(0 0.5)"/>
</clipPath>
</defs>
</svg>
