<svg width="16" height="16" viewBox="0 0 16 16" fill="none" xmlns="http://www.w3.org/2000/svg">
<path d="M10.9153 2.24476C10.5886 1.9181 10.062 1.9181 9.73529 2.24476L4.19529 7.78477C4.13349 7.84644 4.08446 7.9197 4.051 8.00035C4.01755 8.081 4.00033 8.16745 4.00033 8.25477C4.00033 8.34208 4.01755 8.42853 4.051 8.50918C4.08446 8.58983 4.13349 8.66309 4.19529 8.72477L9.73529 14.2648C10.062 14.5914 10.5886 14.5914 10.9153 14.2648C11.242 13.9381 11.242 13.4114 10.9153 13.0848L6.08863 8.25143L10.922 3.4181C11.242 3.0981 11.242 2.56476 10.9153 2.24476Z" fill="#FBFBFB"/>
</svg>
