<svg width="16" height="16" viewBox="0 0 16 16" fill="none" xmlns="http://www.w3.org/2000/svg">
<g clip-path="url(#clip0_527_2808)">
<path d="M7.33333 0H2C1.46957 0 0.960859 0.210714 0.585786 0.585786C0.210714 0.960859 0 1.46957 0 2L0 16H9.33333V2C9.33333 1.46957 9.12262 0.960859 8.74755 0.585786C8.37247 0.210714 7.86377 0 7.33333 0ZM4 12.6667H2V11.3333H4V12.6667ZM4 10H2V8.66667H4V10ZM4 7.33333H2V6H4V7.33333ZM4 4.66667H2V3.33333H4V4.66667ZM7.33333 12.6667H5.33333V11.3333H7.33333V12.6667ZM7.33333 10H5.33333V8.66667H7.33333V10ZM7.33333 7.33333H5.33333V6H7.33333V7.33333ZM7.33333 4.66667H5.33333V3.33333H7.33333V4.66667ZM14 3.33333H10.6667V16H16V5.33333C16 4.8029 15.7893 4.29419 15.4142 3.91912C15.0391 3.54405 14.5304 3.33333 14 3.33333ZM14 12.6667H12.6667V11.3333H14V12.6667ZM14 10H12.6667V8.66667H14V10ZM14 7.33333H12.6667V6H14V7.33333Z" fill="#383D54"/>
</g>
<defs>
<clipPath id="clip0_527_2808">
<rect width="16" height="16" fill="white"/>
</clipPath>
</defs>
</svg>
