<svg width="16" height="16" viewBox="0 0 16 16" fill="none" xmlns="http://www.w3.org/2000/svg">
<path d="M2.66732 13.9999H3.33398V5.33325H2.66732C2.3137 5.33325 1.97456 5.47373 1.72451 5.72378C1.47446 5.97382 1.33398 6.31296 1.33398 6.66659V12.6666C1.33398 13.0202 1.47446 13.3593 1.72451 13.6094C1.97456 13.8594 2.3137 13.9999 2.66732 13.9999ZM13.334 5.33325H8.66732L9.41532 3.08792C9.48206 2.88753 9.50024 2.67415 9.46837 2.46536C9.43649 2.25656 9.35547 2.05833 9.23197 1.88698C9.10847 1.71564 8.94604 1.57608 8.75804 1.47981C8.57004 1.38354 8.36186 1.33331 8.15065 1.33325H8.00065L4.66732 4.95859V13.9999H12.0007L14.6087 8.26925L14.6673 7.99992V6.66659C14.6673 6.31296 14.5268 5.97382 14.2768 5.72378C14.0267 5.47373 13.6876 5.33325 13.334 5.33325Z" fill="#383D54"/>
</svg>
