<svg width="16" height="20" viewBox="0 0 16 20" fill="none" xmlns="http://www.w3.org/2000/svg">
<path d="M12.666 12H15.3327V4H12.666M9.99935 4H3.99935C3.44602 4 2.97268 4.33333 2.77268 4.81333L0.759349 9.51333C0.699349 9.66667 0.666016 9.82667 0.666016 10V11.3333C0.666016 11.687 0.806491 12.0261 1.05654 12.2761C1.30659 12.5262 1.64573 12.6667 1.99935 12.6667H6.20602L5.57268 15.7133C5.55935 15.78 5.55268 15.8467 5.55268 15.92C5.55268 16.2 5.66602 16.4467 5.84602 16.6267L6.55268 17.3333L10.9393 12.94C11.186 12.7 11.3327 12.3667 11.3327 12V5.33333C11.3327 4.97971 11.1922 4.64057 10.9422 4.39052C10.6921 4.14048 10.353 4 9.99935 4Z" fill="#383D54"/>
</svg>
