<svg width="16" height="16" viewBox="0 0 16 16" fill="none" xmlns="http://www.w3.org/2000/svg">
<path d="M7.33398 8.66659V10.6666C7.33398 10.8555 7.39798 11.0139 7.52598 11.1419C7.65398 11.2699 7.81221 11.3337 8.00065 11.3333C8.18954 11.3333 8.34798 11.2693 8.47598 11.1413C8.60398 11.0133 8.66776 10.855 8.66732 10.6666V8.66659H10.6673C10.8562 8.66659 11.0147 8.60259 11.1427 8.47459C11.2707 8.34659 11.3344 8.18836 11.334 7.99992C11.334 7.81103 11.27 7.65259 11.142 7.52459C11.014 7.39659 10.8558 7.33281 10.6673 7.33325H8.66732V5.33325C8.66732 5.14436 8.60332 4.98592 8.47532 4.85792C8.34732 4.72992 8.1891 4.66614 8.00065 4.66659C7.81176 4.66659 7.65332 4.73059 7.52532 4.85859C7.39732 4.98659 7.33354 5.14481 7.33398 5.33325V7.33325H5.33398C5.1451 7.33325 4.98665 7.39725 4.85865 7.52525C4.73065 7.65325 4.66687 7.81147 4.66732 7.99992C4.66732 8.18881 4.73132 8.34725 4.85932 8.47525C4.98732 8.60325 5.14554 8.66703 5.33398 8.66659H7.33398ZM8.00065 14.6666C7.07843 14.6666 6.21176 14.4915 5.40065 14.1413C4.58954 13.791 3.88398 13.3161 3.28398 12.7166C2.68398 12.1166 2.2091 11.411 1.85932 10.5999C1.50954 9.78881 1.33443 8.92214 1.33398 7.99992C1.33398 7.0777 1.5091 6.21103 1.85932 5.39992C2.20954 4.58881 2.68443 3.88325 3.28398 3.28325C3.88398 2.68325 4.58954 2.20836 5.40065 1.85859C6.21176 1.50881 7.07843 1.3337 8.00065 1.33325C8.92287 1.33325 9.78954 1.50836 10.6007 1.85859C11.4118 2.20881 12.1173 2.6837 12.7173 3.28325C13.3173 3.88325 13.7924 4.58881 14.1427 5.39992C14.4929 6.21103 14.6678 7.0777 14.6673 7.99992C14.6673 8.92214 14.4922 9.78881 14.142 10.5999C13.7918 11.411 13.3169 12.1166 12.7173 12.7166C12.1173 13.3166 11.4118 13.7917 10.6007 14.1419C9.78954 14.4921 8.92287 14.667 8.00065 14.6666Z" fill="#383D54"/>
</svg>
