<svg width="24" height="24" viewBox="0 0 24 24" fill="none" xmlns="http://www.w3.org/2000/svg">
<rect width="24" height="24" rx="12" fill="#F5F5F5"/>
<path d="M16.2943 13.8137C16.5419 13.5662 16.5419 13.1671 16.2943 12.9195L12.0962 8.72133C12.0494 8.6745 11.9939 8.63734 11.9328 8.61199C11.8717 8.58664 11.8062 8.57359 11.74 8.57359C11.6738 8.57359 11.6083 8.58664 11.5472 8.61199C11.4861 8.63734 11.4306 8.6745 11.3838 8.72133L7.18566 12.9195C6.93811 13.1671 6.93811 13.5662 7.18566 13.8137C7.43321 14.0613 7.83231 14.0613 8.07986 13.8137L11.7425 10.1561L15.4052 13.8188C15.6477 14.0613 16.0518 14.0613 16.2943 13.8137Z" fill="#5C6476"/>
</svg>
