<svg width="16" height="16" viewBox="0 0 16 16" fill="none" xmlns="http://www.w3.org/2000/svg">
<path d="M8.03672 8.05527C7.15672 8.05527 6.40339 7.74194 5.77672 7.11527C5.15005 6.48861 4.83672 5.73527 4.83672 4.85527C4.83672 3.97527 5.15005 3.22194 5.77672 2.59527C6.40339 1.96861 7.15672 1.65527 8.03672 1.65527C8.91672 1.65527 9.67005 1.96861 10.2967 2.59527C10.9234 3.22194 11.2367 3.97527 11.2367 4.85527C11.2367 5.73527 10.9234 6.48861 10.2967 7.11527C9.67005 7.74194 8.91672 8.05527 8.03672 8.05527ZM3.23672 14.4553C2.79672 14.4553 2.41992 14.2985 2.10632 13.9849C1.79272 13.6713 1.63619 13.2947 1.63672 12.8553V12.2153C1.63672 11.7619 1.75352 11.3451 1.98712 10.9649C2.22072 10.5846 2.53059 10.2947 2.91672 10.0953C3.74339 9.68194 4.58339 9.3718 5.43672 9.16487C6.29005 8.95794 7.15672 8.85474 8.03672 8.85527C8.91672 8.85527 9.78339 8.95874 10.6367 9.16567C11.4901 9.3726 12.3301 9.68247 13.1567 10.0953C13.5434 10.2953 13.8535 10.5854 14.0871 10.9657C14.3207 11.3459 14.4373 11.7625 14.4367 12.2153V12.8553C14.4367 13.2953 14.2799 13.6721 13.9663 13.9857C13.6527 14.2993 13.2762 14.4558 12.8367 14.4553H3.23672Z" fill="#383D54"/>
</svg>
