<svg width="24" height="24" viewBox="0 0 24 24" fill="none" xmlns="http://www.w3.org/2000/svg">
<g clip-path="url(#clip0_36_984)">
<path d="M8.95996 22.0013C9.48121 23.1735 10.6371 24 12.0012 24C13.3654 24 14.5212 23.1735 15.0425 22.0013C14.0806 22.0484 13.0803 22.08 12.0012 22.08C10.9222 22.08 9.92189 22.0483 8.95996 22.0013Z" fill="#5C6476"/>
<path d="M22.5887 16.92C21.3234 15.3245 19.1999 12.1882 19.1999 9.12C19.1999 6.07776 17.2454 3.34078 14.3999 2.3347C14.3654 1.04062 13.3017 0 12.0009 0C10.6991 0 9.63641 1.04062 9.60182 2.3347C6.75543 3.34078 4.80088 6.07776 4.80088 9.12C4.80088 12.1891 2.67833 15.3245 1.4121 16.92C0.989708 17.4528 0.859114 18.1565 1.06363 18.8025C1.26332 19.4332 1.76057 19.9219 2.39418 20.1082C3.50394 20.4355 5.32311 20.8042 8.09755 20.9923C9.29849 21.0729 10.5897 21.12 12.0009 21.12C13.4112 21.12 14.7024 21.0729 15.9033 20.9923C18.6787 20.8042 20.4969 20.4355 21.6076 20.1082C22.2412 19.9219 22.7376 19.4333 22.9372 18.8025C23.1417 18.1565 23.0102 17.4528 22.5887 16.92Z" fill="#5C6476"/>
</g>
<defs>
<clipPath id="clip0_36_984">
<rect width="24" height="24" fill="white"/>
</clipPath>
</defs>
</svg>
