<svg width="16" height="16" viewBox="0 0 16 16" fill="none" xmlns="http://www.w3.org/2000/svg">
<g clip-path="url(#clip0_527_2675)">
<path d="M4.862 4.74733C4.60133 4.48667 4.60133 4.06533 4.862 3.80467C5.12267 3.544 5.544 3.544 5.80467 3.80467L7.33333 5.33333V0.666667C7.33333 0.298 7.63133 0 8 0C8.36867 0 8.66667 0.298 8.66667 0.666667V5.33333L10.1953 3.80467C10.456 3.544 10.8773 3.544 11.138 3.80467C11.3987 4.06533 11.3987 4.48667 11.138 4.74733L8.94267 6.94267C8.68467 7.20067 8.34533 7.33067 8.006 7.332L8 7.33333L7.994 7.332C7.65467 7.33067 7.31533 7.20067 7.05733 6.94267L4.862 4.74733ZM14 8H12C11.2647 8 10.6667 8.598 10.6667 9.33333C10.6667 10.0687 10.0687 10.6667 9.33333 10.6667H6.66667C5.93133 10.6667 5.33333 10.0687 5.33333 9.33333C5.33333 8.598 4.73533 8 4 8H2C0.897333 8 0 8.89733 0 10V12.6667C0 14.5047 1.49533 16 3.33333 16H12.6667C14.5047 16 16 14.5047 16 12.6667V10C16 8.89733 15.1027 8 14 8Z" fill="#383D54"/>
</g>
<defs>
<clipPath id="clip0_527_2675">
<rect width="16" height="16" fill="white"/>
</clipPath>
</defs>
</svg>
