<svg width="40" height="40" viewBox="0 0 40 40" fill="none" xmlns="http://www.w3.org/2000/svg">
<path d="M9.33333 21.3333H13.3333V24H9.33333V21.3333ZM16 24H20V21.3333H16V24ZM9.33333 29.3333H13.3333V26.6667H9.33333V29.3333ZM16 29.3333H20V26.6667H16V29.3333ZM9.33333 13.3333H13.3333V10.6667H9.33333V13.3333ZM16 13.3333H20V10.6667H16V13.3333ZM9.33333 18.6667H13.3333V16H9.33333V18.6667ZM16 18.6667H20V16H16V18.6667ZM36 14.6667V36H4V8C4 6.93913 4.42143 5.92172 5.17157 5.17157C5.92172 4.42143 6.93913 4 8 4H21.3333C22.3942 4 23.4116 4.42143 24.1618 5.17157C24.9119 5.92172 25.3333 6.93913 25.3333 8V10.6667H32C33.0609 10.6667 34.0783 11.0881 34.8284 11.8382C35.5786 12.5884 36 13.6058 36 14.6667ZM22.6667 8C22.6667 7.64638 22.5262 7.30724 22.2761 7.05719C22.0261 6.80714 21.687 6.66667 21.3333 6.66667H8C7.64638 6.66667 7.30724 6.80714 7.05719 7.05719C6.80714 7.30724 6.66667 7.64638 6.66667 8V33.3333H22.6667V8ZM33.3333 14.6667C33.3333 14.313 33.1929 13.9739 32.9428 13.7239C32.6928 13.4738 32.3536 13.3333 32 13.3333H25.3333V33.3333H33.3333V14.6667ZM28 24H30.6667V21.3333H28V24ZM28 29.3333H30.6667V26.6667H28V29.3333ZM28 18.6667H30.6667V16H28V18.6667Z" fill="#D9D9D9"/>
</svg>
