<svg width="14" height="14" viewBox="0 0 14 14" fill="none" xmlns="http://www.w3.org/2000/svg">
<path d="M13.7261 6.73367C13.7059 6.68937 13.2268 5.6257 12.1686 4.5675C10.7527 3.15383 8.96829 2.40625 6.99954 2.40625C5.03079 2.40625 3.24634 3.15383 1.83212 4.5675C0.773918 5.6257 0.294856 6.68937 0.272981 6.73367C0.235932 6.81767 0.216797 6.90847 0.216797 7.00027C0.216797 7.09208 0.235932 7.18288 0.272981 7.26688C0.293215 7.31172 0.772278 8.37484 1.83103 9.43305C3.24634 10.8467 5.03079 11.5938 6.99954 11.5938C8.96829 11.5938 10.7527 10.8467 12.1664 9.43305C13.2252 8.37484 13.7042 7.31172 13.7245 7.26688C13.7618 7.18299 13.7812 7.09225 13.7815 7.00045C13.7818 6.90864 13.7629 6.81778 13.7261 6.73367ZM11.2072 8.53836C10.0331 9.69445 8.61775 10.2812 6.99954 10.2812C5.38134 10.2812 3.96603 9.69445 2.79353 8.53781C2.33215 8.0813 1.93528 7.56391 1.61392 7C1.93538 6.43631 2.33224 5.91912 2.79353 5.46273C3.96657 4.30555 5.38134 3.71875 6.99954 3.71875C8.61775 3.71875 10.0325 4.30555 11.2056 5.46273C11.6669 5.91908 12.0638 6.43628 12.3852 7C12.0638 7.56388 11.6669 8.08126 11.2056 8.53781L11.2072 8.53836ZM6.99954 4.59375C6.52363 4.59375 6.05841 4.73487 5.6627 4.99928C5.267 5.26368 4.95858 5.63948 4.77646 6.07917C4.59434 6.51885 4.54668 7.00267 4.63953 7.46944C4.73237 7.9362 4.96155 8.36496 5.29807 8.70148C5.63459 9.038 6.06334 9.26717 6.53011 9.36001C6.99687 9.45286 7.48069 9.40521 7.92038 9.22308C8.36006 9.04096 8.73586 8.73255 9.00027 8.33684C9.26467 7.94113 9.40579 7.47591 9.40579 7C9.40507 6.36204 9.15132 5.75043 8.70022 5.29932C8.24912 4.84822 7.6375 4.59447 6.99954 4.59375ZM6.99954 8.09375C6.78322 8.09375 6.57175 8.0296 6.39189 7.90942C6.21202 7.78924 6.07183 7.61842 5.98905 7.41856C5.90627 7.2187 5.88461 6.99879 5.92681 6.78662C5.96901 6.57445 6.07318 6.37957 6.22615 6.2266C6.37911 6.07364 6.574 5.96947 6.78616 5.92727C6.99833 5.88506 7.21825 5.90672 7.4181 5.98951C7.61796 6.07229 7.78878 6.21248 7.90896 6.39235C8.02915 6.57221 8.09329 6.78368 8.09329 7C8.09329 7.29008 7.97806 7.56828 7.77294 7.7734C7.56782 7.97852 7.28962 8.09375 6.99954 8.09375Z" fill="#5C6476"/>
</svg>
