<svg width="16" height="16" viewBox="0 0 16 16" fill="none" xmlns="http://www.w3.org/2000/svg">
<g clip-path="url(#clip0_1753_211265)">
<path d="M15.6875 7.69562C15.6644 7.645 15.1169 6.42937 13.9075 5.22C12.2894 3.60437 10.25 2.75 8 2.75C5.75 2.75 3.71063 3.60437 2.09438 5.22C0.885001 6.42937 0.337501 7.645 0.312501 7.69562C0.270159 7.79162 0.248291 7.89539 0.248291 8.00031C0.248291 8.10523 0.270159 8.209 0.312501 8.305C0.335626 8.35625 0.883126 9.57125 2.09313 10.7806C3.71063 12.3963 5.75 13.25 8 13.25C10.25 13.25 12.2894 12.3963 13.905 10.7806C15.115 9.57125 15.6625 8.35625 15.6856 8.305C15.7283 8.20913 15.7505 8.10543 15.7508 8.00051C15.7511 7.89559 15.7295 7.79175 15.6875 7.69562ZM12.8088 9.75813C11.4669 11.0794 9.84938 11.75 8 11.75C6.15063 11.75 4.53313 11.0794 3.19313 9.7575C2.66584 9.23577 2.21228 8.64447 1.845 8C2.21238 7.35579 2.66594 6.76471 3.19313 6.24312C4.53375 4.92062 6.15063 4.25 8 4.25C9.84938 4.25 11.4663 4.92062 12.8069 6.24312C13.3341 6.76467 13.7877 7.35575 14.155 8C13.7877 8.64443 13.3341 9.23572 12.8069 9.7575L12.8088 9.75813ZM8 5.25C7.4561 5.25 6.92442 5.41128 6.47218 5.71346C6.01995 6.01563 5.66747 6.44512 5.45933 6.94762C5.25119 7.45012 5.19673 8.00305 5.30284 8.5365C5.40895 9.06995 5.67086 9.55995 6.05546 9.94454C6.44005 10.3291 6.93006 10.5911 7.4635 10.6972C7.99695 10.8033 8.54988 10.7488 9.05238 10.5407C9.55488 10.3325 9.98437 9.98005 10.2865 9.52782C10.5887 9.07558 10.75 8.5439 10.75 8C10.7492 7.27091 10.4592 6.57192 9.94363 6.05637C9.42809 5.54082 8.72909 5.25083 8 5.25ZM8 9.25C7.75277 9.25 7.5111 9.17669 7.30554 9.03934C7.09998 8.90199 6.93976 8.70676 6.84515 8.47835C6.75054 8.24995 6.72579 7.99861 6.77402 7.75614C6.82225 7.51366 6.9413 7.29093 7.11612 7.11612C7.29093 6.9413 7.51366 6.82225 7.75614 6.77402C7.99861 6.72579 8.24995 6.75054 8.47836 6.84515C8.70676 6.93976 8.90199 7.09998 9.03934 7.30554C9.17669 7.5111 9.25 7.75277 9.25 8C9.25 8.33152 9.11831 8.64946 8.88388 8.88388C8.64946 9.1183 8.33152 9.25 8 9.25Z" fill="#383D54"/>
<path d="M1 15L15 1" stroke="#383D54" stroke-width="1.5" stroke-linecap="round"/>
</g>
<defs>
<clipPath id="clip0_1753_211265">
<rect width="16" height="16" fill="white"/>
</clipPath>
</defs>
</svg>
