<svg width="24" height="25" viewBox="0 0 24 25" fill="none" xmlns="http://www.w3.org/2000/svg">
<rect x="0.5" y="1" width="23" height="23" rx="1.5" fill="#F5F5F5"/>
<path d="M10.0167 16.1456C9.79444 16.2767 9.56956 16.2843 9.342 16.1686C9.11444 16.0528 9.00044 15.8737 9 15.6313V9.36902C9 9.127 9.114 8.9479 9.342 8.83173C9.57 8.71557 9.79489 8.72323 10.0167 8.85473L15.45 11.9859C15.65 12.1069 15.75 12.2783 15.75 12.5002C15.75 12.722 15.65 12.8934 15.45 13.0144L10.0167 16.1456ZM10.3333 14.5271L13.8333 12.5002L10.3333 10.4732V14.5271Z" fill="#5C6476"/>
<rect x="0.5" y="1" width="23" height="23" rx="1.5" stroke="#D9D9D9"/>
</svg>
