<svg width="9" height="9" viewBox="0 0 9 9" fill="none" xmlns="http://www.w3.org/2000/svg">
<path d="M3.37541 3.75029C3.37929 3.45313 3.49907 3.16923 3.70921 2.95909C3.91935 2.74895 4.20325 2.62917 4.50041 2.62529C4.79757 2.62917 5.08146 2.74895 5.29161 2.95909C5.50175 3.16923 5.62152 3.45313 5.62541 3.75029C5.62152 4.04745 5.50175 4.33135 5.29161 4.54149C5.08146 4.75163 4.79757 4.8714 4.50041 4.87529C4.20325 4.8714 3.91935 4.75163 3.70921 4.54149C3.49907 4.33135 3.37929 4.04745 3.37541 3.75029ZM4.50041 7.12529L6.00041 7.50029V6.34529C5.54804 6.61771 5.02842 6.75801 4.50041 6.75029C3.9724 6.75801 3.45278 6.61771 3.00041 6.34529V7.50029M4.50041 1.50029C4.20489 1.4949 3.9114 1.55 3.63797 1.66221C3.36454 1.77442 3.11694 1.94137 2.91041 2.15279C2.6967 2.35955 2.52782 2.60808 2.41428 2.8829C2.30073 3.15773 2.24495 3.45298 2.25041 3.75029C2.2465 4.04571 2.30303 4.33882 2.41653 4.6116C2.53003 4.88438 2.69809 5.13108 2.91041 5.33654C3.11598 5.54999 3.36314 5.71903 3.63662 5.83319C3.9101 5.94735 4.20408 6.00423 4.50041 6.00029C4.79673 6.00423 5.09072 5.94735 5.36419 5.83319C5.63767 5.71903 5.88483 5.54999 6.09041 5.33654C6.30272 5.13108 6.47079 4.88438 6.58429 4.6116C6.69778 4.33882 6.75431 4.04571 6.75041 3.75029C6.75586 3.45298 6.70008 3.15773 6.58654 2.8829C6.47299 2.60808 6.30411 2.35955 6.09041 2.15279C5.88387 1.94137 5.63628 1.77442 5.36284 1.66221C5.08941 1.55 4.79592 1.4949 4.50041 1.50029ZM7.50041 3.75029C7.49242 4.11024 7.42003 4.46586 7.28666 4.80029C7.1665 5.14057 6.98472 5.45583 6.75041 5.73029V8.3478C6.75041 8.48431 6.61667 8.58071 6.48716 8.53754L4.50041 7.87529L2.51365 8.53754C2.38415 8.58071 2.25041 8.48431 2.25041 8.3478V5.73029C1.76504 5.18521 1.49797 4.48014 1.50041 3.75029C1.4938 3.35676 1.56792 2.96605 1.7182 2.60228C1.86848 2.23851 2.09173 1.90941 2.37416 1.63529C2.64929 1.35033 2.97992 1.12478 3.34562 0.972562C3.71132 0.820348 4.10433 0.744701 4.50041 0.750288C4.89648 0.744701 5.2895 0.820348 5.6552 0.972562C6.0209 1.12478 6.35152 1.35033 6.62666 1.63529C6.90909 1.90941 7.13233 2.23851 7.28261 2.60228C7.43289 2.96605 7.50702 3.35676 7.50041 3.75029Z" fill="#5C6476"/>
</svg>
