<svg width="11" height="11" viewBox="0 0 11 11" fill="none" xmlns="http://www.w3.org/2000/svg">
<path d="M4.12517 4.58304C4.12992 4.21984 4.27631 3.87285 4.53315 3.61601C4.78999 3.35917 5.13698 3.21278 5.50017 3.20803C5.86337 3.21278 6.21035 3.35917 6.46719 3.61601C6.72403 3.87285 6.87042 4.21984 6.87517 4.58304C6.87042 4.94623 6.72403 5.29322 6.46719 5.55006C6.21035 5.8069 5.86337 5.95329 5.50017 5.95803C5.13698 5.95329 4.78999 5.8069 4.53315 5.55006C4.27631 5.29322 4.12992 4.94623 4.12517 4.58304ZM5.50017 8.70803L7.33351 9.16637V7.7547C6.78061 8.08766 6.14552 8.25914 5.50017 8.2497C4.85483 8.25914 4.21974 8.08766 3.66684 7.7547V9.16637M5.50017 1.83303C5.13899 1.82644 4.78028 1.89379 4.44608 2.03094C4.11189 2.16809 3.80927 2.37213 3.55684 2.63053C3.29564 2.88325 3.08923 3.187 2.95046 3.5229C2.81168 3.8588 2.74351 4.21966 2.75017 4.58304C2.7454 4.94411 2.81449 5.30235 2.95321 5.63575C3.09193 5.96915 3.29734 6.27067 3.55684 6.52179C3.80809 6.78268 4.11018 6.98927 4.44443 7.1288C4.77868 7.26834 5.138 7.33785 5.50017 7.33304C5.86235 7.33785 6.22166 7.26834 6.55591 7.1288C6.89016 6.98927 7.19225 6.78268 7.44351 6.52179C7.703 6.27067 7.90842 5.96915 8.04713 5.63575C8.18585 5.30235 8.25495 4.94411 8.25017 4.58304C8.25684 4.21966 8.18866 3.8588 8.04989 3.5229C7.91111 3.187 7.7047 2.88325 7.44351 2.63053C7.19107 2.37213 6.88846 2.16809 6.55426 2.03094C6.22007 1.89379 5.86135 1.82644 5.50017 1.83303ZM9.16684 4.58304C9.15708 5.02298 9.0686 5.45762 8.90559 5.86637C8.75873 6.28227 8.53655 6.66758 8.25017 7.00304V10.2639C8.25017 10.4004 8.11643 10.4968 7.98693 10.4536L5.50017 9.6247L3.01342 10.4536C2.88391 10.4968 2.75017 10.4004 2.75017 10.2639V7.00304C2.15695 6.33683 1.83053 5.47508 1.8335 4.58304C1.82543 4.10205 1.91602 3.62452 2.0997 3.17992C2.28337 2.73531 2.55623 2.33307 2.90142 1.99803C3.2377 1.64975 3.6418 1.37407 4.08876 1.18804C4.53573 1.002 5.01608 0.909539 5.50017 0.916368C5.98426 0.909539 6.46461 1.002 6.91158 1.18804C7.35855 1.37407 7.76264 1.64975 8.09892 1.99803C8.44411 2.33307 8.71697 2.73531 8.90065 3.17992C9.08432 3.62452 9.17492 4.10205 9.16684 4.58304Z" fill="#5C6476"/>
</svg>
