<svg width="16" height="18" viewBox="0 0 16 18" fill="none" xmlns="http://www.w3.org/2000/svg">
<path d="M10.4762 5.23301H10.003L10.1918 4.10044L10.4807 4.10115V4.09967V4.0414L10.6695 4.07287L10.4762 5.23301ZM10.6408 2.85153L10.4807 2.82484V2.66241C10.5114 2.68991 10.5403 2.71957 10.5671 2.75119C10.594 2.78298 10.6186 2.81651 10.6408 2.85153ZM9.13798 2.51503V3.00442C9.05792 3.03329 8.9798 3.06799 8.90427 3.10838C8.82862 3.14883 8.75625 3.1946 8.68768 3.24525L8.28071 2.97394C8.4041 2.86757 8.53917 2.7747 8.68383 2.69728C8.82863 2.61979 8.98096 2.5588 9.13798 2.51503ZM7.54691 3.92696L7.9346 4.18542L6.92295 5.7029L6.53482 5.44409L7.54691 3.92696ZM5.88732 6.45465L6.15819 6.63527C6.11572 6.6637 6.07178 6.6901 6.0265 6.71433C5.9811 6.73862 5.93465 6.7606 5.88732 6.78022V6.45465ZM4.68732 6.43301V6.89967H4.10065V6.66634V6.43301H4.68732ZM2.66732 8.09967H2.90065V11.3997H2.43398V8.09967H2.66732ZM2.55343 12.5997H3.07869C3.12011 12.6633 3.16832 12.723 3.22283 12.7775C3.27735 12.832 3.337 12.8802 3.40065 12.9216V13.4469C3.21254 13.3689 3.03963 13.2543 2.89285 13.1075C2.74607 12.9607 2.63142 12.7878 2.55343 12.5997ZM4.60065 13.5663V13.0997H10.974V13.5663H4.60065ZM12.174 13.4469V12.9219C12.2076 12.9 12.2402 12.8762 12.2715 12.8506L12.174 12.7316L12.2715 12.8506C12.3029 12.8249 12.3327 12.7975 12.3608 12.7688L12.8756 12.8717C12.7906 12.9984 12.687 13.113 12.5673 13.2112C12.4476 13.3093 12.3149 13.3885 12.174 13.4469ZM13.228 11.7184L12.7707 11.6269L13.3353 8.80365L13.7926 8.89507L13.228 11.7184ZM13.9108 7.69494L13.396 7.59203C13.3543 7.48738 13.2966 7.38949 13.2247 7.30193C13.1531 7.21467 13.0687 7.13919 12.9747 7.07792V6.55272C12.9982 6.56248 13.0214 6.57281 13.0445 6.58373C13.2539 6.6829 13.4388 6.82731 13.5857 7.00653L14.0497 6.62618L13.5857 7.00653C13.7326 7.18576 13.8379 7.39534 13.894 7.62018C13.9002 7.64499 13.9058 7.66991 13.9108 7.69494ZM11.4927 6.43301H11.774V6.89967H11.4149L11.4927 6.43301Z" fill="#383D54" stroke="#383D54" stroke-width="1.2"/>
<path d="M5.33398 6.66602V13.3327V6.66602Z" fill="#383D54"/>
<path d="M5.33398 6.66602V13.3327" stroke="#383D54" stroke-width="1.2"/>
</svg>
