<svg width="96" height="96" viewBox="0 0 96 96" fill="none" xmlns="http://www.w3.org/2000/svg">
<g clip-path="url(#clip0_2276_207355)">
<path d="M24 0C20.8174 0 17.7652 1.26428 15.5147 3.51472C13.2643 5.76516 12 8.8174 12 12V18.798L6.354 21.81C4.43448 22.8335 2.82929 24.3595 1.71008 26.2249C0.590884 28.0902 -0.00021748 30.2247 6.00234e-08 32.4V84C6.00234e-08 87.1826 1.26428 90.2348 3.51472 92.4853C5.76516 94.7357 8.8174 96 12 96H84C87.1826 96 90.2348 94.7357 92.4853 92.4853C94.7357 90.2348 96 87.1826 96 84V32.4C96.0002 30.2247 95.4091 28.0902 94.2899 26.2249C93.1707 24.3595 91.5655 22.8335 89.646 21.81L84 18.798V12C84 8.8174 82.7357 5.76516 80.4853 3.51472C78.2348 1.26428 75.1826 0 72 0L24 0ZM84 25.602L86.82 27.102C87.7808 27.6136 88.5843 28.3769 89.1444 29.3102C89.7046 30.2434 90.0004 31.3115 90 32.4V37.302L84 40.902V25.602ZM78 44.502L55.5 58.002L48 53.502L40.5 58.002L18 44.502V12C18 10.4087 18.6321 8.88258 19.7574 7.75736C20.8826 6.63214 22.4087 6 24 6H72C73.5913 6 75.1174 6.63214 76.2426 7.75736C77.3679 8.88258 78 10.4087 78 12V44.502ZM12 40.902L6 37.302V32.4C6.00073 31.3125 6.29698 30.2457 6.8571 29.3136C7.41722 28.3815 8.22013 27.6191 9.18 27.108L12 25.602V40.902ZM90 44.298V78.702L61.332 61.5L90 44.298ZM89.79 85.578C89.4437 86.8482 88.6893 87.9693 87.643 88.7684C86.5967 89.5675 85.3166 90.0003 84 90H12C10.6826 89.9999 9.40194 89.5663 8.35552 88.766C7.30911 87.9657 6.55515 86.8433 6.21 85.572L48 60.498L89.79 85.578ZM6 78.696V44.298L34.668 61.5L6 78.696Z" fill="#3670F0"/>
</g>
<defs>
<clipPath id="clip0_2276_207355">
<rect width="96" height="96" fill="white"/>
</clipPath>
</defs>
</svg>
