<svg width="25" height="24" viewBox="0 0 25 24" fill="none" xmlns="http://www.w3.org/2000/svg">
<path d="M11.4395 1.9313C6.48074 1.9313 2.44141 5.97063 2.44141 10.9294C2.44141 15.8881 6.48074 19.9353 11.4395 19.9353C13.5575 19.9353 15.5054 19.193 17.0449 17.9606L20.793 21.7067C20.9821 21.888 21.2347 21.988 21.4967 21.9854C21.7587 21.9827 22.0093 21.8775 22.1947 21.6924C22.3801 21.5073 22.4856 21.2569 22.4886 20.9949C22.4917 20.7329 22.392 20.4802 22.2109 20.2908L18.4629 16.5427C19.6963 15.0008 20.4395 13.0498 20.4395 10.9294C20.4395 5.97063 16.3982 1.9313 11.4395 1.9313ZM11.4395 3.93134C15.3173 3.93134 18.4375 7.05153 18.4375 10.9294C18.4375 14.8072 15.3173 17.9352 11.4395 17.9352C7.56162 17.9352 4.44141 14.8072 4.44141 10.9294C4.44141 7.05153 7.56162 3.93134 11.4395 3.93134Z" fill="#5C6476"/>
</svg>
