<svg width="24" height="25" viewBox="0 0 24 25" fill="none" xmlns="http://www.w3.org/2000/svg">
<g clip-path="url(#clip0_548_8778)">
<path d="M4 13.5H7V15.5H4V13.5ZM9 15.5H12V13.5H9V15.5ZM4 19.5H7V17.5H4V19.5ZM9 19.5H12V17.5H9V19.5ZM4 7.5H7V5.5H4V7.5ZM9 7.5H12V5.5H9V7.5ZM4 11.5H7V9.5H4V11.5ZM9 11.5H12V9.5H9V11.5ZM24 8.5V24.5H0V3.5C0 2.70435 0.31607 1.94129 0.87868 1.37868C1.44129 0.81607 2.20435 0.5 3 0.5L13 0.5C13.7956 0.5 14.5587 0.81607 15.1213 1.37868C15.6839 1.94129 16 2.70435 16 3.5V5.5H21C21.7956 5.5 22.5587 5.81607 23.1213 6.37868C23.6839 6.94129 24 7.70435 24 8.5ZM14 3.5C14 3.23478 13.8946 2.98043 13.7071 2.79289C13.5196 2.60536 13.2652 2.5 13 2.5H3C2.73478 2.5 2.48043 2.60536 2.29289 2.79289C2.10536 2.98043 2 3.23478 2 3.5V22.5H14V3.5ZM22 8.5C22 8.23478 21.8946 7.98043 21.7071 7.79289C21.5196 7.60536 21.2652 7.5 21 7.5H16V22.5H22V8.5ZM18 15.5H20V13.5H18V15.5ZM18 19.5H20V17.5H18V19.5ZM18 11.5H20V9.5H18V11.5Z" fill="#383D54"/>
</g>
<defs>
<clipPath id="clip0_548_8778">
<rect width="24" height="24" fill="white" transform="translate(0 0.5)"/>
</clipPath>
</defs>
</svg>
