<svg width="24" height="25" viewBox="0 0 24 25" fill="none" xmlns="http://www.w3.org/2000/svg">
<g clip-path="url(#clip0_548_8764)">
<path d="M18 0.5H8C7.02823 0.501278 6.0779 0.785705 5.26521 1.3185C4.45252 1.85129 3.81271 2.60936 3.424 3.5H2C1.73478 3.5 1.48043 3.60536 1.29289 3.79289C1.10536 3.98043 1 4.23478 1 4.5C1 4.76522 1.10536 5.01957 1.29289 5.20711C1.48043 5.39464 1.73478 5.5 2 5.5H3V7.5H2C1.73478 7.5 1.48043 7.60536 1.29289 7.79289C1.10536 7.98043 1 8.23478 1 8.5C1 8.76522 1.10536 9.01957 1.29289 9.20711C1.48043 9.39464 1.73478 9.5 2 9.5H3V11.5H2C1.73478 11.5 1.48043 11.6054 1.29289 11.7929C1.10536 11.9804 1 12.2348 1 12.5C1 12.7652 1.10536 13.0196 1.29289 13.2071C1.48043 13.3946 1.73478 13.5 2 13.5H3V15.5H2C1.73478 15.5 1.48043 15.6054 1.29289 15.7929C1.10536 15.9804 1 16.2348 1 16.5C1 16.7652 1.10536 17.0196 1.29289 17.2071C1.48043 17.3946 1.73478 17.5 2 17.5H3V19.5H2C1.73478 19.5 1.48043 19.6054 1.29289 19.7929C1.10536 19.9804 1 20.2348 1 20.5C1 20.7652 1.10536 21.0196 1.29289 21.2071C1.48043 21.3946 1.73478 21.5 2 21.5H3.424C3.81271 22.3906 4.45252 23.1487 5.26521 23.6815C6.0779 24.2143 7.02823 24.4987 8 24.5H18C19.3256 24.4984 20.5964 23.9711 21.5338 23.0338C22.4711 22.0964 22.9984 20.8256 23 19.5V5.5C22.9984 4.1744 22.4711 2.90356 21.5338 1.96622C20.5964 1.02888 19.3256 0.501588 18 0.5ZM21 19.5C21 20.2956 20.6839 21.0587 20.1213 21.6213C19.5587 22.1839 18.7956 22.5 18 22.5H8C7.20435 22.5 6.44129 22.1839 5.87868 21.6213C5.31607 21.0587 5 20.2956 5 19.5V5.5C5 4.70435 5.31607 3.94129 5.87868 3.37868C6.44129 2.81607 7.20435 2.5 8 2.5H18C18.7956 2.5 19.5587 2.81607 20.1213 3.37868C20.6839 3.94129 21 4.70435 21 5.5V19.5ZM13 12.5C13.7956 12.5 14.5587 12.1839 15.1213 11.6213C15.6839 11.0587 16 10.2956 16 9.5C16 8.70435 15.6839 7.94129 15.1213 7.37868C14.5587 6.81607 13.7956 6.5 13 6.5C12.2044 6.5 11.4413 6.81607 10.8787 7.37868C10.3161 7.94129 10 8.70435 10 9.5C10 10.2956 10.3161 11.0587 10.8787 11.6213C11.4413 12.1839 12.2044 12.5 13 12.5ZM18 18.5C18 18.7652 17.8946 19.0196 17.7071 19.2071C17.5196 19.3946 17.2652 19.5 17 19.5C16.7348 19.5 16.4804 19.3946 16.2929 19.2071C16.1054 19.0196 16 18.7652 16 18.5C16 17.7044 15.6839 16.9413 15.1213 16.3787C14.5587 15.8161 13.7956 15.5 13 15.5C12.2044 15.5 11.4413 15.8161 10.8787 16.3787C10.3161 16.9413 10 17.7044 10 18.5C10 18.7652 9.89464 19.0196 9.70711 19.2071C9.51957 19.3946 9.26522 19.5 9 19.5C8.73478 19.5 8.48043 19.3946 8.29289 19.2071C8.10536 19.0196 8 18.7652 8 18.5C8.211 11.892 17.791 11.894 18 18.5Z" fill="#383D54"/>
</g>
<defs>
<clipPath id="clip0_548_8764">
<rect width="24" height="24" fill="white" transform="translate(0 0.5)"/>
</clipPath>
</defs>
</svg>
