<svg width="24" height="25" viewBox="0 0 24 25" fill="none" xmlns="http://www.w3.org/2000/svg">
<g clip-path="url(#clip0_548_8757)">
<path d="M24 12.5C24 10.874 23.286 9.34 22.075 8.376C22.215 6.754 21.635 5.165 20.485 4.014C19.335 2.865 17.751 2.283 16.208 2.459C15.16 1.214 13.626 0.5 12 0.5C10.374 0.5 8.84 1.214 7.876 2.425C6.252 2.285 4.664 2.864 3.514 4.015C2.364 5.165 1.785 6.755 1.959 8.292C0.714 9.34 0 10.874 0 12.5C0 14.126 0.714 15.66 1.925 16.624C1.785 18.246 2.365 19.836 3.515 20.986C4.665 22.137 6.259 22.718 7.792 22.541C8.84 23.786 10.374 24.5 12 24.5C13.626 24.5 15.16 23.786 16.124 22.575C17.742 22.714 19.334 22.136 20.485 20.985C21.634 19.835 22.214 18.245 22.04 16.708C23.286 15.66 24 14.126 24 12.5ZM20.753 15.178C20.274 15.581 20.029 16.171 20.083 16.795C20.171 17.828 19.803 18.84 19.071 19.571C18.339 20.303 17.329 20.67 16.295 20.583C15.669 20.532 15.082 20.774 14.679 21.253C14.011 22.046 13.035 22.501 12 22.501C10.965 22.501 9.989 22.046 9.321 21.253C8.954 20.818 8.434 20.577 7.874 20.577C7.818 20.577 7.761 20.579 7.705 20.584C6.678 20.673 5.661 20.304 4.929 19.572C4.198 18.84 3.829 17.828 3.918 16.796C3.971 16.172 3.728 15.584 3.248 15.179C2.455 14.512 2 13.535 2 12.501C2 11.467 2.455 10.49 3.248 9.822C3.727 9.418 3.971 8.829 3.917 8.205C3.829 7.173 4.197 6.161 4.929 5.429C5.661 4.698 6.673 4.332 7.705 4.418C8.326 4.467 8.917 4.227 9.322 3.748C9.989 2.955 10.966 2.5 12 2.5C13.034 2.5 14.011 2.955 14.679 3.748C15.082 4.226 15.67 4.474 16.296 4.417C17.321 4.333 18.339 4.697 19.071 5.429C19.802 6.16 20.171 7.173 20.083 8.205C20.029 8.829 20.273 9.418 20.753 9.822C21.545 10.489 22 11.466 22 12.5C22 13.534 21.545 14.511 20.753 15.178ZM16 14.5C16 16.154 14.654 17.5 13 17.5V18.5C13 19.052 12.552 19.5 12 19.5C11.448 19.5 11 19.052 11 18.5V17.5H10.732C9.664 17.5 8.669 16.926 8.134 16.001C7.858 15.523 8.021 14.912 8.499 14.635C8.976 14.358 9.588 14.522 9.865 15C10.043 15.308 10.376 15.5 10.732 15.5H13C13.552 15.5 14 15.051 14 14.5C14 14.122 13.729 13.802 13.356 13.74L10.314 13.233C8.973 13.01 7.999 11.86 7.999 10.5C7.999 8.846 9.345 7.5 10.999 7.5V6.5C10.999 5.948 11.447 5.5 11.999 5.5C12.551 5.5 12.999 5.948 12.999 6.5V7.5H13.267C14.334 7.5 15.33 8.075 15.865 9C16.142 9.478 15.978 10.089 15.501 10.366C15.021 10.642 14.409 10.479 14.135 10.001C13.956 9.692 13.624 9.501 13.268 9.501H11C10.449 9.501 10 9.95 10 10.501C10 10.879 10.271 11.199 10.644 11.261L13.685 11.768C15.027 11.991 16 13.141 16 14.501V14.5Z" fill="#383D54"/>
</g>
<defs>
<clipPath id="clip0_548_8757">
<rect width="24" height="24" fill="white" transform="translate(0 0.5)"/>
</clipPath>
</defs>
</svg>
