<svg width="16" height="16" viewBox="0 0 16 16" fill="none" xmlns="http://www.w3.org/2000/svg">
<path d="M13.5983 4.42432L14.1666 4.06912V12.0003C14.1666 12.4575 13.7904 12.8337 13.3333 12.8337H2.66659C2.20939 12.8337 1.83325 12.4575 1.83325 12.0003V4.06912L2.40159 4.42432L7.73492 7.75766L7.99992 7.92328L8.26492 7.75766L13.5983 4.42432ZM13.9981 3.50033H13.3333H2.66659H2.00174C2.15441 3.29842 2.39634 3.16699 2.66659 3.16699H13.3333C13.6035 3.16699 13.8454 3.29842 13.9981 3.50033ZM13.3333 12.5003H13.8333V12.0003V5.33366V4.43154L13.0683 4.90966L7.99992 8.07737L2.93158 4.90966L2.16659 4.43154V5.33366V12.0003V12.5003H2.66659H13.3333Z" fill="#383D54" stroke="#383D54"/>
</svg>
