<svg width="24" height="24" viewBox="0 0 24 24" fill="none" xmlns="http://www.w3.org/2000/svg">
<path d="M12 12.0004C12.9493 12.0004 13.8773 11.7189 14.6667 11.1914C15.456 10.664 16.0713 9.91436 16.4346 9.03727C16.7979 8.16019 16.8929 7.19507 16.7077 6.26396C16.5225 5.33285 16.0654 4.47757 15.3941 3.80628C14.7228 3.13499 13.8675 2.67783 12.9364 2.49262C12.0053 2.30741 11.0402 2.40247 10.1631 2.76577C9.28599 3.12907 8.53633 3.7443 8.0089 4.53366C7.48147 5.32301 7.19995 6.25104 7.19995 7.20039C7.20122 8.47304 7.70734 9.6932 8.60724 10.5931C9.50714 11.493 10.7273 11.9991 12 12.0004ZM12 4.00039C12.6329 4.00039 13.2515 4.18807 13.7778 4.53969C14.304 4.89131 14.7142 5.39108 14.9564 5.97581C15.1986 6.56053 15.2619 7.20394 15.1385 7.82468C15.015 8.44542 14.7102 9.01561 14.2627 9.46313C13.8152 9.91066 13.245 10.2154 12.6242 10.3389C12.0035 10.4624 11.3601 10.399 10.7754 10.1568C10.1906 9.91461 9.69087 9.50445 9.33925 8.97822C8.98763 8.45198 8.79995 7.83329 8.79995 7.20039C8.79995 6.3517 9.13709 5.53777 9.73721 4.93765C10.3373 4.33753 11.1513 4.00039 12 4.00039Z" fill="#383D54"/>
<path d="M12 13.5996C10.0911 13.6017 8.26102 14.361 6.91122 15.7108C5.56142 17.0606 4.80217 18.8907 4.80005 20.7996C4.80005 21.0118 4.88433 21.2153 5.03436 21.3653C5.18439 21.5153 5.38788 21.5996 5.60005 21.5996C5.81222 21.5996 6.0157 21.5153 6.16573 21.3653C6.31576 21.2153 6.40005 21.0118 6.40005 20.7996C6.40005 19.3144 6.99005 17.89 8.04025 16.8398C9.09045 15.7896 10.5148 15.1996 12 15.1996C13.4853 15.1996 14.9096 15.7896 15.9598 16.8398C17.0101 17.89 17.6 19.3144 17.6 20.7996C17.6 21.0118 17.6843 21.2153 17.8344 21.3653C17.9844 21.5153 18.1879 21.5996 18.4 21.5996C18.6122 21.5996 18.8157 21.5153 18.9657 21.3653C19.1158 21.2153 19.2 21.0118 19.2 20.7996C19.1979 18.8907 18.4387 17.0606 17.0889 15.7108C15.7391 14.361 13.909 13.6017 12 13.5996Z" fill="#383D54"/>
</svg>
