<svg width="16" height="16" viewBox="0 0 16 16" fill="none" xmlns="http://www.w3.org/2000/svg">
<path d="M1.55653 6.8906C1.5097 6.8474 1.47623 6.79168 1.46009 6.73005C1.44395 6.66841 1.44581 6.60345 1.46545 6.54284C1.4851 6.48223 1.5217 6.42852 1.57092 6.38807C1.62014 6.34762 1.67993 6.32212 1.74319 6.3146L5.74586 5.83993C5.80257 5.83332 5.85662 5.81225 5.90285 5.77875C5.94908 5.74524 5.98593 5.70043 6.00986 5.6486L7.69786 1.9886C7.72454 1.93078 7.76723 1.88181 7.82086 1.84749C7.8745 1.81316 7.93685 1.79492 8.00053 1.79492C8.06421 1.79492 8.12656 1.81316 8.18019 1.84749C8.23383 1.88181 8.27652 1.93078 8.30319 1.9886L9.9912 5.6486C10.015 5.70038 10.0518 5.74517 10.0979 5.77867C10.144 5.81218 10.1979 5.83327 10.2545 5.83993L14.2572 6.3146C14.3205 6.32212 14.3802 6.34762 14.4295 6.38807C14.4787 6.42852 14.5153 6.48223 14.5349 6.54284C14.5546 6.60345 14.5564 6.66841 14.5403 6.73005C14.5242 6.79168 14.4907 6.8474 14.4439 6.8906L11.4852 9.62727C11.4435 9.666 11.4124 9.71477 11.3949 9.76891C11.3774 9.82306 11.3741 9.88079 11.3852 9.9366L12.1699 13.8899C12.1824 13.9524 12.1767 14.0172 12.1534 14.0766C12.1302 14.136 12.0905 14.1874 12.0389 14.2249C11.9873 14.2624 11.9261 14.2843 11.8625 14.288C11.7988 14.2917 11.7355 14.2771 11.6799 14.2459L8.16319 12.2773C8.1135 12.2494 8.05749 12.2348 8.00053 12.2348C7.94356 12.2348 7.88755 12.2494 7.83786 12.2773L4.32053 14.2453C4.26499 14.2764 4.2017 14.291 4.13814 14.2873C4.07458 14.2836 4.01341 14.2617 3.96186 14.2243C3.91032 14.187 3.87056 14.1356 3.84729 14.0763C3.82401 14.0171 3.8182 13.9524 3.83053 13.8899L4.61586 9.9366C4.62698 9.88079 4.62363 9.82306 4.60613 9.76891C4.58862 9.71477 4.55755 9.666 4.51586 9.62727L1.55653 6.8906Z" stroke="#3670F0" stroke-width="1.33333" stroke-linecap="round" stroke-linejoin="round"/>
</svg>
