<svg width="24" height="24" viewBox="0 0 24 24" fill="none" xmlns="http://www.w3.org/2000/svg">
<path d="M11.1999 2.40039H4.7999C4.16338 2.40039 3.55293 2.65325 3.10285 3.10333C2.65276 3.55342 2.3999 4.16387 2.3999 4.80039L2.3999 21.6004H13.5999V4.80039C13.5999 4.16387 13.347 3.55342 12.897 3.10333C12.4469 2.65325 11.8364 2.40039 11.1999 2.40039ZM7.1999 17.6004H4.7999V16.0004H7.1999V17.6004ZM7.1999 14.4004H4.7999V12.8004H7.1999V14.4004ZM7.1999 11.2004H4.7999V9.60039H7.1999V11.2004ZM7.1999 8.00039H4.7999V6.40039H7.1999V8.00039ZM11.1999 17.6004H8.7999V16.0004H11.1999V17.6004ZM11.1999 14.4004H8.7999V12.8004H11.1999V14.4004ZM11.1999 11.2004H8.7999V9.60039H11.1999V11.2004ZM11.1999 8.00039H8.7999V6.40039H11.1999V8.00039ZM19.1999 6.40039H15.1999V21.6004H21.5999V8.80039C21.5999 8.16387 21.347 7.55342 20.897 7.10333C20.4469 6.65325 19.8364 6.40039 19.1999 6.40039ZM19.1999 17.6004H17.5999V16.0004H19.1999V17.6004ZM19.1999 14.4004H17.5999V12.8004H19.1999V14.4004ZM19.1999 11.2004H17.5999V9.60039H19.1999V11.2004Z" fill="#3670F0"/>
</svg>
