<svg width="24" height="24" viewBox="0 0 24 24" fill="none" xmlns="http://www.w3.org/2000/svg">
<g clip-path="url(#clip0_2347_241690)">
<path d="M12 0C10.35 0 9 1.35 9 3V21C9 22.65 10.35 24 12 24C13.65 24 15 22.65 15 21V3C15 1.35 13.65 0 12 0ZM13 21C13 21.55 12.55 22 12 22C11.45 22 11 21.55 11 21V3C11 2.45 11.45 2 12 2C12.55 2 13 2.45 13 3V21ZM21 6C19.35 6 18 7.35 18 9V21C18 22.65 19.35 24 21 24C22.65 24 24 22.65 24 21V9C24 7.35 22.65 6 21 6ZM22 21C22 21.55 21.55 22 21 22C20.45 22 20 21.55 20 21V9C20 8.45 20.45 8 21 8C21.55 8 22 8.45 22 9V21ZM3 12C1.35 12 0 13.35 0 15V21C0 22.65 1.35 24 3 24C4.65 24 6 22.65 6 21V15C6 13.35 4.65 12 3 12ZM4 21C4 21.55 3.55 22 3 22C2.45 22 2 21.55 2 21V15C2 14.45 2.45 14 3 14C3.55 14 4 14.45 4 15V21Z" fill="#383D54"/>
</g>
<defs>
<clipPath id="clip0_2347_241690">
<rect width="24" height="24" fill="white"/>
</clipPath>
</defs>
</svg>
