<svg width="24" height="24" viewBox="0 0 24 24" fill="none" xmlns="http://www.w3.org/2000/svg">
<path d="M5.5999 12.8004H7.9999V14.4004H5.5999V12.8004ZM9.5999 14.4004H11.9999V12.8004H9.5999V14.4004ZM5.5999 17.6004H7.9999V16.0004H5.5999V17.6004ZM9.5999 17.6004H11.9999V16.0004H9.5999V17.6004ZM5.5999 8.00039H7.9999V6.40039H5.5999V8.00039ZM9.5999 8.00039H11.9999V6.40039H9.5999V8.00039ZM5.5999 11.2004H7.9999V9.60039H5.5999V11.2004ZM9.5999 11.2004H11.9999V9.60039H9.5999V11.2004ZM21.5999 8.80039V21.6004H2.3999V4.80039C2.3999 4.16387 2.65276 3.55342 3.10285 3.10333C3.55293 2.65325 4.16338 2.40039 4.7999 2.40039H12.7999C13.4364 2.40039 14.0469 2.65325 14.497 3.10333C14.947 3.55342 15.1999 4.16387 15.1999 4.80039V6.40039H19.1999C19.8364 6.40039 20.4469 6.65325 20.897 7.10333C21.347 7.55342 21.5999 8.16387 21.5999 8.80039ZM13.5999 4.80039C13.5999 4.58822 13.5156 4.38473 13.3656 4.23471C13.2156 4.08468 13.0121 4.00039 12.7999 4.00039H4.7999C4.58773 4.00039 4.38425 4.08468 4.23422 4.23471C4.08419 4.38473 3.9999 4.58822 3.9999 4.80039V20.0004H13.5999V4.80039ZM19.9999 8.80039C19.9999 8.58822 19.9156 8.38473 19.7656 8.23471C19.6156 8.08468 19.4121 8.00039 19.1999 8.00039H15.1999V20.0004H19.9999V8.80039ZM16.7999 14.4004H18.3999V12.8004H16.7999V14.4004ZM16.7999 17.6004H18.3999V16.0004H16.7999V17.6004ZM16.7999 11.2004H18.3999V9.60039H16.7999V11.2004Z" fill="#383D54"/>
</svg>
