<svg width="24" height="24" viewBox="0 0 24 24" fill="none" xmlns="http://www.w3.org/2000/svg">
<g clip-path="url(#clip0_2347_241696)">
<path d="M15 3V21C15 22.66 13.66 24 12 24C10.34 24 9 22.66 9 21V3C9 1.34 10.34 0 12 0C13.66 0 15 1.34 15 3ZM21 6C19.34 6 18 7.34 18 9V21C18 22.66 19.34 24 21 24C22.66 24 24 22.66 24 21V9C24 7.34 22.66 6 21 6ZM3 12C1.34 12 0 13.34 0 15V21C0 22.66 1.34 24 3 24C4.66 24 6 22.66 6 21V15C6 13.34 4.66 12 3 12Z" fill="#3670F0"/>
</g>
<defs>
<clipPath id="clip0_2347_241696">
<rect width="24" height="24" fill="white"/>
</clipPath>
</defs>
</svg>
