<svg width="16" height="16" viewBox="0 0 16 16" fill="none" xmlns="http://www.w3.org/2000/svg">
<path d="M5.00042 10.9996L8.00042 7.99955M9.33375 6.66622L11.0004 4.99955M8.33375 2.99955L8.64242 2.64222C9.26762 2.0171 10.1155 1.66595 10.9997 1.66602C11.8838 1.66608 12.7316 2.01735 13.3568 2.64255C13.9819 3.26776 14.333 4.11568 14.333 4.99979C14.3329 5.8839 13.9816 6.73177 13.3564 7.35689L13.0004 7.66622M2.00042 1.99955L14.0004 13.9996M7.66709 12.9996L7.40242 13.3556C6.76992 13.981 5.91628 14.3318 5.02675 14.3318C4.13723 14.3318 3.28359 13.981 2.65109 13.3556C2.33932 13.0473 2.09182 12.6802 1.92289 12.2756C1.75397 11.8711 1.66699 11.437 1.66699 10.9986C1.66699 10.5601 1.75397 10.126 1.92289 9.72146C2.09182 9.31687 2.33932 8.94982 2.65109 8.64155L3.00042 8.33289" stroke="#383D54" stroke-width="1.33333" stroke-linecap="round" stroke-linejoin="round"/>
</svg>
