<svg width="14" height="14" viewBox="0 0 14 14" fill="none" xmlns="http://www.w3.org/2000/svg">
<path d="M3.2651 7.4651H4.6651V8.39844H3.2651V7.4651ZM5.59844 8.39844H6.99844V7.4651H5.59844V8.39844ZM3.2651 10.2651H4.6651V9.33177H3.2651V10.2651ZM5.59844 10.2651H6.99844V9.33177H5.59844V10.2651ZM3.2651 4.6651H4.6651V3.73177H3.2651V4.6651ZM5.59844 4.6651H6.99844V3.73177H5.59844V4.6651ZM3.2651 6.53177H4.6651V5.59844H3.2651V6.53177ZM5.59844 6.53177H6.99844V5.59844H5.59844V6.53177ZM12.5984 5.13177V12.5984H1.39844V2.79844C1.39844 2.42713 1.54594 2.07104 1.80849 1.80849C2.07104 1.54594 2.42713 1.39844 2.79844 1.39844H7.4651C7.83641 1.39844 8.1925 1.54594 8.45505 1.80849C8.71761 2.07104 8.8651 2.42713 8.8651 2.79844V3.73177H11.1984C11.5697 3.73177 11.9258 3.87927 12.1884 4.14182C12.4509 4.40437 12.5984 4.76047 12.5984 5.13177ZM7.93177 2.79844C7.93177 2.67467 7.8826 2.55597 7.79509 2.46845C7.70757 2.38094 7.58887 2.33177 7.4651 2.33177H2.79844C2.67467 2.33177 2.55597 2.38094 2.46845 2.46845C2.38094 2.55597 2.33177 2.67467 2.33177 2.79844V11.6651H7.93177V2.79844ZM11.6651 5.13177C11.6651 5.008 11.6159 4.8893 11.5284 4.80179C11.4409 4.71427 11.3222 4.6651 11.1984 4.6651H8.8651V11.6651H11.6651V5.13177ZM9.79844 8.39844H10.7318V7.4651H9.79844V8.39844ZM9.79844 10.2651H10.7318V9.33177H9.79844V10.2651ZM9.79844 6.53177H10.7318V5.59844H9.79844V6.53177Z" fill="#383D54"/>
</svg>
