<svg width="16" height="16" viewBox="0 0 16 16" fill="none" xmlns="http://www.w3.org/2000/svg">
<path d="M8.83325 10.8463L8.55762 11.2635C8.62444 11.3077 8.68715 11.3524 8.75616 11.4015C8.77417 11.4144 8.7926 11.4275 8.81165 11.441C8.89868 11.5028 8.99793 11.5719 9.10272 11.6331C9.31531 11.7573 9.59144 11.8736 9.92953 11.8445L9.93672 11.8439L9.9439 11.843C10.4624 11.7832 10.7278 11.3067 10.8314 10.7514L10.8314 10.7513C11.0511 9.57315 11.4886 6.99232 11.591 5.9136L11.5911 5.91361L11.592 5.90196C11.5974 5.82625 11.5946 5.74853 11.593 5.70504L11.5929 5.70183L11.5927 5.69644C11.5922 5.68234 11.5919 5.67213 11.5916 5.66408L11.5984 5.62331L11.5894 5.55099C11.5755 5.43999 11.5259 5.21573 11.3161 5.04564C11.1955 4.94655 11.0636 4.90282 10.9772 4.88197C10.8856 4.85984 10.8007 4.85301 10.7399 4.85301C10.5186 4.85301 10.2887 4.91475 9.92606 5.04632C9.55478 5.18102 8.98559 5.41232 8.06163 5.79785C7.40972 6.06671 6.11314 6.62814 4.17295 7.47198C4.00292 7.54105 3.84084 7.62044 3.71068 7.71641C3.59327 7.80299 3.40683 7.97265 3.3764 8.24368M8.83325 10.8463L8.55809 11.2638C8.26126 11.0682 8.02848 10.9096 7.80089 10.7546L7.7978 10.7524C7.57133 10.5981 7.34997 10.4473 7.07151 10.2639C6.88064 10.1385 6.70001 9.98529 6.59472 9.7843C6.48893 9.58235 6.48115 9.37614 6.53712 9.19211C6.25614 9.36778 5.94224 9.49616 5.612 9.48613M8.83325 10.8463C8.90816 10.8958 8.97985 10.9469 9.04972 10.9967C9.32806 11.1952 9.57751 11.373 9.88658 11.3463L7.49325 8.78634C7.44201 8.83848 7.38992 8.88795 7.33977 8.93559C7.01795 9.24125 6.77558 9.47144 7.34659 9.84634C7.62831 10.0319 7.85237 10.1846 8.07855 10.3387C8.30731 10.4946 8.53826 10.6519 8.83325 10.8463ZM5.612 9.48613C5.4338 9.48108 5.21575 9.43569 5.02564 9.38795C4.82608 9.33784 4.61677 9.27448 4.43866 9.21519C4.40759 9.20535 4.37427 9.19508 4.3395 9.18436C4.17936 9.135 3.98847 9.07617 3.84558 9.00609C3.75205 8.96022 3.62515 8.88556 3.5251 8.76058C3.41046 8.61737 3.3545 8.43703 3.3764 8.24368M5.612 9.48613C5.61223 9.48613 5.61247 9.48614 5.6127 9.48615L5.62658 8.98634L5.61097 9.4861C5.61131 9.48611 5.61166 9.48612 5.612 9.48613ZM3.3764 8.24368C3.37637 8.24394 3.37634 8.2442 3.37631 8.24446L3.87325 8.29967L3.37649 8.2429C3.37646 8.24316 3.37643 8.24342 3.3764 8.24368ZM1.83325 7.99967C1.83325 4.59582 4.59606 1.83301 7.99992 1.83301C11.4038 1.83301 14.1666 4.59582 14.1666 7.99967C14.1666 11.4035 11.4038 14.1663 7.99992 14.1663C4.59606 14.1663 1.83325 11.4035 1.83325 7.99967Z" fill="#383D54" stroke="#383D54"/>
</svg>
