<svg width="18" height="19" viewBox="0 0 18 19" fill="none" xmlns="http://www.w3.org/2000/svg">
<path d="M8.99991 16.9998C4.85791 16.9998 1.5 13.6419 1.5 9.49991C1.5 5.35791 4.85791 1.99996 8.99991 1.99996C12.4481 1.99996 15.6421 4.32176 16.5282 7.45405C16.6409 7.85261 17.0554 8.08433 17.454 7.97158C17.8526 7.85884 18.0843 7.44435 17.9715 7.04575C16.8995 3.25619 13.108 0.5 8.99991 0.5C4.0295 0.5 0 4.5295 0 9.49991C0 14.4703 4.0295 18.4998 8.99991 18.4998C9.41412 18.4998 9.74989 18.1641 9.74989 17.7498C9.74989 17.3356 9.41412 16.9998 8.99991 16.9998Z" fill="#5C6476"/>
<path d="M8.99995 4.99902C8.58575 4.99902 8.24997 5.3348 8.24997 5.749V8.74896H6.74998C6.33577 8.74896 6 9.08474 6 9.49894C6 9.91315 6.33577 10.2489 6.74998 10.2489H8.99995C9.41416 10.2489 9.74993 9.91315 9.74993 9.49894V5.749C9.74993 5.3348 9.41416 4.99902 8.99995 4.99902Z" fill="#5C6476"/>
<path d="M15.7499 12.4989H14.9999V10.9989H16.4999C16.9141 10.9989 17.2499 10.6632 17.2499 10.249C17.2499 9.83476 16.9141 9.49898 16.4999 9.49898H14.9999V8.749C14.9999 8.3348 14.6641 7.99902 14.2499 7.99902C13.8357 7.99902 13.5 8.3348 13.5 8.749V9.49898H12.75C11.507 9.49898 10.5 10.506 10.5 11.749C10.5 12.9919 11.507 13.9989 12.75 13.9989H13.4999V15.4989H11.9999C11.5857 15.4989 11.2499 15.8347 11.2499 16.2489C11.2499 16.6631 11.5857 16.9989 11.9999 16.9989H13.4999V17.7489C13.4999 18.1631 13.8357 18.4989 14.2499 18.4989C14.6641 18.4989 14.9999 18.1631 14.9999 17.7489V16.9989H15.7499C16.9928 16.9989 17.9999 15.9919 17.9999 14.7489C17.9999 13.506 16.9928 12.4989 15.7499 12.4989ZM12.7499 12.4989C12.3354 12.4989 12 12.1635 12 11.749C12 11.3344 12.3354 10.999 12.7499 10.999H13.4999V12.499H12.7499V12.4989ZM15.7499 15.4989H14.9999V13.9989H15.7499C16.1644 13.9989 16.4999 14.3344 16.4999 14.7489C16.4999 15.1634 16.1644 15.4989 15.7499 15.4989Z" fill="#5C6476"/>
</svg>
