<svg width="16" height="16" viewBox="0 0 16 16" fill="none" xmlns="http://www.w3.org/2000/svg">
<path d="M8 14C6.6 14 5.36111 13.5749 4.28334 12.7247C3.20556 11.8744 2.50556 10.7884 2.18334 9.46667C2.13889 9.3 2.17222 9.14733 2.28334 9.00867C2.39445 8.87 2.54445 8.78933 2.73334 8.76667C2.91111 8.74444 3.07222 8.77778 3.21667 8.86667C3.36111 8.95556 3.46111 9.08889 3.51667 9.26667C3.78334 10.2667 4.33334 11.0833 5.16667 11.7167C6 12.35 6.94445 12.6667 8 12.6667C9.3 12.6667 10.4029 12.2138 11.3087 11.308C12.2144 10.4022 12.6671 9.29956 12.6667 8C12.6667 6.7 12.2138 5.59711 11.308 4.69133C10.4022 3.78556 9.29956 3.33289 8 3.33333C7.23334 3.33333 6.51667 3.51111 5.85 3.86667C5.18334 4.22222 4.62222 4.71111 4.16667 5.33333H5.33334C5.52222 5.33333 5.68067 5.39733 5.80867 5.52533C5.93667 5.65333 6.00045 5.81156 6 6C6 6.18889 5.936 6.34733 5.808 6.47533C5.68 6.60333 5.52178 6.66711 5.33334 6.66667H2.66667C2.47778 6.66667 2.31934 6.60267 2.19134 6.47467C2.06334 6.34667 1.99956 6.18844 2 6V3.33333C2 3.14444 2.064 2.986 2.192 2.858C2.32 2.73 2.47822 2.66622 2.66667 2.66667C2.85556 2.66667 3.014 2.73067 3.142 2.85867C3.27 2.98667 3.33378 3.14489 3.33334 3.33333V4.23333C3.9 3.52222 4.59178 2.97222 5.40867 2.58333C6.22556 2.19444 7.08934 2 8 2C8.83334 2 9.614 2.15844 10.342 2.47533C11.07 2.79222 11.7033 3.21978 12.242 3.758C12.7807 4.29711 13.2084 4.93044 13.5253 5.658C13.8422 6.38556 14.0004 7.16622 14 8C14 8.83333 13.8416 9.614 13.5247 10.342C13.2078 11.07 12.7802 11.7033 12.242 12.242C11.7029 12.7807 11.0696 13.2084 10.342 13.5253C9.61445 13.8422 8.83378 14.0004 8 14ZM8.66667 7.73333L10.3333 9.4C10.4556 9.52222 10.5167 9.67778 10.5167 9.86667C10.5167 10.0556 10.4556 10.2111 10.3333 10.3333C10.2111 10.4556 10.0556 10.5167 9.86667 10.5167C9.67778 10.5167 9.52223 10.4556 9.4 10.3333L7.53334 8.46667C7.46667 8.4 7.41667 8.32511 7.38334 8.242C7.35 8.15889 7.33334 8.07267 7.33334 7.98333V5.33333C7.33334 5.14444 7.39734 4.986 7.52534 4.858C7.65334 4.73 7.81156 4.66622 8 4.66667C8.18889 4.66667 8.34734 4.73067 8.47534 4.85867C8.60334 4.98667 8.66711 5.14489 8.66667 5.33333V7.73333Z" fill="#5C6476"/>
</svg>
