<svg width="37" height="36" viewBox="0 0 37 36" fill="none" xmlns="http://www.w3.org/2000/svg">
<rect x="0.880371" width="36" height="36" rx="18" fill="#D9D9D9"/>
<g clip-path="url(#clip0_1407_15782)">
<path d="M16.7384 10.867L15.0627 13.7694C14.9793 13.9137 14.9568 14.0853 14.9999 14.2462C15.043 14.4072 15.1484 14.5445 15.2927 14.6278L18.195 16.3035C18.3394 16.3868 18.5109 16.4094 18.6719 16.3662C18.8328 16.3231 18.9701 16.2178 19.0534 16.0735C19.1368 15.9291 19.1593 15.7576 19.1162 15.5966C19.0731 15.4357 18.9677 15.2984 18.8234 15.2151L17.2407 14.3013L18.3452 14.0096C19.1855 13.7841 20.0739 13.8128 20.8979 14.0923C21.7219 14.3717 22.4445 14.8893 22.9744 15.5794C23.5042 16.2696 23.8174 17.1014 23.8745 17.9697C23.9315 18.8379 23.7297 19.7035 23.2947 20.4571C23.2114 20.6014 23.1888 20.7729 23.2319 20.9339C23.2751 21.0949 23.3804 21.2321 23.5247 21.3155C23.669 21.3988 23.8406 21.4214 24.0015 21.3782C24.1625 21.3351 24.2998 21.2298 24.3831 21.0855C24.9424 20.1168 25.2019 19.004 25.1288 17.8878C25.0557 16.7716 24.6532 15.7022 23.9723 14.8148C23.2913 13.9273 22.3625 13.2618 21.3033 12.9022C20.2441 12.5427 19.102 12.5053 18.0216 12.7949L16.9062 13.0899L17.8267 11.4954C17.9101 11.3511 17.9327 11.1796 17.8895 11.0186C17.8464 10.8576 17.7411 10.7204 17.5967 10.637C17.4524 10.5537 17.2809 10.5311 17.1199 10.5743C16.9589 10.6174 16.8217 10.7227 16.7384 10.867Z" fill="#5C6476"/>
<mask id="path-3-inside-1_1407_15782" fill="white">
<rect x="14.1387" y="18.5625" width="6" height="6" rx="0.7"/>
</mask>
<rect x="14.1387" y="18.5625" width="6" height="6" rx="0.7" stroke="#5C6476" stroke-width="2.4" mask="url(#path-3-inside-1_1407_15782)"/>
</g>
<defs>
<clipPath id="clip0_1407_15782">
<rect width="16" height="16" fill="white" transform="translate(10.8804 10)"/>
</clipPath>
</defs>
</svg>
