<svg width="37" height="36" viewBox="0 0 37 36" fill="none" xmlns="http://www.w3.org/2000/svg">
<rect x="0.880371" width="36" height="36" rx="18" fill="#D9D9D9"/>
<path d="M24.3804 13H22.1304V12.25C22.1304 11.7859 21.946 11.3408 21.6178 11.0126C21.2896 10.6844 20.8445 10.5 20.3804 10.5H17.3804C16.9162 10.5 16.4711 10.6844 16.1429 11.0126C15.8147 11.3408 15.6304 11.7859 15.6304 12.25V13H13.3804C13.1815 13 12.9907 13.079 12.85 13.2197C12.7094 13.3603 12.6304 13.5511 12.6304 13.75C12.6304 13.9489 12.7094 14.1397 12.85 14.2803C12.9907 14.421 13.1815 14.5 13.3804 14.5H13.6304V23C13.6304 23.3315 13.7621 23.6495 13.9965 23.8839C14.2309 24.1183 14.5489 24.25 14.8804 24.25H22.8804C23.2119 24.25 23.5298 24.1183 23.7643 23.8839C23.9987 23.6495 24.1304 23.3315 24.1304 23V14.5H24.3804C24.5793 14.5 24.77 14.421 24.9107 14.2803C25.0514 14.1397 25.1304 13.9489 25.1304 13.75C25.1304 13.5511 25.0514 13.3603 24.9107 13.2197C24.77 13.079 24.5793 13 24.3804 13ZM17.1304 12.25C17.1304 12.1837 17.1567 12.1201 17.2036 12.0732C17.2505 12.0263 17.3141 12 17.3804 12H20.3804C20.4467 12 20.5103 12.0263 20.5571 12.0732C20.604 12.1201 20.6304 12.1837 20.6304 12.25V13H17.1304V12.25ZM22.6304 22.75H15.1304V14.5H22.6304V22.75ZM18.1304 16.5V20.5C18.1304 20.6989 18.0514 20.8897 17.9107 21.0303C17.77 21.171 17.5793 21.25 17.3804 21.25C17.1815 21.25 16.9907 21.171 16.85 21.0303C16.7094 20.8897 16.6304 20.6989 16.6304 20.5V16.5C16.6304 16.3011 16.7094 16.1103 16.85 15.9697C16.9907 15.829 17.1815 15.75 17.3804 15.75C17.5793 15.75 17.77 15.829 17.9107 15.9697C18.0514 16.1103 18.1304 16.3011 18.1304 16.5ZM21.1304 16.5V20.5C21.1304 20.6989 21.0514 20.8897 20.9107 21.0303C20.77 21.171 20.5793 21.25 20.3804 21.25C20.1815 21.25 19.9907 21.171 19.85 21.0303C19.7094 20.8897 19.6304 20.6989 19.6304 20.5V16.5C19.6304 16.3011 19.7094 16.1103 19.85 15.9697C19.9907 15.829 20.1815 15.75 20.3804 15.75C20.5793 15.75 20.77 15.829 20.9107 15.9697C21.0514 16.1103 21.1304 16.3011 21.1304 16.5Z" fill="#5C6476"/>
</svg>
