<svg width="24" height="24" viewBox="0 0 24 24" fill="none" xmlns="http://www.w3.org/2000/svg">
<rect x="0.5" y="0.5" width="23" height="23" rx="1.5" fill="#F5F5F5"/>
<g clip-path="url(#clip0_1720_64446)">
<path d="M10.1028 13.1019L13.1028 10.1019C13.1551 10.0496 13.2172 10.0081 13.2856 9.97976C13.3539 9.95145 13.4272 9.93687 13.5012 9.93687C13.5752 9.93687 13.6485 9.95145 13.7168 9.97976C13.7852 10.0081 13.8473 10.0496 13.8996 10.1019C13.952 10.1542 13.9935 10.2164 14.0218 10.2847C14.0501 10.3531 14.0647 10.4264 14.0647 10.5003C14.0647 10.5743 14.0501 10.6476 14.0218 10.716C13.9935 10.7843 13.952 10.8465 13.8996 10.8988L10.8996 13.8988C10.794 14.0045 10.6506 14.0638 10.5012 14.0638C10.3518 14.0638 10.2084 14.0045 10.1028 13.8988C9.99709 13.7931 9.93773 13.6498 9.93773 13.5003C9.93773 13.3509 9.99709 13.2076 10.1028 13.1019ZM16.2434 7.75816C15.7154 7.23139 15.0001 6.93555 14.2543 6.93555C13.5084 6.93555 12.7931 7.23139 12.2651 7.75816L10.8532 9.16863C10.7476 9.2743 10.6882 9.41762 10.6882 9.56707C10.6882 9.71651 10.7476 9.85983 10.8532 9.9655C10.9589 10.0712 11.1022 10.1305 11.2517 10.1305C11.4011 10.1305 11.5444 10.0712 11.6501 9.9655L13.0596 8.55644C13.2164 8.39969 13.4024 8.27534 13.6072 8.19049C13.812 8.10564 14.0315 8.06196 14.2531 8.06194C14.4748 8.06192 14.6943 8.10556 14.8991 8.19036C15.1039 8.27517 15.29 8.39948 15.4468 8.55621C15.6035 8.71293 15.7279 8.899 15.8127 9.10378C15.8976 9.30856 15.9412 9.52805 15.9413 9.74971C15.9413 9.97138 15.8976 10.1909 15.8128 10.3957C15.728 10.6005 15.6037 10.7866 15.447 10.9433L14.0356 12.3519C13.9299 12.4576 13.8705 12.6009 13.8705 12.7503C13.8705 12.8998 13.9299 13.0431 14.0356 13.1488C14.1413 13.2545 14.2846 13.3138 14.434 13.3138C14.5835 13.3138 14.7268 13.2545 14.8325 13.1488L16.2425 11.7397C16.7695 11.2114 17.0654 10.4956 17.0651 9.74935C17.0648 9.00312 16.7685 8.28748 16.241 7.75957L16.2434 7.75816ZM12.3537 14.0338L10.9442 15.4438C10.7874 15.6005 10.6013 15.7248 10.3965 15.8096C10.1917 15.8944 9.97223 15.9381 9.75057 15.9381C9.52891 15.938 9.30942 15.8944 9.10464 15.8095C8.89985 15.7247 8.71379 15.6003 8.55706 15.4436C8.24054 15.127 8.06275 14.6976 8.06279 14.2499C8.06284 13.8023 8.24072 13.373 8.5573 13.0564L9.96636 11.6469C10.0187 11.5946 10.0602 11.5325 10.0885 11.4641C10.1168 11.3957 10.1314 11.3225 10.1314 11.2485C10.1314 11.1745 10.1168 11.1012 10.0885 11.0328C10.0602 10.9645 10.0187 10.9024 9.96636 10.85C9.91404 10.7977 9.85192 10.7562 9.78356 10.7279C9.71519 10.6996 9.64192 10.685 9.56792 10.685C9.49393 10.685 9.42065 10.6996 9.35229 10.7279C9.28393 10.7562 9.22181 10.7977 9.16949 10.85L7.76136 12.261C7.23381 12.7886 6.93746 13.5042 6.9375 14.2503C6.93754 14.9964 7.23398 15.7119 7.76159 16.2395C8.28921 16.767 9.00479 17.0634 9.7509 17.0633C10.497 17.0633 11.2126 16.7669 11.7401 16.2393L13.1492 14.8297C13.2548 14.7241 13.3142 14.5807 13.3142 14.4313C13.3142 14.2818 13.2548 14.1385 13.1492 14.0328C13.0435 13.9272 12.9002 13.8678 12.7507 13.8678C12.6013 13.8678 12.458 13.9272 12.3523 14.0328L12.3537 14.0338Z" fill="#5C6476"/>
</g>
<rect x="0.5" y="0.5" width="23" height="23" rx="1.5" stroke="#D9D9D9"/>
<defs>
<clipPath id="clip0_1720_64446">
<rect width="12" height="12" fill="white" transform="translate(6 6)"/>
</clipPath>
</defs>
</svg>
