<svg width="16" height="16" viewBox="0 0 16 16" fill="none" xmlns="http://www.w3.org/2000/svg">
<mask id="path-1-inside-1_2948_111716" fill="white">
<path d="M7.31417 1.00204C6.18707 1.01565 3.76389 1.20087 2.40856 2.44427C1.40041 3.44321 1.04841 4.92012 1.00715 6.74639C0.972916 8.56607 0.931659 11.9834 4.22562 12.9138V14.331C4.22562 14.331 4.20499 14.8981 4.57981 15.0144C5.04153 15.1606 5.30444 14.7243 5.74334 14.2556L6.56189 13.3299C8.81565 13.5173 10.5418 13.0854 10.7407 13.0214C11.198 12.8752 13.7739 12.546 14.1948 9.12831C14.6267 5.59866 13.9846 3.37475 12.8255 2.36878H12.8184C12.4686 2.04663 11.0628 1.02223 7.92204 1.01082C7.92204 1.01082 7.68899 0.99546 7.31417 1.00204ZM7.35279 1.9944C7.67275 1.99221 7.86718 2.00581 7.86718 2.00581C10.5256 2.01283 11.7945 2.81295 12.0938 3.08244C13.0699 3.91898 13.5729 5.92389 13.2047 8.87067C12.8549 11.7279 10.7657 11.9087 10.379 12.0321C10.2144 12.0847 8.69407 12.4596 6.77871 12.3362C6.77871 12.3362 5.35228 14.0576 4.90635 14.5009C4.83569 14.5786 4.75318 14.6014 4.70051 14.59C4.62502 14.5716 4.60219 14.4781 4.60658 14.3499L4.62019 11.9978C1.82658 11.2254 1.99117 8.31063 2.02101 6.78808C2.05525 5.26553 2.34097 4.01993 3.19156 3.17636C4.33666 2.14099 6.39423 2.00142 7.35191 1.9944H7.35279ZM7.56346 3.51651C7.54047 3.51628 7.51766 3.5206 7.49634 3.52923C7.47503 3.53785 7.45563 3.55061 7.43927 3.56677C7.42291 3.58292 7.40991 3.60216 7.40102 3.62336C7.39213 3.64457 7.38752 3.66732 7.38746 3.69032C7.38746 3.78863 7.46734 3.86632 7.56346 3.86632C7.99863 3.85804 8.43114 3.936 8.83603 4.0957C9.24093 4.25539 9.6102 4.49367 9.92256 4.79679C10.5603 5.41608 10.871 6.24823 10.8829 7.33627C10.8829 7.43239 10.9606 7.51227 11.0589 7.51227V7.50525C11.1052 7.50537 11.1497 7.48716 11.1827 7.4546C11.2156 7.42205 11.2344 7.37778 11.2349 7.33144C11.2562 6.81931 11.1731 6.30819 10.9908 5.82916C10.8084 5.35012 10.5305 4.91317 10.174 4.54486C9.47927 3.86588 8.59883 3.51607 7.56346 3.51607V3.51651ZM5.25001 3.91898C5.12578 3.90083 4.99908 3.92577 4.89099 3.98965H4.88177C4.63084 4.13674 4.40478 4.32265 4.21201 4.54047C4.05181 4.72568 3.96491 4.9131 3.94208 5.09348C3.92848 5.20101 3.9377 5.30855 3.96974 5.41125L3.98115 5.41827C4.16154 5.94846 4.39723 6.45847 4.68515 6.93863C5.05603 7.6132 5.51245 8.23706 6.04311 8.79474L6.05891 8.81756L6.08392 8.836L6.09972 8.85443L6.11816 8.87023C6.67786 9.40244 7.30323 9.861 7.9791 10.2348C8.75157 10.6552 9.22031 10.8541 9.50165 10.9366V10.941C9.58416 10.966 9.65922 10.9774 9.73471 10.9774C9.97447 10.9598 10.2015 10.8625 10.3795 10.7009C10.5963 10.5081 10.7801 10.2811 10.9237 10.0289V10.0245C11.0584 9.77086 11.0128 9.53078 10.8184 9.36838C10.429 9.02802 10.0079 8.7257 9.5609 8.46556C9.26157 8.30317 8.95741 8.40148 8.83408 8.56607L8.57118 8.89744C8.43644 9.06203 8.19153 9.03921 8.19153 9.03921L8.18451 9.0436C6.35824 8.57705 5.87106 6.72795 5.87106 6.72795C5.87106 6.72795 5.84823 6.47646 6.01721 6.3483L6.34639 6.08321C6.50395 5.95505 6.61368 5.65133 6.4447 5.35156C6.18636 4.90395 5.88471 4.48277 5.54408 4.09411C5.46961 4.00248 5.36513 3.94013 5.24913 3.91811L5.25001 3.91898ZM7.86718 4.4404C7.63412 4.4404 7.63412 4.7924 7.86938 4.7924C8.15917 4.7971 8.44521 4.85886 8.71112 4.97416C8.97704 5.08946 9.21763 5.25603 9.41914 5.46436C9.60296 5.66713 9.74422 5.90474 9.83453 6.16311C9.92485 6.42147 9.9624 6.69533 9.94494 6.96847C9.94574 7.0147 9.96461 7.05877 9.99751 7.09125C10.0304 7.12374 10.0747 7.14205 10.1209 7.14228L10.128 7.15149C10.1745 7.15115 10.2191 7.1325 10.252 7.09956C10.285 7.06663 10.3036 7.02207 10.304 6.97549C10.3198 6.27808 10.1029 5.69302 9.67765 5.22428C9.25016 4.75553 8.65369 4.49263 7.8922 4.4404H7.86718ZM8.15554 5.38667C7.91546 5.37965 7.90624 5.73867 8.14413 5.74569C8.7226 5.77554 9.0035 6.06785 9.04037 6.66914C9.04117 6.71478 9.0598 6.7583 9.09229 6.79037C9.12477 6.82245 9.16852 6.84053 9.21417 6.84075H9.22119C9.24466 6.83974 9.2677 6.83407 9.28895 6.82407C9.3102 6.81406 9.32925 6.79993 9.34498 6.78248C9.36071 6.76503 9.37281 6.74463 9.38057 6.72246C9.38833 6.70028 9.39159 6.67679 9.39017 6.65334C9.34891 5.86946 8.92142 5.42793 8.16256 5.38711H8.15554V5.38667Z"/>
</mask>
<path d="M7.31417 1.00204C6.18707 1.01565 3.76389 1.20087 2.40856 2.44427C1.40041 3.44321 1.04841 4.92012 1.00715 6.74639C0.972916 8.56607 0.931659 11.9834 4.22562 12.9138V14.331C4.22562 14.331 4.20499 14.8981 4.57981 15.0144C5.04153 15.1606 5.30444 14.7243 5.74334 14.2556L6.56189 13.3299C8.81565 13.5173 10.5418 13.0854 10.7407 13.0214C11.198 12.8752 13.7739 12.546 14.1948 9.12831C14.6267 5.59866 13.9846 3.37475 12.8255 2.36878H12.8184C12.4686 2.04663 11.0628 1.02223 7.92204 1.01082C7.92204 1.01082 7.68899 0.99546 7.31417 1.00204ZM7.35279 1.9944C7.67275 1.99221 7.86718 2.00581 7.86718 2.00581C10.5256 2.01283 11.7945 2.81295 12.0938 3.08244C13.0699 3.91898 13.5729 5.92389 13.2047 8.87067C12.8549 11.7279 10.7657 11.9087 10.379 12.0321C10.2144 12.0847 8.69407 12.4596 6.77871 12.3362C6.77871 12.3362 5.35228 14.0576 4.90635 14.5009C4.83569 14.5786 4.75318 14.6014 4.70051 14.59C4.62502 14.5716 4.60219 14.4781 4.60658 14.3499L4.62019 11.9978C1.82658 11.2254 1.99117 8.31063 2.02101 6.78808C2.05525 5.26553 2.34097 4.01993 3.19156 3.17636C4.33666 2.14099 6.39423 2.00142 7.35191 1.9944H7.35279ZM7.56346 3.51651C7.54047 3.51628 7.51766 3.5206 7.49634 3.52923C7.47503 3.53785 7.45563 3.55061 7.43927 3.56677C7.42291 3.58292 7.40991 3.60216 7.40102 3.62336C7.39213 3.64457 7.38752 3.66732 7.38746 3.69032C7.38746 3.78863 7.46734 3.86632 7.56346 3.86632C7.99863 3.85804 8.43114 3.936 8.83603 4.0957C9.24093 4.25539 9.6102 4.49367 9.92256 4.79679C10.5603 5.41608 10.871 6.24823 10.8829 7.33627C10.8829 7.43239 10.9606 7.51227 11.0589 7.51227V7.50525C11.1052 7.50537 11.1497 7.48716 11.1827 7.4546C11.2156 7.42205 11.2344 7.37778 11.2349 7.33144C11.2562 6.81931 11.1731 6.30819 10.9908 5.82916C10.8084 5.35012 10.5305 4.91317 10.174 4.54486C9.47927 3.86588 8.59883 3.51607 7.56346 3.51607V3.51651ZM5.25001 3.91898C5.12578 3.90083 4.99908 3.92577 4.89099 3.98965H4.88177C4.63084 4.13674 4.40478 4.32265 4.21201 4.54047C4.05181 4.72568 3.96491 4.9131 3.94208 5.09348C3.92848 5.20101 3.9377 5.30855 3.96974 5.41125L3.98115 5.41827C4.16154 5.94846 4.39723 6.45847 4.68515 6.93863C5.05603 7.6132 5.51245 8.23706 6.04311 8.79474L6.05891 8.81756L6.08392 8.836L6.09972 8.85443L6.11816 8.87023C6.67786 9.40244 7.30323 9.861 7.9791 10.2348C8.75157 10.6552 9.22031 10.8541 9.50165 10.9366V10.941C9.58416 10.966 9.65922 10.9774 9.73471 10.9774C9.97447 10.9598 10.2015 10.8625 10.3795 10.7009C10.5963 10.5081 10.7801 10.2811 10.9237 10.0289V10.0245C11.0584 9.77086 11.0128 9.53078 10.8184 9.36838C10.429 9.02802 10.0079 8.7257 9.5609 8.46556C9.26157 8.30317 8.95741 8.40148 8.83408 8.56607L8.57118 8.89744C8.43644 9.06203 8.19153 9.03921 8.19153 9.03921L8.18451 9.0436C6.35824 8.57705 5.87106 6.72795 5.87106 6.72795C5.87106 6.72795 5.84823 6.47646 6.01721 6.3483L6.34639 6.08321C6.50395 5.95505 6.61368 5.65133 6.4447 5.35156C6.18636 4.90395 5.88471 4.48277 5.54408 4.09411C5.46961 4.00248 5.36513 3.94013 5.24913 3.91811L5.25001 3.91898ZM7.86718 4.4404C7.63412 4.4404 7.63412 4.7924 7.86938 4.7924C8.15917 4.7971 8.44521 4.85886 8.71112 4.97416C8.97704 5.08946 9.21763 5.25603 9.41914 5.46436C9.60296 5.66713 9.74422 5.90474 9.83453 6.16311C9.92485 6.42147 9.9624 6.69533 9.94494 6.96847C9.94574 7.0147 9.96461 7.05877 9.99751 7.09125C10.0304 7.12374 10.0747 7.14205 10.1209 7.14228L10.128 7.15149C10.1745 7.15115 10.2191 7.1325 10.252 7.09956C10.285 7.06663 10.3036 7.02207 10.304 6.97549C10.3198 6.27808 10.1029 5.69302 9.67765 5.22428C9.25016 4.75553 8.65369 4.49263 7.8922 4.4404H7.86718ZM8.15554 5.38667C7.91546 5.37965 7.90624 5.73867 8.14413 5.74569C8.7226 5.77554 9.0035 6.06785 9.04037 6.66914C9.04117 6.71478 9.0598 6.7583 9.09229 6.79037C9.12477 6.82245 9.16852 6.84053 9.21417 6.84075H9.22119C9.24466 6.83974 9.2677 6.83407 9.28895 6.82407C9.3102 6.81406 9.32925 6.79993 9.34498 6.78248C9.36071 6.76503 9.37281 6.74463 9.38057 6.72246C9.38833 6.70028 9.39159 6.67679 9.39017 6.65334C9.34891 5.86946 8.92142 5.42793 8.16256 5.38711H8.15554V5.38667Z" fill="#383D54"/>
<path d="M7.31417 1.00204L7.32322 1.752L7.32734 1.75193L7.31417 1.00204ZM2.40856 2.44427L1.90154 1.89162L1.89092 1.90136L1.88067 1.91151L2.40856 2.44427ZM1.00715 6.74639L0.257336 6.72945L0.257283 6.73228L1.00715 6.74639ZM4.22562 12.9138H4.97562V12.3463L4.4295 12.1921L4.22562 12.9138ZM4.22562 14.331L4.97512 14.3583L4.97562 14.3447V14.331H4.22562ZM4.57981 15.0144L4.80615 14.2994L4.80208 14.2981L4.57981 15.0144ZM5.74334 14.2556L6.29081 14.7682L6.2981 14.7604L6.30517 14.7524L5.74334 14.2556ZM6.56189 13.3299L6.62404 12.5825L6.24921 12.5513L6.00005 12.8331L6.56189 13.3299ZM10.7407 13.0214L10.5124 12.307L10.5106 12.3075L10.7407 13.0214ZM14.1948 9.12831L14.9392 9.21998L14.9393 9.21939L14.1948 9.12831ZM12.8255 2.36878L13.317 1.80235L13.1055 1.61878H12.8255V2.36878ZM12.8184 2.36878L12.3104 2.92047L12.5257 3.11878H12.8184V2.36878ZM7.92204 1.01082L7.87272 1.7592L7.89599 1.76073L7.91932 1.76082L7.92204 1.01082ZM7.35279 1.9944V2.74442L7.35793 2.74438L7.35279 1.9944ZM7.86718 2.00581L7.81483 2.75398L7.83998 2.75574L7.8652 2.75581L7.86718 2.00581ZM12.0938 3.08244L11.592 3.63983L11.5988 3.64595L11.6058 3.65192L12.0938 3.08244ZM13.2047 8.87067L12.4604 8.77767L12.4602 8.77953L13.2047 8.87067ZM10.379 12.0321L10.1511 11.3175L10.1504 11.3178L10.379 12.0321ZM6.77871 12.3362L6.8269 11.5878L6.44524 11.5632L6.20121 11.8577L6.77871 12.3362ZM4.90635 14.5009L4.37759 13.969L4.36422 13.9823L4.35154 13.9962L4.90635 14.5009ZM4.70051 14.59L4.52259 15.3186L4.53211 15.3209L4.54169 15.323L4.70051 14.59ZM4.60658 14.3499L5.35614 14.3756L5.35651 14.3649L5.35657 14.3543L4.60658 14.3499ZM4.62019 11.9978L5.37018 12.0022L5.3735 11.428L4.82007 11.275L4.62019 11.9978ZM2.02101 6.78808L1.2712 6.77122L1.27116 6.77338L2.02101 6.78808ZM3.19156 3.17636L2.68856 2.62005L2.67572 2.63165L2.66344 2.64384L3.19156 3.17636ZM7.35191 1.9944V1.24438L7.34641 1.24442L7.35191 1.9944ZM7.56346 3.51651L7.5559 4.26647L8.31346 4.27411V3.51651H7.56346ZM7.38746 3.69032L6.63746 3.68846V3.69032H7.38746ZM7.56346 3.86632V4.61632H7.57059L7.57772 4.61618L7.56346 3.86632ZM9.92256 4.79679L10.4451 4.25874L10.4449 4.25856L9.92256 4.79679ZM10.8829 7.33627H11.6329L11.6328 7.3281L10.8829 7.33627ZM11.0589 7.51227V8.26227H11.8089V7.51227H11.0589ZM11.0589 7.50525L11.0608 6.75525L10.3089 6.75333V7.50525H11.0589ZM11.2349 7.33144L10.4855 7.30026L10.485 7.3121L10.4849 7.32395L11.2349 7.33144ZM10.174 4.54486L10.713 4.02325L10.7057 4.01575L10.6982 4.00846L10.174 4.54486ZM7.56346 3.51607V2.76607H6.81346V3.51607H7.56346ZM5.25001 3.91898L5.14158 4.6611L7.37983 4.98814L5.78034 3.38865L5.25001 3.91898ZM4.89099 3.98965V4.73965H5.09604L5.27257 4.63532L4.89099 3.98965ZM4.88177 3.98965V3.23965H4.67816L4.5025 3.34261L4.88177 3.98965ZM4.21201 4.54047L3.65034 4.04338L3.64475 4.04983L4.21201 4.54047ZM3.94208 5.09348L4.68615 5.18763L4.68615 5.18762L3.94208 5.09348ZM3.96974 5.41125L3.25377 5.63461L3.33742 5.90276L3.57665 6.04998L3.96974 5.41125ZM3.98115 5.41827L4.69118 5.1767L4.6042 4.92106L4.37423 4.77954L3.98115 5.41827ZM4.68515 6.93863L5.34236 6.57729L5.33559 6.56498L5.32837 6.55293L4.68515 6.93863ZM6.04311 8.79474L6.65975 8.36783L6.62659 8.31994L6.58644 8.27774L6.04311 8.79474ZM6.05891 8.81756L5.44226 9.24447L5.5134 9.34722L5.61401 9.42136L6.05891 8.81756ZM6.08392 8.836L6.65337 8.34791L6.5977 8.28295L6.52882 8.2322L6.08392 8.836ZM6.09972 8.85443L5.53028 9.34252L5.56783 9.38633L5.61164 9.42388L6.09972 8.85443ZM6.11816 8.87023L6.63497 8.32672L6.62094 8.31338L6.60625 8.30079L6.11816 8.87023ZM7.9791 10.2348L7.61613 10.8911L7.62054 10.8935L7.9791 10.2348ZM9.50165 10.9366H10.2516V10.375L9.71273 10.2169L9.50165 10.9366ZM9.50165 10.941H8.75165V11.4973L9.28404 11.6587L9.50165 10.941ZM9.73471 10.9774V11.7274H9.76215L9.78951 11.7254L9.73471 10.9774ZM10.3795 10.7009L9.88103 10.1404L9.87532 10.1456L10.3795 10.7009ZM10.9237 10.0289L11.5755 10.4L11.6737 10.2275V10.0289H10.9237ZM10.9237 10.0245L10.2613 9.67273L10.1737 9.83772V10.0245H10.9237ZM10.8184 9.36838L10.3248 9.93307L10.3311 9.93861L10.3376 9.94402L10.8184 9.36838ZM9.5609 8.46556L9.93814 7.81734L9.92843 7.81169L9.91855 7.80633L9.5609 8.46556ZM8.83408 8.56607L9.42163 9.03222L9.42806 9.02411L9.43427 9.01582L8.83408 8.56607ZM8.57118 8.89744L9.15158 9.3726L9.15872 9.36359L8.57118 8.89744ZM8.19153 9.03921L8.26112 8.29244L8.00887 8.26894L7.79404 8.40321L8.19153 9.03921ZM8.18451 9.0436L7.99887 9.77026L8.30983 9.8497L8.582 9.6796L8.18451 9.0436ZM5.87106 6.72795L5.12413 6.79574L5.1298 6.85829L5.14581 6.91903L5.87106 6.72795ZM6.01721 6.3483L6.47043 6.94587L6.47913 6.93928L6.48763 6.93243L6.01721 6.3483ZM6.34639 6.08321L6.81681 6.66734L6.81964 6.66504L6.34639 6.08321ZM6.4447 5.35156L7.09808 4.98325L7.09428 4.97666L6.4447 5.35156ZM5.54408 4.09411L4.96205 4.56712L4.97084 4.57794L4.98004 4.58843L5.54408 4.09411ZM5.24913 3.91811L5.38906 3.18127L2.99749 2.72712L4.7188 4.44844L5.24913 3.91811ZM7.86938 4.7924L7.88154 4.0424H7.86938V4.7924ZM9.41914 5.46436L9.9748 4.96063L9.96665 4.95164L9.95821 4.94292L9.41914 5.46436ZM9.94494 6.96847L9.19647 6.92064L9.19453 6.95104L9.19505 6.98149L9.94494 6.96847ZM10.1209 7.14228L10.7175 6.68776L10.4938 6.39406L10.1245 6.39228L10.1209 7.14228ZM10.128 7.15149L9.53137 7.60601L9.75859 7.90425L10.1335 7.90147L10.128 7.15149ZM10.304 6.97549L9.55407 6.9585L9.55398 6.96994L10.304 6.97549ZM9.67765 5.22428L10.2331 4.72031L10.2318 4.71889L9.67765 5.22428ZM7.8922 4.4404L7.94352 3.69216L7.91789 3.6904H7.8922V4.4404ZM8.15554 5.38667H8.90554V4.65829L8.17747 4.63699L8.15554 5.38667ZM8.14413 5.74569L8.18277 4.99669L8.17452 4.99626L8.16626 4.99602L8.14413 5.74569ZM9.04037 6.66914L9.79025 6.65596L9.78996 6.63959L9.78896 6.62324L9.04037 6.66914ZM9.21417 6.84075L9.21052 7.59075H9.21417V6.84075ZM9.22119 6.84075V7.59075H9.23726L9.25332 7.59006L9.22119 6.84075ZM9.39017 6.65334L8.64118 6.69276L8.64154 6.69869L9.39017 6.65334ZM8.16256 5.38711L8.20285 4.63819L8.18272 4.63711H8.16256V5.38711ZM8.15554 5.38711H7.40554V6.13711H8.15554V5.38711ZM7.30511 0.252098C6.71249 0.259252 5.76897 0.311173 4.78436 0.529818C3.81238 0.74566 2.71938 1.14131 1.90154 1.89162L2.91558 2.99693C3.45307 2.50383 4.24933 2.18517 5.10954 1.99415C5.95712 1.80593 6.78874 1.75844 7.32322 1.75199L7.30511 0.252098ZM1.88067 1.91151C0.660971 3.12007 0.299894 4.84582 0.257341 6.72945L1.75696 6.76333C1.79692 4.99442 2.13984 3.76636 2.93645 2.97703L1.88067 1.91151ZM0.257283 6.73228C0.240404 7.62946 0.213271 9.06274 0.656405 10.3996C1.1153 11.7839 2.0888 13.0896 4.02173 13.6356L4.4295 12.1921C3.06847 11.8076 2.41563 10.9394 2.08022 9.92758C1.72905 8.8682 1.73966 7.683 1.75702 6.76049L0.257283 6.73228ZM3.47562 12.9138V14.331H4.97562V12.9138H3.47562ZM4.22562 14.331C3.47611 14.3038 3.4761 14.304 3.47609 14.3043C3.47609 14.3044 3.47608 14.3046 3.47607 14.3048C3.47606 14.3051 3.47605 14.3055 3.47604 14.3059C3.47601 14.3066 3.47599 14.3074 3.47596 14.3082C3.47591 14.3098 3.47586 14.3115 3.47581 14.3135C3.47572 14.3173 3.47562 14.3217 3.47555 14.3268C3.47541 14.3368 3.47535 14.3492 3.4755 14.3636C3.47581 14.3924 3.47697 14.4303 3.48015 14.4748C3.48632 14.5614 3.50094 14.6854 3.53749 14.8224C3.60135 15.0618 3.79547 15.5563 4.35754 15.7307L4.80208 14.2981C4.88731 14.3246 4.94444 14.3785 4.97199 14.4162C4.99341 14.4455 4.99279 14.4582 4.98681 14.4358C4.98167 14.4165 4.97802 14.3915 4.97635 14.3681C4.9756 14.3576 4.97545 14.3503 4.97542 14.3476C4.9754 14.3464 4.97542 14.3465 4.9754 14.3481C4.97539 14.349 4.97536 14.3502 4.97532 14.3519C4.9753 14.3527 4.97527 14.3537 4.97524 14.3548C4.97522 14.3553 4.9752 14.3559 4.97518 14.3564C4.97517 14.3567 4.97516 14.357 4.97515 14.3574C4.97515 14.3575 4.97514 14.3577 4.97514 14.3578C4.97513 14.3581 4.97512 14.3583 4.22562 14.331ZM4.35347 15.7294C4.60119 15.8079 4.85504 15.8151 5.10154 15.7443C5.33446 15.6775 5.51666 15.5537 5.6518 15.4405C5.78507 15.3288 5.90373 15.2003 6.0001 15.0927C6.10828 14.9718 6.18801 14.878 6.29081 14.7682L5.19586 13.7429C5.07921 13.8675 4.9615 14.004 4.88251 14.0922C4.79171 14.1936 4.73349 14.253 4.68846 14.2907C4.6453 14.3268 4.64777 14.314 4.68782 14.3025C4.74145 14.2871 4.78929 14.294 4.80615 14.2994L4.35347 15.7294ZM6.30517 14.7524L7.12372 13.8267L6.00005 12.8331L5.1815 13.7587L6.30517 14.7524ZM6.49974 14.0773C8.86239 14.2738 10.688 13.8263 10.9707 13.7352L10.5106 12.3075C10.5124 12.3069 10.5054 12.3092 10.4867 12.3143C10.4694 12.3191 10.4456 12.3254 10.4154 12.3329C10.355 12.3479 10.2721 12.3671 10.1688 12.3885C9.96208 12.4313 9.67684 12.4821 9.32857 12.5258C8.631 12.6132 7.68913 12.6711 6.62404 12.5825L6.49974 14.0773ZM10.969 13.7358C10.969 13.7358 10.9705 13.7353 10.9739 13.7343C10.9772 13.7333 10.9818 13.732 10.9878 13.7304C11.0001 13.727 11.0157 13.7229 11.036 13.7177C11.0674 13.7097 11.1371 13.6923 11.1904 13.6785C11.3142 13.6466 11.4729 13.6034 11.6527 13.5431C12.012 13.4225 12.4599 13.2323 12.9116 12.916C13.8407 12.2655 14.703 11.1382 14.9392 9.21998L13.4504 9.03663C13.2658 10.5362 12.6297 11.2823 12.0512 11.6873C11.4213 12.1283 10.8589 12.1962 10.5124 12.307L10.969 13.7358ZM14.9393 9.21939C15.3785 5.62944 14.7724 3.06542 13.317 1.80235L12.3339 2.93522C13.1968 3.68407 13.8749 5.56788 13.4504 9.03722L14.9393 9.21939ZM12.8255 1.61878H12.8184V3.11878H12.8255V1.61878ZM13.3265 1.8171C12.8292 1.35909 11.2392 0.272869 7.92477 0.260827L7.91932 1.76082C10.8865 1.7716 12.1081 2.73417 12.3104 2.92047L13.3265 1.8171ZM7.92204 1.01082C7.97137 0.262446 7.97132 0.262442 7.97127 0.262439C7.97125 0.262438 7.9712 0.262434 7.97117 0.262432C7.97109 0.262427 7.97102 0.262422 7.97094 0.262417C7.97078 0.262407 7.97061 0.262395 7.97042 0.262383C7.97004 0.262359 7.96961 0.262331 7.96912 0.2623C7.96814 0.262237 7.96693 0.262161 7.9655 0.262073C7.96263 0.261896 7.95886 0.26167 7.95421 0.261403C7.94491 0.26087 7.93209 0.260177 7.91593 0.259396C7.88361 0.257837 7.83788 0.255929 7.78018 0.254273C7.66487 0.250963 7.50126 0.248642 7.30099 0.252159L7.32734 1.75193C7.50189 1.74886 7.64222 1.75093 7.73714 1.75366C7.78456 1.75502 7.82052 1.75654 7.84361 1.75765C7.85516 1.75821 7.86347 1.75866 7.86838 1.75895C7.87084 1.75909 7.87244 1.75918 7.87317 1.75923C7.87354 1.75925 7.87368 1.75926 7.87361 1.75926C7.87357 1.75925 7.87348 1.75925 7.87333 1.75924C7.87326 1.75923 7.87317 1.75923 7.87306 1.75922C7.87301 1.75922 7.87296 1.75921 7.8729 1.75921C7.87287 1.75921 7.87283 1.7592 7.87281 1.7592C7.87276 1.7592 7.87272 1.7592 7.92204 1.01082ZM7.35793 2.74438C7.50632 2.74336 7.62433 2.74602 7.70352 2.74882C7.74308 2.75021 7.77285 2.75164 7.79178 2.75265C7.80124 2.75316 7.80798 2.75356 7.81187 2.7538C7.81381 2.75392 7.81504 2.754 7.81554 2.75403C7.81579 2.75405 7.81586 2.75405 7.81574 2.75405C7.81568 2.75404 7.81557 2.75403 7.81542 2.75402C7.81535 2.75402 7.81526 2.75401 7.81516 2.75401C7.81511 2.754 7.81506 2.754 7.815 2.75399C7.81497 2.75399 7.81493 2.75399 7.81492 2.75399C7.81487 2.75399 7.81483 2.75398 7.86718 2.00581C7.91954 1.25764 7.91949 1.25764 7.91944 1.25763C7.91943 1.25763 7.91938 1.25763 7.91934 1.25763C7.91928 1.25762 7.91921 1.25762 7.91913 1.25761C7.91899 1.2576 7.91883 1.25759 7.91866 1.25758C7.91832 1.25756 7.91793 1.25753 7.91749 1.2575C7.91662 1.25744 7.91555 1.25737 7.9143 1.25729C7.91179 1.25712 7.90853 1.25691 7.90454 1.25666C7.89654 1.25617 7.88559 1.25552 7.87182 1.25479C7.8443 1.25332 7.80547 1.25148 7.75642 1.24975C7.6584 1.24629 7.51921 1.24324 7.34765 1.24442L7.35793 2.74438ZM7.8652 2.75581C10.3825 2.76246 11.4591 3.52021 11.592 3.63983L12.5956 2.52505C12.1298 2.1057 10.6687 1.26321 7.86916 1.25581L7.8652 2.75581ZM11.6058 3.65192C11.9218 3.9228 12.2361 4.45442 12.4189 5.3373C12.5996 6.20987 12.6374 7.36159 12.4605 8.77767L13.9489 8.96367C14.1402 7.43297 14.1105 6.10884 13.8878 5.03313C13.6672 3.96773 13.2419 3.07862 12.5819 2.51296L11.6058 3.65192ZM12.4602 8.77953C12.3103 10.0041 11.8109 10.5661 11.3839 10.8564C10.8894 11.1927 10.5008 11.206 10.1511 11.3175L10.6069 12.7466C10.603 12.7478 10.611 12.7452 10.6458 12.7369C10.6819 12.7282 10.7124 12.7214 10.769 12.708C10.8705 12.6842 11.0041 12.6513 11.1557 12.6045C11.4591 12.5108 11.841 12.3595 12.2274 12.0968C13.0292 11.5516 13.7492 10.5945 13.9491 8.96181L12.4602 8.77953ZM10.1504 11.3178C10.1545 11.3165 10.1323 11.3233 10.0762 11.3371C10.0247 11.3498 9.95333 11.3663 9.86389 11.3848C9.68506 11.422 9.43773 11.4668 9.13682 11.5067C8.53367 11.5866 7.72508 11.6456 6.8269 11.5878L6.73051 13.0847C8.74851 13.2146 10.3628 12.8247 10.6076 12.7464L10.1504 11.3178ZM6.77871 12.3362C6.20121 11.8577 6.20122 11.8577 6.20121 11.8577C6.2012 11.8577 6.20119 11.8577 6.20117 11.8577C6.20114 11.8578 6.20108 11.8579 6.201 11.8579C6.20085 11.8581 6.20061 11.8584 6.20028 11.8588C6.19963 11.8596 6.19864 11.8608 6.19732 11.8624C6.19468 11.8656 6.19072 11.8704 6.18551 11.8766C6.17511 11.8892 6.15973 11.9077 6.13996 11.9314C6.10042 11.979 6.04335 12.0475 5.97343 12.1311C5.83354 12.2985 5.64257 12.526 5.43798 12.767C5.01777 13.262 4.57292 13.7748 4.37759 13.969L5.43511 15.0328C5.68571 14.7837 6.17704 14.2142 6.58152 13.7377C6.78927 13.493 6.98279 13.2624 7.12428 13.0932C7.19506 13.0085 7.25292 12.939 7.29313 12.8907C7.31323 12.8665 7.32893 12.8476 7.33964 12.8347C7.34499 12.8283 7.3491 12.8233 7.35188 12.82C7.35328 12.8183 7.35434 12.817 7.35506 12.8162C7.35542 12.8157 7.3557 12.8154 7.35589 12.8152C7.35598 12.815 7.35605 12.815 7.35611 12.8149C7.35613 12.8149 7.35615 12.8148 7.35617 12.8148C7.35618 12.8148 7.3562 12.8148 6.77871 12.3362ZM4.35154 13.9962C4.38941 13.9546 4.44644 13.9103 4.52531 13.8797C4.59688 13.8519 4.71407 13.8255 4.85932 13.857L4.54169 15.323C4.92064 15.4051 5.25989 15.2268 5.46116 15.0056L4.35154 13.9962ZM4.87842 13.8614C5.00183 13.8915 5.11257 13.9571 5.1972 14.0463C5.27586 14.1291 5.31369 14.2125 5.33148 14.2633C5.3626 14.3522 5.35508 14.4066 5.35614 14.3756L3.85702 14.3242C3.85369 14.4214 3.85539 14.5866 3.9157 14.7589C3.98432 14.9549 4.16167 15.2305 4.52259 15.3186L4.87842 13.8614ZM5.35657 14.3543L5.37018 12.0022L3.8702 11.9935L3.85659 14.3456L5.35657 14.3543ZM4.82007 11.275C3.72182 10.9713 3.22671 10.2814 2.98024 9.45896C2.71658 8.5791 2.75525 7.59971 2.77087 6.80278L1.27116 6.77338C1.25693 7.499 1.19838 8.73826 1.54337 9.88953C1.90555 11.0982 2.72495 12.2519 4.4203 12.7207L4.82007 11.275ZM2.77082 6.80494C2.80386 5.33552 3.08213 4.34118 3.71969 3.70889L2.66344 2.64384C1.59981 3.69868 1.30663 5.19555 1.2712 6.77122L2.77082 6.80494ZM3.69457 3.73268C4.12475 3.34372 4.77527 3.08696 5.49794 2.93336C6.20718 2.78262 6.9058 2.74769 7.35741 2.74438L7.34641 1.24442C6.84034 1.24813 6.03133 1.28649 5.1861 1.46614C4.35428 1.64293 3.40347 1.97364 2.68856 2.62005L3.69457 3.73268ZM7.35191 2.7444H7.35279V1.2444H7.35191V2.7444ZM7.57102 2.76655C7.44906 2.76532 7.32806 2.78824 7.21501 2.83399L7.77768 4.22446C7.70725 4.25296 7.63188 4.26724 7.5559 4.26647L7.57102 2.76655ZM7.21501 2.83399C7.10195 2.87974 6.99906 2.94742 6.91228 3.03312L7.96626 4.10041C7.9122 4.1538 7.84811 4.19596 7.77768 4.22446L7.21501 2.83399ZM6.91228 3.03312C6.82549 3.11882 6.75653 3.22085 6.70937 3.33332L8.09267 3.9134C8.06329 3.98346 8.02033 4.04702 7.96626 4.10041L6.91228 3.03312ZM6.70937 3.33332C6.66221 3.4458 6.63777 3.5665 6.63746 3.68846L8.13746 3.69217C8.13727 3.76815 8.12205 3.84334 8.09267 3.9134L6.70937 3.33332ZM6.63746 3.69032C6.63746 4.20892 7.05923 4.61632 7.56346 4.61632V3.11632C7.87545 3.11632 8.13746 3.36834 8.13746 3.69032H6.63746ZM7.57772 4.61618C7.91392 4.60979 8.24805 4.67001 8.56085 4.79339L9.11122 3.398C8.61423 3.20198 8.08335 3.10629 7.5492 3.11645L7.57772 4.61618ZM8.56085 4.79339C8.87365 4.91676 9.15894 5.10085 9.40025 5.33502L10.4449 4.25856C10.0615 3.8865 9.60821 3.59403 9.11122 3.398L8.56085 4.79339ZM9.40006 5.33484C9.86134 5.78278 10.1227 6.40496 10.1329 7.34444L11.6328 7.3281C11.6194 6.0915 11.2592 5.04938 10.4451 4.25874L9.40006 5.33484ZM10.1329 7.33627C10.1329 7.8405 10.5403 8.26227 11.0589 8.26227V6.76227C11.3809 6.76227 11.6329 7.02428 11.6329 7.33627H10.1329ZM11.8089 7.51227V7.50525H10.3089V7.51227H11.8089ZM11.057 8.25525C11.3012 8.25587 11.5359 8.1599 11.7097 7.98825L10.6557 6.92096C10.7636 6.81443 10.9092 6.75486 11.0608 6.75525L11.057 8.25525ZM11.7097 7.98825C11.8835 7.81661 11.9824 7.58321 11.9848 7.33894L10.4849 7.32395C10.4864 7.17234 10.5478 7.02749 10.6557 6.92096L11.7097 7.98825ZM11.9842 7.36263C12.0098 6.7489 11.9102 6.13639 11.6917 5.56232L10.2898 6.09599C10.436 6.48 10.5026 6.88972 10.4855 7.30026L11.9842 7.36263ZM11.6917 5.56232C11.4732 4.98825 11.1402 4.46462 10.713 4.02325L9.63514 5.06647C9.92091 5.36171 10.1437 5.71198 10.2898 6.09599L11.6917 5.56232ZM10.6982 4.00846C9.85507 3.18446 8.78288 2.76607 7.56346 2.76607V4.26607C8.41478 4.26607 9.10346 4.54729 9.64985 5.08125L10.6982 4.00846ZM6.81346 3.51607V3.51651H8.31346V3.51607H6.81346ZM5.35845 3.17686C5.06465 3.13394 4.76502 3.19291 4.50941 3.34397L5.27257 4.63532C5.23313 4.65863 5.1869 4.66773 5.14158 4.6611L5.35845 3.17686ZM4.89099 3.23965H4.88177V4.73965H4.89099V3.23965ZM4.5025 3.34261C4.18324 3.52976 3.89563 3.76629 3.65037 4.04341L4.77365 5.03752C4.91393 4.87901 5.07844 4.74372 5.26105 4.63668L4.5025 3.34261ZM3.64475 4.04983C3.40904 4.32236 3.24309 4.64307 3.19802 4.99934L4.68615 5.18762C4.68672 5.18312 4.69458 5.12901 4.77926 5.0311L3.64475 4.04983ZM3.19802 4.99934C3.17115 5.21166 3.18917 5.42756 3.25377 5.63461L4.6857 5.18789L4.68615 5.18763L3.19802 4.99934ZM3.57665 6.04998L3.58806 6.05701L4.37423 4.77954L4.36282 4.77251L3.57665 6.04998ZM3.27112 5.65985C3.46842 6.23975 3.72639 6.79812 4.04192 7.32433L5.32837 6.55293C5.06806 6.11881 4.85465 5.65718 4.69118 5.1767L3.27112 5.65985ZM4.02793 7.29997C4.42991 8.03111 4.92462 8.70729 5.49977 9.31174L6.58644 8.27774C6.10029 7.76683 5.68214 7.19529 5.34236 6.57729L4.02793 7.29997ZM5.42646 9.22165L5.44226 9.24447L6.67555 8.39065L6.65975 8.36783L5.42646 9.22165ZM5.61401 9.42136L5.63903 9.43979L6.52882 8.2322L6.5038 8.21377L5.61401 9.42136ZM5.51448 9.32409L5.53028 9.34252L6.66917 8.36634L6.65337 8.34791L5.51448 9.32409ZM5.61164 9.42388L5.63007 9.43968L6.60625 8.30079L6.58781 8.28499L5.61164 9.42388ZM5.60135 9.41374C6.20732 9.98995 6.88439 10.4864 7.61613 10.8911L8.34207 9.57846C7.72207 9.23558 7.1484 8.81493 6.63497 8.32672L5.60135 9.41374ZM7.62054 10.8935C8.40637 11.3213 8.93121 11.5509 9.29057 11.6563L9.71273 10.2169C9.50942 10.1573 9.09676 9.98923 8.33766 9.57604L7.62054 10.8935ZM8.75165 10.9366V10.941H10.2516V10.9366H8.75165ZM9.28404 11.6587C9.43033 11.7031 9.57872 11.7274 9.73471 11.7274V10.2274C9.73544 10.2274 9.73627 10.2275 9.73589 10.2274C9.73522 10.2273 9.73014 10.2265 9.71926 10.2232L9.28404 11.6587ZM9.78951 11.7254C10.1964 11.6956 10.5815 11.5304 10.8836 11.2562L9.87532 10.1456C9.82137 10.1946 9.75258 10.2241 9.6799 10.2294L9.78951 11.7254ZM10.8778 11.2613C11.1558 11.0142 11.3914 10.7232 11.5755 10.4L10.2719 9.65784C10.1688 9.83894 10.0368 10.002 9.88106 10.1404L10.8778 11.2613ZM11.6737 10.0289V10.0245H10.1737V10.0289H11.6737ZM11.5861 10.3764C11.7162 10.1313 11.7852 9.84115 11.734 9.53764C11.6823 9.23027 11.5182 8.97568 11.2991 8.79275L10.3376 9.94402C10.313 9.92348 10.2689 9.87013 10.2549 9.78682C10.2415 9.70737 10.2659 9.66407 10.2613 9.67273L11.5861 10.3764ZM11.3119 8.8037C10.8865 8.43184 10.4265 8.10155 9.93814 7.81734L9.18366 9.11379C9.5893 9.34985 9.9714 9.62419 10.3248 9.93307L11.3119 8.8037ZM9.91855 7.80633C9.3214 7.48237 8.59971 7.62813 8.23389 8.11633L9.43427 9.01582C9.39896 9.06294 9.36313 9.08963 9.33878 9.104C9.31343 9.11896 9.29116 9.12623 9.27351 9.12963C9.25512 9.13318 9.23883 9.1331 9.22547 9.13106C9.21882 9.13005 9.21342 9.12863 9.20938 9.12727C9.2074 9.1266 9.20587 9.12599 9.20481 9.12553C9.20374 9.12506 9.20323 9.12478 9.20325 9.1248L9.91855 7.80633ZM8.24654 8.09993L7.98363 8.4313L9.15872 9.36359L9.42163 9.03222L8.24654 8.09993ZM7.99085 8.42235C8.07852 8.31526 8.17822 8.29563 8.19052 8.29329C8.2027 8.29097 8.21181 8.29044 8.21898 8.29031C8.22318 8.29024 8.22834 8.29029 8.23489 8.29058C8.23822 8.29072 8.24201 8.29093 8.24632 8.29123C8.24849 8.29138 8.25079 8.29155 8.25325 8.29176C8.25448 8.29186 8.25575 8.29196 8.25706 8.29208C8.25772 8.29213 8.25838 8.29219 8.25906 8.29226C8.2594 8.29229 8.25974 8.29232 8.26008 8.29235C8.26025 8.29236 8.26051 8.29239 8.2606 8.2924C8.26086 8.29242 8.26112 8.29244 8.19153 9.03921C8.12194 9.78597 8.1222 9.786 8.12247 9.78602C8.12255 9.78603 8.12282 9.78605 8.123 9.78607C8.12336 9.7861 8.12372 9.78614 8.12409 9.78617C8.12482 9.78624 8.12558 9.7863 8.12635 9.78637C8.1279 9.78651 8.12952 9.78664 8.13122 9.78678C8.13461 9.78706 8.13831 9.78734 8.1423 9.78762C8.15027 9.78817 8.15946 9.78871 8.16974 9.78916C8.19021 9.79005 8.21556 9.7906 8.24483 9.79009C8.30212 9.7891 8.38088 9.78399 8.47114 9.7668C8.63957 9.73473 8.9291 9.64421 9.15151 9.37254L7.99085 8.42235ZM7.79404 8.40321L7.78701 8.40759L8.582 9.6796L8.58902 9.67521L7.79404 8.40321ZM8.37015 8.31694C7.68762 8.14257 7.2472 7.7115 6.9653 7.2923C6.82437 7.08273 6.7289 6.88387 6.66946 6.73917C6.63997 6.66738 6.62 6.61054 6.60818 6.5745C6.60228 6.55654 6.59846 6.5439 6.59654 6.53734C6.59557 6.53407 6.59509 6.53232 6.59506 6.53221C6.59504 6.53215 6.59514 6.53251 6.59535 6.53328C6.59545 6.53367 6.59559 6.53416 6.59575 6.53475C6.59583 6.53505 6.59591 6.53538 6.59601 6.53573C6.59605 6.53591 6.59613 6.53619 6.59615 6.53628C6.59623 6.53657 6.59631 6.53687 5.87106 6.72795C5.14581 6.91903 5.14589 6.91935 5.14597 6.91967C5.146 6.91978 5.14609 6.92011 5.14615 6.92034C5.14628 6.92081 5.14641 6.9213 5.14655 6.92183C5.14683 6.92287 5.14714 6.92403 5.14749 6.92531C5.14818 6.92787 5.149 6.93088 5.14996 6.93433C5.15189 6.94125 5.15436 6.94994 5.15741 6.96033C5.16351 6.98108 5.17194 7.00863 5.18294 7.04213C5.20489 7.10904 5.23726 7.20031 5.28197 7.30916C5.37094 7.52574 5.51141 7.81832 5.72056 8.12934C6.13882 8.75132 6.85512 9.47807 7.99887 9.77026L8.37015 8.31694ZM5.87106 6.72795C6.61799 6.66017 6.61801 6.66043 6.61803 6.66069C6.61804 6.66077 6.61807 6.66103 6.61808 6.6612C6.61811 6.66154 6.61814 6.66188 6.61817 6.66221C6.61823 6.66289 6.61829 6.66355 6.61834 6.6642C6.61845 6.66549 6.61856 6.66675 6.61865 6.66797C6.61884 6.6704 6.61901 6.67268 6.61915 6.6748C6.61944 6.67905 6.61964 6.68275 6.61977 6.68598C6.62003 6.69234 6.62007 6.69731 6.61999 6.70133C6.61986 6.70801 6.61935 6.71723 6.61685 6.73003C6.61458 6.74164 6.59249 6.8533 6.47043 6.94587L5.56399 5.75073C5.27296 5.97147 5.17779 6.27295 5.14469 6.44235C5.12677 6.53404 5.12141 6.61414 5.12028 6.67198C5.1197 6.70158 5.12019 6.7272 5.12104 6.74781C5.12147 6.75817 5.12199 6.7674 5.12253 6.77539C5.1228 6.77939 5.12307 6.7831 5.12334 6.78649C5.12348 6.78818 5.12361 6.7898 5.12374 6.79135C5.12381 6.79212 5.12387 6.79287 5.12394 6.7936C5.12397 6.79397 5.124 6.79433 5.12403 6.79468C5.12405 6.79486 5.12407 6.79513 5.12408 6.79521C5.1241 6.79548 5.12413 6.79574 5.87106 6.72795ZM6.48763 6.93243L6.81681 6.66734L5.87597 5.49908L5.54679 5.76417L6.48763 6.93243ZM6.81964 6.66504C7.24946 6.31544 7.45344 5.61375 7.09805 4.98327L5.79135 5.71984C5.78392 5.70665 5.77477 5.67344 5.78269 5.63399C5.78606 5.61725 5.7925 5.59907 5.80387 5.57955C5.81454 5.56123 5.83505 5.53235 5.87314 5.50137L6.81964 6.66504ZM7.09428 4.97666C6.81141 4.48653 6.4811 4.02536 6.10811 3.59978L4.98004 4.58843C5.28832 4.94019 5.56132 5.32136 5.79513 5.72646L7.09428 4.97666ZM6.1261 3.62109C5.94001 3.39211 5.67894 3.23632 5.38906 3.18127L5.10921 4.65494C5.05133 4.64395 4.9992 4.61284 4.96205 4.56712L6.1261 3.62109ZM4.7188 4.44844L4.71968 4.44931L5.78034 3.38865L5.77946 3.38778L4.7188 4.44844ZM7.86718 3.6904C7.60368 3.6904 7.35156 3.79752 7.17358 3.99937C7.00805 4.1871 6.94203 4.41547 6.94267 4.61874C6.9433 4.82218 7.01084 5.05003 7.17736 5.23669C7.35613 5.43707 7.6076 5.5424 7.86938 5.5424V4.0424C8.01352 4.0424 8.17677 4.10372 8.29666 4.23811C8.40431 4.35877 8.4423 4.49861 8.44266 4.61406C8.44302 4.72933 8.406 4.8697 8.29867 4.99143C8.17888 5.12728 8.01415 5.1904 7.86718 5.1904V3.6904ZM7.85721 5.5423C8.04848 5.5454 8.23726 5.58617 8.41277 5.66226L9.00948 4.28606C8.65315 4.13156 8.26987 4.0488 7.88154 4.0425L7.85721 5.5423ZM8.41277 5.66226C8.58828 5.73836 8.74707 5.8483 8.88006 5.9858L9.95821 4.94292C9.68819 4.66376 9.3658 4.44056 9.00948 4.28606L8.41277 5.66226ZM8.86347 5.96808C8.97989 6.0965 9.06935 6.24698 9.12655 6.4106L10.5425 5.91561C10.4191 5.5625 10.226 5.23776 9.9748 4.96063L8.86347 5.96808ZM9.12655 6.4106C9.18375 6.57422 9.20752 6.74766 9.19647 6.92064L10.6934 7.0163C10.7173 6.643 10.666 6.26871 10.5425 5.91561L9.12655 6.4106ZM9.19505 6.98149C9.19926 7.22373 9.29814 7.45468 9.47052 7.6249L10.5245 6.55761C10.6311 6.66286 10.6922 6.80567 10.6948 6.95545L9.19505 6.98149ZM9.47052 7.6249C9.64289 7.79513 9.87507 7.8911 10.1173 7.89227L10.1245 6.39228C10.2744 6.39301 10.4179 6.45235 10.5245 6.55761L9.47052 7.6249ZM9.52435 7.59679L9.53137 7.60601L10.7246 6.69698L10.7175 6.68776L9.52435 7.59679ZM10.1335 7.90147C10.3771 7.89967 10.6101 7.80212 10.7824 7.62989L9.7217 6.56923C9.82806 6.46287 9.972 6.40263 10.1224 6.40151L10.1335 7.90147ZM10.7824 7.62989C10.9546 7.45767 11.0521 7.2246 11.0539 6.98104L9.55398 6.96994C9.5551 6.81953 9.61534 6.67559 9.7217 6.56923L10.7824 7.62989ZM11.0538 6.99248C11.0737 6.11466 10.7952 5.33985 10.2331 4.72032L9.1222 5.72824C9.41068 6.04619 9.56587 6.4415 9.55416 6.95851L11.0538 6.99248ZM10.2318 4.71889C9.64933 4.08021 8.85736 3.75483 7.94352 3.69216L7.84088 5.18864C8.45003 5.23042 8.85099 5.43085 9.12349 5.72966L10.2318 4.71889ZM7.8922 3.6904H7.86718V5.1904H7.8922V3.6904ZM8.17747 4.63699C7.91471 4.6293 7.65881 4.72759 7.47334 4.9243C7.30057 5.10753 7.22678 5.33501 7.22091 5.53938C7.21504 5.74364 7.27557 5.97409 7.4361 6.16635C7.60854 6.37286 7.85766 6.48756 8.122 6.49537L8.16626 4.99602C8.31166 5.00031 8.47272 5.0675 8.58749 5.20494C8.69034 5.32813 8.72358 5.46794 8.72029 5.58245C8.717 5.69706 8.67566 5.83566 8.5647 5.95334C8.44105 6.08448 8.27633 6.14052 8.13361 6.13635L8.17747 4.63699ZM8.10548 6.4947C8.28014 6.50371 8.28562 6.54487 8.25653 6.51482C8.23287 6.49039 8.27936 6.51267 8.29177 6.71504L9.78896 6.62324C9.7645 6.22431 9.65211 5.7998 9.33417 5.47142C9.01079 5.13743 8.58658 5.01752 8.18277 4.99669L8.10548 6.4947ZM8.29048 6.68232C8.29473 6.92393 8.39339 7.15428 8.56534 7.32406L9.61924 6.25668C9.72622 6.36232 9.78761 6.50564 9.79025 6.65596L8.29048 6.68232ZM8.56534 7.32406C8.73729 7.49384 8.96888 7.58956 9.21052 7.59074L9.21782 6.09076C9.36817 6.09149 9.51225 6.15105 9.61924 6.25668L8.56534 7.32406ZM9.21417 7.59075H9.22119V6.09075H9.21417V7.59075ZM9.25332 7.59006C9.3763 7.58479 9.497 7.55507 9.60838 7.50264L8.96952 6.14549C9.03839 6.11307 9.11302 6.0947 9.18907 6.09144L9.25332 7.59006ZM9.60838 7.50264C9.71975 7.45022 9.81957 7.37613 9.902 7.28471L8.78796 6.28025C8.83893 6.22372 8.90065 6.17791 8.96952 6.14549L9.60838 7.50264ZM9.902 7.28471C9.98442 7.19329 10.0478 7.08636 10.0885 6.97017L8.67266 6.47474C8.6978 6.40289 8.737 6.33678 8.78796 6.28025L9.902 7.28471ZM10.0885 6.97017C10.1291 6.85397 10.1462 6.73085 10.1388 6.60799L8.64154 6.69869C8.63694 6.62273 8.64751 6.5466 8.67266 6.47474L10.0885 6.97017ZM10.1391 6.61392C10.1119 6.09632 9.9509 5.59816 9.58404 5.21962C9.21422 4.83803 8.7206 4.66604 8.20285 4.63819L8.12228 6.13603C8.36338 6.149 8.46294 6.21818 8.5069 6.26354C8.55381 6.31194 8.62719 6.42648 8.64121 6.69276L10.1391 6.61392ZM8.16256 4.63711H8.15554V6.13711H8.16256V4.63711ZM8.90554 5.38711V5.38667H7.40554V5.38711H8.90554Z" fill="#383D54" mask="url(#path-1-inside-1_2948_111716)"/>
</svg>
