<svg width="16" height="16" viewBox="0 0 16 16" fill="none" xmlns="http://www.w3.org/2000/svg">
<path d="M5.98077 7.83721L5.97711 7.83068C5.8771 7.65209 5.83298 7.43716 5.91199 7.21728C5.97117 7.05262 6.08693 6.93843 6.12668 6.89923C6.12913 6.89681 6.1313 6.89467 6.13315 6.89283C6.16712 6.85885 6.20114 6.81756 6.24666 6.76229C6.27638 6.7262 6.31101 6.68416 6.35374 6.63432C6.37541 6.60904 6.38602 6.59362 6.40746 6.55261C6.3084 6.32531 6.04497 5.68077 5.92687 5.38638H5.6867C5.68676 5.38638 5.68675 5.38638 5.68667 5.38639C5.68588 5.38644 5.67869 5.38691 5.66826 5.3911C5.65913 5.39478 5.64092 5.4038 5.61719 5.42887C5.60576 5.44176 5.59356 5.45521 5.58076 5.46932C5.4225 5.64374 5.17337 5.91831 5.17337 6.47305C5.17337 6.76706 5.28366 7.08511 5.42581 7.36492C5.5628 7.63457 5.70878 7.82916 5.7455 7.87812L5.7467 7.87971L5.75103 7.88548L5.75518 7.89137C5.75934 7.89726 5.76531 7.90593 5.77306 7.91718C5.93969 8.15915 6.9278 9.59397 8.36477 10.214L8.36833 10.2155C8.7371 10.378 9.02344 10.4715 9.25281 10.5415L9.25998 10.5437L9.25996 10.5438C9.55025 10.6373 9.82398 10.6264 10.0756 10.5915C10.1417 10.5814 10.3178 10.519 10.503 10.4C10.5901 10.344 10.6632 10.2854 10.716 10.231C10.742 10.2042 10.7601 10.1815 10.7721 10.1637C10.7841 10.1457 10.7874 10.1366 10.7873 10.1367L10.7898 10.1295L10.7899 10.1295C10.8355 10.0035 10.8607 9.88947 10.8726 9.8003C10.857 9.79302 10.8406 9.78525 10.8237 9.77714C10.7729 9.75277 10.6793 9.70719 10.5671 9.65253C10.3327 9.53834 10.017 9.38453 9.84029 9.30176C9.6879 9.49981 9.47614 9.75074 9.40051 9.8375C9.30288 9.95383 9.14891 10.0788 8.92512 10.1047C8.72588 10.1278 8.55498 10.0609 8.43849 10.0014C8.42163 9.99351 8.39822 9.98353 8.36888 9.97104C8.15041 9.87803 7.60394 9.64537 7.00027 9.10594L5.98077 7.83721ZM5.98077 7.83721L5.98462 7.84363M5.98077 7.83721L5.98462 7.84363M5.98462 7.84363C6.08806 8.01602 6.44678 8.61217 7.0002 9.10588L5.98462 7.84363ZM12.3447 3.62482L12.3465 3.6266C13.4991 4.77927 14.1334 6.312 14.1334 7.94638C14.1334 11.3102 11.3906 14.053 8.0267 14.053C7.00435 14.053 5.99984 13.7944 5.10591 13.3073L4.93159 13.2123L4.73959 13.2628L2.07655 13.9628L2.78246 11.3711L2.83697 11.171L2.7338 10.991C2.20344 10.066 1.92003 9.01827 1.92003 7.93971C1.92003 4.57586 4.66284 1.83305 8.0267 1.83305L8.02844 1.83304C8.83081 1.83025 9.6257 1.98724 10.3668 2.29487C11.1078 2.6025 11.7802 3.05461 12.3447 3.62482ZM4.96945 13.0951L4.96944 13.0951L4.97245 13.0969C5.89551 13.642 6.94988 13.933 8.0267 13.933C11.3276 13.933 14.0202 11.251 14.0067 7.94615C14.0094 7.15877 13.8558 6.37866 13.555 5.65099C13.2541 4.92308 12.8118 4.2621 12.2537 3.70631C11.1265 2.5723 9.61916 1.94638 8.02003 1.94638C4.71722 1.94638 2.0267 4.6369 2.0267 7.93971L2.0267 7.94008C2.02753 9.06665 2.34502 10.1703 2.94293 11.1251L2.9429 11.1251L2.94655 11.1308L2.95892 11.1499L2.46435 12.9614L2.23627 13.7967L3.07379 13.5766L4.95007 13.0835L4.96945 13.0951ZM6.44138 6.62735C6.44136 6.62734 6.44121 6.62699 6.44094 6.62633L6.44138 6.62735Z" fill="#383D54" stroke="#383D54"/>
</svg>
